<svg xmlns="http://www.w3.org/2000/svg" xmlns:xlink="http://www.w3.org/1999/xlink" width="851" zoomAndPan="magnify" viewBox="0 0 638.25 157.5" height="210" preserveAspectRatio="xMidYMid meet" version="1.0"><defs><g/><clipPath id="9a6ca87ee9"><path d="M 19.5 0 L 617.5625 0 L 617.5625 156.386719 L 19.5 156.386719 Z M 19.5 0 " clip-rule="nonzero"/></clipPath><clipPath id="2c1f211be7"><path d="M 94.265625 0 L 542.839844 0 C 562.667969 0 581.683594 7.875 595.703125 21.898438 C 609.726562 35.917969 617.601562 54.933594 617.601562 74.761719 L 617.601562 81.625 C 617.601562 101.453125 609.726562 120.46875 595.703125 134.488281 C 581.683594 148.511719 562.667969 156.386719 542.839844 156.386719 L 94.265625 156.386719 C 74.4375 156.386719 55.417969 148.511719 41.398438 134.488281 C 27.378906 120.46875 19.5 101.453125 19.5 81.625 L 19.5 74.761719 C 19.5 54.933594 27.378906 35.917969 41.398438 21.898438 C 55.417969 7.875 74.4375 0 94.265625 0 Z M 94.265625 0 " clip-rule="nonzero"/></clipPath><linearGradient x1="0.00225788" gradientTransform="matrix(0.610889, 0, 0, 0.610889, 19.499815, 0.00000498418)" y1="128" x2="979.00222" gradientUnits="userSpaceOnUse" y2="128" id="af4989686a"><stop stop-opacity="1" stop-color="rgb(75.698853%, 99.998474%, 44.699097%)" offset="0"/><stop stop-opacity="1" stop-color="rgb(75.402832%, 99.861145%, 44.671631%)" offset="0.00390625"/><stop stop-opacity="1" stop-color="rgb(75.108337%, 99.723816%, 44.644165%)" offset="0.0078125"/><stop stop-opacity="1" stop-color="rgb(74.812317%, 99.584961%, 44.615173%)" offset="0.0117187"/><stop stop-opacity="1" stop-color="rgb(74.516296%, 99.447632%, 44.587708%)" offset="0.015625"/><stop stop-opacity="1" stop-color="rgb(74.220276%, 99.308777%, 44.560242%)" offset="0.0195312"/><stop stop-opacity="1" stop-color="rgb(73.924255%, 99.171448%, 44.532776%)" offset="0.0234375"/><stop stop-opacity="1" stop-color="rgb(73.628235%, 99.034119%, 44.50531%)" offset="0.0273437"/><stop stop-opacity="1" stop-color="rgb(73.33374%, 98.89679%, 44.477844%)" offset="0.03125"/><stop stop-opacity="1" stop-color="rgb(73.03772%, 98.757935%, 44.448853%)" offset="0.0351562"/><stop stop-opacity="1" stop-color="rgb(72.741699%, 98.620605%, 44.421387%)" offset="0.0390625"/><stop stop-opacity="1" stop-color="rgb(72.445679%, 98.48175%, 44.393921%)" offset="0.0429687"/><stop stop-opacity="1" stop-color="rgb(72.151184%, 98.344421%, 44.366455%)" offset="0.046875"/><stop stop-opacity="1" stop-color="rgb(71.855164%, 98.205566%, 44.338989%)" offset="0.0507812"/><stop stop-opacity="1" stop-color="rgb(71.559143%, 98.068237%, 44.311523%)" offset="0.0546875"/><stop stop-opacity="1" stop-color="rgb(71.263123%, 97.930908%, 44.282532%)" offset="0.0585937"/><stop stop-opacity="1" stop-color="rgb(70.968628%, 97.793579%, 44.255066%)" offset="0.0625"/><stop stop-opacity="1" stop-color="rgb(70.672607%, 97.654724%, 44.2276%)" offset="0.0664062"/><stop stop-opacity="1" stop-color="rgb(70.376587%, 97.517395%, 44.200134%)" offset="0.0703125"/><stop stop-opacity="1" stop-color="rgb(70.080566%, 97.37854%, 44.172668%)" offset="0.0742188"/><stop stop-opacity="1" stop-color="rgb(69.786072%, 97.241211%, 44.145203%)" offset="0.078125"/><stop stop-opacity="1" stop-color="rgb(69.490051%, 97.102356%, 44.116211%)" offset="0.0820312"/><stop stop-opacity="1" stop-color="rgb(69.194031%, 96.965027%, 44.088745%)" offset="0.0859375"/><stop stop-opacity="1" stop-color="rgb(68.89801%, 96.827698%, 44.061279%)" offset="0.0898438"/><stop stop-opacity="1" stop-color="rgb(68.60199%, 96.690369%, 44.033813%)" offset="0.09375"/><stop stop-opacity="1" stop-color="rgb(68.305969%, 96.551514%, 44.006348%)" offset="0.0976562"/><stop stop-opacity="1" stop-color="rgb(68.011475%, 96.414185%, 43.978882%)" offset="0.101562"/><stop stop-opacity="1" stop-color="rgb(67.715454%, 96.27533%, 43.94989%)" offset="0.105469"/><stop stop-opacity="1" stop-color="rgb(67.419434%, 96.138%, 43.922424%)" offset="0.109375"/><stop stop-opacity="1" stop-color="rgb(67.123413%, 96.000671%, 43.894958%)" offset="0.113281"/><stop stop-opacity="1" stop-color="rgb(66.828918%, 95.863342%, 43.867493%)" offset="0.117188"/><stop stop-opacity="1" stop-color="rgb(66.532898%, 95.724487%, 43.838501%)" offset="0.121094"/><stop stop-opacity="1" stop-color="rgb(66.236877%, 95.587158%, 43.811035%)" offset="0.125"/><stop stop-opacity="1" stop-color="rgb(65.940857%, 95.448303%, 43.783569%)" offset="0.128906"/><stop stop-opacity="1" stop-color="rgb(65.646362%, 95.310974%, 43.756104%)" offset="0.132812"/><stop stop-opacity="1" stop-color="rgb(65.350342%, 95.172119%, 43.728638%)" offset="0.136719"/><stop stop-opacity="1" stop-color="rgb(65.054321%, 95.03479%, 43.701172%)" offset="0.140625"/><stop stop-opacity="1" stop-color="rgb(64.758301%, 94.897461%, 43.67218%)" offset="0.144531"/><stop stop-opacity="1" stop-color="rgb(64.463806%, 94.760132%, 43.644714%)" offset="0.148438"/><stop stop-opacity="1" stop-color="rgb(64.167786%, 94.621277%, 43.617249%)" offset="0.152344"/><stop stop-opacity="1" stop-color="rgb(63.871765%, 94.483948%, 43.589783%)" offset="0.15625"/><stop stop-opacity="1" stop-color="rgb(63.575745%, 94.345093%, 43.562317%)" offset="0.160156"/><stop stop-opacity="1" stop-color="rgb(63.279724%, 94.207764%, 43.534851%)" offset="0.164062"/><stop stop-opacity="1" stop-color="rgb(62.983704%, 94.070435%, 43.505859%)" offset="0.167969"/><stop stop-opacity="1" stop-color="rgb(62.689209%, 93.933105%, 43.478394%)" offset="0.171875"/><stop stop-opacity="1" stop-color="rgb(62.393188%, 93.79425%, 43.450928%)" offset="0.175781"/><stop stop-opacity="1" stop-color="rgb(62.097168%, 93.656921%, 43.423462%)" offset="0.179688"/><stop stop-opacity="1" stop-color="rgb(61.801147%, 93.518066%, 43.395996%)" offset="0.183594"/><stop stop-opacity="1" stop-color="rgb(61.506653%, 93.380737%, 43.36853%)" offset="0.1875"/><stop stop-opacity="1" stop-color="rgb(61.210632%, 93.241882%, 43.339539%)" offset="0.191406"/><stop stop-opacity="1" stop-color="rgb(60.914612%, 93.104553%, 43.312073%)" offset="0.195312"/><stop stop-opacity="1" stop-color="rgb(60.618591%, 92.967224%, 43.284607%)" offset="0.199219"/><stop stop-opacity="1" stop-color="rgb(60.324097%, 92.829895%, 43.257141%)" offset="0.203125"/><stop stop-opacity="1" stop-color="rgb(60.028076%, 92.69104%, 43.229675%)" offset="0.207031"/><stop stop-opacity="1" stop-color="rgb(59.732056%, 92.553711%, 43.202209%)" offset="0.210938"/><stop stop-opacity="1" stop-color="rgb(59.436035%, 92.414856%, 43.173218%)" offset="0.214844"/><stop stop-opacity="1" stop-color="rgb(59.141541%, 92.277527%, 43.145752%)" offset="0.21875"/><stop stop-opacity="1" stop-color="rgb(58.84552%, 92.138672%, 43.118286%)" offset="0.222656"/><stop stop-opacity="1" stop-color="rgb(58.5495%, 92.001343%, 43.09082%)" offset="0.226562"/><stop stop-opacity="1" stop-color="rgb(58.253479%, 91.864014%, 43.063354%)" offset="0.230469"/><stop stop-opacity="1" stop-color="rgb(57.957458%, 91.726685%, 43.035889%)" offset="0.234375"/><stop stop-opacity="1" stop-color="rgb(57.661438%, 91.58783%, 43.006897%)" offset="0.238281"/><stop stop-opacity="1" stop-color="rgb(57.366943%, 91.4505%, 42.979431%)" offset="0.242188"/><stop stop-opacity="1" stop-color="rgb(57.070923%, 91.311646%, 42.951965%)" offset="0.246094"/><stop stop-opacity="1" stop-color="rgb(56.774902%, 91.174316%, 42.9245%)" offset="0.25"/><stop stop-opacity="1" stop-color="rgb(56.478882%, 91.036987%, 42.897034%)" offset="0.253906"/><stop stop-opacity="1" stop-color="rgb(56.184387%, 90.899658%, 42.869568%)" offset="0.257812"/><stop stop-opacity="1" stop-color="rgb(55.888367%, 90.760803%, 42.840576%)" offset="0.261719"/><stop stop-opacity="1" stop-color="rgb(55.592346%, 90.623474%, 42.81311%)" offset="0.265625"/><stop stop-opacity="1" stop-color="rgb(55.296326%, 90.484619%, 42.785645%)" offset="0.269531"/><stop stop-opacity="1" stop-color="rgb(55.001831%, 90.34729%, 42.758179%)" offset="0.273437"/><stop stop-opacity="1" stop-color="rgb(54.705811%, 90.208435%, 42.729187%)" offset="0.277344"/><stop stop-opacity="1" stop-color="rgb(54.40979%, 90.071106%, 42.701721%)" offset="0.28125"/><stop stop-opacity="1" stop-color="rgb(54.11377%, 89.933777%, 42.674255%)" offset="0.285156"/><stop stop-opacity="1" stop-color="rgb(53.819275%, 89.796448%, 42.64679%)" offset="0.289062"/><stop stop-opacity="1" stop-color="rgb(53.523254%, 89.657593%, 42.619324%)" offset="0.292969"/><stop stop-opacity="1" stop-color="rgb(53.227234%, 89.520264%, 42.591858%)" offset="0.296875"/><stop stop-opacity="1" stop-color="rgb(52.931213%, 89.381409%, 42.562866%)" offset="0.300781"/><stop stop-opacity="1" stop-color="rgb(52.635193%, 89.24408%, 42.5354%)" offset="0.304687"/><stop stop-opacity="1" stop-color="rgb(52.339172%, 89.10675%, 42.507935%)" offset="0.308594"/><stop stop-opacity="1" stop-color="rgb(52.044678%, 88.969421%, 42.480469%)" offset="0.3125"/><stop stop-opacity="1" stop-color="rgb(51.748657%, 88.830566%, 42.453003%)" offset="0.316406"/><stop stop-opacity="1" stop-color="rgb(51.452637%, 88.693237%, 42.425537%)" offset="0.320312"/><stop stop-opacity="1" stop-color="rgb(51.156616%, 88.554382%, 42.396545%)" offset="0.324219"/><stop stop-opacity="1" stop-color="rgb(50.862122%, 88.417053%, 42.36908%)" offset="0.328125"/><stop stop-opacity="1" stop-color="rgb(50.566101%, 88.278198%, 42.341614%)" offset="0.332031"/><stop stop-opacity="1" stop-color="rgb(50.270081%, 88.140869%, 42.314148%)" offset="0.335937"/><stop stop-opacity="1" stop-color="rgb(49.97406%, 88.00354%, 42.286682%)" offset="0.339844"/><stop stop-opacity="1" stop-color="rgb(49.679565%, 87.866211%, 42.259216%)" offset="0.34375"/><stop stop-opacity="1" stop-color="rgb(49.383545%, 87.727356%, 42.230225%)" offset="0.347656"/><stop stop-opacity="1" stop-color="rgb(49.087524%, 87.590027%, 42.202759%)" offset="0.351562"/><stop stop-opacity="1" stop-color="rgb(48.791504%, 87.451172%, 42.175293%)" offset="0.355469"/><stop stop-opacity="1" stop-color="rgb(48.495483%, 87.313843%, 42.147827%)" offset="0.359375"/><stop stop-opacity="1" stop-color="rgb(48.199463%, 87.174988%, 42.120361%)" offset="0.363281"/><stop stop-opacity="1" stop-color="rgb(47.904968%, 87.037659%, 42.092896%)" offset="0.367187"/><stop stop-opacity="1" stop-color="rgb(47.608948%, 86.90033%, 42.063904%)" offset="0.371094"/><stop stop-opacity="1" stop-color="rgb(47.312927%, 86.763%, 42.036438%)" offset="0.375"/><stop stop-opacity="1" stop-color="rgb(47.016907%, 86.624146%, 42.008972%)" offset="0.378906"/><stop stop-opacity="1" stop-color="rgb(46.722412%, 86.486816%, 41.981506%)" offset="0.382812"/><stop stop-opacity="1" stop-color="rgb(46.426392%, 86.347961%, 41.954041%)" offset="0.386719"/><stop stop-opacity="1" stop-color="rgb(46.130371%, 86.210632%, 41.926575%)" offset="0.390625"/><stop stop-opacity="1" stop-color="rgb(45.834351%, 86.073303%, 41.897583%)" offset="0.394531"/><stop stop-opacity="1" stop-color="rgb(45.539856%, 85.935974%, 41.870117%)" offset="0.398437"/><stop stop-opacity="1" stop-color="rgb(45.243835%, 85.797119%, 41.842651%)" offset="0.402344"/><stop stop-opacity="1" stop-color="rgb(44.947815%, 85.65979%, 41.815186%)" offset="0.40625"/><stop stop-opacity="1" stop-color="rgb(44.651794%, 85.520935%, 41.78772%)" offset="0.410156"/><stop stop-opacity="1" stop-color="rgb(44.3573%, 85.383606%, 41.760254%)" offset="0.414062"/><stop stop-opacity="1" stop-color="rgb(44.061279%, 85.244751%, 41.731262%)" offset="0.417969"/><stop stop-opacity="1" stop-color="rgb(43.765259%, 85.107422%, 41.703796%)" offset="0.421875"/><stop stop-opacity="1" stop-color="rgb(43.469238%, 84.970093%, 41.676331%)" offset="0.425781"/><stop stop-opacity="1" stop-color="rgb(43.173218%, 84.832764%, 41.648865%)" offset="0.429687"/><stop stop-opacity="1" stop-color="rgb(42.877197%, 84.693909%, 41.621399%)" offset="0.433594"/><stop stop-opacity="1" stop-color="rgb(42.582703%, 84.55658%, 41.593933%)" offset="0.4375"/><stop stop-opacity="1" stop-color="rgb(42.286682%, 84.417725%, 41.564941%)" offset="0.441406"/><stop stop-opacity="1" stop-color="rgb(41.990662%, 84.280396%, 41.537476%)" offset="0.445312"/><stop stop-opacity="1" stop-color="rgb(41.694641%, 84.141541%, 41.51001%)" offset="0.449219"/><stop stop-opacity="1" stop-color="rgb(41.400146%, 84.004211%, 41.482544%)" offset="0.453125"/><stop stop-opacity="1" stop-color="rgb(41.104126%, 83.866882%, 41.453552%)" offset="0.457031"/><stop stop-opacity="1" stop-color="rgb(40.808105%, 83.729553%, 41.426086%)" offset="0.460937"/><stop stop-opacity="1" stop-color="rgb(40.512085%, 83.590698%, 41.398621%)" offset="0.464844"/><stop stop-opacity="1" stop-color="rgb(40.21759%, 83.453369%, 41.371155%)" offset="0.46875"/><stop stop-opacity="1" stop-color="rgb(39.92157%, 83.314514%, 41.343689%)" offset="0.472656"/><stop stop-opacity="1" stop-color="rgb(39.625549%, 83.177185%, 41.316223%)" offset="0.476562"/><stop stop-opacity="1" stop-color="rgb(39.329529%, 83.039856%, 41.287231%)" offset="0.480469"/><stop stop-opacity="1" stop-color="rgb(39.035034%, 82.902527%, 41.259766%)" offset="0.484375"/><stop stop-opacity="1" stop-color="rgb(38.739014%, 82.763672%, 41.2323%)" offset="0.488281"/><stop stop-opacity="1" stop-color="rgb(38.442993%, 82.626343%, 41.204834%)" offset="0.492187"/><stop stop-opacity="1" stop-color="rgb(38.146973%, 82.487488%, 41.177368%)" offset="0.496094"/><stop stop-opacity="1" stop-color="rgb(37.850952%, 82.350159%, 41.149902%)" offset="0.5"/><stop stop-opacity="1" stop-color="rgb(37.554932%, 82.211304%, 41.120911%)" offset="0.503906"/><stop stop-opacity="1" stop-color="rgb(37.260437%, 82.073975%, 41.093445%)" offset="0.507812"/><stop stop-opacity="1" stop-color="rgb(36.964417%, 81.936646%, 41.065979%)" offset="0.511719"/><stop stop-opacity="1" stop-color="rgb(36.668396%, 81.799316%, 41.038513%)" offset="0.515625"/><stop stop-opacity="1" stop-color="rgb(36.372375%, 81.660461%, 41.011047%)" offset="0.519531"/><stop stop-opacity="1" stop-color="rgb(36.077881%, 81.523132%, 40.983582%)" offset="0.523437"/><stop stop-opacity="1" stop-color="rgb(35.78186%, 81.384277%, 40.95459%)" offset="0.527344"/><stop stop-opacity="1" stop-color="rgb(35.48584%, 81.246948%, 40.927124%)" offset="0.53125"/><stop stop-opacity="1" stop-color="rgb(35.189819%, 81.109619%, 40.899658%)" offset="0.535156"/><stop stop-opacity="1" stop-color="rgb(34.895325%, 80.97229%, 40.872192%)" offset="0.539062"/><stop stop-opacity="1" stop-color="rgb(34.599304%, 80.833435%, 40.844727%)" offset="0.542969"/><stop stop-opacity="1" stop-color="rgb(34.303284%, 80.696106%, 40.817261%)" offset="0.546875"/><stop stop-opacity="1" stop-color="rgb(34.007263%, 80.557251%, 40.788269%)" offset="0.550781"/><stop stop-opacity="1" stop-color="rgb(33.712769%, 80.419922%, 40.760803%)" offset="0.554687"/><stop stop-opacity="1" stop-color="rgb(33.416748%, 80.281067%, 40.733337%)" offset="0.558594"/><stop stop-opacity="1" stop-color="rgb(33.120728%, 80.143738%, 40.705872%)" offset="0.5625"/><stop stop-opacity="1" stop-color="rgb(32.824707%, 80.006409%, 40.678406%)" offset="0.566406"/><stop stop-opacity="1" stop-color="rgb(32.528687%, 79.86908%, 40.65094%)" offset="0.570312"/><stop stop-opacity="1" stop-color="rgb(32.232666%, 79.730225%, 40.621948%)" offset="0.574219"/><stop stop-opacity="1" stop-color="rgb(31.938171%, 79.592896%, 40.594482%)" offset="0.578125"/><stop stop-opacity="1" stop-color="rgb(31.642151%, 79.454041%, 40.567017%)" offset="0.582031"/><stop stop-opacity="1" stop-color="rgb(31.34613%, 79.316711%, 40.539551%)" offset="0.585937"/><stop stop-opacity="1" stop-color="rgb(31.05011%, 79.177856%, 40.512085%)" offset="0.589844"/><stop stop-opacity="1" stop-color="rgb(30.755615%, 79.040527%, 40.484619%)" offset="0.59375"/><stop stop-opacity="1" stop-color="rgb(30.459595%, 78.903198%, 40.455627%)" offset="0.597656"/><stop stop-opacity="1" stop-color="rgb(30.163574%, 78.765869%, 40.428162%)" offset="0.601562"/><stop stop-opacity="1" stop-color="rgb(29.867554%, 78.627014%, 40.400696%)" offset="0.605469"/><stop stop-opacity="1" stop-color="rgb(29.573059%, 78.489685%, 40.37323%)" offset="0.609375"/><stop stop-opacity="1" stop-color="rgb(29.277039%, 78.35083%, 40.344238%)" offset="0.613281"/><stop stop-opacity="1" stop-color="rgb(28.981018%, 78.213501%, 40.316772%)" offset="0.617187"/><stop stop-opacity="1" stop-color="rgb(28.684998%, 78.076172%, 40.289307%)" offset="0.621094"/><stop stop-opacity="1" stop-color="rgb(28.390503%, 77.938843%, 40.261841%)" offset="0.625"/><stop stop-opacity="1" stop-color="rgb(28.094482%, 77.799988%, 40.234375%)" offset="0.628906"/><stop stop-opacity="1" stop-color="rgb(27.798462%, 77.662659%, 40.206909%)" offset="0.632812"/><stop stop-opacity="1" stop-color="rgb(27.502441%, 77.523804%, 40.177917%)" offset="0.636719"/><stop stop-opacity="1" stop-color="rgb(27.206421%, 77.386475%, 40.150452%)" offset="0.640625"/><stop stop-opacity="1" stop-color="rgb(26.9104%, 77.24762%, 40.122986%)" offset="0.644531"/><stop stop-opacity="1" stop-color="rgb(26.615906%, 77.110291%, 40.09552%)" offset="0.648437"/><stop stop-opacity="1" stop-color="rgb(26.319885%, 76.972961%, 40.068054%)" offset="0.652344"/><stop stop-opacity="1" stop-color="rgb(26.023865%, 76.835632%, 40.040588%)" offset="0.65625"/><stop stop-opacity="1" stop-color="rgb(25.727844%, 76.696777%, 40.011597%)" offset="0.660156"/><stop stop-opacity="1" stop-color="rgb(25.43335%, 76.559448%, 39.984131%)" offset="0.664062"/><stop stop-opacity="1" stop-color="rgb(25.137329%, 76.420593%, 39.956665%)" offset="0.667969"/><stop stop-opacity="1" stop-color="rgb(24.841309%, 76.283264%, 39.929199%)" offset="0.671875"/><stop stop-opacity="1" stop-color="rgb(24.545288%, 76.144409%, 39.901733%)" offset="0.675781"/><stop stop-opacity="1" stop-color="rgb(24.250793%, 76.00708%, 39.874268%)" offset="0.679687"/><stop stop-opacity="1" stop-color="rgb(23.954773%, 75.869751%, 39.845276%)" offset="0.683594"/><stop stop-opacity="1" stop-color="rgb(23.658752%, 75.732422%, 39.81781%)" offset="0.6875"/><stop stop-opacity="1" stop-color="rgb(23.362732%, 75.593567%, 39.790344%)" offset="0.691406"/><stop stop-opacity="1" stop-color="rgb(23.068237%, 75.456238%, 39.762878%)" offset="0.695312"/><stop stop-opacity="1" stop-color="rgb(22.772217%, 75.317383%, 39.735413%)" offset="0.699219"/><stop stop-opacity="1" stop-color="rgb(22.476196%, 75.180054%, 39.707947%)" offset="0.703125"/><stop stop-opacity="1" stop-color="rgb(22.180176%, 75.042725%, 39.678955%)" offset="0.707031"/><stop stop-opacity="1" stop-color="rgb(21.884155%, 74.905396%, 39.651489%)" offset="0.710937"/><stop stop-opacity="1" stop-color="rgb(21.588135%, 74.766541%, 39.624023%)" offset="0.714844"/><stop stop-opacity="1" stop-color="rgb(21.29364%, 74.629211%, 39.596558%)" offset="0.71875"/><stop stop-opacity="1" stop-color="rgb(20.99762%, 74.490356%, 39.569092%)" offset="0.722656"/><stop stop-opacity="1" stop-color="rgb(20.701599%, 74.353027%, 39.541626%)" offset="0.726562"/><stop stop-opacity="1" stop-color="rgb(20.405579%, 74.214172%, 39.512634%)" offset="0.730469"/><stop stop-opacity="1" stop-color="rgb(20.111084%, 74.076843%, 39.485168%)" offset="0.734375"/><stop stop-opacity="1" stop-color="rgb(19.815063%, 73.939514%, 39.457703%)" offset="0.738281"/><stop stop-opacity="1" stop-color="rgb(19.519043%, 73.802185%, 39.430237%)" offset="0.742187"/><stop stop-opacity="1" stop-color="rgb(19.223022%, 73.66333%, 39.402771%)" offset="0.746094"/><stop stop-opacity="1" stop-color="rgb(18.928528%, 73.526001%, 39.375305%)" offset="0.75"/><stop stop-opacity="1" stop-color="rgb(18.632507%, 73.387146%, 39.346313%)" offset="0.753906"/><stop stop-opacity="1" stop-color="rgb(18.336487%, 73.249817%, 39.318848%)" offset="0.757812"/><stop stop-opacity="1" stop-color="rgb(18.040466%, 73.112488%, 39.291382%)" offset="0.761719"/><stop stop-opacity="1" stop-color="rgb(17.745972%, 72.975159%, 39.263916%)" offset="0.765625"/><stop stop-opacity="1" stop-color="rgb(17.449951%, 72.836304%, 39.234924%)" offset="0.769531"/><stop stop-opacity="1" stop-color="rgb(17.153931%, 72.698975%, 39.207458%)" offset="0.773438"/><stop stop-opacity="1" stop-color="rgb(16.85791%, 72.56012%, 39.179993%)" offset="0.777344"/><stop stop-opacity="1" stop-color="rgb(16.56189%, 72.422791%, 39.152527%)" offset="0.78125"/><stop stop-opacity="1" stop-color="rgb(16.265869%, 72.283936%, 39.125061%)" offset="0.785156"/><stop stop-opacity="1" stop-color="rgb(15.971375%, 72.146606%, 39.097595%)" offset="0.789062"/><stop stop-opacity="1" stop-color="rgb(15.675354%, 72.009277%, 39.068604%)" offset="0.792969"/><stop stop-opacity="1" stop-color="rgb(15.379333%, 71.871948%, 39.041138%)" offset="0.796875"/><stop stop-opacity="1" stop-color="rgb(15.083313%, 71.733093%, 39.013672%)" offset="0.800781"/><stop stop-opacity="1" stop-color="rgb(14.788818%, 71.595764%, 38.986206%)" offset="0.804688"/><stop stop-opacity="1" stop-color="rgb(14.492798%, 71.456909%, 38.95874%)" offset="0.808594"/><stop stop-opacity="1" stop-color="rgb(14.196777%, 71.31958%, 38.931274%)" offset="0.8125"/><stop stop-opacity="1" stop-color="rgb(13.900757%, 71.180725%, 38.902283%)" offset="0.816406"/><stop stop-opacity="1" stop-color="rgb(13.606262%, 71.043396%, 38.874817%)" offset="0.820312"/><stop stop-opacity="1" stop-color="rgb(13.310242%, 70.906067%, 38.847351%)" offset="0.824219"/><stop stop-opacity="1" stop-color="rgb(13.014221%, 70.768738%, 38.819885%)" offset="0.828125"/><stop stop-opacity="1" stop-color="rgb(12.718201%, 70.629883%, 38.792419%)" offset="0.832031"/><stop stop-opacity="1" stop-color="rgb(12.42218%, 70.492554%, 38.764954%)" offset="0.835938"/><stop stop-opacity="1" stop-color="rgb(12.12616%, 70.353699%, 38.735962%)" offset="0.839844"/><stop stop-opacity="1" stop-color="rgb(11.831665%, 70.21637%, 38.708496%)" offset="0.84375"/><stop stop-opacity="1" stop-color="rgb(11.535645%, 70.079041%, 38.68103%)" offset="0.847656"/><stop stop-opacity="1" stop-color="rgb(11.239624%, 69.941711%, 38.653564%)" offset="0.851562"/><stop stop-opacity="1" stop-color="rgb(10.943604%, 69.802856%, 38.626099%)" offset="0.855469"/><stop stop-opacity="1" stop-color="rgb(10.649109%, 69.665527%, 38.598633%)" offset="0.859375"/><stop stop-opacity="1" stop-color="rgb(10.353088%, 69.526672%, 38.569641%)" offset="0.863281"/><stop stop-opacity="1" stop-color="rgb(10.057068%, 69.389343%, 38.542175%)" offset="0.867188"/><stop stop-opacity="1" stop-color="rgb(9.761047%, 69.250488%, 38.514709%)" offset="0.871094"/><stop stop-opacity="1" stop-color="rgb(9.466553%, 69.113159%, 38.487244%)" offset="0.875"/><stop stop-opacity="1" stop-color="rgb(9.170532%, 68.97583%, 38.459778%)" offset="0.878906"/><stop stop-opacity="1" stop-color="rgb(8.874512%, 68.838501%, 38.432312%)" offset="0.882812"/><stop stop-opacity="1" stop-color="rgb(8.578491%, 68.699646%, 38.40332%)" offset="0.886719"/><stop stop-opacity="1" stop-color="rgb(8.283997%, 68.562317%, 38.375854%)" offset="0.890625"/><stop stop-opacity="1" stop-color="rgb(7.987976%, 68.423462%, 38.348389%)" offset="0.894531"/><stop stop-opacity="1" stop-color="rgb(7.691956%, 68.286133%, 38.320923%)" offset="0.898438"/><stop stop-opacity="1" stop-color="rgb(7.395935%, 68.148804%, 38.293457%)" offset="0.902344"/><stop stop-opacity="1" stop-color="rgb(7.099915%, 68.011475%, 38.265991%)" offset="0.90625"/><stop stop-opacity="1" stop-color="rgb(6.803894%, 67.87262%, 38.237%)" offset="0.910156"/><stop stop-opacity="1" stop-color="rgb(6.509399%, 67.735291%, 38.209534%)" offset="0.914062"/><stop stop-opacity="1" stop-color="rgb(6.213379%, 67.596436%, 38.182068%)" offset="0.917969"/><stop stop-opacity="1" stop-color="rgb(5.917358%, 67.459106%, 38.154602%)" offset="0.921875"/><stop stop-opacity="1" stop-color="rgb(5.621338%, 67.320251%, 38.12561%)" offset="0.925781"/><stop stop-opacity="1" stop-color="rgb(5.326843%, 67.182922%, 38.098145%)" offset="0.929688"/><stop stop-opacity="1" stop-color="rgb(5.030823%, 67.045593%, 38.070679%)" offset="0.933594"/><stop stop-opacity="1" stop-color="rgb(4.734802%, 66.908264%, 38.043213%)" offset="0.9375"/><stop stop-opacity="1" stop-color="rgb(4.438782%, 66.769409%, 38.015747%)" offset="0.941406"/><stop stop-opacity="1" stop-color="rgb(4.144287%, 66.63208%, 37.988281%)" offset="0.945312"/><stop stop-opacity="1" stop-color="rgb(3.848267%, 66.493225%, 37.95929%)" offset="0.949219"/><stop stop-opacity="1" stop-color="rgb(3.552246%, 66.355896%, 37.931824%)" offset="0.953125"/><stop stop-opacity="1" stop-color="rgb(3.256226%, 66.217041%, 37.904358%)" offset="0.957031"/><stop stop-opacity="1" stop-color="rgb(2.961731%, 66.079712%, 37.876892%)" offset="0.960938"/><stop stop-opacity="1" stop-color="rgb(2.66571%, 65.942383%, 37.849426%)" offset="0.964844"/><stop stop-opacity="1" stop-color="rgb(2.36969%, 65.805054%, 37.82196%)" offset="0.96875"/><stop stop-opacity="1" stop-color="rgb(2.073669%, 65.666199%, 37.792969%)" offset="0.972656"/><stop stop-opacity="1" stop-color="rgb(1.777649%, 65.52887%, 37.765503%)" offset="0.976562"/><stop stop-opacity="1" stop-color="rgb(1.481628%, 65.390015%, 37.738037%)" offset="0.980469"/><stop stop-opacity="1" stop-color="rgb(1.187134%, 65.252686%, 37.710571%)" offset="0.984375"/><stop stop-opacity="1" stop-color="rgb(0.891113%, 65.115356%, 37.683105%)" offset="0.988281"/><stop stop-opacity="1" stop-color="rgb(0.595093%, 64.978027%, 37.65564%)" offset="0.992188"/><stop stop-opacity="1" stop-color="rgb(0.299072%, 64.839172%, 37.626648%)" offset="0.996094"/><stop stop-opacity="1" stop-color="rgb(0.00457764%, 64.701843%, 37.599182%)" offset="1"/></linearGradient><clipPath id="7a3975259b"><path d="M 0.636719 0 L 636.867188 0 L 636.867188 157 L 0.636719 157 Z M 0.636719 0 " clip-rule="nonzero"/></clipPath></defs><g clip-path="url(#9a6ca87ee9)"><g clip-path="url(#2c1f211be7)"><path fill="url(#af4989686a)" d="M 19.5 0 L 19.5 156.386719 L 617.5625 156.386719 L 617.5625 0 Z M 19.5 0 " fill-rule="nonzero"/></g></g><g clip-path="url(#7a3975259b)"><path stroke-linecap="butt" transform="matrix(0.747627, 0, 0, 0.747627, 19.501194, 43.429182)" fill="none" stroke-linejoin="miter" d="M 68.376249 23.000545 L 77.848935 23.000545 L 97.849729 69.998233 L 87.107401 69.998233 L 82.843909 59.538047 L 63.120032 59.538047 L 58.840865 69.998233 L 48.375455 69.998233 Z M 79.181276 50.472901 L 72.984583 35.336459 L 66.782664 50.472901 Z M 119.977045 80.808484 C 117.035444 80.808484 114.234915 80.479318 111.565008 79.831434 C 108.90555 79.188775 106.444637 78.269198 104.177044 77.062254 L 107.641132 69.465296 C 109.50641 70.484145 111.387362 71.278325 113.273539 71.853061 C 115.159717 72.443471 117.301913 72.736063 119.700127 72.736063 C 123.174664 72.736063 125.740074 71.910534 127.401582 70.259476 C 129.068315 68.624092 129.904294 66.204978 129.904294 63.002134 L 129.904294 61.262253 C 128.399532 63.085732 126.753699 64.512121 124.972019 65.54142 C 123.195564 66.560269 120.94887 67.072306 118.237164 67.072306 C 116.152442 67.072306 114.151317 66.706566 112.233791 65.980309 C 110.321489 65.243603 108.633857 64.162055 107.170894 62.740891 C 105.707931 61.309277 104.53756 59.564171 103.670232 57.500348 C 102.802904 55.44175 102.36924 53.074885 102.36924 50.404978 L 102.36924 50.274356 C 102.36924 47.604449 102.813354 45.242808 103.701581 43.178985 C 104.595034 41.109938 105.770629 39.359607 107.233592 37.938443 C 108.70178 36.517279 110.389412 35.446181 112.296489 34.714699 C 114.219241 33.977993 116.199465 33.612252 118.237164 33.612252 C 120.990669 33.612252 123.258262 34.119064 125.039942 35.137914 C 126.816397 36.161988 128.399532 37.426406 129.773672 38.931168 L 129.773672 34.27581 L 139.899466 34.27581 L 139.899466 61.925812 C 139.899466 68.284476 138.38948 72.976407 135.374731 76.006831 C 133.681874 77.689238 131.555352 78.906632 128.995167 79.669463 C 126.445432 80.427069 123.441132 80.808484 119.977045 80.808484 Z M 121.168315 58.670719 C 122.411833 58.670719 123.571754 58.472174 124.632402 58.069859 C 125.708725 57.667544 126.628302 57.103258 127.401582 56.377002 C 128.180088 55.640295 128.791397 54.762518 129.240736 53.743668 C 129.68485 52.709145 129.904294 51.601473 129.904294 50.404978 L 129.904294 50.274356 C 129.904294 49.072636 129.68485 47.95974 129.240736 46.94089 C 128.791397 45.916816 128.180088 45.039038 127.401582 44.302332 C 126.628302 43.565626 125.708725 43.00134 124.632402 42.609475 C 123.571754 42.20716 122.411833 42.008615 121.168315 42.008615 C 119.930021 42.008615 118.785775 42.20716 117.730352 42.609475 C 116.690603 43.00134 115.781476 43.565626 114.997746 44.302332 C 114.22969 45.039038 113.618381 45.916816 113.174267 46.94089 C 112.730153 47.95974 112.510709 49.072636 112.510709 50.274356 L 112.510709 50.404978 C 112.510709 52.892015 113.325788 54.893139 114.966397 56.408351 C 116.61223 57.918338 118.681278 58.670719 121.168315 58.670719 Z M 165.898409 70.797637 C 163.228502 70.797637 160.751914 70.353524 158.463422 69.465296 C 156.169705 68.571844 154.18948 67.307426 152.522747 65.672042 C 150.861239 64.020984 149.565472 62.077333 148.630221 59.846314 C 147.700194 57.599621 147.229956 55.096909 147.229956 52.343404 L 147.229956 52.197107 C 147.229956 49.668271 147.66362 47.270057 148.536173 45.002464 C 149.403501 42.734872 150.610446 40.759872 152.162232 39.077464 C 153.714017 37.384607 155.568845 36.052266 157.726716 35.075215 C 159.889811 34.098165 162.277576 33.612252 164.89001 33.612252 C 167.873409 33.612252 170.449269 34.139964 172.61759 35.205837 C 174.801584 36.266485 176.614614 37.698099 178.056677 39.500678 C 179.50919 41.303258 180.580288 43.367081 181.259521 45.702597 C 181.954429 48.032888 182.304495 50.472901 182.304495 53.006962 C 182.304495 53.398827 182.28882 53.816817 182.252246 54.26093 C 182.231347 54.705044 182.199997 55.175282 182.158198 55.661195 L 157.303502 55.661195 C 157.794639 57.975811 158.803039 59.720917 160.333925 60.901737 C 161.864811 62.072108 163.761438 62.662518 166.029031 62.662518 C 167.721888 62.662518 169.2371 62.37515 170.569441 61.79519 C 171.901783 61.220454 173.281148 60.290428 174.702312 58.999886 L 180.49669 64.141156 C 178.803833 66.225878 176.76091 67.856037 174.362695 69.042082 C 171.964481 70.212452 169.143052 70.797637 165.898409 70.797637 Z M 172.424269 49.33388 C 172.121227 47.066287 171.321822 45.232358 170.03128 43.832094 C 168.740738 42.431829 167.026981 41.731697 164.89001 41.731697 C 162.763489 41.731697 161.044507 42.42138 159.733065 43.800745 C 158.416398 45.174885 157.55952 47.019263 157.157205 49.33388 Z M 189.833529 34.27581 L 199.954099 34.27581 L 199.954099 39.338707 C 200.528834 38.581102 201.161043 37.86007 201.845501 37.175612 C 202.540408 36.480705 203.308464 35.869395 204.154892 35.336459 C 205.001321 34.803522 205.936572 34.385533 206.955422 34.08249 C 207.974271 33.768998 209.128967 33.612252 210.419509 33.612252 C 214.296361 33.612252 217.284986 34.787847 219.390607 37.144263 C 221.501454 39.495453 222.562102 42.740096 222.562102 46.872967 L 222.562102 69.998233 L 212.420634 69.998233 L 212.420634 50.065361 C 212.420634 47.667147 211.887697 45.859343 210.811374 44.641948 C 209.750726 43.419329 208.240739 42.80802 206.286639 42.80802 C 204.332538 42.80802 202.785977 43.419329 201.646956 44.641948 C 200.518384 45.859343 199.954099 47.667147 199.954099 50.065361 L 199.954099 69.998233 L 189.833529 69.998233 Z M 246.021759 70.667016 C 243.931812 70.667016 241.904563 70.269926 239.955688 69.480971 C 238.001587 68.676341 236.266931 67.490296 234.746494 65.917611 C 233.236507 64.329251 232.029563 62.39605 231.115211 60.107558 C 230.206084 57.813841 229.75152 55.180507 229.75152 52.197107 L 229.75152 52.066486 C 229.75152 49.093536 230.206084 46.460202 231.115211 44.17171 C 232.029563 41.883218 233.226058 39.950017 234.715145 38.377332 C 236.209457 36.794197 237.933664 35.608152 239.887764 34.813972 C 241.841865 34.009342 243.884788 33.612252 246.021759 33.612252 C 248.738691 33.612252 250.964484 34.139964 252.714815 35.205837 C 254.470371 36.266485 255.949008 37.510004 257.155953 38.931168 L 257.155953 21.339037 L 267.276522 21.339037 L 267.276522 69.998233 L 257.155953 69.998233 L 257.155953 64.872637 C 255.907209 66.555045 254.407672 67.944859 252.646892 69.042082 C 250.891336 70.123629 248.681217 70.667016 246.021759 70.667016 Z M 248.613294 62.072108 C 249.815013 62.072108 250.93836 61.842214 251.978109 61.371976 C 253.023082 60.906962 253.932209 60.238179 254.71594 59.370851 C 255.494445 58.503523 256.121429 57.463774 256.586442 56.24638 C 257.051455 55.023761 257.286575 53.67052 257.286575 52.197107 L 257.286575 52.066486 C 257.286575 50.598298 257.051455 49.260732 256.586442 48.043337 C 256.121429 46.820718 255.494445 45.77052 254.71594 44.903192 C 253.932209 44.035864 253.023082 43.367081 251.978109 42.902067 C 250.93836 42.437054 249.815013 42.201935 248.613294 42.201935 C 247.416799 42.201935 246.293452 42.437054 245.243254 42.902067 C 244.203505 43.367081 243.278704 44.035864 242.474074 44.903192 C 241.685119 45.77052 241.05291 46.810269 240.587897 48.011988 C 240.122883 49.208483 239.887764 50.556499 239.887764 52.066486 L 239.887764 52.197107 C 239.887764 53.67052 240.122883 55.023761 240.587897 56.24638 C 241.05291 57.463774 241.685119 58.503523 242.474074 59.370851 C 243.278704 60.238179 244.203505 60.906962 245.243254 61.371976 C 246.293452 61.842214 247.416799 62.072108 248.613294 62.072108 Z M 293.28069 70.797637 C 290.610782 70.797637 288.12897 70.353524 285.840478 69.465296 C 283.551986 68.571844 281.571761 67.307426 279.899803 65.672042 C 278.24352 64.020984 276.942528 62.077333 276.012501 59.846314 C 275.07725 57.599621 274.612237 55.096909 274.612237 52.343404 L 274.612237 52.197107 C 274.612237 49.668271 275.045901 47.270057 275.913229 45.002464 C 276.780557 42.734872 277.992726 40.759872 279.544512 39.077464 C 281.096298 37.384607 282.951126 36.052266 285.108996 35.075215 C 287.266867 34.098165 289.654631 33.612252 292.27229 33.612252 C 295.25569 33.612252 297.83155 34.139964 299.99987 35.205837 C 302.17864 36.266485 303.991669 37.698099 305.433733 39.500678 C 306.891471 41.303258 307.957344 43.367081 308.641802 45.702597 C 309.336709 48.032888 309.68155 50.472901 309.68155 53.006962 C 309.68155 53.398827 309.665876 53.816817 309.634526 54.26093 C 309.613627 54.705044 309.582278 55.175282 309.535254 55.661195 L 284.685782 55.661195 C 285.17692 57.975811 286.185319 59.720917 287.710981 60.901737 C 289.241867 62.072108 291.143719 62.662518 293.411311 62.662518 C 295.104169 62.662518 296.614156 62.37515 297.951722 61.79519 C 299.284063 61.220454 300.663428 60.290428 302.084592 58.999886 L 307.878971 64.141156 C 306.186114 66.225878 304.137965 67.856037 301.739751 69.042082 C 299.341537 70.212452 296.525333 70.797637 293.28069 70.797637 Z M 299.80655 49.33388 C 299.503508 47.066287 298.704103 45.232358 297.41356 43.832094 C 296.123018 42.431829 294.409261 41.731697 292.27229 41.731697 C 290.145769 41.731697 288.421563 42.42138 287.110121 43.800745 C 285.798679 45.174885 284.941801 47.019263 284.539486 49.33388 Z M 349.740613 70.667016 C 347.201327 70.667016 344.609792 70.233352 341.960784 69.366024 C 339.327451 68.498695 336.80384 67.12978 334.395176 65.264502 L 338.742266 58.60802 C 340.691142 60.029185 342.634792 61.100282 344.567994 61.816089 C 346.49597 62.521447 348.308999 62.871513 350.001856 62.871513 C 351.464819 62.871513 352.541142 62.625944 353.2256 62.140031 C 353.920507 61.648894 354.265348 61.006235 354.265348 60.201605 L 354.265348 60.070983 C 354.265348 59.543272 354.066803 59.073034 353.664489 58.670719 C 353.262174 58.273629 352.713563 57.928788 352.018655 57.646645 C 351.339422 57.354052 350.550467 57.071909 349.66224 56.800216 C 348.784462 56.528523 347.849211 56.241155 346.861711 55.938113 C 345.623417 55.582822 344.369449 55.149158 343.099806 54.637121 C 341.835388 54.125084 340.685917 53.461526 339.667067 52.635996 C 338.648218 51.810467 337.812239 50.802068 337.164356 49.605573 C 336.521697 48.403853 336.20298 46.935665 336.20298 45.195784 L 336.20298 45.065163 C 336.20298 43.246909 336.542596 41.632424 337.227054 40.23216 C 337.921961 38.831895 338.857213 37.64585 340.027583 36.6688 C 341.208403 35.69175 342.587769 34.960268 344.160454 34.474355 C 345.743589 33.983218 347.446896 33.742874 349.270375 33.742874 C 351.537967 33.742874 353.836909 34.108615 356.172425 34.845321 C 358.502716 35.571578 360.644912 36.585202 362.599013 37.875744 L 358.74306 44.871843 C 356.96138 43.852993 355.226724 43.043139 353.533867 42.447504 C 351.84101 41.841419 350.357147 41.538377 349.077055 41.538377 C 347.828311 41.538377 346.887835 41.768271 346.260851 42.233284 C 345.639091 42.703522 345.330824 43.293932 345.330824 44.009739 L 345.330824 44.140361 C 345.330824 44.626274 345.534594 45.059938 345.931684 45.441353 C 346.333999 45.812319 346.866935 46.162385 347.530494 46.502001 C 348.199277 46.836393 348.972557 47.160335 349.839885 47.473827 C 350.707213 47.782094 351.632015 48.090361 352.609065 48.403853 C 353.842134 48.806168 355.106552 49.281631 356.397095 49.835467 C 357.687637 50.389303 358.847558 51.068536 359.866407 51.867941 C 360.885256 52.67257 361.72646 53.654846 362.390018 54.814766 C 363.058801 55.964237 363.398418 57.359277 363.398418 58.999886 L 363.398418 59.130507 C 363.398418 61.136857 363.048351 62.861063 362.353444 64.303126 C 361.668986 65.74519 360.707611 66.93646 359.458867 67.866486 C 358.220573 68.801738 356.76806 69.50187 355.096102 69.966883 C 353.434594 70.431897 351.652914 70.667016 349.740613 70.667016 Z M 382.537109 70.667016 C 378.665482 70.667016 375.666408 69.49142 373.555561 67.135005 C 371.449939 64.783814 370.394516 61.539171 370.394516 57.401076 L 370.394516 34.27581 L 380.535984 34.27581 L 380.535984 54.198232 C 380.535984 56.596446 381.068921 58.409475 382.129569 59.632095 C 383.195442 60.859939 384.705429 61.471248 386.669979 61.471248 C 388.62408 61.471248 390.165416 60.859939 391.293988 59.632095 C 392.433009 58.409475 393.002519 56.596446 393.002519 54.198232 L 393.002519 34.27581 L 403.123089 34.27581 L 403.123089 69.998233 L 393.002519 69.998233 L 393.002519 64.94056 C 392.417334 65.687716 391.774675 66.408748 391.079768 67.103656 C 390.39531 67.788113 389.63248 68.399423 388.786051 68.942809 C 387.950072 69.475746 387.014821 69.893735 385.985522 70.196778 C 384.966672 70.51027 383.817202 70.667016 382.537109 70.667016 Z M 422.324478 70.667016 C 420.631621 70.667016 419.038036 70.431897 417.554174 69.966883 C 416.065086 69.50187 414.764094 68.801738 413.645973 67.866486 C 412.543525 66.93646 411.660523 65.792214 411.012639 64.433748 C 410.36998 63.080507 410.051263 61.507822 410.051263 59.731367 L 410.051263 59.600745 C 410.051263 57.646645 410.406554 55.959012 411.127586 54.537848 C 411.843393 53.116684 412.830893 51.941089 414.084861 51.005838 C 415.354504 50.075811 416.869716 49.375679 418.625272 48.910666 C 420.386052 48.440427 422.329703 48.210533 424.456224 48.210533 C 426.274478 48.210533 427.868063 48.34638 429.221304 48.612848 C 430.57977 48.874091 431.901661 49.229382 433.192204 49.673496 L 433.192204 49.072636 C 433.192204 46.935665 432.549545 45.310732 431.259002 44.20306 C 429.963235 43.084938 428.056158 42.531102 425.527322 42.531102 C 423.573222 42.531102 421.849015 42.698298 420.354703 43.032689 C 418.865616 43.367081 417.30338 43.847768 415.667996 44.464303 L 413.128711 36.736723 C 415.077586 35.890295 417.12051 35.200612 419.247031 34.667676 C 421.384002 34.134739 423.965087 33.868271 426.990285 33.868271 C 429.790815 33.868271 432.178579 34.218337 434.153579 34.913244 C 436.128579 35.597702 437.758738 36.585202 439.054505 37.875744 C 440.386847 39.208086 441.363897 40.843469 441.980431 42.771446 C 442.61264 44.704647 442.926133 46.867742 442.926133 49.265957 L 442.926133 69.998233 L 433.129505 69.998233 L 433.129505 66.126605 C 431.880762 67.505971 430.386449 68.608418 428.651793 69.428722 C 426.917137 70.254251 424.806291 70.667016 422.324478 70.667016 Z M 425.396701 63.670917 C 427.794915 63.670917 429.717666 63.096182 431.15973 61.946711 C 432.601793 60.781565 433.322825 59.271579 433.322825 57.401076 L 433.322825 55.598496 C 432.434598 55.196182 431.441873 54.877465 430.344651 54.637121 C 429.257878 54.386327 428.097957 54.26093 426.864888 54.26093 C 424.680894 54.26093 422.967137 54.684145 421.718394 55.530573 C 420.485325 56.377002 419.863565 57.599621 419.863565 59.193206 L 419.863565 59.339502 C 419.863565 60.718867 420.375602 61.78474 421.394452 62.547571 C 422.413301 63.294727 423.750867 63.670917 425.396701 63.670917 Z M 488.51833 70.797637 C 485.848423 70.797637 483.36661 70.311725 481.078118 69.334674 C 478.789626 68.357624 476.819851 67.035732 475.174017 65.379449 C 473.533409 63.707492 472.248091 61.748166 471.31284 59.501473 C 470.382814 57.25478 469.9178 54.87224 469.9178 52.343404 L 469.9178 52.197107 C 469.9178 49.668271 470.382814 47.270057 471.31284 45.002464 C 472.248091 42.734872 473.533409 40.759872 475.174017 39.077464 C 476.819851 37.384607 478.789626 36.052266 481.078118 35.075215 C 483.36661 34.098165 485.890222 33.612252 488.648952 33.612252 C 492.018992 33.612252 494.819521 34.139964 497.045315 35.205837 C 499.271108 36.266485 501.225209 37.734673 502.918066 39.599951 L 496.721373 46.272107 C 495.556227 45.065163 494.364957 44.114237 493.137113 43.40888 C 491.924944 42.693073 490.404508 42.332557 488.581029 42.332557 C 487.290486 42.332557 486.125341 42.588575 485.085592 43.100612 C 484.040618 43.607425 483.131491 44.307557 482.347761 45.195784 C 481.569256 46.089237 480.963171 47.123761 480.545182 48.304581 C 480.121967 49.480176 479.907748 50.72892 479.907748 52.066486 L 479.907748 52.197107 C 479.907748 53.571248 480.121967 54.867015 480.545182 56.068735 C 480.963171 57.275679 481.579706 58.320653 482.37911 59.20888 C 483.18374 60.086658 484.139891 60.78679 485.247563 61.309277 C 486.365685 61.821314 487.603978 62.072108 488.972894 62.072108 C 490.665751 62.072108 492.144389 61.732491 493.414031 61.048034 C 494.683674 60.353126 495.937643 59.428325 497.175936 58.268404 L 503.116611 64.271777 C 501.37673 66.178854 499.40173 67.746314 497.175936 68.974158 C 494.950143 70.191553 492.066016 70.797637 488.51833 70.797637 Z M 527.245051 70.797637 C 524.491546 70.797637 521.936586 70.322174 519.58017 69.366024 C 517.223755 68.409873 515.191281 67.103656 513.477524 65.442148 C 511.763768 63.77019 510.415752 61.816089 509.438701 59.569396 C 508.466876 57.322703 507.975738 54.914039 507.975738 52.343404 L 507.975738 52.197107 C 507.975738 49.626472 508.466876 47.217808 509.438701 44.971115 C 510.415752 42.724422 511.774217 40.759872 513.508874 39.077464 C 515.24353 37.384607 517.291678 36.052266 519.642869 35.075215 C 521.999284 34.098165 524.575144 33.612252 527.375673 33.612252 C 530.129179 33.612252 532.684139 34.087715 535.040554 35.043866 C 537.39697 35.994792 539.424219 37.311459 541.127526 38.983416 C 542.841282 40.6397 544.189298 42.5938 545.161124 44.840493 C 546.148624 47.087187 546.644986 49.495851 546.644986 52.066486 L 546.644986 52.197107 C 546.644986 54.778192 546.148624 57.192081 545.161124 59.438774 C 544.189298 61.685468 542.830832 63.655243 541.096176 65.3481 C 539.37197 67.025283 537.329047 68.357624 534.977856 69.334674 C 532.621441 70.311725 530.045581 70.797637 527.245051 70.797637 Z M 527.375673 62.072108 C 528.838636 62.072108 530.134403 61.821314 531.262975 61.309277 C 532.401996 60.78679 533.368597 60.086658 534.162777 59.20888 C 534.962181 58.320653 535.578716 57.286129 536.00193 56.100084 C 536.425144 54.919264 536.634139 53.665295 536.634139 52.343404 L 536.634139 52.197107 C 536.634139 50.859541 536.414695 49.605573 535.970581 48.435203 C 535.521242 47.254382 534.878583 46.209409 534.032155 45.295057 C 533.196176 44.38593 532.198226 43.664898 531.038306 43.131962 C 529.888835 42.599025 528.624417 42.332557 527.245051 42.332557 C 525.782088 42.332557 524.475871 42.588575 523.33685 43.100612 C 522.208279 43.607425 521.246903 44.307557 520.442273 45.195784 C 519.637644 46.089237 519.026334 47.123761 518.60312 48.304581 C 518.179906 49.480176 517.970911 50.72892 517.970911 52.066486 L 517.970911 52.197107 C 517.970911 53.529449 518.190355 54.788642 518.634469 55.969462 C 519.078583 57.145057 519.726466 58.184806 520.572895 59.093933 C 521.419324 60.008285 522.406824 60.734542 523.535395 61.277928 C 524.674416 61.810864 525.954509 62.072108 527.375673 62.072108 Z M 553.975476 34.27581 L 564.10127 34.27581 L 564.10127 39.338707 C 564.676005 38.581102 565.302989 37.86007 565.987447 37.175612 C 566.682355 36.480705 567.45041 35.869395 568.296839 35.336459 C 569.143267 34.803522 570.078519 34.385533 571.097368 34.08249 C 572.116217 33.768998 573.270913 33.612252 574.56668 33.612252 C 578.438307 33.612252 581.426932 34.787847 583.532554 37.144263 C 585.648625 39.495453 586.704049 42.740096 586.704049 46.872967 L 586.704049 69.998233 L 576.567805 69.998233 L 576.567805 50.065361 C 576.567805 47.667147 576.029643 45.859343 574.953321 44.641948 C 573.892672 43.419329 572.382686 42.80802 570.428585 42.80802 C 568.479709 42.80802 566.933148 43.419329 565.794127 44.641948 C 564.665556 45.859343 564.10127 47.667147 564.10127 50.065361 L 564.10127 69.998233 L 553.975476 69.998233 Z M 608.037184 70.667016 C 605.497899 70.667016 602.901139 70.233352 600.257356 69.366024 C 597.618798 68.498695 595.095186 67.12978 592.686522 65.264502 L 597.033613 58.60802 C 598.987713 60.029185 600.931364 61.100282 602.85934 61.816089 C 604.792541 62.521447 606.605571 62.871513 608.298428 62.871513 C 609.761391 62.871513 610.832489 62.625944 611.516946 62.140031 C 612.211854 61.648894 612.56192 61.006235 612.56192 60.201605 L 612.56192 60.070983 C 612.56192 59.543272 612.35815 59.073034 611.955835 58.670719 C 611.558745 58.273629 611.010134 57.928788 610.315227 57.646645 C 609.630769 57.354052 608.841814 57.071909 607.953587 56.800216 C 607.075809 56.528523 606.140557 56.241155 605.153057 55.938113 C 603.919988 55.582822 602.66602 55.149158 601.396377 54.637121 C 600.126734 54.125084 598.982488 53.461526 597.963639 52.635996 C 596.939565 51.810467 596.108811 50.802068 595.455702 49.605573 C 594.813044 48.403853 594.494327 46.935665 594.494327 45.195784 L 594.494327 45.065163 C 594.494327 43.246909 594.839168 41.632424 595.518401 40.23216 C 596.213308 38.831895 597.14856 37.64585 598.31893 36.6688 C 599.504975 35.69175 600.879115 34.960268 602.451801 34.474355 C 604.034936 33.983218 605.743467 33.742874 607.561721 33.742874 C 609.829314 33.742874 612.133481 34.108615 614.463772 34.845321 C 616.799288 35.571578 618.941484 36.585202 620.89036 37.875744 L 617.034407 44.871843 C 615.257952 43.852993 613.518071 43.043139 611.825214 42.447504 C 610.137581 41.841419 608.648494 41.538377 607.368401 41.538377 C 606.119658 41.538377 605.184406 41.768271 604.552197 42.233284 C 603.935663 42.703522 603.627396 43.293932 603.627396 44.009739 L 603.627396 44.140361 C 603.627396 44.626274 603.825941 45.059938 604.228256 45.441353 C 604.63057 45.812319 605.158282 46.162385 605.82184 46.502001 C 606.495848 46.836393 607.263904 47.160335 608.131232 47.473827 C 609.003785 47.782094 609.923362 48.090361 610.900412 48.403853 C 612.138706 48.806168 613.403124 49.281631 614.693666 49.835467 C 615.984209 50.389303 617.138904 51.068536 618.157754 51.867941 C 619.176603 52.67257 620.017807 53.654846 620.681365 54.814766 C 621.355373 55.964237 621.689764 57.359277 621.689764 58.999886 L 621.689764 59.130507 C 621.689764 61.136857 621.344923 62.861063 620.650016 64.303126 C 619.965558 65.74519 618.998957 66.93646 617.750214 67.866486 C 616.51192 68.801738 615.059407 69.50187 613.387449 69.966883 C 611.731166 70.431897 609.944261 70.667016 608.037184 70.667016 Z M 640.828456 70.667016 C 636.956828 70.667016 633.962979 69.49142 631.846908 67.135005 C 629.741286 64.783814 628.691087 61.539171 628.691087 57.401076 L 628.691087 34.27581 L 638.827331 34.27581 L 638.827331 54.198232 C 638.827331 56.596446 639.360268 58.409475 640.420916 59.632095 C 641.486789 60.859939 643.002001 61.471248 644.961326 61.471248 C 646.915427 61.471248 648.456763 60.859939 649.585334 59.632095 C 650.724355 58.409475 651.293866 56.596446 651.293866 54.198232 L 651.293866 34.27581 L 661.414435 34.27581 L 661.414435 69.998233 L 651.293866 69.998233 L 651.293866 64.94056 C 650.708681 65.687716 650.066022 66.408748 649.37634 67.103656 C 648.691882 67.788113 647.923826 68.399423 647.077398 68.942809 C 646.241419 69.475746 645.311392 69.893735 644.282093 70.196778 C 643.258019 70.51027 642.108548 70.667016 640.828456 70.667016 Z M 670.949819 21.339037 L 681.086063 21.339037 L 681.086063 69.998233 L 670.949819 69.998233 Z M 702.680442 70.604317 C 701.128657 70.604317 699.717942 70.431897 698.453524 70.097505 C 697.183881 69.763113 696.091884 69.177928 695.177532 68.341949 C 694.268405 67.495521 693.557823 66.393074 693.045786 65.034608 C 692.538974 63.681367 692.282955 61.957161 692.282955 59.861989 L 692.282955 42.933417 L 688.019463 42.933417 L 688.019463 34.27581 L 692.282955 34.27581 L 692.282955 25.132292 L 702.424424 25.132292 L 702.424424 34.27581 L 710.820787 34.27581 L 710.820787 42.933417 L 702.424424 42.933417 L 702.424424 58.200481 C 702.424424 60.509872 703.505971 61.669793 705.674292 61.669793 C 707.455972 61.669793 709.122704 61.246579 710.67449 60.40015 L 710.67449 68.53527 C 709.608617 69.151804 708.433022 69.653391 707.14248 70.034807 C 705.862387 70.410997 704.3733 70.604317 702.680442 70.604317 Z M 728.407692 70.667016 C 726.714835 70.667016 725.126475 70.431897 723.637388 69.966883 C 722.153525 69.50187 720.852533 68.801738 719.734411 67.866486 C 718.626739 66.93646 717.748961 65.792214 717.095853 64.433748 C 716.458419 63.080507 716.134477 61.507822 716.134477 59.731367 L 716.134477 59.600745 C 716.134477 57.646645 716.494993 55.959012 717.2108 54.537848 C 717.926607 53.116684 718.914107 51.941089 720.1733 51.005838 C 721.442943 50.075811 722.958155 49.375679 724.71371 48.910666 C 726.469266 48.440427 728.412917 48.210533 730.539438 48.210533 C 732.362917 48.210533 733.951277 48.34638 735.309743 48.612848 C 736.662983 48.874091 737.9901 49.229382 739.280642 49.673496 L 739.280642 49.072636 C 739.280642 46.935665 738.632759 45.310732 737.342216 44.20306 C 736.051674 43.084938 734.144597 42.531102 731.615761 42.531102 C 729.66166 42.531102 727.937454 42.698298 726.437917 43.032689 C 724.954054 43.367081 723.391819 43.847768 721.75121 44.464303 L 719.211924 36.736723 C 721.166025 35.890295 723.203724 35.200612 725.330245 34.667676 C 727.467216 34.134739 730.053525 33.868271 733.078724 33.868271 C 735.879253 33.868271 738.267018 34.218337 740.242018 34.913244 C 742.211793 35.597702 743.847177 36.585202 745.137719 37.875744 C 746.470061 39.208086 747.447111 40.843469 748.06887 42.771446 C 748.695854 44.704647 749.009346 46.867742 749.009346 49.265957 L 749.009346 69.998233 L 739.212719 69.998233 L 739.212719 66.126605 C 737.963976 67.505971 736.474888 68.608418 734.740232 69.428722 C 733.000351 70.254251 730.894729 70.667016 728.407692 70.667016 Z M 731.485139 63.670917 C 733.883354 63.670917 735.80088 63.096182 737.242944 61.946711 C 738.690232 60.781565 739.411264 59.271579 739.411264 57.401076 L 739.411264 55.598496 C 738.517812 55.196182 737.525087 54.877465 736.433089 54.637121 C 735.346317 54.386327 734.186396 54.26093 732.948102 54.26093 C 730.769332 54.26093 729.055576 54.684145 727.806832 55.530573 C 726.568539 56.377002 725.952004 57.599621 725.952004 59.193206 L 725.952004 59.339502 C 725.952004 60.718867 726.458816 61.78474 727.48289 62.547571 C 728.50174 63.294727 729.834081 63.670917 731.485139 63.670917 Z M 731.485139 63.670917 " stroke="#ffffff" stroke-width="17.50001" stroke-opacity="1" stroke-miterlimit="4"/></g><g fill="#000000" fill-opacity="1"><g transform="translate(54.476099, 95.76304)"><g><path d="M 16.15625 -35.140625 L 23.234375 -35.140625 L 38.1875 0 L 30.15625 0 L 26.96875 -7.828125 L 12.21875 -7.828125 L 9.015625 0 L 1.203125 0 Z M 24.21875 -14.609375 L 19.59375 -25.921875 L 14.953125 -14.609375 Z M 24.21875 -14.609375 "/></g></g></g><g fill="#000000" fill-opacity="1"><g transform="translate(93.84501, 95.76304)"><g><path d="M 15.359375 8.078125 C 13.160156 8.078125 11.0625 7.832031 9.0625 7.34375 C 7.070312 6.863281 5.226562 6.175781 3.53125 5.28125 L 6.125 -0.40625 C 7.519531 0.363281 8.925781 0.960938 10.34375 1.390625 C 11.757812 1.828125 13.363281 2.046875 15.15625 2.046875 C 17.75 2.046875 19.664062 1.429688 20.90625 0.203125 C 22.15625 -1.023438 22.78125 -2.835938 22.78125 -5.234375 L 22.78125 -6.53125 C 21.644531 -5.164062 20.410156 -4.097656 19.078125 -3.328125 C 17.753906 -2.566406 16.082031 -2.1875 14.0625 -2.1875 C 12.5 -2.1875 11 -2.460938 9.5625 -3.015625 C 8.132812 -3.566406 6.875 -4.375 5.78125 -5.4375 C 4.6875 -6.5 3.8125 -7.800781 3.15625 -9.34375 C 2.507812 -10.882812 2.1875 -12.65625 2.1875 -14.65625 L 2.1875 -14.75 C 2.1875 -16.75 2.519531 -18.519531 3.1875 -20.0625 C 3.851562 -21.601562 4.734375 -22.90625 5.828125 -23.96875 C 6.929688 -25.03125 8.195312 -25.835938 9.625 -26.390625 C 11.050781 -26.941406 12.53125 -27.21875 14.0625 -27.21875 C 16.113281 -27.21875 17.804688 -26.832031 19.140625 -26.0625 C 20.472656 -25.300781 21.648438 -24.359375 22.671875 -23.234375 L 22.671875 -26.71875 L 30.25 -26.71875 L 30.25 -6.03125 C 30.25 -1.28125 29.117188 2.222656 26.859375 4.484375 C 25.597656 5.742188 24.007812 6.65625 22.09375 7.21875 C 20.1875 7.789062 17.941406 8.078125 15.359375 8.078125 Z M 16.25 -8.46875 C 17.175781 -8.46875 18.035156 -8.617188 18.828125 -8.921875 C 19.628906 -9.222656 20.320312 -9.644531 20.90625 -10.1875 C 21.488281 -10.738281 21.945312 -11.394531 22.28125 -12.15625 C 22.613281 -12.925781 22.78125 -13.757812 22.78125 -14.65625 L 22.78125 -14.75 C 22.78125 -15.644531 22.613281 -16.472656 22.28125 -17.234375 C 21.945312 -18.003906 21.488281 -18.660156 20.90625 -19.203125 C 20.320312 -19.753906 19.628906 -20.179688 18.828125 -20.484375 C 18.035156 -20.785156 17.175781 -20.9375 16.25 -20.9375 C 15.320312 -20.9375 14.46875 -20.785156 13.6875 -20.484375 C 12.90625 -20.179688 12.222656 -19.753906 11.640625 -19.203125 C 11.054688 -18.660156 10.597656 -18.003906 10.265625 -17.234375 C 9.929688 -16.472656 9.765625 -15.644531 9.765625 -14.75 L 9.765625 -14.65625 C 9.765625 -12.789062 10.378906 -11.289062 11.609375 -10.15625 C 12.835938 -9.03125 14.382812 -8.46875 16.25 -8.46875 Z M 16.25 -8.46875 "/></g></g></g><g fill="#000000" fill-opacity="1"><g transform="translate(127.483002, 95.76304)"><g><path d="M 16.046875 0.59375 C 14.054688 0.59375 12.203125 0.265625 10.484375 -0.390625 C 8.773438 -1.054688 7.296875 -2.003906 6.046875 -3.234375 C 4.804688 -4.460938 3.835938 -5.914062 3.140625 -7.59375 C 2.441406 -9.28125 2.09375 -11.148438 2.09375 -13.203125 L 2.09375 -13.3125 C 2.09375 -15.207031 2.414062 -17 3.0625 -18.6875 C 3.707031 -20.382812 4.613281 -21.863281 5.78125 -23.125 C 6.945312 -24.382812 8.332031 -25.378906 9.9375 -26.109375 C 11.550781 -26.847656 13.335938 -27.21875 15.296875 -27.21875 C 17.523438 -27.21875 19.453125 -26.816406 21.078125 -26.015625 C 22.710938 -25.222656 24.066406 -24.148438 25.140625 -22.796875 C 26.222656 -21.453125 27.019531 -19.90625 27.53125 -18.15625 C 28.050781 -16.414062 28.3125 -14.597656 28.3125 -12.703125 C 28.3125 -12.410156 28.300781 -12.097656 28.28125 -11.765625 C 28.269531 -11.429688 28.25 -11.082031 28.21875 -10.71875 L 9.625 -10.71875 C 9.988281 -8.988281 10.742188 -7.679688 11.890625 -6.796875 C 13.035156 -5.921875 14.457031 -5.484375 16.15625 -5.484375 C 17.414062 -5.484375 18.539062 -5.695312 19.53125 -6.125 C 20.53125 -6.5625 21.5625 -7.257812 22.625 -8.21875 L 26.96875 -4.390625 C 25.707031 -2.828125 24.175781 -1.601562 22.375 -0.71875 C 20.582031 0.15625 18.472656 0.59375 16.046875 0.59375 Z M 20.9375 -15.453125 C 20.695312 -17.148438 20.09375 -18.519531 19.125 -19.5625 C 18.164062 -20.613281 16.890625 -21.140625 15.296875 -21.140625 C 13.703125 -21.140625 12.414062 -20.625 11.4375 -19.59375 C 10.457031 -18.5625 9.816406 -17.179688 9.515625 -15.453125 Z M 20.9375 -15.453125 "/></g></g></g><g fill="#000000" fill-opacity="1"><g transform="translate(158.031275, 95.76304)"><g><path d="M 3.390625 -26.71875 L 10.96875 -26.71875 L 10.96875 -22.921875 C 11.394531 -23.492188 11.863281 -24.035156 12.375 -24.546875 C 12.894531 -25.066406 13.46875 -25.523438 14.09375 -25.921875 C 14.726562 -26.316406 15.425781 -26.628906 16.1875 -26.859375 C 16.957031 -27.097656 17.828125 -27.21875 18.796875 -27.21875 C 21.679688 -27.21875 23.910156 -26.335938 25.484375 -24.578125 C 27.066406 -22.816406 27.859375 -20.390625 27.859375 -17.296875 L 27.859375 0 L 20.28125 0 L 20.28125 -14.90625 C 20.28125 -16.695312 19.878906 -18.050781 19.078125 -18.96875 C 18.285156 -19.882812 17.160156 -20.34375 15.703125 -20.34375 C 14.234375 -20.34375 13.078125 -19.882812 12.234375 -18.96875 C 11.390625 -18.050781 10.96875 -16.695312 10.96875 -14.90625 L 10.96875 0 L 3.390625 0 Z M 3.390625 -26.71875 "/></g></g></g><g fill="#000000" fill-opacity="1"><g transform="translate(189.077888, 95.76304)"><g><path d="M 14.359375 0.5 C 12.796875 0.5 11.28125 0.203125 9.8125 -0.390625 C 8.351562 -0.992188 7.054688 -1.882812 5.921875 -3.0625 C 4.796875 -4.238281 3.890625 -5.679688 3.203125 -7.390625 C 2.523438 -9.109375 2.1875 -11.082031 2.1875 -13.3125 L 2.1875 -13.40625 C 2.1875 -15.632812 2.523438 -17.601562 3.203125 -19.3125 C 3.890625 -21.019531 4.789062 -22.460938 5.90625 -23.640625 C 7.019531 -24.828125 8.304688 -25.71875 9.765625 -26.3125 C 11.234375 -26.914062 12.765625 -27.21875 14.359375 -27.21875 C 16.378906 -27.21875 18.046875 -26.816406 19.359375 -26.015625 C 20.671875 -25.222656 21.773438 -24.296875 22.671875 -23.234375 L 22.671875 -36.390625 L 30.25 -36.390625 L 30.25 0 L 22.671875 0 L 22.671875 -3.84375 C 21.742188 -2.570312 20.625 -1.53125 19.3125 -0.71875 C 18 0.09375 16.347656 0.5 14.359375 0.5 Z M 16.296875 -5.9375 C 17.191406 -5.9375 18.03125 -6.109375 18.8125 -6.453125 C 19.59375 -6.804688 20.273438 -7.304688 20.859375 -7.953125 C 21.441406 -8.597656 21.90625 -9.375 22.25 -10.28125 C 22.601562 -11.195312 22.78125 -12.207031 22.78125 -13.3125 L 22.78125 -13.40625 C 22.78125 -14.5 22.601562 -15.503906 22.25 -16.421875 C 21.90625 -17.335938 21.441406 -18.117188 20.859375 -18.765625 C 20.273438 -19.410156 19.59375 -19.90625 18.8125 -20.25 C 18.03125 -20.601562 17.191406 -20.78125 16.296875 -20.78125 C 15.398438 -20.78125 14.5625 -20.601562 13.78125 -20.25 C 13 -19.90625 12.304688 -19.410156 11.703125 -18.765625 C 11.109375 -18.117188 10.632812 -17.347656 10.28125 -16.453125 C 9.9375 -15.554688 9.765625 -14.539062 9.765625 -13.40625 L 9.765625 -13.3125 C 9.765625 -12.207031 9.9375 -11.195312 10.28125 -10.28125 C 10.632812 -9.375 11.109375 -8.597656 11.703125 -7.953125 C 12.304688 -7.304688 13 -6.804688 13.78125 -6.453125 C 14.5625 -6.109375 15.398438 -5.9375 16.296875 -5.9375 Z M 16.296875 -5.9375 "/></g></g></g><g fill="#000000" fill-opacity="1"><g transform="translate(222.715881, 95.76304)"><g><path d="M 16.046875 0.59375 C 14.054688 0.59375 12.203125 0.265625 10.484375 -0.390625 C 8.773438 -1.054688 7.296875 -2.003906 6.046875 -3.234375 C 4.804688 -4.460938 3.835938 -5.914062 3.140625 -7.59375 C 2.441406 -9.28125 2.09375 -11.148438 2.09375 -13.203125 L 2.09375 -13.3125 C 2.09375 -15.207031 2.414062 -17 3.0625 -18.6875 C 3.707031 -20.382812 4.613281 -21.863281 5.78125 -23.125 C 6.945312 -24.382812 8.332031 -25.378906 9.9375 -26.109375 C 11.550781 -26.847656 13.335938 -27.21875 15.296875 -27.21875 C 17.523438 -27.21875 19.453125 -26.816406 21.078125 -26.015625 C 22.710938 -25.222656 24.066406 -24.148438 25.140625 -22.796875 C 26.222656 -21.453125 27.019531 -19.90625 27.53125 -18.15625 C 28.050781 -16.414062 28.3125 -14.597656 28.3125 -12.703125 C 28.3125 -12.410156 28.300781 -12.097656 28.28125 -11.765625 C 28.269531 -11.429688 28.25 -11.082031 28.21875 -10.71875 L 9.625 -10.71875 C 9.988281 -8.988281 10.742188 -7.679688 11.890625 -6.796875 C 13.035156 -5.921875 14.457031 -5.484375 16.15625 -5.484375 C 17.414062 -5.484375 18.539062 -5.695312 19.53125 -6.125 C 20.53125 -6.5625 21.5625 -7.257812 22.625 -8.21875 L 26.96875 -4.390625 C 25.707031 -2.828125 24.175781 -1.601562 22.375 -0.71875 C 20.582031 0.15625 18.472656 0.59375 16.046875 0.59375 Z M 20.9375 -15.453125 C 20.695312 -17.148438 20.09375 -18.519531 19.125 -19.5625 C 18.164062 -20.613281 16.890625 -21.140625 15.296875 -21.140625 C 13.703125 -21.140625 12.414062 -20.625 11.4375 -19.59375 C 10.457031 -18.5625 9.816406 -17.179688 9.515625 -15.453125 Z M 20.9375 -15.453125 "/></g></g></g><g fill="#000000" fill-opacity="1"><g transform="translate(253.264153, 95.76304)"><g/></g></g><g fill="#000000" fill-opacity="1"><g transform="translate(268.21438, 95.76304)"><g><path d="M 12.765625 0.5 C 10.867188 0.5 8.929688 0.175781 6.953125 -0.46875 C 4.972656 -1.125 3.085938 -2.144531 1.296875 -3.53125 L 4.53125 -8.515625 C 6 -7.453125 7.453125 -6.65625 8.890625 -6.125 C 10.335938 -5.59375 11.691406 -5.328125 12.953125 -5.328125 C 14.054688 -5.328125 14.863281 -5.507812 15.375 -5.875 C 15.894531 -6.25 16.15625 -6.734375 16.15625 -7.328125 L 16.15625 -7.421875 C 16.15625 -7.828125 16.003906 -8.175781 15.703125 -8.46875 C 15.398438 -8.769531 14.988281 -9.023438 14.46875 -9.234375 C 13.957031 -9.453125 13.367188 -9.660156 12.703125 -9.859375 C 12.046875 -10.066406 11.347656 -10.285156 10.609375 -10.515625 C 9.679688 -10.785156 8.742188 -11.109375 7.796875 -11.484375 C 6.847656 -11.867188 5.992188 -12.367188 5.234375 -12.984375 C 4.472656 -13.597656 3.847656 -14.351562 3.359375 -15.25 C 2.878906 -16.144531 2.640625 -17.242188 2.640625 -18.546875 L 2.640625 -18.640625 C 2.640625 -20.003906 2.894531 -21.207031 3.40625 -22.25 C 3.925781 -23.300781 4.625 -24.191406 5.5 -24.921875 C 6.382812 -25.648438 7.414062 -26.195312 8.59375 -26.5625 C 9.78125 -26.925781 11.050781 -27.109375 12.40625 -27.109375 C 14.101562 -27.109375 15.820312 -26.832031 17.5625 -26.28125 C 19.3125 -25.738281 20.914062 -24.988281 22.375 -24.03125 L 19.484375 -18.796875 C 18.160156 -19.554688 16.863281 -20.160156 15.59375 -20.609375 C 14.332031 -21.054688 13.222656 -21.28125 12.265625 -21.28125 C 11.328125 -21.28125 10.625 -21.101562 10.15625 -20.75 C 9.695312 -20.40625 9.46875 -19.96875 9.46875 -19.4375 L 9.46875 -19.34375 C 9.46875 -18.976562 9.617188 -18.648438 9.921875 -18.359375 C 10.222656 -18.078125 10.617188 -17.8125 11.109375 -17.5625 C 11.609375 -17.320312 12.179688 -17.082031 12.828125 -16.84375 C 13.484375 -16.613281 14.175781 -16.382812 14.90625 -16.15625 C 15.832031 -15.851562 16.773438 -15.492188 17.734375 -15.078125 C 18.703125 -14.660156 19.566406 -14.148438 20.328125 -13.546875 C 21.097656 -12.953125 21.734375 -12.222656 22.234375 -11.359375 C 22.734375 -10.492188 22.984375 -9.445312 22.984375 -8.21875 L 22.984375 -8.125 C 22.984375 -6.625 22.722656 -5.332031 22.203125 -4.25 C 21.691406 -3.175781 20.96875 -2.289062 20.03125 -1.59375 C 19.101562 -0.894531 18.015625 -0.367188 16.765625 -0.015625 C 15.523438 0.328125 14.191406 0.5 12.765625 0.5 Z M 12.765625 0.5 "/></g></g></g><g fill="#000000" fill-opacity="1"><g transform="translate(293.231076, 95.76304)"><g><path d="M 12.265625 0.5 C 9.367188 0.5 7.128906 -0.378906 5.546875 -2.140625 C 3.972656 -3.898438 3.1875 -6.328125 3.1875 -9.421875 L 3.1875 -26.71875 L 10.765625 -26.71875 L 10.765625 -11.8125 C 10.765625 -10.019531 11.160156 -8.664062 11.953125 -7.75 C 12.753906 -6.832031 13.890625 -6.375 15.359375 -6.375 C 16.816406 -6.375 17.96875 -6.832031 18.8125 -7.75 C 19.664062 -8.664062 20.09375 -10.019531 20.09375 -11.8125 L 20.09375 -26.71875 L 27.65625 -26.71875 L 27.65625 0 L 20.09375 0 L 20.09375 -3.78125 C 19.65625 -3.21875 19.175781 -2.675781 18.65625 -2.15625 C 18.144531 -1.644531 17.570312 -1.191406 16.9375 -0.796875 C 16.3125 -0.398438 15.613281 -0.0859375 14.84375 0.140625 C 14.082031 0.378906 13.222656 0.5 12.265625 0.5 Z M 12.265625 0.5 "/></g></g></g><g fill="#000000" fill-opacity="1"><g transform="translate(324.277702, 95.76304)"><g><path d="M 10.96875 0.5 C 9.707031 0.5 8.519531 0.328125 7.40625 -0.015625 C 6.289062 -0.367188 5.316406 -0.894531 4.484375 -1.59375 C 3.648438 -2.289062 2.992188 -3.144531 2.515625 -4.15625 C 2.035156 -5.175781 1.796875 -6.347656 1.796875 -7.671875 L 1.796875 -7.78125 C 1.796875 -9.238281 2.0625 -10.5 2.59375 -11.5625 C 3.125 -12.625 3.863281 -13.503906 4.8125 -14.203125 C 5.757812 -14.898438 6.890625 -15.421875 8.203125 -15.765625 C 9.515625 -16.117188 10.96875 -16.296875 12.5625 -16.296875 C 13.925781 -16.296875 15.113281 -16.195312 16.125 -16 C 17.132812 -15.800781 18.125 -15.535156 19.09375 -15.203125 L 19.09375 -15.65625 C 19.09375 -17.25 18.609375 -18.457031 17.640625 -19.28125 C 16.679688 -20.113281 15.253906 -20.53125 13.359375 -20.53125 C 11.898438 -20.53125 10.613281 -20.40625 9.5 -20.15625 C 8.382812 -19.90625 7.210938 -19.550781 5.984375 -19.09375 L 4.09375 -24.875 C 5.550781 -25.5 7.078125 -26.007812 8.671875 -26.40625 C 10.265625 -26.8125 12.191406 -27.015625 14.453125 -27.015625 C 16.546875 -27.015625 18.332031 -26.753906 19.8125 -26.234375 C 21.289062 -25.722656 22.507812 -24.988281 23.46875 -24.03125 C 24.46875 -23.03125 25.203125 -21.804688 25.671875 -20.359375 C 26.140625 -18.910156 26.375 -17.289062 26.375 -15.5 L 26.375 0 L 19.046875 0 L 19.046875 -2.890625 C 18.109375 -1.859375 16.988281 -1.035156 15.6875 -0.421875 C 14.394531 0.191406 12.820312 0.5 10.96875 0.5 Z M 13.265625 -4.734375 C 15.054688 -4.734375 16.488281 -5.164062 17.5625 -6.03125 C 18.644531 -6.894531 19.1875 -8.023438 19.1875 -9.421875 L 19.1875 -10.765625 C 18.519531 -11.066406 17.78125 -11.304688 16.96875 -11.484375 C 16.15625 -11.671875 15.285156 -11.765625 14.359375 -11.765625 C 12.722656 -11.765625 11.441406 -11.445312 10.515625 -10.8125 C 9.585938 -10.1875 9.125 -9.273438 9.125 -8.078125 L 9.125 -7.96875 C 9.125 -6.945312 9.503906 -6.148438 10.265625 -5.578125 C 11.035156 -5.015625 12.035156 -4.734375 13.265625 -4.734375 Z M 13.265625 -4.734375 "/></g></g></g><g fill="#000000" fill-opacity="1"><g transform="translate(353.779473, 95.76304)"><g/></g></g><g fill="#000000" fill-opacity="1"><g transform="translate(368.729676, 95.76304)"><g><path d="M 16 0.59375 C 14.007812 0.59375 12.15625 0.226562 10.4375 -0.5 C 8.726562 -1.226562 7.257812 -2.210938 6.03125 -3.453125 C 4.800781 -4.703125 3.835938 -6.164062 3.140625 -7.84375 C 2.441406 -9.53125 2.09375 -11.316406 2.09375 -13.203125 L 2.09375 -13.3125 C 2.09375 -15.207031 2.441406 -17 3.140625 -18.6875 C 3.835938 -20.382812 4.800781 -21.863281 6.03125 -23.125 C 7.257812 -24.382812 8.726562 -25.378906 10.4375 -26.109375 C 12.15625 -26.847656 14.039062 -27.21875 16.09375 -27.21875 C 18.625 -27.21875 20.71875 -26.816406 22.375 -26.015625 C 24.039062 -25.222656 25.503906 -24.128906 26.765625 -22.734375 L 22.125 -17.75 C 21.257812 -18.644531 20.367188 -19.359375 19.453125 -19.890625 C 18.546875 -20.421875 17.410156 -20.6875 16.046875 -20.6875 C 15.085938 -20.6875 14.21875 -20.492188 13.4375 -20.109375 C 12.65625 -19.722656 11.972656 -19.195312 11.390625 -18.53125 C 10.804688 -17.875 10.351562 -17.101562 10.03125 -16.21875 C 9.71875 -15.34375 9.5625 -14.40625 9.5625 -13.40625 L 9.5625 -13.3125 C 9.5625 -12.28125 9.71875 -11.316406 10.03125 -10.421875 C 10.351562 -9.523438 10.8125 -8.742188 11.40625 -8.078125 C 12.007812 -7.410156 12.722656 -6.882812 13.546875 -6.5 C 14.378906 -6.125 15.3125 -5.9375 16.34375 -5.9375 C 17.613281 -5.9375 18.71875 -6.191406 19.65625 -6.703125 C 20.601562 -7.222656 21.546875 -7.910156 22.484375 -8.765625 L 26.921875 -4.28125 C 25.617188 -2.851562 24.132812 -1.679688 22.46875 -0.765625 C 20.8125 0.140625 18.65625 0.59375 16 0.59375 Z M 16 0.59375 "/></g></g></g><g fill="#000000" fill-opacity="1"><g transform="translate(397.184934, 95.76304)"><g><path d="M 16.5 0.59375 C 14.4375 0.59375 12.523438 0.238281 10.765625 -0.46875 C 9.003906 -1.1875 7.484375 -2.164062 6.203125 -3.40625 C 4.921875 -4.65625 3.914062 -6.117188 3.1875 -7.796875 C 2.457031 -9.472656 2.09375 -11.273438 2.09375 -13.203125 L 2.09375 -13.3125 C 2.09375 -15.238281 2.457031 -17.039062 3.1875 -18.71875 C 3.914062 -20.394531 4.925781 -21.863281 6.21875 -23.125 C 7.519531 -24.382812 9.050781 -25.378906 10.8125 -26.109375 C 12.570312 -26.847656 14.5 -27.21875 16.59375 -27.21875 C 18.65625 -27.21875 20.566406 -26.859375 22.328125 -26.140625 C 24.085938 -25.429688 25.609375 -24.453125 26.890625 -23.203125 C 28.171875 -21.953125 29.175781 -20.488281 29.90625 -18.8125 C 30.632812 -17.132812 31 -15.332031 31 -13.40625 L 31 -13.3125 C 31 -11.382812 30.632812 -9.582031 29.90625 -7.90625 C 29.175781 -6.226562 28.160156 -4.753906 26.859375 -3.484375 C 25.566406 -2.222656 24.039062 -1.226562 22.28125 -0.5 C 20.519531 0.226562 18.59375 0.59375 16.5 0.59375 Z M 16.59375 -5.9375 C 17.695312 -5.9375 18.671875 -6.125 19.515625 -6.5 C 20.359375 -6.882812 21.078125 -7.410156 21.671875 -8.078125 C 22.273438 -8.742188 22.734375 -9.515625 23.046875 -10.390625 C 23.367188 -11.273438 23.53125 -12.210938 23.53125 -13.203125 L 23.53125 -13.3125 C 23.53125 -14.300781 23.363281 -15.238281 23.03125 -16.125 C 22.695312 -17.007812 22.210938 -17.789062 21.578125 -18.46875 C 20.953125 -19.144531 20.207031 -19.679688 19.34375 -20.078125 C 18.476562 -20.484375 17.53125 -20.6875 16.5 -20.6875 C 15.40625 -20.6875 14.429688 -20.492188 13.578125 -20.109375 C 12.734375 -19.722656 12.007812 -19.195312 11.40625 -18.53125 C 10.8125 -17.875 10.351562 -17.101562 10.03125 -16.21875 C 9.71875 -15.34375 9.5625 -14.40625 9.5625 -13.40625 L 9.5625 -13.3125 C 9.5625 -12.3125 9.726562 -11.367188 10.0625 -10.484375 C 10.394531 -9.609375 10.878906 -8.828125 11.515625 -8.140625 C 12.148438 -7.460938 12.890625 -6.925781 13.734375 -6.53125 C 14.578125 -6.132812 15.53125 -5.9375 16.59375 -5.9375 Z M 16.59375 -5.9375 "/></g></g></g><g fill="#000000" fill-opacity="1"><g transform="translate(430.274756, 95.76304)"><g><path d="M 3.390625 -26.71875 L 10.96875 -26.71875 L 10.96875 -22.921875 C 11.394531 -23.492188 11.863281 -24.035156 12.375 -24.546875 C 12.894531 -25.066406 13.46875 -25.523438 14.09375 -25.921875 C 14.726562 -26.316406 15.425781 -26.628906 16.1875 -26.859375 C 16.957031 -27.097656 17.828125 -27.21875 18.796875 -27.21875 C 21.679688 -27.21875 23.910156 -26.335938 25.484375 -24.578125 C 27.066406 -22.816406 27.859375 -20.390625 27.859375 -17.296875 L 27.859375 0 L 20.28125 0 L 20.28125 -14.90625 C 20.28125 -16.695312 19.878906 -18.050781 19.078125 -18.96875 C 18.285156 -19.882812 17.160156 -20.34375 15.703125 -20.34375 C 14.234375 -20.34375 13.078125 -19.882812 12.234375 -18.96875 C 11.390625 -18.050781 10.96875 -16.695312 10.96875 -14.90625 L 10.96875 0 L 3.390625 0 Z M 3.390625 -26.71875 "/></g></g></g><g fill="#000000" fill-opacity="1"><g transform="translate(461.321382, 95.76304)"><g><path d="M 12.765625 0.5 C 10.867188 0.5 8.929688 0.175781 6.953125 -0.46875 C 4.972656 -1.125 3.085938 -2.144531 1.296875 -3.53125 L 4.53125 -8.515625 C 6 -7.453125 7.453125 -6.65625 8.890625 -6.125 C 10.335938 -5.59375 11.691406 -5.328125 12.953125 -5.328125 C 14.054688 -5.328125 14.863281 -5.507812 15.375 -5.875 C 15.894531 -6.25 16.15625 -6.734375 16.15625 -7.328125 L 16.15625 -7.421875 C 16.15625 -7.828125 16.003906 -8.175781 15.703125 -8.46875 C 15.398438 -8.769531 14.988281 -9.023438 14.46875 -9.234375 C 13.957031 -9.453125 13.367188 -9.660156 12.703125 -9.859375 C 12.046875 -10.066406 11.347656 -10.285156 10.609375 -10.515625 C 9.679688 -10.785156 8.742188 -11.109375 7.796875 -11.484375 C 6.847656 -11.867188 5.992188 -12.367188 5.234375 -12.984375 C 4.472656 -13.597656 3.847656 -14.351562 3.359375 -15.25 C 2.878906 -16.144531 2.640625 -17.242188 2.640625 -18.546875 L 2.640625 -18.640625 C 2.640625 -20.003906 2.894531 -21.207031 3.40625 -22.25 C 3.925781 -23.300781 4.625 -24.191406 5.5 -24.921875 C 6.382812 -25.648438 7.414062 -26.195312 8.59375 -26.5625 C 9.78125 -26.925781 11.050781 -27.109375 12.40625 -27.109375 C 14.101562 -27.109375 15.820312 -26.832031 17.5625 -26.28125 C 19.3125 -25.738281 20.914062 -24.988281 22.375 -24.03125 L 19.484375 -18.796875 C 18.160156 -19.554688 16.863281 -20.160156 15.59375 -20.609375 C 14.332031 -21.054688 13.222656 -21.28125 12.265625 -21.28125 C 11.328125 -21.28125 10.625 -21.101562 10.15625 -20.75 C 9.695312 -20.40625 9.46875 -19.96875 9.46875 -19.4375 L 9.46875 -19.34375 C 9.46875 -18.976562 9.617188 -18.648438 9.921875 -18.359375 C 10.222656 -18.078125 10.617188 -17.8125 11.109375 -17.5625 C 11.609375 -17.320312 12.179688 -17.082031 12.828125 -16.84375 C 13.484375 -16.613281 14.175781 -16.382812 14.90625 -16.15625 C 15.832031 -15.851562 16.773438 -15.492188 17.734375 -15.078125 C 18.703125 -14.660156 19.566406 -14.148438 20.328125 -13.546875 C 21.097656 -12.953125 21.734375 -12.222656 22.234375 -11.359375 C 22.734375 -10.492188 22.984375 -9.445312 22.984375 -8.21875 L 22.984375 -8.125 C 22.984375 -6.625 22.722656 -5.332031 22.203125 -4.25 C 21.691406 -3.175781 20.96875 -2.289062 20.03125 -1.59375 C 19.101562 -0.894531 18.015625 -0.367188 16.765625 -0.015625 C 15.523438 0.328125 14.191406 0.5 12.765625 0.5 Z M 12.765625 0.5 "/></g></g></g><g fill="#000000" fill-opacity="1"><g transform="translate(486.338078, 95.76304)"><g><path d="M 12.265625 0.5 C 9.367188 0.5 7.128906 -0.378906 5.546875 -2.140625 C 3.972656 -3.898438 3.1875 -6.328125 3.1875 -9.421875 L 3.1875 -26.71875 L 10.765625 -26.71875 L 10.765625 -11.8125 C 10.765625 -10.019531 11.160156 -8.664062 11.953125 -7.75 C 12.753906 -6.832031 13.890625 -6.375 15.359375 -6.375 C 16.816406 -6.375 17.96875 -6.832031 18.8125 -7.75 C 19.664062 -8.664062 20.09375 -10.019531 20.09375 -11.8125 L 20.09375 -26.71875 L 27.65625 -26.71875 L 27.65625 0 L 20.09375 0 L 20.09375 -3.78125 C 19.65625 -3.21875 19.175781 -2.675781 18.65625 -2.15625 C 18.144531 -1.644531 17.570312 -1.191406 16.9375 -0.796875 C 16.3125 -0.398438 15.613281 -0.0859375 14.84375 0.140625 C 14.082031 0.378906 13.222656 0.5 12.265625 0.5 Z M 12.265625 0.5 "/></g></g></g><g fill="#000000" fill-opacity="1"><g transform="translate(517.384703, 95.76304)"><g><path d="M 3.734375 -36.390625 L 11.3125 -36.390625 L 11.3125 0 L 3.734375 0 Z M 3.734375 -36.390625 "/></g></g></g><g fill="#000000" fill-opacity="1"><g transform="translate(532.434612, 95.76304)"><g><path d="M 12.40625 0.453125 C 11.25 0.453125 10.195312 0.328125 9.25 0.078125 C 8.300781 -0.171875 7.484375 -0.609375 6.796875 -1.234375 C 6.117188 -1.867188 5.585938 -2.691406 5.203125 -3.703125 C 4.828125 -4.722656 4.640625 -6.015625 4.640625 -7.578125 L 4.640625 -20.234375 L 1.453125 -20.234375 L 1.453125 -26.71875 L 4.640625 -26.71875 L 4.640625 -33.546875 L 12.21875 -33.546875 L 12.21875 -26.71875 L 18.484375 -26.71875 L 18.484375 -20.234375 L 12.21875 -20.234375 L 12.21875 -8.828125 C 12.21875 -7.097656 13.03125 -6.234375 14.65625 -6.234375 C 15.976562 -6.234375 17.222656 -6.546875 18.390625 -7.171875 L 18.390625 -1.09375 C 17.597656 -0.632812 16.71875 -0.265625 15.75 0.015625 C 14.789062 0.304688 13.675781 0.453125 12.40625 0.453125 Z M 12.40625 0.453125 "/></g></g></g><g fill="#000000" fill-opacity="1"><g transform="translate(553.115722, 95.76304)"><g><path d="M 10.96875 0.5 C 9.707031 0.5 8.519531 0.328125 7.40625 -0.015625 C 6.289062 -0.367188 5.316406 -0.894531 4.484375 -1.59375 C 3.648438 -2.289062 2.992188 -3.144531 2.515625 -4.15625 C 2.035156 -5.175781 1.796875 -6.347656 1.796875 -7.671875 L 1.796875 -7.78125 C 1.796875 -9.238281 2.0625 -10.5 2.59375 -11.5625 C 3.125 -12.625 3.863281 -13.503906 4.8125 -14.203125 C 5.757812 -14.898438 6.890625 -15.421875 8.203125 -15.765625 C 9.515625 -16.117188 10.96875 -16.296875 12.5625 -16.296875 C 13.925781 -16.296875 15.113281 -16.195312 16.125 -16 C 17.132812 -15.800781 18.125 -15.535156 19.09375 -15.203125 L 19.09375 -15.65625 C 19.09375 -17.25 18.609375 -18.457031 17.640625 -19.28125 C 16.679688 -20.113281 15.253906 -20.53125 13.359375 -20.53125 C 11.898438 -20.53125 10.613281 -20.40625 9.5 -20.15625 C 8.382812 -19.90625 7.210938 -19.550781 5.984375 -19.09375 L 4.09375 -24.875 C 5.550781 -25.5 7.078125 -26.007812 8.671875 -26.40625 C 10.265625 -26.8125 12.191406 -27.015625 14.453125 -27.015625 C 16.546875 -27.015625 18.332031 -26.753906 19.8125 -26.234375 C 21.289062 -25.722656 22.507812 -24.988281 23.46875 -24.03125 C 24.46875 -23.03125 25.203125 -21.804688 25.671875 -20.359375 C 26.140625 -18.910156 26.375 -17.289062 26.375 -15.5 L 26.375 0 L 19.046875 0 L 19.046875 -2.890625 C 18.109375 -1.859375 16.988281 -1.035156 15.6875 -0.421875 C 14.394531 0.191406 12.820312 0.5 10.96875 0.5 Z M 13.265625 -4.734375 C 15.054688 -4.734375 16.488281 -5.164062 17.5625 -6.03125 C 18.644531 -6.894531 19.1875 -8.023438 19.1875 -9.421875 L 19.1875 -10.765625 C 18.519531 -11.066406 17.78125 -11.304688 16.96875 -11.484375 C 16.15625 -11.671875 15.285156 -11.765625 14.359375 -11.765625 C 12.722656 -11.765625 11.441406 -11.445312 10.515625 -10.8125 C 9.585938 -10.1875 9.125 -9.273438 9.125 -8.078125 L 9.125 -7.96875 C 9.125 -6.945312 9.503906 -6.148438 10.265625 -5.578125 C 11.035156 -5.015625 12.035156 -4.734375 13.265625 -4.734375 Z M 13.265625 -4.734375 "/></g></g></g></svg>