<svg xmlns="http://www.w3.org/2000/svg" xmlns:xlink="http://www.w3.org/1999/xlink" width="641" zoomAndPan="magnify" viewBox="0 0 480.75 209.999996" height="280" preserveAspectRatio="xMidYMid meet" version="1.0"><defs><g/></defs><path fill="#7ed957" d="M 37.832031 153.160156 L 113.796875 153.160156 L 113.796875 162.90625 L 37.832031 162.90625 Z M 37.832031 153.160156 " fill-opacity="1" fill-rule="nonzero"/><g fill="#7ed957" fill-opacity="1"><g transform="translate(37.830233, 147.914076)"><g><path d="M 8.390625 -69.96875 L 23.78125 -69.96875 L 23.78125 -42.28125 L 52.171875 -42.28125 L 52.171875 -69.96875 L 67.5625 -69.96875 L 67.5625 0 L 52.171875 0 L 52.171875 -28.09375 L 23.78125 -28.09375 L 23.78125 0 L 8.390625 0 Z M 8.390625 -69.96875 "/></g></g></g><path fill="#00bf63" d="M 113.796875 153.160156 L 276.019531 153.160156 L 276.019531 162.90625 L 113.796875 162.90625 Z M 113.796875 153.160156 " fill-opacity="1" fill-rule="nonzero"/><g fill="#00bf63" fill-opacity="1"><g transform="translate(113.798537, 147.914076)"><g><path d="M 32.1875 1.203125 C 28.1875 1.203125 24.46875 0.535156 21.03125 -0.796875 C 17.601562 -2.128906 14.640625 -4.023438 12.140625 -6.484375 C 9.640625 -8.953125 7.691406 -11.867188 6.296875 -15.234375 C 4.898438 -18.609375 4.203125 -22.359375 4.203125 -26.484375 L 4.203125 -26.6875 C 4.203125 -30.488281 4.847656 -34.085938 6.140625 -37.484375 C 7.441406 -40.878906 9.257812 -43.84375 11.59375 -46.375 C 13.925781 -48.90625 16.707031 -50.90625 19.9375 -52.375 C 23.164062 -53.84375 26.75 -54.578125 30.6875 -54.578125 C 35.144531 -54.578125 39.003906 -53.773438 42.265625 -52.171875 C 45.535156 -50.578125 48.253906 -48.429688 50.421875 -45.734375 C 52.585938 -43.035156 54.1875 -39.9375 55.21875 -36.4375 C 56.25 -32.9375 56.765625 -29.285156 56.765625 -25.484375 C 56.765625 -24.890625 56.75 -24.257812 56.71875 -23.59375 C 56.6875 -22.925781 56.640625 -22.222656 56.578125 -21.484375 L 19.296875 -21.484375 C 20.023438 -18.023438 21.535156 -15.410156 23.828125 -13.640625 C 26.128906 -11.878906 28.984375 -11 32.390625 -11 C 34.921875 -11 37.1875 -11.429688 39.1875 -12.296875 C 41.1875 -13.160156 43.25 -14.5625 45.375 -16.5 L 54.078125 -8.796875 C 51.546875 -5.660156 48.476562 -3.207031 44.875 -1.4375 C 41.28125 0.320312 37.050781 1.203125 32.1875 1.203125 Z M 41.984375 -30.984375 C 41.515625 -34.378906 40.3125 -37.125 38.375 -39.21875 C 36.445312 -41.320312 33.882812 -42.375 30.6875 -42.375 C 27.488281 -42.375 24.90625 -41.34375 22.9375 -39.28125 C 20.96875 -37.21875 19.6875 -34.453125 19.09375 -30.984375 Z M 41.984375 -30.984375 "/></g></g></g><g fill="#00bf63" fill-opacity="1"><g transform="translate(175.06431, 147.914076)"><g><path d="M 21.984375 1 C 19.453125 1 17.070312 0.648438 14.84375 -0.046875 C 12.613281 -0.742188 10.664062 -1.789062 9 -3.1875 C 7.332031 -4.59375 6.015625 -6.3125 5.046875 -8.34375 C 4.078125 -10.375 3.59375 -12.722656 3.59375 -15.390625 L 3.59375 -15.59375 C 3.59375 -18.519531 4.125 -21.050781 5.1875 -23.1875 C 6.257812 -25.320312 7.742188 -27.085938 9.640625 -28.484375 C 11.546875 -29.878906 13.8125 -30.925781 16.4375 -31.625 C 19.070312 -32.332031 21.988281 -32.6875 25.1875 -32.6875 C 27.914062 -32.6875 30.296875 -32.484375 32.328125 -32.078125 C 34.367188 -31.679688 36.351562 -31.148438 38.28125 -30.484375 L 38.28125 -31.390625 C 38.28125 -34.585938 37.3125 -37.019531 35.375 -38.6875 C 33.445312 -40.351562 30.582031 -41.1875 26.78125 -41.1875 C 23.851562 -41.1875 21.269531 -40.9375 19.03125 -40.4375 C 16.800781 -39.9375 14.457031 -39.21875 12 -38.28125 L 8.203125 -49.875 C 11.128906 -51.144531 14.191406 -52.175781 17.390625 -52.96875 C 20.585938 -53.769531 24.453125 -54.171875 28.984375 -54.171875 C 33.179688 -54.171875 36.757812 -53.65625 39.71875 -52.625 C 42.6875 -51.59375 45.140625 -50.109375 47.078125 -48.171875 C 49.078125 -46.171875 50.539062 -43.722656 51.46875 -40.828125 C 52.40625 -37.929688 52.875 -34.679688 52.875 -31.078125 L 52.875 0 L 38.1875 0 L 38.1875 -5.796875 C 36.320312 -3.734375 34.085938 -2.082031 31.484375 -0.84375 C 28.890625 0.382812 25.722656 1 21.984375 1 Z M 26.59375 -9.5 C 30.1875 -9.5 33.066406 -10.363281 35.234375 -12.09375 C 37.398438 -13.820312 38.484375 -16.085938 38.484375 -18.890625 L 38.484375 -21.59375 C 37.148438 -22.1875 35.664062 -22.664062 34.03125 -23.03125 C 32.394531 -23.40625 30.644531 -23.59375 28.78125 -23.59375 C 25.519531 -23.59375 22.957031 -22.957031 21.09375 -21.6875 C 19.226562 -20.425781 18.296875 -18.59375 18.296875 -16.1875 L 18.296875 -16 C 18.296875 -13.925781 19.0625 -12.320312 20.59375 -11.1875 C 22.125 -10.0625 24.125 -9.5 26.59375 -9.5 Z M 26.59375 -9.5 "/></g></g></g><g fill="#00bf63" fill-opacity="1"><g transform="translate(234.231263, 147.914076)"><g><path d="M 6.796875 -53.578125 L 21.984375 -53.578125 L 21.984375 -42.78125 C 23.515625 -46.445312 25.613281 -49.378906 28.28125 -51.578125 C 30.945312 -53.773438 34.546875 -54.773438 39.078125 -54.578125 L 39.078125 -38.6875 L 38.28125 -38.6875 C 33.21875 -38.6875 29.234375 -37.148438 26.328125 -34.078125 C 23.429688 -31.015625 21.984375 -26.253906 21.984375 -19.796875 L 21.984375 0 L 6.796875 0 Z M 6.796875 -53.578125 "/></g></g></g><path fill="#7ed957" d="M 276.019531 153.160156 L 317.503906 153.160156 L 317.503906 162.90625 L 276.019531 162.90625 Z M 276.019531 153.160156 " fill-opacity="1" fill-rule="nonzero"/><g fill="#7ed957" fill-opacity="1"><g transform="translate(276.01886, 147.914076)"><g><path d="M 24.890625 0.90625 C 22.554688 0.90625 20.4375 0.65625 18.53125 0.15625 C 16.632812 -0.34375 15.003906 -1.222656 13.640625 -2.484375 C 12.273438 -3.753906 11.207031 -5.40625 10.4375 -7.4375 C 9.675781 -9.476562 9.296875 -12.0625 9.296875 -15.1875 L 9.296875 -40.578125 L 2.90625 -40.578125 L 2.90625 -53.578125 L 9.296875 -53.578125 L 9.296875 -67.265625 L 24.484375 -67.265625 L 24.484375 -53.578125 L 37.078125 -53.578125 L 37.078125 -40.578125 L 24.484375 -40.578125 L 24.484375 -17.6875 C 24.484375 -14.226562 26.117188 -12.5 29.390625 -12.5 C 32.054688 -12.5 34.550781 -13.128906 36.875 -14.390625 L 36.875 -2.203125 C 35.28125 -1.265625 33.515625 -0.515625 31.578125 0.046875 C 29.648438 0.617188 27.421875 0.90625 24.890625 0.90625 Z M 24.890625 0.90625 "/></g></g></g><g fill="#c1ff72" fill-opacity="1"><g transform="translate(317.505097, 147.914076)"><g><path d="M 6.796875 -53.578125 L 21.984375 -53.578125 L 21.984375 -45.984375 C 22.859375 -47.109375 23.8125 -48.1875 24.84375 -49.21875 C 25.875 -50.257812 27.019531 -51.175781 28.28125 -51.96875 C 29.550781 -52.769531 30.96875 -53.40625 32.53125 -53.875 C 34.101562 -54.34375 35.851562 -54.578125 37.78125 -54.578125 C 41.3125 -54.578125 44.359375 -53.84375 46.921875 -52.375 C 49.492188 -50.90625 51.476562 -48.804688 52.875 -46.078125 C 55.207031 -48.878906 57.804688 -50.992188 60.671875 -52.421875 C 63.535156 -53.859375 66.800781 -54.578125 70.46875 -54.578125 C 76.132812 -54.578125 80.566406 -52.910156 83.765625 -49.578125 C 86.960938 -46.242188 88.5625 -41.347656 88.5625 -34.890625 L 88.5625 0 L 73.359375 0 L 73.359375 -29.890625 C 73.359375 -33.484375 72.59375 -36.195312 71.0625 -38.03125 C 69.53125 -39.863281 67.332031 -40.78125 64.46875 -40.78125 C 61.601562 -40.78125 59.351562 -39.863281 57.71875 -38.03125 C 56.09375 -36.195312 55.28125 -33.484375 55.28125 -29.890625 L 55.28125 0 L 40.078125 0 L 40.078125 -29.890625 C 40.078125 -33.484375 39.3125 -36.195312 37.78125 -38.03125 C 36.25 -39.863281 34.050781 -40.78125 31.1875 -40.78125 C 28.320312 -40.78125 26.070312 -39.863281 24.4375 -38.03125 C 22.800781 -36.195312 21.984375 -33.484375 21.984375 -29.890625 L 21.984375 0 L 6.796875 0 Z M 6.796875 -53.578125 "/></g></g></g><g fill="#c1ff72" fill-opacity="1"><g transform="translate(412.452061, 147.914076)"><g><path d="M 7.5 -72.96875 L 22.6875 -72.96875 L 22.6875 0 L 7.5 0 Z M 7.5 -72.96875 "/></g></g></g><g fill="#00bf63" fill-opacity="1"><g transform="translate(37.830233, 66.445051)"><g><path d="M 19.140625 0.65625 C 17.078125 0.65625 15.144531 0.320312 13.34375 -0.34375 C 11.539062 -1.007812 9.960938 -1.96875 8.609375 -3.21875 C 7.265625 -4.46875 6.203125 -5.984375 5.421875 -7.765625 C 4.640625 -9.546875 4.25 -11.570312 4.25 -13.84375 C 4.25 -16.800781 4.835938 -19.628906 6.015625 -22.328125 C 7.203125 -25.035156 8.8125 -27.40625 10.84375 -29.4375 C 12.738281 -31.332031 14.910156 -32.828125 17.359375 -33.921875 C 19.804688 -35.023438 22.429688 -35.578125 25.234375 -35.578125 C 28.460938 -35.578125 31.175781 -34.867188 33.375 -33.453125 C 35.570312 -32.035156 37.253906 -30.242188 38.421875 -28.078125 L 35.03125 -25.984375 C 33.957031 -27.816406 32.640625 -29.265625 31.078125 -30.328125 C 29.515625 -31.398438 27.453125 -31.9375 24.890625 -31.9375 C 22.785156 -31.9375 20.800781 -31.507812 18.9375 -30.65625 C 17.070312 -29.800781 15.40625 -28.660156 13.9375 -27.234375 C 12.238281 -25.503906 10.890625 -23.488281 9.890625 -21.1875 C 8.890625 -18.882812 8.390625 -16.484375 8.390625 -13.984375 C 8.390625 -12.285156 8.664062 -10.757812 9.21875 -9.40625 C 9.769531 -8.0625 10.523438 -6.914062 11.484375 -5.96875 C 12.453125 -5.019531 13.601562 -4.296875 14.9375 -3.796875 C 16.269531 -3.296875 17.738281 -3.046875 19.34375 -3.046875 C 21.707031 -3.046875 23.726562 -3.46875 25.40625 -4.3125 C 27.09375 -5.164062 28.6875 -6.328125 30.1875 -7.796875 L 32.828125 -5.203125 C 32.023438 -4.398438 31.148438 -3.640625 30.203125 -2.921875 C 29.253906 -2.203125 28.222656 -1.578125 27.109375 -1.046875 C 25.992188 -0.515625 24.773438 -0.0976562 23.453125 0.203125 C 22.140625 0.503906 20.703125 0.65625 19.140625 0.65625 Z M 19.140625 0.65625 "/></g></g></g><g fill="#00bf63" fill-opacity="1"><g transform="translate(74.555446, 66.445051)"><g><path d="M 14.1875 0.59375 C 12.425781 0.59375 10.820312 0.300781 9.375 -0.28125 C 7.925781 -0.863281 6.679688 -1.671875 5.640625 -2.703125 C 4.609375 -3.734375 3.816406 -4.957031 3.265625 -6.375 C 2.722656 -7.789062 2.453125 -9.332031 2.453125 -11 C 2.453125 -13.0625 2.859375 -15.023438 3.671875 -16.890625 C 4.484375 -18.753906 5.625 -20.40625 7.09375 -21.84375 C 8.488281 -23.238281 10.085938 -24.34375 11.890625 -25.15625 C 13.691406 -25.976562 15.609375 -26.390625 17.640625 -26.390625 C 19.398438 -26.390625 21.003906 -26.097656 22.453125 -25.515625 C 23.910156 -24.929688 25.15625 -24.128906 26.1875 -23.109375 C 27.21875 -22.097656 28.015625 -20.882812 28.578125 -19.46875 C 29.148438 -18.050781 29.4375 -16.507812 29.4375 -14.84375 C 29.4375 -12.78125 29.019531 -10.8125 28.1875 -8.9375 C 27.351562 -7.070312 26.21875 -5.410156 24.78125 -3.953125 C 23.382812 -2.546875 21.773438 -1.4375 19.953125 -0.625 C 18.140625 0.1875 16.21875 0.59375 14.1875 0.59375 Z M 14.4375 -2.84375 C 15.84375 -2.84375 17.175781 -3.132812 18.4375 -3.71875 C 19.707031 -4.300781 20.820312 -5.078125 21.78125 -6.046875 C 22.945312 -7.210938 23.851562 -8.546875 24.5 -10.046875 C 25.15625 -11.546875 25.484375 -13.09375 25.484375 -14.6875 C 25.484375 -17.320312 24.734375 -19.363281 23.234375 -20.8125 C 21.734375 -22.257812 19.785156 -22.984375 17.390625 -22.984375 C 15.992188 -22.984375 14.660156 -22.679688 13.390625 -22.078125 C 12.128906 -21.484375 11.015625 -20.703125 10.046875 -19.734375 C 8.910156 -18.597656 8.007812 -17.269531 7.34375 -15.75 C 6.675781 -14.238281 6.34375 -12.6875 6.34375 -11.09375 C 6.34375 -8.457031 7.09375 -6.421875 8.59375 -4.984375 C 10.09375 -3.554688 12.039062 -2.84375 14.4375 -2.84375 Z M 14.4375 -2.84375 "/></g></g></g><g fill="#00bf63" fill-opacity="1"><g transform="translate(106.383966, 66.445051)"><g><path d="M 7.75 -25.828125 L 11.59375 -25.828125 L 10.5 -21.640625 C 11.664062 -22.972656 12.953125 -24.097656 14.359375 -25.015625 C 15.773438 -25.929688 17.484375 -26.390625 19.484375 -26.390625 C 21.984375 -26.390625 23.972656 -25.671875 25.453125 -24.234375 C 26.941406 -22.804688 27.6875 -20.859375 27.6875 -18.390625 C 27.6875 -17.785156 27.625 -17.132812 27.5 -16.4375 C 27.382812 -15.738281 27.242188 -15.054688 27.078125 -14.390625 L 23.234375 0 L 19.390625 0 L 23.328125 -14.640625 C 23.429688 -15.078125 23.515625 -15.5625 23.578125 -16.09375 C 23.648438 -16.625 23.6875 -17.101562 23.6875 -17.53125 C 23.6875 -19.238281 23.175781 -20.566406 22.15625 -21.515625 C 21.144531 -22.460938 19.738281 -22.9375 17.9375 -22.9375 C 16.9375 -22.9375 15.953125 -22.726562 14.984375 -22.3125 C 14.023438 -21.894531 13.128906 -21.316406 12.296875 -20.578125 C 11.460938 -19.847656 10.71875 -18.972656 10.0625 -17.953125 C 9.414062 -16.941406 8.925781 -15.820312 8.59375 -14.59375 L 4.703125 0 L 0.84375 0 Z M 7.75 -25.828125 "/></g></g></g><g fill="#00bf63" fill-opacity="1"><g transform="translate(137.063263, 66.445051)"><g><path d="M 10.09375 0.453125 C 8.226562 0.453125 6.710938 0.03125 5.546875 -0.8125 C 4.378906 -1.664062 3.796875 -2.941406 3.796875 -4.640625 C 3.796875 -5.109375 3.828125 -5.578125 3.890625 -6.046875 C 3.960938 -6.515625 4.046875 -6.945312 4.140625 -7.34375 L 8.1875 -22.4375 L 4.640625 -22.4375 L 5.546875 -25.828125 L 9.140625 -25.828125 L 11.25 -33.625 L 15.046875 -33.625 L 12.9375 -25.828125 L 21.09375 -25.828125 L 20.1875 -22.4375 L 12.046875 -22.4375 L 8.046875 -7.546875 C 7.972656 -7.242188 7.921875 -6.914062 7.890625 -6.5625 C 7.859375 -6.21875 7.84375 -5.910156 7.84375 -5.640625 C 7.84375 -4.742188 8.160156 -4.078125 8.796875 -3.640625 C 9.429688 -3.210938 10.296875 -3 11.390625 -3 C 12.585938 -3 13.835938 -3.265625 15.140625 -3.796875 L 14.1875 -0.296875 C 13.519531 -0.0351562 12.863281 0.148438 12.21875 0.265625 C 11.570312 0.390625 10.863281 0.453125 10.09375 0.453125 Z M 10.09375 0.453125 "/></g></g></g><g fill="#00bf63" fill-opacity="1"><g transform="translate(157.099744, 66.445051)"><g><path d="M 9.140625 0.546875 C 8.046875 0.546875 7.003906 0.382812 6.015625 0.0625 C 5.035156 -0.25 4.171875 -0.703125 3.421875 -1.296875 C 2.671875 -1.898438 2.070312 -2.640625 1.625 -3.515625 C 1.175781 -4.398438 0.953125 -5.425781 0.953125 -6.59375 C 0.953125 -7.863281 1.164062 -9.015625 1.59375 -10.046875 C 2.03125 -11.078125 2.628906 -11.972656 3.390625 -12.734375 C 4.429688 -13.773438 5.722656 -14.566406 7.265625 -15.109375 C 8.816406 -15.660156 10.539062 -15.9375 12.4375 -15.9375 C 14.175781 -15.9375 15.828125 -15.796875 17.390625 -15.515625 C 18.953125 -15.234375 20.367188 -14.910156 21.640625 -14.546875 L 21.78125 -15.140625 C 21.882812 -15.503906 21.96875 -15.898438 22.03125 -16.328125 C 22.101562 -16.765625 22.140625 -17.164062 22.140625 -17.53125 C 22.140625 -19.238281 21.5625 -20.539062 20.40625 -21.4375 C 19.257812 -22.332031 17.503906 -22.78125 15.140625 -22.78125 C 13.742188 -22.78125 12.46875 -22.65625 11.3125 -22.40625 C 10.164062 -22.15625 9.007812 -21.832031 7.84375 -21.4375 L 7.203125 -24.640625 C 8.460938 -25.097656 9.773438 -25.46875 11.140625 -25.75 C 12.503906 -26.039062 14.035156 -26.1875 15.734375 -26.1875 C 19.003906 -26.1875 21.515625 -25.476562 23.265625 -24.0625 C 25.015625 -22.644531 25.890625 -20.6875 25.890625 -18.1875 C 25.890625 -17.09375 25.703125 -15.910156 25.328125 -14.640625 L 21.4375 0 L 17.6875 0 L 18.78125 -4.046875 C 17.582031 -2.648438 16.191406 -1.535156 14.609375 -0.703125 C 13.035156 0.128906 11.210938 0.546875 9.140625 0.546875 Z M 10.34375 -2.453125 C 11.445312 -2.453125 12.53125 -2.640625 13.59375 -3.015625 C 14.65625 -3.398438 15.644531 -3.925781 16.5625 -4.59375 C 17.476562 -5.257812 18.285156 -6.066406 18.984375 -7.015625 C 19.679688 -7.960938 20.179688 -9.003906 20.484375 -10.140625 L 20.984375 -11.9375 C 19.847656 -12.269531 18.5625 -12.546875 17.125 -12.765625 C 15.695312 -12.984375 14.1875 -13.09375 12.59375 -13.09375 C 11.257812 -13.09375 10.078125 -12.898438 9.046875 -12.515625 C 8.015625 -12.128906 7.164062 -11.601562 6.5 -10.9375 C 5.394531 -9.875 4.84375 -8.578125 4.84375 -7.046875 C 4.84375 -5.648438 5.332031 -4.535156 6.3125 -3.703125 C 7.300781 -2.867188 8.644531 -2.453125 10.34375 -2.453125 Z M 10.34375 -2.453125 "/></g></g></g><g fill="#00bf63" fill-opacity="1"><g transform="translate(185.88032, 66.445051)"><g><path d="M 10.09375 0.453125 C 8.226562 0.453125 6.710938 0.03125 5.546875 -0.8125 C 4.378906 -1.664062 3.796875 -2.941406 3.796875 -4.640625 C 3.796875 -5.109375 3.828125 -5.578125 3.890625 -6.046875 C 3.960938 -6.515625 4.046875 -6.945312 4.140625 -7.34375 L 8.1875 -22.4375 L 4.640625 -22.4375 L 5.546875 -25.828125 L 9.140625 -25.828125 L 11.25 -33.625 L 15.046875 -33.625 L 12.9375 -25.828125 L 21.09375 -25.828125 L 20.1875 -22.4375 L 12.046875 -22.4375 L 8.046875 -7.546875 C 7.972656 -7.242188 7.921875 -6.914062 7.890625 -6.5625 C 7.859375 -6.21875 7.84375 -5.910156 7.84375 -5.640625 C 7.84375 -4.742188 8.160156 -4.078125 8.796875 -3.640625 C 9.429688 -3.210938 10.296875 -3 11.390625 -3 C 12.585938 -3 13.835938 -3.265625 15.140625 -3.796875 L 14.1875 -0.296875 C 13.519531 -0.0351562 12.863281 0.148438 12.21875 0.265625 C 11.570312 0.390625 10.863281 0.453125 10.09375 0.453125 Z M 10.09375 0.453125 "/></g></g></g><g fill="#00bf63" fill-opacity="1"><g transform="translate(205.916801, 66.445051)"><g><path d="M 14.1875 0.59375 C 12.425781 0.59375 10.820312 0.300781 9.375 -0.28125 C 7.925781 -0.863281 6.679688 -1.671875 5.640625 -2.703125 C 4.609375 -3.734375 3.816406 -4.957031 3.265625 -6.375 C 2.722656 -7.789062 2.453125 -9.332031 2.453125 -11 C 2.453125 -13.0625 2.859375 -15.023438 3.671875 -16.890625 C 4.484375 -18.753906 5.625 -20.40625 7.09375 -21.84375 C 8.488281 -23.238281 10.085938 -24.34375 11.890625 -25.15625 C 13.691406 -25.976562 15.609375 -26.390625 17.640625 -26.390625 C 19.398438 -26.390625 21.003906 -26.097656 22.453125 -25.515625 C 23.910156 -24.929688 25.15625 -24.128906 26.1875 -23.109375 C 27.21875 -22.097656 28.015625 -20.882812 28.578125 -19.46875 C 29.148438 -18.050781 29.4375 -16.507812 29.4375 -14.84375 C 29.4375 -12.78125 29.019531 -10.8125 28.1875 -8.9375 C 27.351562 -7.070312 26.21875 -5.410156 24.78125 -3.953125 C 23.382812 -2.546875 21.773438 -1.4375 19.953125 -0.625 C 18.140625 0.1875 16.21875 0.59375 14.1875 0.59375 Z M 14.4375 -2.84375 C 15.84375 -2.84375 17.175781 -3.132812 18.4375 -3.71875 C 19.707031 -4.300781 20.820312 -5.078125 21.78125 -6.046875 C 22.945312 -7.210938 23.851562 -8.546875 24.5 -10.046875 C 25.15625 -11.546875 25.484375 -13.09375 25.484375 -14.6875 C 25.484375 -17.320312 24.734375 -19.363281 23.234375 -20.8125 C 21.734375 -22.257812 19.785156 -22.984375 17.390625 -22.984375 C 15.992188 -22.984375 14.660156 -22.679688 13.390625 -22.078125 C 12.128906 -21.484375 11.015625 -20.703125 10.046875 -19.734375 C 8.910156 -18.597656 8.007812 -17.269531 7.34375 -15.75 C 6.675781 -14.238281 6.34375 -12.6875 6.34375 -11.09375 C 6.34375 -8.457031 7.09375 -6.421875 8.59375 -4.984375 C 10.09375 -3.554688 12.039062 -2.84375 14.4375 -2.84375 Z M 14.4375 -2.84375 "/></g></g></g><g fill="#00bf63" fill-opacity="1"><g transform="translate(237.745322, 66.445051)"><g><path d="M 10.84375 0.546875 C 8.84375 0.546875 6.859375 0.171875 4.890625 -0.578125 C 2.929688 -1.328125 1.203125 -2.453125 -0.296875 -3.953125 L 2.203125 -6.453125 C 3.597656 -5.078125 5.050781 -4.097656 6.5625 -3.515625 C 8.082031 -2.929688 9.625 -2.640625 11.1875 -2.640625 C 11.925781 -2.640625 12.632812 -2.738281 13.3125 -2.9375 C 14 -3.144531 14.609375 -3.4375 15.140625 -3.8125 C 15.671875 -4.195312 16.09375 -4.648438 16.40625 -5.171875 C 16.726562 -5.691406 16.890625 -6.285156 16.890625 -6.953125 C 16.890625 -7.773438 16.539062 -8.53125 15.84375 -9.21875 C 15.144531 -9.90625 13.863281 -10.613281 12 -11.34375 C 9.664062 -12.238281 7.863281 -13.191406 6.59375 -14.203125 C 5.332031 -15.222656 4.703125 -16.632812 4.703125 -18.4375 C 4.703125 -19.539062 4.925781 -20.570312 5.375 -21.53125 C 5.820312 -22.5 6.46875 -23.34375 7.3125 -24.0625 C 8.164062 -24.78125 9.203125 -25.347656 10.421875 -25.765625 C 11.640625 -26.179688 12.992188 -26.390625 14.484375 -26.390625 C 16.390625 -26.390625 18.191406 -26.03125 19.890625 -25.3125 C 21.585938 -24.59375 22.96875 -23.765625 24.03125 -22.828125 L 21.78125 -20.1875 C 20.71875 -21.050781 19.523438 -21.765625 18.203125 -22.328125 C 16.890625 -22.898438 15.535156 -23.1875 14.140625 -23.1875 C 12.304688 -23.1875 10.914062 -22.769531 9.96875 -21.9375 C 9.019531 -21.101562 8.546875 -20.15625 8.546875 -19.09375 C 8.546875 -18.65625 8.617188 -18.257812 8.765625 -17.90625 C 8.921875 -17.5625 9.1875 -17.210938 9.5625 -16.859375 C 9.945312 -16.515625 10.472656 -16.164062 11.140625 -15.8125 C 11.804688 -15.46875 12.65625 -15.09375 13.6875 -14.6875 C 16.019531 -13.71875 17.773438 -12.707031 18.953125 -11.65625 C 20.140625 -10.613281 20.734375 -9.257812 20.734375 -7.59375 C 20.734375 -6.394531 20.472656 -5.296875 19.953125 -4.296875 C 19.441406 -3.296875 18.734375 -2.4375 17.828125 -1.71875 C 16.929688 -1.007812 15.882812 -0.453125 14.6875 -0.046875 C 13.488281 0.347656 12.207031 0.546875 10.84375 0.546875 Z M 10.84375 0.546875 "/></g></g></g></svg>