<svg xmlns="http://www.w3.org/2000/svg" xmlns:xlink="http://www.w3.org/1999/xlink" width="851" zoomAndPan="magnify" viewBox="0 0 638.25 157.5" height="210" preserveAspectRatio="xMidYMid meet" version="1.0"><defs><g/><clipPath id="210ba31791"><path d="M 19.5 0 L 617.5625 0 L 617.5625 156.386719 L 19.5 156.386719 Z M 19.5 0 " clip-rule="nonzero"/></clipPath><clipPath id="239e3934f1"><path d="M 94.265625 0 L 542.839844 0 C 562.667969 0 581.683594 7.875 595.703125 21.898438 C 609.726562 35.917969 617.601562 54.933594 617.601562 74.761719 L 617.601562 81.625 C 617.601562 101.453125 609.726562 120.46875 595.703125 134.488281 C 581.683594 148.511719 562.667969 156.386719 542.839844 156.386719 L 94.265625 156.386719 C 74.4375 156.386719 55.417969 148.511719 41.398438 134.488281 C 27.378906 120.46875 19.5 101.453125 19.5 81.625 L 19.5 74.761719 C 19.5 54.933594 27.378906 35.917969 41.398438 21.898438 C 55.417969 7.875 74.4375 0 94.265625 0 Z M 94.265625 0 " clip-rule="nonzero"/></clipPath><linearGradient x1="0.00225788" gradientTransform="matrix(0.610889, 0, 0, 0.610889, 19.499815, 0.00000498418)" y1="128" x2="979.00222" gradientUnits="userSpaceOnUse" y2="128" id="66c53ad3d7"><stop stop-opacity="1" stop-color="rgb(75.698853%, 99.998474%, 44.699097%)" offset="0"/><stop stop-opacity="1" stop-color="rgb(75.402832%, 99.861145%, 44.671631%)" offset="0.00390625"/><stop stop-opacity="1" stop-color="rgb(75.108337%, 99.723816%, 44.644165%)" offset="0.0078125"/><stop stop-opacity="1" stop-color="rgb(74.812317%, 99.584961%, 44.615173%)" offset="0.0117187"/><stop stop-opacity="1" stop-color="rgb(74.516296%, 99.447632%, 44.587708%)" offset="0.015625"/><stop stop-opacity="1" stop-color="rgb(74.220276%, 99.308777%, 44.560242%)" offset="0.0195312"/><stop stop-opacity="1" stop-color="rgb(73.924255%, 99.171448%, 44.532776%)" offset="0.0234375"/><stop stop-opacity="1" stop-color="rgb(73.628235%, 99.034119%, 44.50531%)" offset="0.0273437"/><stop stop-opacity="1" stop-color="rgb(73.33374%, 98.89679%, 44.477844%)" offset="0.03125"/><stop stop-opacity="1" stop-color="rgb(73.03772%, 98.757935%, 44.448853%)" offset="0.0351562"/><stop stop-opacity="1" stop-color="rgb(72.741699%, 98.620605%, 44.421387%)" offset="0.0390625"/><stop stop-opacity="1" stop-color="rgb(72.445679%, 98.48175%, 44.393921%)" offset="0.0429687"/><stop stop-opacity="1" stop-color="rgb(72.151184%, 98.344421%, 44.366455%)" offset="0.046875"/><stop stop-opacity="1" stop-color="rgb(71.855164%, 98.205566%, 44.338989%)" offset="0.0507812"/><stop stop-opacity="1" stop-color="rgb(71.559143%, 98.068237%, 44.311523%)" offset="0.0546875"/><stop stop-opacity="1" stop-color="rgb(71.263123%, 97.930908%, 44.282532%)" offset="0.0585937"/><stop stop-opacity="1" stop-color="rgb(70.968628%, 97.793579%, 44.255066%)" offset="0.0625"/><stop stop-opacity="1" stop-color="rgb(70.672607%, 97.654724%, 44.2276%)" offset="0.0664062"/><stop stop-opacity="1" stop-color="rgb(70.376587%, 97.517395%, 44.200134%)" offset="0.0703125"/><stop stop-opacity="1" stop-color="rgb(70.080566%, 97.37854%, 44.172668%)" offset="0.0742188"/><stop stop-opacity="1" stop-color="rgb(69.786072%, 97.241211%, 44.145203%)" offset="0.078125"/><stop stop-opacity="1" stop-color="rgb(69.490051%, 97.102356%, 44.116211%)" offset="0.0820312"/><stop stop-opacity="1" stop-color="rgb(69.194031%, 96.965027%, 44.088745%)" offset="0.0859375"/><stop stop-opacity="1" stop-color="rgb(68.89801%, 96.827698%, 44.061279%)" offset="0.0898438"/><stop stop-opacity="1" stop-color="rgb(68.60199%, 96.690369%, 44.033813%)" offset="0.09375"/><stop stop-opacity="1" stop-color="rgb(68.305969%, 96.551514%, 44.006348%)" offset="0.0976562"/><stop stop-opacity="1" stop-color="rgb(68.011475%, 96.414185%, 43.978882%)" offset="0.101562"/><stop stop-opacity="1" stop-color="rgb(67.715454%, 96.27533%, 43.94989%)" offset="0.105469"/><stop stop-opacity="1" stop-color="rgb(67.419434%, 96.138%, 43.922424%)" offset="0.109375"/><stop stop-opacity="1" stop-color="rgb(67.123413%, 96.000671%, 43.894958%)" offset="0.113281"/><stop stop-opacity="1" stop-color="rgb(66.828918%, 95.863342%, 43.867493%)" offset="0.117188"/><stop stop-opacity="1" stop-color="rgb(66.532898%, 95.724487%, 43.838501%)" offset="0.121094"/><stop stop-opacity="1" stop-color="rgb(66.236877%, 95.587158%, 43.811035%)" offset="0.125"/><stop stop-opacity="1" stop-color="rgb(65.940857%, 95.448303%, 43.783569%)" offset="0.128906"/><stop stop-opacity="1" stop-color="rgb(65.646362%, 95.310974%, 43.756104%)" offset="0.132812"/><stop stop-opacity="1" stop-color="rgb(65.350342%, 95.172119%, 43.728638%)" offset="0.136719"/><stop stop-opacity="1" stop-color="rgb(65.054321%, 95.03479%, 43.701172%)" offset="0.140625"/><stop stop-opacity="1" stop-color="rgb(64.758301%, 94.897461%, 43.67218%)" offset="0.144531"/><stop stop-opacity="1" stop-color="rgb(64.463806%, 94.760132%, 43.644714%)" offset="0.148438"/><stop stop-opacity="1" stop-color="rgb(64.167786%, 94.621277%, 43.617249%)" offset="0.152344"/><stop stop-opacity="1" stop-color="rgb(63.871765%, 94.483948%, 43.589783%)" offset="0.15625"/><stop stop-opacity="1" stop-color="rgb(63.575745%, 94.345093%, 43.562317%)" offset="0.160156"/><stop stop-opacity="1" stop-color="rgb(63.279724%, 94.207764%, 43.534851%)" offset="0.164062"/><stop stop-opacity="1" stop-color="rgb(62.983704%, 94.070435%, 43.505859%)" offset="0.167969"/><stop stop-opacity="1" stop-color="rgb(62.689209%, 93.933105%, 43.478394%)" offset="0.171875"/><stop stop-opacity="1" stop-color="rgb(62.393188%, 93.79425%, 43.450928%)" offset="0.175781"/><stop stop-opacity="1" stop-color="rgb(62.097168%, 93.656921%, 43.423462%)" offset="0.179688"/><stop stop-opacity="1" stop-color="rgb(61.801147%, 93.518066%, 43.395996%)" offset="0.183594"/><stop stop-opacity="1" stop-color="rgb(61.506653%, 93.380737%, 43.36853%)" offset="0.1875"/><stop stop-opacity="1" stop-color="rgb(61.210632%, 93.241882%, 43.339539%)" offset="0.191406"/><stop stop-opacity="1" stop-color="rgb(60.914612%, 93.104553%, 43.312073%)" offset="0.195312"/><stop stop-opacity="1" stop-color="rgb(60.618591%, 92.967224%, 43.284607%)" offset="0.199219"/><stop stop-opacity="1" stop-color="rgb(60.324097%, 92.829895%, 43.257141%)" offset="0.203125"/><stop stop-opacity="1" stop-color="rgb(60.028076%, 92.69104%, 43.229675%)" offset="0.207031"/><stop stop-opacity="1" stop-color="rgb(59.732056%, 92.553711%, 43.202209%)" offset="0.210938"/><stop stop-opacity="1" stop-color="rgb(59.436035%, 92.414856%, 43.173218%)" offset="0.214844"/><stop stop-opacity="1" stop-color="rgb(59.141541%, 92.277527%, 43.145752%)" offset="0.21875"/><stop stop-opacity="1" stop-color="rgb(58.84552%, 92.138672%, 43.118286%)" offset="0.222656"/><stop stop-opacity="1" stop-color="rgb(58.5495%, 92.001343%, 43.09082%)" offset="0.226562"/><stop stop-opacity="1" stop-color="rgb(58.253479%, 91.864014%, 43.063354%)" offset="0.230469"/><stop stop-opacity="1" stop-color="rgb(57.957458%, 91.726685%, 43.035889%)" offset="0.234375"/><stop stop-opacity="1" stop-color="rgb(57.661438%, 91.58783%, 43.006897%)" offset="0.238281"/><stop stop-opacity="1" stop-color="rgb(57.366943%, 91.4505%, 42.979431%)" offset="0.242188"/><stop stop-opacity="1" stop-color="rgb(57.070923%, 91.311646%, 42.951965%)" offset="0.246094"/><stop stop-opacity="1" stop-color="rgb(56.774902%, 91.174316%, 42.9245%)" offset="0.25"/><stop stop-opacity="1" stop-color="rgb(56.478882%, 91.036987%, 42.897034%)" offset="0.253906"/><stop stop-opacity="1" stop-color="rgb(56.184387%, 90.899658%, 42.869568%)" offset="0.257812"/><stop stop-opacity="1" stop-color="rgb(55.888367%, 90.760803%, 42.840576%)" offset="0.261719"/><stop stop-opacity="1" stop-color="rgb(55.592346%, 90.623474%, 42.81311%)" offset="0.265625"/><stop stop-opacity="1" stop-color="rgb(55.296326%, 90.484619%, 42.785645%)" offset="0.269531"/><stop stop-opacity="1" stop-color="rgb(55.001831%, 90.34729%, 42.758179%)" offset="0.273437"/><stop stop-opacity="1" stop-color="rgb(54.705811%, 90.208435%, 42.729187%)" offset="0.277344"/><stop stop-opacity="1" stop-color="rgb(54.40979%, 90.071106%, 42.701721%)" offset="0.28125"/><stop stop-opacity="1" stop-color="rgb(54.11377%, 89.933777%, 42.674255%)" offset="0.285156"/><stop stop-opacity="1" stop-color="rgb(53.819275%, 89.796448%, 42.64679%)" offset="0.289062"/><stop stop-opacity="1" stop-color="rgb(53.523254%, 89.657593%, 42.619324%)" offset="0.292969"/><stop stop-opacity="1" stop-color="rgb(53.227234%, 89.520264%, 42.591858%)" offset="0.296875"/><stop stop-opacity="1" stop-color="rgb(52.931213%, 89.381409%, 42.562866%)" offset="0.300781"/><stop stop-opacity="1" stop-color="rgb(52.635193%, 89.24408%, 42.5354%)" offset="0.304687"/><stop stop-opacity="1" stop-color="rgb(52.339172%, 89.10675%, 42.507935%)" offset="0.308594"/><stop stop-opacity="1" stop-color="rgb(52.044678%, 88.969421%, 42.480469%)" offset="0.3125"/><stop stop-opacity="1" stop-color="rgb(51.748657%, 88.830566%, 42.453003%)" offset="0.316406"/><stop stop-opacity="1" stop-color="rgb(51.452637%, 88.693237%, 42.425537%)" offset="0.320312"/><stop stop-opacity="1" stop-color="rgb(51.156616%, 88.554382%, 42.396545%)" offset="0.324219"/><stop stop-opacity="1" stop-color="rgb(50.862122%, 88.417053%, 42.36908%)" offset="0.328125"/><stop stop-opacity="1" stop-color="rgb(50.566101%, 88.278198%, 42.341614%)" offset="0.332031"/><stop stop-opacity="1" stop-color="rgb(50.270081%, 88.140869%, 42.314148%)" offset="0.335937"/><stop stop-opacity="1" stop-color="rgb(49.97406%, 88.00354%, 42.286682%)" offset="0.339844"/><stop stop-opacity="1" stop-color="rgb(49.679565%, 87.866211%, 42.259216%)" offset="0.34375"/><stop stop-opacity="1" stop-color="rgb(49.383545%, 87.727356%, 42.230225%)" offset="0.347656"/><stop stop-opacity="1" stop-color="rgb(49.087524%, 87.590027%, 42.202759%)" offset="0.351562"/><stop stop-opacity="1" stop-color="rgb(48.791504%, 87.451172%, 42.175293%)" offset="0.355469"/><stop stop-opacity="1" stop-color="rgb(48.495483%, 87.313843%, 42.147827%)" offset="0.359375"/><stop stop-opacity="1" stop-color="rgb(48.199463%, 87.174988%, 42.120361%)" offset="0.363281"/><stop stop-opacity="1" stop-color="rgb(47.904968%, 87.037659%, 42.092896%)" offset="0.367187"/><stop stop-opacity="1" stop-color="rgb(47.608948%, 86.90033%, 42.063904%)" offset="0.371094"/><stop stop-opacity="1" stop-color="rgb(47.312927%, 86.763%, 42.036438%)" offset="0.375"/><stop stop-opacity="1" stop-color="rgb(47.016907%, 86.624146%, 42.008972%)" offset="0.378906"/><stop stop-opacity="1" stop-color="rgb(46.722412%, 86.486816%, 41.981506%)" offset="0.382812"/><stop stop-opacity="1" stop-color="rgb(46.426392%, 86.347961%, 41.954041%)" offset="0.386719"/><stop stop-opacity="1" stop-color="rgb(46.130371%, 86.210632%, 41.926575%)" offset="0.390625"/><stop stop-opacity="1" stop-color="rgb(45.834351%, 86.073303%, 41.897583%)" offset="0.394531"/><stop stop-opacity="1" stop-color="rgb(45.539856%, 85.935974%, 41.870117%)" offset="0.398437"/><stop stop-opacity="1" stop-color="rgb(45.243835%, 85.797119%, 41.842651%)" offset="0.402344"/><stop stop-opacity="1" stop-color="rgb(44.947815%, 85.65979%, 41.815186%)" offset="0.40625"/><stop stop-opacity="1" stop-color="rgb(44.651794%, 85.520935%, 41.78772%)" offset="0.410156"/><stop stop-opacity="1" stop-color="rgb(44.3573%, 85.383606%, 41.760254%)" offset="0.414062"/><stop stop-opacity="1" stop-color="rgb(44.061279%, 85.244751%, 41.731262%)" offset="0.417969"/><stop stop-opacity="1" stop-color="rgb(43.765259%, 85.107422%, 41.703796%)" offset="0.421875"/><stop stop-opacity="1" stop-color="rgb(43.469238%, 84.970093%, 41.676331%)" offset="0.425781"/><stop stop-opacity="1" stop-color="rgb(43.173218%, 84.832764%, 41.648865%)" offset="0.429687"/><stop stop-opacity="1" stop-color="rgb(42.877197%, 84.693909%, 41.621399%)" offset="0.433594"/><stop stop-opacity="1" stop-color="rgb(42.582703%, 84.55658%, 41.593933%)" offset="0.4375"/><stop stop-opacity="1" stop-color="rgb(42.286682%, 84.417725%, 41.564941%)" offset="0.441406"/><stop stop-opacity="1" stop-color="rgb(41.990662%, 84.280396%, 41.537476%)" offset="0.445312"/><stop stop-opacity="1" stop-color="rgb(41.694641%, 84.141541%, 41.51001%)" offset="0.449219"/><stop stop-opacity="1" stop-color="rgb(41.400146%, 84.004211%, 41.482544%)" offset="0.453125"/><stop stop-opacity="1" stop-color="rgb(41.104126%, 83.866882%, 41.453552%)" offset="0.457031"/><stop stop-opacity="1" stop-color="rgb(40.808105%, 83.729553%, 41.426086%)" offset="0.460937"/><stop stop-opacity="1" stop-color="rgb(40.512085%, 83.590698%, 41.398621%)" offset="0.464844"/><stop stop-opacity="1" stop-color="rgb(40.21759%, 83.453369%, 41.371155%)" offset="0.46875"/><stop stop-opacity="1" stop-color="rgb(39.92157%, 83.314514%, 41.343689%)" offset="0.472656"/><stop stop-opacity="1" stop-color="rgb(39.625549%, 83.177185%, 41.316223%)" offset="0.476562"/><stop stop-opacity="1" stop-color="rgb(39.329529%, 83.039856%, 41.287231%)" offset="0.480469"/><stop stop-opacity="1" stop-color="rgb(39.035034%, 82.902527%, 41.259766%)" offset="0.484375"/><stop stop-opacity="1" stop-color="rgb(38.739014%, 82.763672%, 41.2323%)" offset="0.488281"/><stop stop-opacity="1" stop-color="rgb(38.442993%, 82.626343%, 41.204834%)" offset="0.492187"/><stop stop-opacity="1" stop-color="rgb(38.146973%, 82.487488%, 41.177368%)" offset="0.496094"/><stop stop-opacity="1" stop-color="rgb(37.850952%, 82.350159%, 41.149902%)" offset="0.5"/><stop stop-opacity="1" stop-color="rgb(37.554932%, 82.211304%, 41.120911%)" offset="0.503906"/><stop stop-opacity="1" stop-color="rgb(37.260437%, 82.073975%, 41.093445%)" offset="0.507812"/><stop stop-opacity="1" stop-color="rgb(36.964417%, 81.936646%, 41.065979%)" offset="0.511719"/><stop stop-opacity="1" stop-color="rgb(36.668396%, 81.799316%, 41.038513%)" offset="0.515625"/><stop stop-opacity="1" stop-color="rgb(36.372375%, 81.660461%, 41.011047%)" offset="0.519531"/><stop stop-opacity="1" stop-color="rgb(36.077881%, 81.523132%, 40.983582%)" offset="0.523437"/><stop stop-opacity="1" stop-color="rgb(35.78186%, 81.384277%, 40.95459%)" offset="0.527344"/><stop stop-opacity="1" stop-color="rgb(35.48584%, 81.246948%, 40.927124%)" offset="0.53125"/><stop stop-opacity="1" stop-color="rgb(35.189819%, 81.109619%, 40.899658%)" offset="0.535156"/><stop stop-opacity="1" stop-color="rgb(34.895325%, 80.97229%, 40.872192%)" offset="0.539062"/><stop stop-opacity="1" stop-color="rgb(34.599304%, 80.833435%, 40.844727%)" offset="0.542969"/><stop stop-opacity="1" stop-color="rgb(34.303284%, 80.696106%, 40.817261%)" offset="0.546875"/><stop stop-opacity="1" stop-color="rgb(34.007263%, 80.557251%, 40.788269%)" offset="0.550781"/><stop stop-opacity="1" stop-color="rgb(33.712769%, 80.419922%, 40.760803%)" offset="0.554687"/><stop stop-opacity="1" stop-color="rgb(33.416748%, 80.281067%, 40.733337%)" offset="0.558594"/><stop stop-opacity="1" stop-color="rgb(33.120728%, 80.143738%, 40.705872%)" offset="0.5625"/><stop stop-opacity="1" stop-color="rgb(32.824707%, 80.006409%, 40.678406%)" offset="0.566406"/><stop stop-opacity="1" stop-color="rgb(32.528687%, 79.86908%, 40.65094%)" offset="0.570312"/><stop stop-opacity="1" stop-color="rgb(32.232666%, 79.730225%, 40.621948%)" offset="0.574219"/><stop stop-opacity="1" stop-color="rgb(31.938171%, 79.592896%, 40.594482%)" offset="0.578125"/><stop stop-opacity="1" stop-color="rgb(31.642151%, 79.454041%, 40.567017%)" offset="0.582031"/><stop stop-opacity="1" stop-color="rgb(31.34613%, 79.316711%, 40.539551%)" offset="0.585937"/><stop stop-opacity="1" stop-color="rgb(31.05011%, 79.177856%, 40.512085%)" offset="0.589844"/><stop stop-opacity="1" stop-color="rgb(30.755615%, 79.040527%, 40.484619%)" offset="0.59375"/><stop stop-opacity="1" stop-color="rgb(30.459595%, 78.903198%, 40.455627%)" offset="0.597656"/><stop stop-opacity="1" stop-color="rgb(30.163574%, 78.765869%, 40.428162%)" offset="0.601562"/><stop stop-opacity="1" stop-color="rgb(29.867554%, 78.627014%, 40.400696%)" offset="0.605469"/><stop stop-opacity="1" stop-color="rgb(29.573059%, 78.489685%, 40.37323%)" offset="0.609375"/><stop stop-opacity="1" stop-color="rgb(29.277039%, 78.35083%, 40.344238%)" offset="0.613281"/><stop stop-opacity="1" stop-color="rgb(28.981018%, 78.213501%, 40.316772%)" offset="0.617187"/><stop stop-opacity="1" stop-color="rgb(28.684998%, 78.076172%, 40.289307%)" offset="0.621094"/><stop stop-opacity="1" stop-color="rgb(28.390503%, 77.938843%, 40.261841%)" offset="0.625"/><stop stop-opacity="1" stop-color="rgb(28.094482%, 77.799988%, 40.234375%)" offset="0.628906"/><stop stop-opacity="1" stop-color="rgb(27.798462%, 77.662659%, 40.206909%)" offset="0.632812"/><stop stop-opacity="1" stop-color="rgb(27.502441%, 77.523804%, 40.177917%)" offset="0.636719"/><stop stop-opacity="1" stop-color="rgb(27.206421%, 77.386475%, 40.150452%)" offset="0.640625"/><stop stop-opacity="1" stop-color="rgb(26.9104%, 77.24762%, 40.122986%)" offset="0.644531"/><stop stop-opacity="1" stop-color="rgb(26.615906%, 77.110291%, 40.09552%)" offset="0.648437"/><stop stop-opacity="1" stop-color="rgb(26.319885%, 76.972961%, 40.068054%)" offset="0.652344"/><stop stop-opacity="1" stop-color="rgb(26.023865%, 76.835632%, 40.040588%)" offset="0.65625"/><stop stop-opacity="1" stop-color="rgb(25.727844%, 76.696777%, 40.011597%)" offset="0.660156"/><stop stop-opacity="1" stop-color="rgb(25.43335%, 76.559448%, 39.984131%)" offset="0.664062"/><stop stop-opacity="1" stop-color="rgb(25.137329%, 76.420593%, 39.956665%)" offset="0.667969"/><stop stop-opacity="1" stop-color="rgb(24.841309%, 76.283264%, 39.929199%)" offset="0.671875"/><stop stop-opacity="1" stop-color="rgb(24.545288%, 76.144409%, 39.901733%)" offset="0.675781"/><stop stop-opacity="1" stop-color="rgb(24.250793%, 76.00708%, 39.874268%)" offset="0.679687"/><stop stop-opacity="1" stop-color="rgb(23.954773%, 75.869751%, 39.845276%)" offset="0.683594"/><stop stop-opacity="1" stop-color="rgb(23.658752%, 75.732422%, 39.81781%)" offset="0.6875"/><stop stop-opacity="1" stop-color="rgb(23.362732%, 75.593567%, 39.790344%)" offset="0.691406"/><stop stop-opacity="1" stop-color="rgb(23.068237%, 75.456238%, 39.762878%)" offset="0.695312"/><stop stop-opacity="1" stop-color="rgb(22.772217%, 75.317383%, 39.735413%)" offset="0.699219"/><stop stop-opacity="1" stop-color="rgb(22.476196%, 75.180054%, 39.707947%)" offset="0.703125"/><stop stop-opacity="1" stop-color="rgb(22.180176%, 75.042725%, 39.678955%)" offset="0.707031"/><stop stop-opacity="1" stop-color="rgb(21.884155%, 74.905396%, 39.651489%)" offset="0.710937"/><stop stop-opacity="1" stop-color="rgb(21.588135%, 74.766541%, 39.624023%)" offset="0.714844"/><stop stop-opacity="1" stop-color="rgb(21.29364%, 74.629211%, 39.596558%)" offset="0.71875"/><stop stop-opacity="1" stop-color="rgb(20.99762%, 74.490356%, 39.569092%)" offset="0.722656"/><stop stop-opacity="1" stop-color="rgb(20.701599%, 74.353027%, 39.541626%)" offset="0.726562"/><stop stop-opacity="1" stop-color="rgb(20.405579%, 74.214172%, 39.512634%)" offset="0.730469"/><stop stop-opacity="1" stop-color="rgb(20.111084%, 74.076843%, 39.485168%)" offset="0.734375"/><stop stop-opacity="1" stop-color="rgb(19.815063%, 73.939514%, 39.457703%)" offset="0.738281"/><stop stop-opacity="1" stop-color="rgb(19.519043%, 73.802185%, 39.430237%)" offset="0.742187"/><stop stop-opacity="1" stop-color="rgb(19.223022%, 73.66333%, 39.402771%)" offset="0.746094"/><stop stop-opacity="1" stop-color="rgb(18.928528%, 73.526001%, 39.375305%)" offset="0.75"/><stop stop-opacity="1" stop-color="rgb(18.632507%, 73.387146%, 39.346313%)" offset="0.753906"/><stop stop-opacity="1" stop-color="rgb(18.336487%, 73.249817%, 39.318848%)" offset="0.757812"/><stop stop-opacity="1" stop-color="rgb(18.040466%, 73.112488%, 39.291382%)" offset="0.761719"/><stop stop-opacity="1" stop-color="rgb(17.745972%, 72.975159%, 39.263916%)" offset="0.765625"/><stop stop-opacity="1" stop-color="rgb(17.449951%, 72.836304%, 39.234924%)" offset="0.769531"/><stop stop-opacity="1" stop-color="rgb(17.153931%, 72.698975%, 39.207458%)" offset="0.773438"/><stop stop-opacity="1" stop-color="rgb(16.85791%, 72.56012%, 39.179993%)" offset="0.777344"/><stop stop-opacity="1" stop-color="rgb(16.56189%, 72.422791%, 39.152527%)" offset="0.78125"/><stop stop-opacity="1" stop-color="rgb(16.265869%, 72.283936%, 39.125061%)" offset="0.785156"/><stop stop-opacity="1" stop-color="rgb(15.971375%, 72.146606%, 39.097595%)" offset="0.789062"/><stop stop-opacity="1" stop-color="rgb(15.675354%, 72.009277%, 39.068604%)" offset="0.792969"/><stop stop-opacity="1" stop-color="rgb(15.379333%, 71.871948%, 39.041138%)" offset="0.796875"/><stop stop-opacity="1" stop-color="rgb(15.083313%, 71.733093%, 39.013672%)" offset="0.800781"/><stop stop-opacity="1" stop-color="rgb(14.788818%, 71.595764%, 38.986206%)" offset="0.804688"/><stop stop-opacity="1" stop-color="rgb(14.492798%, 71.456909%, 38.95874%)" offset="0.808594"/><stop stop-opacity="1" stop-color="rgb(14.196777%, 71.31958%, 38.931274%)" offset="0.8125"/><stop stop-opacity="1" stop-color="rgb(13.900757%, 71.180725%, 38.902283%)" offset="0.816406"/><stop stop-opacity="1" stop-color="rgb(13.606262%, 71.043396%, 38.874817%)" offset="0.820312"/><stop stop-opacity="1" stop-color="rgb(13.310242%, 70.906067%, 38.847351%)" offset="0.824219"/><stop stop-opacity="1" stop-color="rgb(13.014221%, 70.768738%, 38.819885%)" offset="0.828125"/><stop stop-opacity="1" stop-color="rgb(12.718201%, 70.629883%, 38.792419%)" offset="0.832031"/><stop stop-opacity="1" stop-color="rgb(12.42218%, 70.492554%, 38.764954%)" offset="0.835938"/><stop stop-opacity="1" stop-color="rgb(12.12616%, 70.353699%, 38.735962%)" offset="0.839844"/><stop stop-opacity="1" stop-color="rgb(11.831665%, 70.21637%, 38.708496%)" offset="0.84375"/><stop stop-opacity="1" stop-color="rgb(11.535645%, 70.079041%, 38.68103%)" offset="0.847656"/><stop stop-opacity="1" stop-color="rgb(11.239624%, 69.941711%, 38.653564%)" offset="0.851562"/><stop stop-opacity="1" stop-color="rgb(10.943604%, 69.802856%, 38.626099%)" offset="0.855469"/><stop stop-opacity="1" stop-color="rgb(10.649109%, 69.665527%, 38.598633%)" offset="0.859375"/><stop stop-opacity="1" stop-color="rgb(10.353088%, 69.526672%, 38.569641%)" offset="0.863281"/><stop stop-opacity="1" stop-color="rgb(10.057068%, 69.389343%, 38.542175%)" offset="0.867188"/><stop stop-opacity="1" stop-color="rgb(9.761047%, 69.250488%, 38.514709%)" offset="0.871094"/><stop stop-opacity="1" stop-color="rgb(9.466553%, 69.113159%, 38.487244%)" offset="0.875"/><stop stop-opacity="1" stop-color="rgb(9.170532%, 68.97583%, 38.459778%)" offset="0.878906"/><stop stop-opacity="1" stop-color="rgb(8.874512%, 68.838501%, 38.432312%)" offset="0.882812"/><stop stop-opacity="1" stop-color="rgb(8.578491%, 68.699646%, 38.40332%)" offset="0.886719"/><stop stop-opacity="1" stop-color="rgb(8.283997%, 68.562317%, 38.375854%)" offset="0.890625"/><stop stop-opacity="1" stop-color="rgb(7.987976%, 68.423462%, 38.348389%)" offset="0.894531"/><stop stop-opacity="1" stop-color="rgb(7.691956%, 68.286133%, 38.320923%)" offset="0.898438"/><stop stop-opacity="1" stop-color="rgb(7.395935%, 68.148804%, 38.293457%)" offset="0.902344"/><stop stop-opacity="1" stop-color="rgb(7.099915%, 68.011475%, 38.265991%)" offset="0.90625"/><stop stop-opacity="1" stop-color="rgb(6.803894%, 67.87262%, 38.237%)" offset="0.910156"/><stop stop-opacity="1" stop-color="rgb(6.509399%, 67.735291%, 38.209534%)" offset="0.914062"/><stop stop-opacity="1" stop-color="rgb(6.213379%, 67.596436%, 38.182068%)" offset="0.917969"/><stop stop-opacity="1" stop-color="rgb(5.917358%, 67.459106%, 38.154602%)" offset="0.921875"/><stop stop-opacity="1" stop-color="rgb(5.621338%, 67.320251%, 38.12561%)" offset="0.925781"/><stop stop-opacity="1" stop-color="rgb(5.326843%, 67.182922%, 38.098145%)" offset="0.929688"/><stop stop-opacity="1" stop-color="rgb(5.030823%, 67.045593%, 38.070679%)" offset="0.933594"/><stop stop-opacity="1" stop-color="rgb(4.734802%, 66.908264%, 38.043213%)" offset="0.9375"/><stop stop-opacity="1" stop-color="rgb(4.438782%, 66.769409%, 38.015747%)" offset="0.941406"/><stop stop-opacity="1" stop-color="rgb(4.144287%, 66.63208%, 37.988281%)" offset="0.945312"/><stop stop-opacity="1" stop-color="rgb(3.848267%, 66.493225%, 37.95929%)" offset="0.949219"/><stop stop-opacity="1" stop-color="rgb(3.552246%, 66.355896%, 37.931824%)" offset="0.953125"/><stop stop-opacity="1" stop-color="rgb(3.256226%, 66.217041%, 37.904358%)" offset="0.957031"/><stop stop-opacity="1" stop-color="rgb(2.961731%, 66.079712%, 37.876892%)" offset="0.960938"/><stop stop-opacity="1" stop-color="rgb(2.66571%, 65.942383%, 37.849426%)" offset="0.964844"/><stop stop-opacity="1" stop-color="rgb(2.36969%, 65.805054%, 37.82196%)" offset="0.96875"/><stop stop-opacity="1" stop-color="rgb(2.073669%, 65.666199%, 37.792969%)" offset="0.972656"/><stop stop-opacity="1" stop-color="rgb(1.777649%, 65.52887%, 37.765503%)" offset="0.976562"/><stop stop-opacity="1" stop-color="rgb(1.481628%, 65.390015%, 37.738037%)" offset="0.980469"/><stop stop-opacity="1" stop-color="rgb(1.187134%, 65.252686%, 37.710571%)" offset="0.984375"/><stop stop-opacity="1" stop-color="rgb(0.891113%, 65.115356%, 37.683105%)" offset="0.988281"/><stop stop-opacity="1" stop-color="rgb(0.595093%, 64.978027%, 37.65564%)" offset="0.992188"/><stop stop-opacity="1" stop-color="rgb(0.299072%, 64.839172%, 37.626648%)" offset="0.996094"/><stop stop-opacity="1" stop-color="rgb(0.00457764%, 64.701843%, 37.599182%)" offset="1"/></linearGradient><clipPath id="3c17202c6e"><path d="M 144 0 L 493 0 L 493 157 L 144 157 Z M 144 0 " clip-rule="nonzero"/></clipPath></defs><g clip-path="url(#210ba31791)"><g clip-path="url(#239e3934f1)"><path fill="url(#66c53ad3d7)" d="M 19.5 0 L 19.5 156.386719 L 617.5625 156.386719 L 617.5625 0 Z M 19.5 0 " fill-rule="nonzero"/></g></g><g clip-path="url(#3c17202c6e)"><path stroke-linecap="butt" transform="matrix(0.747627, 0, 0, 0.747627, 19.501194, 43.429182)" fill="none" stroke-linejoin="miter" d="M 290.454036 70.797637 C 287.026523 70.797637 283.844578 70.181103 280.902978 68.942809 C 277.971827 67.694066 275.437766 65.990759 273.300795 63.832888 C 271.174274 61.675018 269.512766 59.130507 268.305821 56.199356 C 267.114551 53.268205 266.513691 50.138509 266.513691 46.810269 L 266.513691 46.663972 C 266.513691 43.330507 267.114551 40.21126 268.305821 37.306234 C 269.512766 34.395982 271.174274 31.841022 273.300795 29.641353 C 275.437766 27.436458 277.992726 25.707027 280.965676 24.447834 C 283.949076 23.178191 287.245967 22.545982 290.845901 22.545982 C 293.024671 22.545982 295.015346 22.723627 296.817925 23.078918 C 298.620505 23.428985 300.250664 23.914897 301.718852 24.547106 C 303.181815 25.163641 304.535055 25.916022 305.768124 26.809474 C 307.016868 27.697702 308.176788 28.674752 309.253111 29.7354 L 302.711576 37.26966 C 300.888098 35.623826 299.033269 34.333284 297.141867 33.398033 C 295.25569 32.468006 293.134393 31.997768 290.783203 31.997768 C 288.829102 31.997768 287.016073 32.379183 285.344115 33.136789 C 283.687832 33.89962 282.250994 34.944594 281.049274 36.276935 C 279.842329 37.604051 278.912303 39.145387 278.248745 40.900943 C 277.590411 42.656499 277.25602 44.537451 277.25602 46.533351 L 277.25602 46.663972 C 277.25602 48.670322 277.590411 50.561724 278.248745 52.343404 C 278.912303 54.109409 279.83188 55.661195 281.017925 56.998761 C 282.198745 58.331102 283.619909 59.386526 285.281417 60.170256 C 286.953375 60.953986 288.787303 61.340626 290.783203 61.340626 C 293.447886 61.340626 295.705029 60.854714 297.549407 59.877663 C 299.393785 58.890163 301.227714 57.557822 303.051193 55.875414 L 309.577053 62.463973 C 308.385783 63.754515 307.142264 64.909211 305.851722 65.933285 C 304.56118 66.952135 303.14524 67.829912 301.603904 68.566619 C 300.073018 69.303325 298.395836 69.857161 296.572357 70.228127 C 294.754103 70.609542 292.711179 70.797637 290.454036 70.797637 Z M 334.243654 70.797637 C 331.490149 70.797637 328.935189 70.322174 326.578773 69.366024 C 324.227583 68.409873 322.189884 67.103656 320.476127 65.442148 C 318.762371 63.77019 317.41958 61.816089 316.442529 59.569396 C 315.465479 57.322703 314.974341 54.914039 314.974341 52.343404 L 314.974341 52.197107 C 314.974341 49.626472 315.465479 47.217808 316.442529 44.971115 C 317.41958 42.724422 318.77282 40.759872 320.507477 39.077464 C 322.247358 37.384607 324.290281 36.052266 326.646696 35.075215 C 328.997887 34.098165 331.573747 33.612252 334.374276 33.612252 C 337.133006 33.612252 339.687967 34.087715 342.039157 35.043866 C 344.395573 35.994792 346.422822 37.311459 348.126129 38.983416 C 349.839885 40.6397 351.187901 42.5938 352.164952 44.840493 C 353.152452 47.087187 353.643589 49.495851 353.643589 52.066486 L 353.643589 52.197107 C 353.643589 54.778192 353.152452 57.192081 352.164952 59.438774 C 351.187901 61.685468 349.829436 63.655243 348.094779 65.3481 C 346.370573 67.025283 344.32765 68.357624 341.976459 69.334674 C 339.620044 70.311725 337.044184 70.797637 334.243654 70.797637 Z M 334.374276 62.072108 C 335.837239 62.072108 337.138231 61.821314 338.266803 61.309277 C 339.405824 60.78679 340.3672 60.086658 341.16138 59.20888 C 341.966009 58.320653 342.577319 57.286129 343.000533 56.100084 C 343.423747 54.919264 343.632742 53.665295 343.632742 52.343404 L 343.632742 52.197107 C 343.632742 50.859541 343.413298 49.605573 342.969184 48.435203 C 342.52507 47.254382 341.877187 46.209409 341.030758 45.295057 C 340.194779 44.38593 339.196829 43.664898 338.036909 43.131962 C 336.887438 42.599025 335.62302 42.332557 334.243654 42.332557 C 332.780691 42.332557 331.479699 42.588575 330.340678 43.100612 C 329.212107 43.607425 328.245506 44.307557 327.440876 45.195784 C 326.641472 46.089237 326.024937 47.123761 325.601723 48.304581 C 325.178509 49.480176 324.969514 50.72892 324.969514 52.066486 L 324.969514 52.197107 C 324.969514 53.529449 325.188958 54.788642 325.638297 55.969462 C 326.082411 57.145057 326.725069 58.184806 327.571498 59.093933 C 328.417927 60.008285 329.405427 60.734542 330.533998 61.277928 C 331.673019 61.810864 332.953112 62.072108 334.374276 62.072108 Z M 360.979304 34.27581 L 371.099873 34.27581 L 371.099873 39.338707 C 371.674608 38.581102 372.301593 37.86007 372.98605 37.175612 C 373.680958 36.480705 374.454238 35.869395 375.300667 35.336459 C 376.147095 34.803522 377.077122 34.385533 378.095971 34.08249 C 379.120045 33.768998 380.274741 33.612252 381.565283 33.612252 C 385.436911 33.612252 388.425535 34.787847 390.531157 37.144263 C 392.647228 39.495453 393.702652 42.740096 393.702652 46.872967 L 393.702652 69.998233 L 383.566408 69.998233 L 383.566408 50.065361 C 383.566408 47.667147 383.028246 45.859343 381.957149 44.641948 C 380.891275 43.419329 379.381289 42.80802 377.432413 42.80802 C 375.478312 42.80802 373.931751 43.419329 372.79273 44.641948 C 371.664159 45.859343 371.099873 47.667147 371.099873 50.065361 L 371.099873 69.998233 L 360.979304 69.998233 Z M 414.565549 70.604317 C 413.013764 70.604317 411.603049 70.431897 410.333406 70.097505 C 409.063763 69.763113 407.971766 69.177928 407.062639 68.341949 C 406.148287 67.495521 405.437705 66.393074 404.930893 65.034608 C 404.418856 63.681367 404.162837 61.957161 404.162837 59.861989 L 404.162837 42.933417 L 399.899345 42.933417 L 399.899345 34.27581 L 404.162837 34.27581 L 404.162837 25.132292 L 414.304306 25.132292 L 414.304306 34.27581 L 422.700669 34.27581 L 422.700669 42.933417 L 414.304306 42.933417 L 414.304306 58.200481 C 414.304306 60.509872 415.385854 61.669793 417.559399 61.669793 C 419.335854 61.669793 421.002587 61.246579 422.554372 60.40015 L 422.554372 68.53527 C 421.488499 69.151804 420.312904 69.653391 419.022362 70.034807 C 417.742269 70.410997 416.258407 70.604317 414.565549 70.604317 Z M 440.287574 70.667016 C 438.594717 70.667016 437.006357 70.431897 435.522495 69.966883 C 434.033407 69.50187 432.732415 68.801738 431.614293 67.866486 C 430.506621 66.93646 429.628844 65.792214 428.98096 64.433748 C 428.338301 63.080507 428.019584 61.507822 428.019584 59.731367 L 428.019584 59.600745 C 428.019584 57.646645 428.374875 55.959012 429.090682 54.537848 C 429.806489 53.116684 430.793989 51.941089 432.053182 51.005838 C 433.322825 50.075811 434.838037 49.375679 436.593593 48.910666 C 438.354373 48.440427 440.292799 48.210533 442.41932 48.210533 C 444.242799 48.210533 445.831159 48.34638 447.189625 48.612848 C 448.54809 48.874091 449.869982 49.229382 451.160524 49.673496 L 451.160524 49.072636 C 451.160524 46.935665 450.512641 45.310732 449.222098 44.20306 C 447.931556 43.084938 446.024479 42.531102 443.495643 42.531102 C 441.541543 42.531102 439.817336 42.698298 438.317799 43.032689 C 436.833937 43.367081 435.271701 43.847768 433.631092 44.464303 L 431.091807 36.736723 C 433.045907 35.890295 435.088831 35.200612 437.215352 34.667676 C 439.352323 34.134739 441.933408 33.868271 444.958606 33.868271 C 447.759135 33.868271 450.1469 34.218337 452.1219 34.913244 C 454.0969 35.597702 455.727059 36.585202 457.017601 37.875744 C 458.355168 39.208086 459.332218 40.843469 459.948752 42.771446 C 460.575736 44.704647 460.894453 46.867742 460.894453 49.265957 L 460.894453 69.998233 L 451.097826 69.998233 L 451.097826 66.126605 C 449.849083 67.505971 448.35477 68.608418 446.620114 69.428722 C 444.885458 70.254251 442.774611 70.667016 440.287574 70.667016 Z M 443.365021 63.670917 C 445.763236 63.670917 447.680762 63.096182 449.128051 61.946711 C 450.570114 60.781565 451.291146 59.271579 451.291146 57.401076 L 451.291146 55.598496 C 450.402919 55.196182 449.410194 54.877465 448.312971 54.637121 C 447.226199 54.386327 446.066278 54.26093 444.827984 54.26093 C 442.649215 54.26093 440.935458 54.684145 439.686714 55.530573 C 438.448421 56.377002 437.831886 57.599621 437.831886 59.193206 L 437.831886 59.339502 C 437.831886 60.718867 438.343923 61.78474 439.362773 62.547571 C 440.381622 63.294727 441.713963 63.670917 443.365021 63.670917 Z M 481.684203 70.604317 C 480.132417 70.604317 478.726928 70.431897 477.457285 70.097505 C 476.187642 69.763113 475.095644 69.177928 474.181293 68.341949 C 473.272166 67.495521 472.561584 66.393074 472.049546 65.034608 C 471.542734 63.681367 471.286716 61.957161 471.286716 59.861989 L 471.286716 42.933417 L 467.023223 42.933417 L 467.023223 34.27581 L 471.286716 34.27581 L 471.286716 25.132292 L 481.428184 25.132292 L 481.428184 34.27581 L 489.824547 34.27581 L 489.824547 42.933417 L 481.428184 42.933417 L 481.428184 58.200481 C 481.428184 60.509872 482.509732 61.669793 484.683277 61.669793 C 486.459732 61.669793 488.126465 61.246579 489.678251 60.40015 L 489.678251 68.53527 C 488.612378 69.151804 487.436783 69.653391 486.14624 70.034807 C 484.866148 70.410997 483.37706 70.604317 481.684203 70.604317 Z M 514.815091 70.797637 C 512.061585 70.797637 509.506625 70.322174 507.150209 69.366024 C 504.799019 68.409873 502.76132 67.103656 501.047564 65.442148 C 499.333807 63.77019 497.991016 61.816089 497.013965 59.569396 C 496.036915 57.322703 495.545778 54.914039 495.545778 52.343404 L 495.545778 52.197107 C 495.545778 49.626472 496.036915 47.217808 497.013965 44.971115 C 497.991016 42.724422 499.344257 40.759872 501.078913 39.077464 C 502.818794 37.384607 504.861717 36.052266 507.218133 35.075215 C 509.569323 34.098165 512.150408 33.612252 514.945712 33.612252 C 517.704443 33.612252 520.259403 34.087715 522.610594 35.043866 C 524.967009 35.994792 526.994258 37.311459 528.697565 38.983416 C 530.411321 40.6397 531.759337 42.5938 532.736388 44.840493 C 533.723888 47.087187 534.215025 49.495851 534.215025 52.066486 L 534.215025 52.197107 C 534.215025 54.778192 533.723888 57.192081 532.736388 59.438774 C 531.759337 61.685468 530.400872 63.655243 528.666215 65.3481 C 526.942009 67.025283 524.899086 68.357624 522.547895 69.334674 C 520.19148 70.311725 517.61562 70.797637 514.815091 70.797637 Z M 514.945712 62.072108 C 516.4139 62.072108 517.709667 61.821314 518.838239 61.309277 C 519.97726 60.78679 520.943861 60.086658 521.732816 59.20888 C 522.537445 58.320653 523.148755 57.286129 523.571969 56.100084 C 523.995184 54.919264 524.209403 53.665295 524.209403 52.343404 L 524.209403 52.197107 C 524.209403 50.859541 523.984734 49.605573 523.54062 48.435203 C 523.096506 47.254382 522.448623 46.209409 521.602194 45.295057 C 520.766215 44.38593 519.768265 43.664898 518.608345 43.131962 C 517.458874 42.599025 516.194456 42.332557 514.815091 42.332557 C 513.352128 42.332557 512.051135 42.588575 510.912114 43.100612 C 509.783543 43.607425 508.816942 44.307557 508.012312 45.195784 C 507.212908 46.089237 506.596373 47.123761 506.173159 48.304581 C 505.749945 49.480176 505.54095 50.72892 505.54095 52.066486 L 505.54095 52.197107 C 505.54095 53.529449 505.760394 54.788642 506.209733 55.969462 C 506.653847 57.145057 507.296506 58.184806 508.142934 59.093933 C 508.989363 60.008285 509.976863 60.734542 511.105434 61.277928 C 512.244456 61.810864 513.524548 62.072108 514.945712 62.072108 Z M 514.945712 62.072108 " stroke="#ffffff" stroke-width="17.50001" stroke-opacity="1" stroke-miterlimit="4"/></g><g fill="#000000" fill-opacity="1"><g transform="translate(216.115299, 95.76304)"><g><path d="M 20.53125 0.59375 C 17.976562 0.59375 15.601562 0.128906 13.40625 -0.796875 C 11.21875 -1.722656 9.320312 -2.992188 7.71875 -4.609375 C 6.125 -6.222656 4.878906 -8.125 3.984375 -10.3125 C 3.085938 -12.507812 2.640625 -14.851562 2.640625 -17.34375 L 2.640625 -17.453125 C 2.640625 -19.941406 3.085938 -22.273438 3.984375 -24.453125 C 4.878906 -26.628906 6.125 -28.535156 7.71875 -30.171875 C 9.320312 -31.816406 11.234375 -33.113281 13.453125 -34.0625 C 15.679688 -35.007812 18.140625 -35.484375 20.828125 -35.484375 C 22.460938 -35.484375 23.953125 -35.347656 25.296875 -35.078125 C 26.640625 -34.816406 27.859375 -34.453125 28.953125 -33.984375 C 30.054688 -33.523438 31.070312 -32.960938 32 -32.296875 C 32.925781 -31.628906 33.789062 -30.898438 34.59375 -30.109375 L 29.703125 -24.46875 C 28.335938 -25.695312 26.945312 -26.660156 25.53125 -27.359375 C 24.125 -28.054688 22.539062 -28.40625 20.78125 -28.40625 C 19.320312 -28.40625 17.96875 -28.125 16.71875 -27.5625 C 15.476562 -27 14.40625 -26.21875 13.5 -25.21875 C 12.601562 -24.21875 11.90625 -23.0625 11.40625 -21.75 C 10.914062 -20.4375 10.671875 -19.035156 10.671875 -17.546875 L 10.671875 -17.453125 C 10.671875 -15.953125 10.914062 -14.535156 11.40625 -13.203125 C 11.90625 -11.878906 12.59375 -10.71875 13.46875 -9.71875 C 14.351562 -8.71875 15.421875 -7.925781 16.671875 -7.34375 C 17.921875 -6.769531 19.289062 -6.484375 20.78125 -6.484375 C 22.78125 -6.484375 24.46875 -6.847656 25.84375 -7.578125 C 27.21875 -8.304688 28.585938 -9.300781 29.953125 -10.5625 L 34.84375 -5.625 C 33.945312 -4.664062 33.015625 -3.800781 32.046875 -3.03125 C 31.085938 -2.269531 30.035156 -1.613281 28.890625 -1.0625 C 27.742188 -0.519531 26.488281 -0.109375 25.125 0.171875 C 23.757812 0.453125 22.226562 0.59375 20.53125 0.59375 Z M 20.53125 0.59375 "/></g></g></g><g fill="#000000" fill-opacity="1"><g transform="translate(252.892831, 95.76304)"><g><path d="M 16.5 0.59375 C 14.4375 0.59375 12.523438 0.238281 10.765625 -0.46875 C 9.003906 -1.1875 7.484375 -2.164062 6.203125 -3.40625 C 4.921875 -4.65625 3.914062 -6.117188 3.1875 -7.796875 C 2.457031 -9.472656 2.09375 -11.273438 2.09375 -13.203125 L 2.09375 -13.3125 C 2.09375 -15.238281 2.457031 -17.039062 3.1875 -18.71875 C 3.914062 -20.394531 4.925781 -21.863281 6.21875 -23.125 C 7.519531 -24.382812 9.050781 -25.378906 10.8125 -26.109375 C 12.570312 -26.847656 14.5 -27.21875 16.59375 -27.21875 C 18.65625 -27.21875 20.566406 -26.859375 22.328125 -26.140625 C 24.085938 -25.429688 25.609375 -24.453125 26.890625 -23.203125 C 28.171875 -21.953125 29.175781 -20.488281 29.90625 -18.8125 C 30.632812 -17.132812 31 -15.332031 31 -13.40625 L 31 -13.3125 C 31 -11.382812 30.632812 -9.582031 29.90625 -7.90625 C 29.175781 -6.226562 28.160156 -4.753906 26.859375 -3.484375 C 25.566406 -2.222656 24.039062 -1.226562 22.28125 -0.5 C 20.519531 0.226562 18.59375 0.59375 16.5 0.59375 Z M 16.59375 -5.9375 C 17.695312 -5.9375 18.671875 -6.125 19.515625 -6.5 C 20.359375 -6.882812 21.078125 -7.410156 21.671875 -8.078125 C 22.273438 -8.742188 22.734375 -9.515625 23.046875 -10.390625 C 23.367188 -11.273438 23.53125 -12.210938 23.53125 -13.203125 L 23.53125 -13.3125 C 23.53125 -14.300781 23.363281 -15.238281 23.03125 -16.125 C 22.695312 -17.007812 22.210938 -17.789062 21.578125 -18.46875 C 20.953125 -19.144531 20.207031 -19.679688 19.34375 -20.078125 C 18.476562 -20.484375 17.53125 -20.6875 16.5 -20.6875 C 15.40625 -20.6875 14.429688 -20.492188 13.578125 -20.109375 C 12.734375 -19.722656 12.007812 -19.195312 11.40625 -18.53125 C 10.8125 -17.875 10.351562 -17.101562 10.03125 -16.21875 C 9.71875 -15.34375 9.5625 -14.40625 9.5625 -13.40625 L 9.5625 -13.3125 C 9.5625 -12.3125 9.726562 -11.367188 10.0625 -10.484375 C 10.394531 -9.609375 10.878906 -8.828125 11.515625 -8.140625 C 12.148438 -7.460938 12.890625 -6.925781 13.734375 -6.53125 C 14.578125 -6.132812 15.53125 -5.9375 16.59375 -5.9375 Z M 16.59375 -5.9375 "/></g></g></g><g fill="#000000" fill-opacity="1"><g transform="translate(285.982641, 95.76304)"><g><path d="M 3.390625 -26.71875 L 10.96875 -26.71875 L 10.96875 -22.921875 C 11.394531 -23.492188 11.863281 -24.035156 12.375 -24.546875 C 12.894531 -25.066406 13.46875 -25.523438 14.09375 -25.921875 C 14.726562 -26.316406 15.425781 -26.628906 16.1875 -26.859375 C 16.957031 -27.097656 17.828125 -27.21875 18.796875 -27.21875 C 21.679688 -27.21875 23.910156 -26.335938 25.484375 -24.578125 C 27.066406 -22.816406 27.859375 -20.390625 27.859375 -17.296875 L 27.859375 0 L 20.28125 0 L 20.28125 -14.90625 C 20.28125 -16.695312 19.878906 -18.050781 19.078125 -18.96875 C 18.285156 -19.882812 17.160156 -20.34375 15.703125 -20.34375 C 14.234375 -20.34375 13.078125 -19.882812 12.234375 -18.96875 C 11.390625 -18.050781 10.96875 -16.695312 10.96875 -14.90625 L 10.96875 0 L 3.390625 0 Z M 3.390625 -26.71875 "/></g></g></g><g fill="#000000" fill-opacity="1"><g transform="translate(317.029255, 95.76304)"><g><path d="M 12.40625 0.453125 C 11.25 0.453125 10.195312 0.328125 9.25 0.078125 C 8.300781 -0.171875 7.484375 -0.609375 6.796875 -1.234375 C 6.117188 -1.867188 5.585938 -2.691406 5.203125 -3.703125 C 4.828125 -4.722656 4.640625 -6.015625 4.640625 -7.578125 L 4.640625 -20.234375 L 1.453125 -20.234375 L 1.453125 -26.71875 L 4.640625 -26.71875 L 4.640625 -33.546875 L 12.21875 -33.546875 L 12.21875 -26.71875 L 18.484375 -26.71875 L 18.484375 -20.234375 L 12.21875 -20.234375 L 12.21875 -8.828125 C 12.21875 -7.097656 13.03125 -6.234375 14.65625 -6.234375 C 15.976562 -6.234375 17.222656 -6.546875 18.390625 -7.171875 L 18.390625 -1.09375 C 17.597656 -0.632812 16.71875 -0.265625 15.75 0.015625 C 14.789062 0.304688 13.675781 0.453125 12.40625 0.453125 Z M 12.40625 0.453125 "/></g></g></g><g fill="#000000" fill-opacity="1"><g transform="translate(337.710387, 95.76304)"><g><path d="M 10.96875 0.5 C 9.707031 0.5 8.519531 0.328125 7.40625 -0.015625 C 6.289062 -0.367188 5.316406 -0.894531 4.484375 -1.59375 C 3.648438 -2.289062 2.992188 -3.144531 2.515625 -4.15625 C 2.035156 -5.175781 1.796875 -6.347656 1.796875 -7.671875 L 1.796875 -7.78125 C 1.796875 -9.238281 2.0625 -10.5 2.59375 -11.5625 C 3.125 -12.625 3.863281 -13.503906 4.8125 -14.203125 C 5.757812 -14.898438 6.890625 -15.421875 8.203125 -15.765625 C 9.515625 -16.117188 10.96875 -16.296875 12.5625 -16.296875 C 13.925781 -16.296875 15.113281 -16.195312 16.125 -16 C 17.132812 -15.800781 18.125 -15.535156 19.09375 -15.203125 L 19.09375 -15.65625 C 19.09375 -17.25 18.609375 -18.457031 17.640625 -19.28125 C 16.679688 -20.113281 15.253906 -20.53125 13.359375 -20.53125 C 11.898438 -20.53125 10.613281 -20.40625 9.5 -20.15625 C 8.382812 -19.90625 7.210938 -19.550781 5.984375 -19.09375 L 4.09375 -24.875 C 5.550781 -25.5 7.078125 -26.007812 8.671875 -26.40625 C 10.265625 -26.8125 12.191406 -27.015625 14.453125 -27.015625 C 16.546875 -27.015625 18.332031 -26.753906 19.8125 -26.234375 C 21.289062 -25.722656 22.507812 -24.988281 23.46875 -24.03125 C 24.46875 -23.03125 25.203125 -21.804688 25.671875 -20.359375 C 26.140625 -18.910156 26.375 -17.289062 26.375 -15.5 L 26.375 0 L 19.046875 0 L 19.046875 -2.890625 C 18.109375 -1.859375 16.988281 -1.035156 15.6875 -0.421875 C 14.394531 0.191406 12.820312 0.5 10.96875 0.5 Z M 13.265625 -4.734375 C 15.054688 -4.734375 16.488281 -5.164062 17.5625 -6.03125 C 18.644531 -6.894531 19.1875 -8.023438 19.1875 -9.421875 L 19.1875 -10.765625 C 18.519531 -11.066406 17.78125 -11.304688 16.96875 -11.484375 C 16.15625 -11.671875 15.285156 -11.765625 14.359375 -11.765625 C 12.722656 -11.765625 11.441406 -11.445312 10.515625 -10.8125 C 9.585938 -10.1875 9.125 -9.273438 9.125 -8.078125 L 9.125 -7.96875 C 9.125 -6.945312 9.503906 -6.148438 10.265625 -5.578125 C 11.035156 -5.015625 12.035156 -4.734375 13.265625 -4.734375 Z M 13.265625 -4.734375 "/></g></g></g><g fill="#000000" fill-opacity="1"><g transform="translate(367.212147, 95.76304)"><g><path d="M 12.40625 0.453125 C 11.25 0.453125 10.195312 0.328125 9.25 0.078125 C 8.300781 -0.171875 7.484375 -0.609375 6.796875 -1.234375 C 6.117188 -1.867188 5.585938 -2.691406 5.203125 -3.703125 C 4.828125 -4.722656 4.640625 -6.015625 4.640625 -7.578125 L 4.640625 -20.234375 L 1.453125 -20.234375 L 1.453125 -26.71875 L 4.640625 -26.71875 L 4.640625 -33.546875 L 12.21875 -33.546875 L 12.21875 -26.71875 L 18.484375 -26.71875 L 18.484375 -20.234375 L 12.21875 -20.234375 L 12.21875 -8.828125 C 12.21875 -7.097656 13.03125 -6.234375 14.65625 -6.234375 C 15.976562 -6.234375 17.222656 -6.546875 18.390625 -7.171875 L 18.390625 -1.09375 C 17.597656 -0.632812 16.71875 -0.265625 15.75 0.015625 C 14.789062 0.304688 13.675781 0.453125 12.40625 0.453125 Z M 12.40625 0.453125 "/></g></g></g><g fill="#000000" fill-opacity="1"><g transform="translate(387.89328, 95.76304)"><g><path d="M 16.5 0.59375 C 14.4375 0.59375 12.523438 0.238281 10.765625 -0.46875 C 9.003906 -1.1875 7.484375 -2.164062 6.203125 -3.40625 C 4.921875 -4.65625 3.914062 -6.117188 3.1875 -7.796875 C 2.457031 -9.472656 2.09375 -11.273438 2.09375 -13.203125 L 2.09375 -13.3125 C 2.09375 -15.238281 2.457031 -17.039062 3.1875 -18.71875 C 3.914062 -20.394531 4.925781 -21.863281 6.21875 -23.125 C 7.519531 -24.382812 9.050781 -25.378906 10.8125 -26.109375 C 12.570312 -26.847656 14.5 -27.21875 16.59375 -27.21875 C 18.65625 -27.21875 20.566406 -26.859375 22.328125 -26.140625 C 24.085938 -25.429688 25.609375 -24.453125 26.890625 -23.203125 C 28.171875 -21.953125 29.175781 -20.488281 29.90625 -18.8125 C 30.632812 -17.132812 31 -15.332031 31 -13.40625 L 31 -13.3125 C 31 -11.382812 30.632812 -9.582031 29.90625 -7.90625 C 29.175781 -6.226562 28.160156 -4.753906 26.859375 -3.484375 C 25.566406 -2.222656 24.039062 -1.226562 22.28125 -0.5 C 20.519531 0.226562 18.59375 0.59375 16.5 0.59375 Z M 16.59375 -5.9375 C 17.695312 -5.9375 18.671875 -6.125 19.515625 -6.5 C 20.359375 -6.882812 21.078125 -7.410156 21.671875 -8.078125 C 22.273438 -8.742188 22.734375 -9.515625 23.046875 -10.390625 C 23.367188 -11.273438 23.53125 -12.210938 23.53125 -13.203125 L 23.53125 -13.3125 C 23.53125 -14.300781 23.363281 -15.238281 23.03125 -16.125 C 22.695312 -17.007812 22.210938 -17.789062 21.578125 -18.46875 C 20.953125 -19.144531 20.207031 -19.679688 19.34375 -20.078125 C 18.476562 -20.484375 17.53125 -20.6875 16.5 -20.6875 C 15.40625 -20.6875 14.429688 -20.492188 13.578125 -20.109375 C 12.734375 -19.722656 12.007812 -19.195312 11.40625 -18.53125 C 10.8125 -17.875 10.351562 -17.101562 10.03125 -16.21875 C 9.71875 -15.34375 9.5625 -14.40625 9.5625 -13.40625 L 9.5625 -13.3125 C 9.5625 -12.3125 9.726562 -11.367188 10.0625 -10.484375 C 10.394531 -9.609375 10.878906 -8.828125 11.515625 -8.140625 C 12.148438 -7.460938 12.890625 -6.925781 13.734375 -6.53125 C 14.578125 -6.132812 15.53125 -5.9375 16.59375 -5.9375 Z M 16.59375 -5.9375 "/></g></g></g></svg>