<svg xmlns="http://www.w3.org/2000/svg" xmlns:xlink="http://www.w3.org/1999/xlink" width="641" zoomAndPan="magnify" viewBox="0 0 480.75 209.999996" height="280" preserveAspectRatio="xMidYMid meet" version="1.0"><defs><g/><clipPath id="05337f2e8b"><path d="M 232 22.355469 L 266.886719 22.355469 L 266.886719 57 L 232 57 Z M 232 22.355469 " clip-rule="nonzero"/></clipPath><clipPath id="0fb5e52f72"><path d="M 213.664062 40 L 249 40 L 249 75.578125 L 213.664062 75.578125 Z M 213.664062 40 " clip-rule="nonzero"/></clipPath></defs><g clip-path="url(#05337f2e8b)"><path fill="#c1ff72" d="M 266.785156 48.875 C 266.785156 53.277344 263.226562 56.839844 258.824219 56.839844 L 242.515625 56.839844 C 236.878906 56.839844 232.300781 52.261719 232.300781 46.625 L 232.300781 30.316406 C 232.300781 25.917969 235.863281 22.355469 240.265625 22.355469 C 244.664062 22.355469 248.226562 25.917969 248.226562 30.316406 L 248.226562 40.914062 L 258.824219 40.914062 C 263.226562 40.914062 266.785156 44.492188 266.785156 48.875 Z M 266.785156 48.875 " fill-opacity="1" fill-rule="nonzero"/></g><g clip-path="url(#0fb5e52f72)"><path fill="#00bf63" d="M 213.683594 48.773438 C 213.683594 44.371094 217.246094 40.8125 221.644531 40.8125 L 237.953125 40.8125 C 243.589844 40.8125 248.167969 45.386719 248.167969 51.023438 L 248.167969 67.332031 C 248.167969 71.734375 244.605469 75.296875 240.207031 75.296875 C 235.804688 75.296875 232.242188 71.734375 232.242188 67.332031 L 232.242188 56.734375 L 221.644531 56.734375 C 217.246094 56.734375 213.683594 53.175781 213.683594 48.773438 Z M 213.683594 48.773438 " fill-opacity="1" fill-rule="nonzero"/></g><path fill="#7ed957" d="M 248.167969 51.023438 L 248.167969 56.839844 L 242.515625 56.839844 C 236.878906 56.839844 232.300781 52.261719 232.300781 46.625 L 232.300781 40.8125 L 237.953125 40.8125 C 243.589844 40.8125 248.167969 45.386719 248.167969 51.023438 Z M 248.167969 51.023438 " fill-opacity="1" fill-rule="nonzero"/><path fill="#7ed957" d="M 37.832031 153.160156 L 113.796875 153.160156 L 113.796875 162.90625 L 37.832031 162.90625 Z M 37.832031 153.160156 " fill-opacity="1" fill-rule="nonzero"/><g fill="#7ed957" fill-opacity="1"><g transform="translate(37.830233, 147.914076)"><g><path d="M 8.390625 -69.96875 L 23.78125 -69.96875 L 23.78125 -42.28125 L 52.171875 -42.28125 L 52.171875 -69.96875 L 67.5625 -69.96875 L 67.5625 0 L 52.171875 0 L 52.171875 -28.09375 L 23.78125 -28.09375 L 23.78125 0 L 8.390625 0 Z M 8.390625 -69.96875 "/></g></g></g><path fill="#00bf63" d="M 113.796875 153.160156 L 276.019531 153.160156 L 276.019531 162.90625 L 113.796875 162.90625 Z M 113.796875 153.160156 " fill-opacity="1" fill-rule="nonzero"/><g fill="#00bf63" fill-opacity="1"><g transform="translate(113.798537, 147.914076)"><g><path d="M 32.1875 1.203125 C 28.1875 1.203125 24.46875 0.535156 21.03125 -0.796875 C 17.601562 -2.128906 14.640625 -4.023438 12.140625 -6.484375 C 9.640625 -8.953125 7.691406 -11.867188 6.296875 -15.234375 C 4.898438 -18.609375 4.203125 -22.359375 4.203125 -26.484375 L 4.203125 -26.6875 C 4.203125 -30.488281 4.847656 -34.085938 6.140625 -37.484375 C 7.441406 -40.878906 9.257812 -43.84375 11.59375 -46.375 C 13.925781 -48.90625 16.707031 -50.90625 19.9375 -52.375 C 23.164062 -53.84375 26.75 -54.578125 30.6875 -54.578125 C 35.144531 -54.578125 39.003906 -53.773438 42.265625 -52.171875 C 45.535156 -50.578125 48.253906 -48.429688 50.421875 -45.734375 C 52.585938 -43.035156 54.1875 -39.9375 55.21875 -36.4375 C 56.25 -32.9375 56.765625 -29.285156 56.765625 -25.484375 C 56.765625 -24.890625 56.75 -24.257812 56.71875 -23.59375 C 56.6875 -22.925781 56.640625 -22.222656 56.578125 -21.484375 L 19.296875 -21.484375 C 20.023438 -18.023438 21.535156 -15.410156 23.828125 -13.640625 C 26.128906 -11.878906 28.984375 -11 32.390625 -11 C 34.921875 -11 37.1875 -11.429688 39.1875 -12.296875 C 41.1875 -13.160156 43.25 -14.5625 45.375 -16.5 L 54.078125 -8.796875 C 51.546875 -5.660156 48.476562 -3.207031 44.875 -1.4375 C 41.28125 0.320312 37.050781 1.203125 32.1875 1.203125 Z M 41.984375 -30.984375 C 41.515625 -34.378906 40.3125 -37.125 38.375 -39.21875 C 36.445312 -41.320312 33.882812 -42.375 30.6875 -42.375 C 27.488281 -42.375 24.90625 -41.34375 22.9375 -39.28125 C 20.96875 -37.21875 19.6875 -34.453125 19.09375 -30.984375 Z M 41.984375 -30.984375 "/></g></g></g><g fill="#00bf63" fill-opacity="1"><g transform="translate(175.06431, 147.914076)"><g><path d="M 21.984375 1 C 19.453125 1 17.070312 0.648438 14.84375 -0.046875 C 12.613281 -0.742188 10.664062 -1.789062 9 -3.1875 C 7.332031 -4.59375 6.015625 -6.3125 5.046875 -8.34375 C 4.078125 -10.375 3.59375 -12.722656 3.59375 -15.390625 L 3.59375 -15.59375 C 3.59375 -18.519531 4.125 -21.050781 5.1875 -23.1875 C 6.257812 -25.320312 7.742188 -27.085938 9.640625 -28.484375 C 11.546875 -29.878906 13.8125 -30.925781 16.4375 -31.625 C 19.070312 -32.332031 21.988281 -32.6875 25.1875 -32.6875 C 27.914062 -32.6875 30.296875 -32.484375 32.328125 -32.078125 C 34.367188 -31.679688 36.351562 -31.148438 38.28125 -30.484375 L 38.28125 -31.390625 C 38.28125 -34.585938 37.3125 -37.019531 35.375 -38.6875 C 33.445312 -40.351562 30.582031 -41.1875 26.78125 -41.1875 C 23.851562 -41.1875 21.269531 -40.9375 19.03125 -40.4375 C 16.800781 -39.9375 14.457031 -39.21875 12 -38.28125 L 8.203125 -49.875 C 11.128906 -51.144531 14.191406 -52.175781 17.390625 -52.96875 C 20.585938 -53.769531 24.453125 -54.171875 28.984375 -54.171875 C 33.179688 -54.171875 36.757812 -53.65625 39.71875 -52.625 C 42.6875 -51.59375 45.140625 -50.109375 47.078125 -48.171875 C 49.078125 -46.171875 50.539062 -43.722656 51.46875 -40.828125 C 52.40625 -37.929688 52.875 -34.679688 52.875 -31.078125 L 52.875 0 L 38.1875 0 L 38.1875 -5.796875 C 36.320312 -3.734375 34.085938 -2.082031 31.484375 -0.84375 C 28.890625 0.382812 25.722656 1 21.984375 1 Z M 26.59375 -9.5 C 30.1875 -9.5 33.066406 -10.363281 35.234375 -12.09375 C 37.398438 -13.820312 38.484375 -16.085938 38.484375 -18.890625 L 38.484375 -21.59375 C 37.148438 -22.1875 35.664062 -22.664062 34.03125 -23.03125 C 32.394531 -23.40625 30.644531 -23.59375 28.78125 -23.59375 C 25.519531 -23.59375 22.957031 -22.957031 21.09375 -21.6875 C 19.226562 -20.425781 18.296875 -18.59375 18.296875 -16.1875 L 18.296875 -16 C 18.296875 -13.925781 19.0625 -12.320312 20.59375 -11.1875 C 22.125 -10.0625 24.125 -9.5 26.59375 -9.5 Z M 26.59375 -9.5 "/></g></g></g><g fill="#00bf63" fill-opacity="1"><g transform="translate(234.231263, 147.914076)"><g><path d="M 6.796875 -53.578125 L 21.984375 -53.578125 L 21.984375 -42.78125 C 23.515625 -46.445312 25.613281 -49.378906 28.28125 -51.578125 C 30.945312 -53.773438 34.546875 -54.773438 39.078125 -54.578125 L 39.078125 -38.6875 L 38.28125 -38.6875 C 33.21875 -38.6875 29.234375 -37.148438 26.328125 -34.078125 C 23.429688 -31.015625 21.984375 -26.253906 21.984375 -19.796875 L 21.984375 0 L 6.796875 0 Z M 6.796875 -53.578125 "/></g></g></g><path fill="#7ed957" d="M 276.019531 153.160156 L 317.503906 153.160156 L 317.503906 162.90625 L 276.019531 162.90625 Z M 276.019531 153.160156 " fill-opacity="1" fill-rule="nonzero"/><g fill="#7ed957" fill-opacity="1"><g transform="translate(276.01886, 147.914076)"><g><path d="M 24.890625 0.90625 C 22.554688 0.90625 20.4375 0.65625 18.53125 0.15625 C 16.632812 -0.34375 15.003906 -1.222656 13.640625 -2.484375 C 12.273438 -3.753906 11.207031 -5.40625 10.4375 -7.4375 C 9.675781 -9.476562 9.296875 -12.0625 9.296875 -15.1875 L 9.296875 -40.578125 L 2.90625 -40.578125 L 2.90625 -53.578125 L 9.296875 -53.578125 L 9.296875 -67.265625 L 24.484375 -67.265625 L 24.484375 -53.578125 L 37.078125 -53.578125 L 37.078125 -40.578125 L 24.484375 -40.578125 L 24.484375 -17.6875 C 24.484375 -14.226562 26.117188 -12.5 29.390625 -12.5 C 32.054688 -12.5 34.550781 -13.128906 36.875 -14.390625 L 36.875 -2.203125 C 35.28125 -1.265625 33.515625 -0.515625 31.578125 0.046875 C 29.648438 0.617188 27.421875 0.90625 24.890625 0.90625 Z M 24.890625 0.90625 "/></g></g></g><g fill="#c1ff72" fill-opacity="1"><g transform="translate(317.505097, 147.914076)"><g><path d="M 6.796875 -53.578125 L 21.984375 -53.578125 L 21.984375 -45.984375 C 22.859375 -47.109375 23.8125 -48.1875 24.84375 -49.21875 C 25.875 -50.257812 27.019531 -51.175781 28.28125 -51.96875 C 29.550781 -52.769531 30.96875 -53.40625 32.53125 -53.875 C 34.101562 -54.34375 35.851562 -54.578125 37.78125 -54.578125 C 41.3125 -54.578125 44.359375 -53.84375 46.921875 -52.375 C 49.492188 -50.90625 51.476562 -48.804688 52.875 -46.078125 C 55.207031 -48.878906 57.804688 -50.992188 60.671875 -52.421875 C 63.535156 -53.859375 66.800781 -54.578125 70.46875 -54.578125 C 76.132812 -54.578125 80.566406 -52.910156 83.765625 -49.578125 C 86.960938 -46.242188 88.5625 -41.347656 88.5625 -34.890625 L 88.5625 0 L 73.359375 0 L 73.359375 -29.890625 C 73.359375 -33.484375 72.59375 -36.195312 71.0625 -38.03125 C 69.53125 -39.863281 67.332031 -40.78125 64.46875 -40.78125 C 61.601562 -40.78125 59.351562 -39.863281 57.71875 -38.03125 C 56.09375 -36.195312 55.28125 -33.484375 55.28125 -29.890625 L 55.28125 0 L 40.078125 0 L 40.078125 -29.890625 C 40.078125 -33.484375 39.3125 -36.195312 37.78125 -38.03125 C 36.25 -39.863281 34.050781 -40.78125 31.1875 -40.78125 C 28.320312 -40.78125 26.070312 -39.863281 24.4375 -38.03125 C 22.800781 -36.195312 21.984375 -33.484375 21.984375 -29.890625 L 21.984375 0 L 6.796875 0 Z M 6.796875 -53.578125 "/></g></g></g><g fill="#c1ff72" fill-opacity="1"><g transform="translate(412.452061, 147.914076)"><g><path d="M 7.5 -72.96875 L 22.6875 -72.96875 L 22.6875 0 L 7.5 0 Z M 7.5 -72.96875 "/></g></g></g><g fill="#00bf63" fill-opacity="1"><g transform="translate(37.830233, 66.445051)"><g><path d="M 20.9375 0.59375 C 18.40625 0.59375 16.070312 0.128906 13.9375 -0.796875 C 11.8125 -1.734375 9.960938 -3.007812 8.390625 -4.625 C 6.828125 -6.238281 5.601562 -8.144531 4.71875 -10.34375 C 3.832031 -12.539062 3.390625 -14.890625 3.390625 -17.390625 L 3.390625 -17.484375 C 3.390625 -19.953125 3.832031 -22.285156 4.71875 -24.484375 C 5.601562 -26.679688 6.828125 -28.601562 8.390625 -30.25 C 9.960938 -31.90625 11.828125 -33.207031 13.984375 -34.15625 C 16.148438 -35.101562 18.519531 -35.578125 21.09375 -35.578125 C 22.6875 -35.578125 24.125 -35.441406 25.40625 -35.171875 C 26.6875 -34.910156 27.875 -34.535156 28.96875 -34.046875 C 30.070312 -33.566406 31.085938 -32.984375 32.015625 -32.296875 C 32.953125 -31.617188 33.859375 -30.863281 34.734375 -30.03125 L 32.03125 -27.140625 C 30.53125 -28.535156 28.921875 -29.679688 27.203125 -30.578125 C 25.492188 -31.484375 23.4375 -31.9375 21.03125 -31.9375 C 19.101562 -31.9375 17.3125 -31.566406 15.65625 -30.828125 C 14.007812 -30.097656 12.578125 -29.082031 11.359375 -27.78125 C 10.148438 -26.476562 9.203125 -24.953125 8.515625 -23.203125 C 7.835938 -21.460938 7.5 -19.59375 7.5 -17.59375 L 7.5 -17.484375 C 7.5 -15.453125 7.835938 -13.5625 8.515625 -11.8125 C 9.203125 -10.0625 10.148438 -8.535156 11.359375 -7.234375 C 12.578125 -5.941406 14.007812 -4.921875 15.65625 -4.171875 C 17.3125 -3.421875 19.101562 -3.046875 21.03125 -3.046875 C 23.4375 -3.046875 25.503906 -3.488281 27.234375 -4.375 C 28.960938 -5.257812 30.660156 -6.5 32.328125 -8.09375 L 34.921875 -5.546875 C 34.023438 -4.609375 33.082031 -3.765625 32.09375 -3.015625 C 31.113281 -2.273438 30.054688 -1.632812 28.921875 -1.09375 C 27.796875 -0.5625 26.582031 -0.148438 25.28125 0.140625 C 23.976562 0.441406 22.53125 0.59375 20.9375 0.59375 Z M 20.9375 0.59375 "/></g></g></g><g fill="#00bf63" fill-opacity="1"><g transform="translate(74.905213, 66.445051)"><g><path d="M 4.640625 -36.484375 L 8.5 -36.484375 L 8.5 0 L 4.640625 0 Z M 4.640625 -36.484375 "/></g></g></g><g fill="#00bf63" fill-opacity="1"><g transform="translate(88.046347, 66.445051)"><g><path d="M 9.796875 -36.984375 L 13.78125 -35.125 L 8.09375 -29.734375 L 5.09375 -29.734375 Z M 4.640625 -25.828125 L 8.5 -25.828125 L 8.5 0 L 4.640625 0 Z M 4.640625 -25.828125 "/></g></g></g><g fill="#00bf63" fill-opacity="1"><g transform="translate(101.187481, 66.445051)"><g><path d="M 4.296875 -25.828125 L 8.140625 -25.828125 L 8.140625 -21.34375 C 9.003906 -22.738281 10.132812 -23.925781 11.53125 -24.90625 C 12.9375 -25.894531 14.753906 -26.390625 16.984375 -26.390625 C 18.554688 -26.390625 19.945312 -26.140625 21.15625 -25.640625 C 22.375 -25.140625 23.40625 -24.429688 24.25 -23.515625 C 25.101562 -22.597656 25.753906 -21.503906 26.203125 -20.234375 C 26.660156 -18.972656 26.890625 -17.578125 26.890625 -16.046875 L 26.890625 0 L 23.03125 0 L 23.03125 -15.09375 C 23.03125 -17.488281 22.414062 -19.382812 21.1875 -20.78125 C 19.957031 -22.1875 18.191406 -22.890625 15.890625 -22.890625 C 14.785156 -22.890625 13.757812 -22.695312 12.8125 -22.3125 C 11.863281 -21.925781 11.039062 -21.375 10.34375 -20.65625 C 9.644531 -19.945312 9.101562 -19.09375 8.71875 -18.09375 C 8.332031 -17.09375 8.140625 -15.992188 8.140625 -14.796875 L 8.140625 0 L 4.296875 0 Z M 4.296875 -25.828125 "/></g></g></g><g fill="#00bf63" fill-opacity="1"><g transform="translate(131.966712, 66.445051)"><g><path d="M 4.390625 -35.734375 L 8.796875 -35.734375 L 8.796875 -31.484375 L 4.390625 -31.484375 Z M 4.640625 -25.828125 L 8.5 -25.828125 L 8.5 0 L 4.640625 0 Z M 4.640625 -25.828125 "/></g></g></g><g fill="#00bf63" fill-opacity="1"><g transform="translate(145.107846, 66.445051)"><g><path d="M 15.9375 0.59375 C 14.039062 0.59375 12.285156 0.238281 10.671875 -0.46875 C 9.054688 -1.1875 7.65625 -2.15625 6.46875 -3.375 C 5.289062 -4.59375 4.367188 -6.015625 3.703125 -7.640625 C 3.035156 -9.273438 2.703125 -10.992188 2.703125 -12.796875 L 2.703125 -12.890625 C 2.703125 -14.722656 3.035156 -16.453125 3.703125 -18.078125 C 4.367188 -19.710938 5.289062 -21.144531 6.46875 -22.375 C 7.65625 -23.613281 9.054688 -24.59375 10.671875 -25.3125 C 12.285156 -26.03125 14.039062 -26.390625 15.9375 -26.390625 C 17.164062 -26.390625 18.28125 -26.269531 19.28125 -26.03125 C 20.28125 -25.800781 21.195312 -25.476562 22.03125 -25.0625 C 22.863281 -24.644531 23.628906 -24.148438 24.328125 -23.578125 C 25.035156 -23.015625 25.6875 -22.414062 26.28125 -21.78125 L 23.734375 -19.09375 C 22.703125 -20.15625 21.578125 -21.066406 20.359375 -21.828125 C 19.140625 -22.597656 17.648438 -22.984375 15.890625 -22.984375 C 14.585938 -22.984375 13.367188 -22.722656 12.234375 -22.203125 C 11.109375 -21.691406 10.128906 -20.984375 9.296875 -20.078125 C 8.460938 -19.179688 7.8125 -18.125 7.34375 -16.90625 C 6.875 -15.695312 6.640625 -14.390625 6.640625 -12.984375 L 6.640625 -12.890625 C 6.640625 -11.492188 6.878906 -10.1875 7.359375 -8.96875 C 7.847656 -7.75 8.515625 -6.679688 9.359375 -5.765625 C 10.210938 -4.847656 11.210938 -4.128906 12.359375 -3.609375 C 13.515625 -3.097656 14.773438 -2.84375 16.140625 -2.84375 C 17.804688 -2.84375 19.28125 -3.207031 20.5625 -3.9375 C 21.84375 -4.675781 23 -5.597656 24.03125 -6.703125 L 26.484375 -4.390625 C 25.179688 -2.929688 23.707031 -1.734375 22.0625 -0.796875 C 20.414062 0.128906 18.375 0.59375 15.9375 0.59375 Z M 15.9375 0.59375 "/></g></g></g><g fill="#00bf63" fill-opacity="1"><g transform="translate(173.63859, 66.445051)"><g><path d="M 12 0.546875 C 10.789062 0.546875 9.613281 0.378906 8.46875 0.046875 C 7.320312 -0.285156 6.289062 -0.789062 5.375 -1.46875 C 4.457031 -2.15625 3.722656 -3 3.171875 -4 C 2.617188 -5 2.34375 -6.164062 2.34375 -7.5 L 2.34375 -7.59375 C 2.34375 -8.957031 2.609375 -10.15625 3.140625 -11.1875 C 3.679688 -12.21875 4.441406 -13.082031 5.421875 -13.78125 C 6.398438 -14.488281 7.5625 -15.023438 8.90625 -15.390625 C 10.257812 -15.753906 11.753906 -15.9375 13.390625 -15.9375 C 15.054688 -15.9375 16.503906 -15.835938 17.734375 -15.640625 C 18.972656 -15.441406 20.175781 -15.175781 21.34375 -14.84375 L 21.34375 -15.734375 C 21.34375 -18.066406 20.664062 -19.820312 19.3125 -21 C 17.96875 -22.1875 16.078125 -22.78125 13.640625 -22.78125 C 12.109375 -22.78125 10.71875 -22.601562 9.46875 -22.25 C 8.21875 -21.90625 6.992188 -21.453125 5.796875 -20.890625 L 4.640625 -24.03125 C 6.078125 -24.695312 7.523438 -25.222656 8.984375 -25.609375 C 10.453125 -25.992188 12.140625 -26.1875 14.046875 -26.1875 C 17.703125 -26.1875 20.484375 -25.234375 22.390625 -23.328125 C 24.148438 -21.566406 25.03125 -19.054688 25.03125 -15.796875 L 25.03125 0 L 21.34375 0 L 21.34375 -3.890625 C 20.4375 -2.734375 19.222656 -1.703125 17.703125 -0.796875 C 16.191406 0.0976562 14.289062 0.546875 12 0.546875 Z M 12.734375 -2.5 C 13.941406 -2.5 15.066406 -2.671875 16.109375 -3.015625 C 17.160156 -3.367188 18.078125 -3.851562 18.859375 -4.46875 C 19.640625 -5.082031 20.253906 -5.8125 20.703125 -6.65625 C 21.160156 -7.507812 21.390625 -8.457031 21.390625 -9.5 L 21.390625 -12 C 20.421875 -12.257812 19.3125 -12.503906 18.0625 -12.734375 C 16.8125 -12.972656 15.390625 -13.09375 13.796875 -13.09375 C 11.359375 -13.09375 9.488281 -12.609375 8.1875 -11.640625 C 6.894531 -10.671875 6.25 -9.375 6.25 -7.75 L 6.25 -7.640625 C 6.25 -6.847656 6.421875 -6.125 6.765625 -5.46875 C 7.117188 -4.820312 7.59375 -4.28125 8.1875 -3.84375 C 8.789062 -3.414062 9.484375 -3.082031 10.265625 -2.84375 C 11.046875 -2.613281 11.867188 -2.5 12.734375 -2.5 Z M 12.734375 -2.5 "/></g></g></g><g fill="#00bf63" fill-opacity="1"><g transform="translate(202.58049, 66.445051)"><g/></g></g></svg>