<svg xmlns="http://www.w3.org/2000/svg" xmlns:xlink="http://www.w3.org/1999/xlink" width="851" zoomAndPan="magnify" viewBox="0 0 638.25 167.999997" height="224" preserveAspectRatio="xMidYMid meet" version="1.0"><defs><g/><clipPath id="d7ff433f42"><path d="M 18.902344 5.324219 L 618.15625 5.324219 L 618.15625 162.023438 L 18.902344 162.023438 Z M 18.902344 5.324219 " clip-rule="nonzero"/></clipPath><clipPath id="4bbfa5a674"><path d="M 93.816406 5.324219 L 543.285156 5.324219 C 563.15625 5.324219 582.207031 13.21875 596.257812 27.265625 C 610.304688 41.316406 618.199219 60.371094 618.199219 80.238281 L 618.199219 87.113281 C 618.199219 106.980469 610.304688 126.035156 596.257812 140.085938 C 582.207031 154.132812 563.15625 162.023438 543.285156 162.023438 L 93.816406 162.023438 C 73.945312 162.023438 54.894531 154.132812 40.84375 140.085938 C 26.796875 126.035156 18.902344 106.980469 18.902344 87.113281 L 18.902344 80.238281 C 18.902344 60.371094 26.796875 41.316406 40.84375 27.265625 C 54.894531 13.21875 73.945312 5.324219 93.816406 5.324219 Z M 93.816406 5.324219 " clip-rule="nonzero"/></clipPath><linearGradient x1="0.00225788" gradientTransform="matrix(0.612109, 0, 0, 0.612109, 18.901413, 5.325408)" y1="128" x2="979.00222" gradientUnits="userSpaceOnUse" y2="128" id="f8a8e5dec5"><stop stop-opacity="1" stop-color="rgb(75.698853%, 99.998474%, 44.699097%)" offset="0"/><stop stop-opacity="1" stop-color="rgb(75.402832%, 99.861145%, 44.671631%)" offset="0.00390625"/><stop stop-opacity="1" stop-color="rgb(75.108337%, 99.723816%, 44.644165%)" offset="0.0078125"/><stop stop-opacity="1" stop-color="rgb(74.812317%, 99.584961%, 44.615173%)" offset="0.0117187"/><stop stop-opacity="1" stop-color="rgb(74.516296%, 99.447632%, 44.587708%)" offset="0.015625"/><stop stop-opacity="1" stop-color="rgb(74.220276%, 99.308777%, 44.560242%)" offset="0.0195312"/><stop stop-opacity="1" stop-color="rgb(73.924255%, 99.171448%, 44.532776%)" offset="0.0234375"/><stop stop-opacity="1" stop-color="rgb(73.628235%, 99.034119%, 44.50531%)" offset="0.0273437"/><stop stop-opacity="1" stop-color="rgb(73.33374%, 98.89679%, 44.477844%)" offset="0.03125"/><stop stop-opacity="1" stop-color="rgb(73.03772%, 98.757935%, 44.448853%)" offset="0.0351562"/><stop stop-opacity="1" stop-color="rgb(72.741699%, 98.620605%, 44.421387%)" offset="0.0390625"/><stop stop-opacity="1" stop-color="rgb(72.445679%, 98.48175%, 44.393921%)" offset="0.0429687"/><stop stop-opacity="1" stop-color="rgb(72.151184%, 98.344421%, 44.366455%)" offset="0.046875"/><stop stop-opacity="1" stop-color="rgb(71.855164%, 98.205566%, 44.338989%)" offset="0.0507812"/><stop stop-opacity="1" stop-color="rgb(71.559143%, 98.068237%, 44.311523%)" offset="0.0546875"/><stop stop-opacity="1" stop-color="rgb(71.263123%, 97.930908%, 44.282532%)" offset="0.0585937"/><stop stop-opacity="1" stop-color="rgb(70.968628%, 97.793579%, 44.255066%)" offset="0.0625"/><stop stop-opacity="1" stop-color="rgb(70.672607%, 97.654724%, 44.2276%)" offset="0.0664062"/><stop stop-opacity="1" stop-color="rgb(70.376587%, 97.517395%, 44.200134%)" offset="0.0703125"/><stop stop-opacity="1" stop-color="rgb(70.080566%, 97.37854%, 44.172668%)" offset="0.0742188"/><stop stop-opacity="1" stop-color="rgb(69.786072%, 97.241211%, 44.145203%)" offset="0.078125"/><stop stop-opacity="1" stop-color="rgb(69.490051%, 97.102356%, 44.116211%)" offset="0.0820312"/><stop stop-opacity="1" stop-color="rgb(69.194031%, 96.965027%, 44.088745%)" offset="0.0859375"/><stop stop-opacity="1" stop-color="rgb(68.89801%, 96.827698%, 44.061279%)" offset="0.0898438"/><stop stop-opacity="1" stop-color="rgb(68.60199%, 96.690369%, 44.033813%)" offset="0.09375"/><stop stop-opacity="1" stop-color="rgb(68.305969%, 96.551514%, 44.006348%)" offset="0.0976562"/><stop stop-opacity="1" stop-color="rgb(68.011475%, 96.414185%, 43.978882%)" offset="0.101562"/><stop stop-opacity="1" stop-color="rgb(67.715454%, 96.27533%, 43.94989%)" offset="0.105469"/><stop stop-opacity="1" stop-color="rgb(67.419434%, 96.138%, 43.922424%)" offset="0.109375"/><stop stop-opacity="1" stop-color="rgb(67.123413%, 96.000671%, 43.894958%)" offset="0.113281"/><stop stop-opacity="1" stop-color="rgb(66.828918%, 95.863342%, 43.867493%)" offset="0.117188"/><stop stop-opacity="1" stop-color="rgb(66.532898%, 95.724487%, 43.838501%)" offset="0.121094"/><stop stop-opacity="1" stop-color="rgb(66.236877%, 95.587158%, 43.811035%)" offset="0.125"/><stop stop-opacity="1" stop-color="rgb(65.940857%, 95.448303%, 43.783569%)" offset="0.128906"/><stop stop-opacity="1" stop-color="rgb(65.646362%, 95.310974%, 43.756104%)" offset="0.132812"/><stop stop-opacity="1" stop-color="rgb(65.350342%, 95.172119%, 43.728638%)" offset="0.136719"/><stop stop-opacity="1" stop-color="rgb(65.054321%, 95.03479%, 43.701172%)" offset="0.140625"/><stop stop-opacity="1" stop-color="rgb(64.758301%, 94.897461%, 43.67218%)" offset="0.144531"/><stop stop-opacity="1" stop-color="rgb(64.463806%, 94.760132%, 43.644714%)" offset="0.148438"/><stop stop-opacity="1" stop-color="rgb(64.167786%, 94.621277%, 43.617249%)" offset="0.152344"/><stop stop-opacity="1" stop-color="rgb(63.871765%, 94.483948%, 43.589783%)" offset="0.15625"/><stop stop-opacity="1" stop-color="rgb(63.575745%, 94.345093%, 43.562317%)" offset="0.160156"/><stop stop-opacity="1" stop-color="rgb(63.279724%, 94.207764%, 43.534851%)" offset="0.164062"/><stop stop-opacity="1" stop-color="rgb(62.983704%, 94.070435%, 43.505859%)" offset="0.167969"/><stop stop-opacity="1" stop-color="rgb(62.689209%, 93.933105%, 43.478394%)" offset="0.171875"/><stop stop-opacity="1" stop-color="rgb(62.393188%, 93.79425%, 43.450928%)" offset="0.175781"/><stop stop-opacity="1" stop-color="rgb(62.097168%, 93.656921%, 43.423462%)" offset="0.179688"/><stop stop-opacity="1" stop-color="rgb(61.801147%, 93.518066%, 43.395996%)" offset="0.183594"/><stop stop-opacity="1" stop-color="rgb(61.506653%, 93.380737%, 43.36853%)" offset="0.1875"/><stop stop-opacity="1" stop-color="rgb(61.210632%, 93.241882%, 43.339539%)" offset="0.191406"/><stop stop-opacity="1" stop-color="rgb(60.914612%, 93.104553%, 43.312073%)" offset="0.195312"/><stop stop-opacity="1" stop-color="rgb(60.618591%, 92.967224%, 43.284607%)" offset="0.199219"/><stop stop-opacity="1" stop-color="rgb(60.324097%, 92.829895%, 43.257141%)" offset="0.203125"/><stop stop-opacity="1" stop-color="rgb(60.028076%, 92.69104%, 43.229675%)" offset="0.207031"/><stop stop-opacity="1" stop-color="rgb(59.732056%, 92.553711%, 43.202209%)" offset="0.210938"/><stop stop-opacity="1" stop-color="rgb(59.436035%, 92.414856%, 43.173218%)" offset="0.214844"/><stop stop-opacity="1" stop-color="rgb(59.141541%, 92.277527%, 43.145752%)" offset="0.21875"/><stop stop-opacity="1" stop-color="rgb(58.84552%, 92.138672%, 43.118286%)" offset="0.222656"/><stop stop-opacity="1" stop-color="rgb(58.5495%, 92.001343%, 43.09082%)" offset="0.226562"/><stop stop-opacity="1" stop-color="rgb(58.253479%, 91.864014%, 43.063354%)" offset="0.230469"/><stop stop-opacity="1" stop-color="rgb(57.957458%, 91.726685%, 43.035889%)" offset="0.234375"/><stop stop-opacity="1" stop-color="rgb(57.661438%, 91.58783%, 43.006897%)" offset="0.238281"/><stop stop-opacity="1" stop-color="rgb(57.366943%, 91.4505%, 42.979431%)" offset="0.242188"/><stop stop-opacity="1" stop-color="rgb(57.070923%, 91.311646%, 42.951965%)" offset="0.246094"/><stop stop-opacity="1" stop-color="rgb(56.774902%, 91.174316%, 42.9245%)" offset="0.25"/><stop stop-opacity="1" stop-color="rgb(56.478882%, 91.036987%, 42.897034%)" offset="0.253906"/><stop stop-opacity="1" stop-color="rgb(56.184387%, 90.899658%, 42.869568%)" offset="0.257812"/><stop stop-opacity="1" stop-color="rgb(55.888367%, 90.760803%, 42.840576%)" offset="0.261719"/><stop stop-opacity="1" stop-color="rgb(55.592346%, 90.623474%, 42.81311%)" offset="0.265625"/><stop stop-opacity="1" stop-color="rgb(55.296326%, 90.484619%, 42.785645%)" offset="0.269531"/><stop stop-opacity="1" stop-color="rgb(55.001831%, 90.34729%, 42.758179%)" offset="0.273437"/><stop stop-opacity="1" stop-color="rgb(54.705811%, 90.208435%, 42.729187%)" offset="0.277344"/><stop stop-opacity="1" stop-color="rgb(54.40979%, 90.071106%, 42.701721%)" offset="0.28125"/><stop stop-opacity="1" stop-color="rgb(54.11377%, 89.933777%, 42.674255%)" offset="0.285156"/><stop stop-opacity="1" stop-color="rgb(53.819275%, 89.796448%, 42.64679%)" offset="0.289062"/><stop stop-opacity="1" stop-color="rgb(53.523254%, 89.657593%, 42.619324%)" offset="0.292969"/><stop stop-opacity="1" stop-color="rgb(53.227234%, 89.520264%, 42.591858%)" offset="0.296875"/><stop stop-opacity="1" stop-color="rgb(52.931213%, 89.381409%, 42.562866%)" offset="0.300781"/><stop stop-opacity="1" stop-color="rgb(52.635193%, 89.24408%, 42.5354%)" offset="0.304687"/><stop stop-opacity="1" stop-color="rgb(52.339172%, 89.10675%, 42.507935%)" offset="0.308594"/><stop stop-opacity="1" stop-color="rgb(52.044678%, 88.969421%, 42.480469%)" offset="0.3125"/><stop stop-opacity="1" stop-color="rgb(51.748657%, 88.830566%, 42.453003%)" offset="0.316406"/><stop stop-opacity="1" stop-color="rgb(51.452637%, 88.693237%, 42.425537%)" offset="0.320312"/><stop stop-opacity="1" stop-color="rgb(51.156616%, 88.554382%, 42.396545%)" offset="0.324219"/><stop stop-opacity="1" stop-color="rgb(50.862122%, 88.417053%, 42.36908%)" offset="0.328125"/><stop stop-opacity="1" stop-color="rgb(50.566101%, 88.278198%, 42.341614%)" offset="0.332031"/><stop stop-opacity="1" stop-color="rgb(50.270081%, 88.140869%, 42.314148%)" offset="0.335937"/><stop stop-opacity="1" stop-color="rgb(49.97406%, 88.00354%, 42.286682%)" offset="0.339844"/><stop stop-opacity="1" stop-color="rgb(49.679565%, 87.866211%, 42.259216%)" offset="0.34375"/><stop stop-opacity="1" stop-color="rgb(49.383545%, 87.727356%, 42.230225%)" offset="0.347656"/><stop stop-opacity="1" stop-color="rgb(49.087524%, 87.590027%, 42.202759%)" offset="0.351562"/><stop stop-opacity="1" stop-color="rgb(48.791504%, 87.451172%, 42.175293%)" offset="0.355469"/><stop stop-opacity="1" stop-color="rgb(48.495483%, 87.313843%, 42.147827%)" offset="0.359375"/><stop stop-opacity="1" stop-color="rgb(48.199463%, 87.174988%, 42.120361%)" offset="0.363281"/><stop stop-opacity="1" stop-color="rgb(47.904968%, 87.037659%, 42.092896%)" offset="0.367187"/><stop stop-opacity="1" stop-color="rgb(47.608948%, 86.90033%, 42.063904%)" offset="0.371094"/><stop stop-opacity="1" stop-color="rgb(47.312927%, 86.763%, 42.036438%)" offset="0.375"/><stop stop-opacity="1" stop-color="rgb(47.016907%, 86.624146%, 42.008972%)" offset="0.378906"/><stop stop-opacity="1" stop-color="rgb(46.722412%, 86.486816%, 41.981506%)" offset="0.382812"/><stop stop-opacity="1" stop-color="rgb(46.426392%, 86.347961%, 41.954041%)" offset="0.386719"/><stop stop-opacity="1" stop-color="rgb(46.130371%, 86.210632%, 41.926575%)" offset="0.390625"/><stop stop-opacity="1" stop-color="rgb(45.834351%, 86.073303%, 41.897583%)" offset="0.394531"/><stop stop-opacity="1" stop-color="rgb(45.539856%, 85.935974%, 41.870117%)" offset="0.398437"/><stop stop-opacity="1" stop-color="rgb(45.243835%, 85.797119%, 41.842651%)" offset="0.402344"/><stop stop-opacity="1" stop-color="rgb(44.947815%, 85.65979%, 41.815186%)" offset="0.40625"/><stop stop-opacity="1" stop-color="rgb(44.651794%, 85.520935%, 41.78772%)" offset="0.410156"/><stop stop-opacity="1" stop-color="rgb(44.3573%, 85.383606%, 41.760254%)" offset="0.414062"/><stop stop-opacity="1" stop-color="rgb(44.061279%, 85.244751%, 41.731262%)" offset="0.417969"/><stop stop-opacity="1" stop-color="rgb(43.765259%, 85.107422%, 41.703796%)" offset="0.421875"/><stop stop-opacity="1" stop-color="rgb(43.469238%, 84.970093%, 41.676331%)" offset="0.425781"/><stop stop-opacity="1" stop-color="rgb(43.173218%, 84.832764%, 41.648865%)" offset="0.429687"/><stop stop-opacity="1" stop-color="rgb(42.877197%, 84.693909%, 41.621399%)" offset="0.433594"/><stop stop-opacity="1" stop-color="rgb(42.582703%, 84.55658%, 41.593933%)" offset="0.4375"/><stop stop-opacity="1" stop-color="rgb(42.286682%, 84.417725%, 41.564941%)" offset="0.441406"/><stop stop-opacity="1" stop-color="rgb(41.990662%, 84.280396%, 41.537476%)" offset="0.445312"/><stop stop-opacity="1" stop-color="rgb(41.694641%, 84.141541%, 41.51001%)" offset="0.449219"/><stop stop-opacity="1" stop-color="rgb(41.400146%, 84.004211%, 41.482544%)" offset="0.453125"/><stop stop-opacity="1" stop-color="rgb(41.104126%, 83.866882%, 41.453552%)" offset="0.457031"/><stop stop-opacity="1" stop-color="rgb(40.808105%, 83.729553%, 41.426086%)" offset="0.460937"/><stop stop-opacity="1" stop-color="rgb(40.512085%, 83.590698%, 41.398621%)" offset="0.464844"/><stop stop-opacity="1" stop-color="rgb(40.21759%, 83.453369%, 41.371155%)" offset="0.46875"/><stop stop-opacity="1" stop-color="rgb(39.92157%, 83.314514%, 41.343689%)" offset="0.472656"/><stop stop-opacity="1" stop-color="rgb(39.625549%, 83.177185%, 41.316223%)" offset="0.476562"/><stop stop-opacity="1" stop-color="rgb(39.329529%, 83.039856%, 41.287231%)" offset="0.480469"/><stop stop-opacity="1" stop-color="rgb(39.035034%, 82.902527%, 41.259766%)" offset="0.484375"/><stop stop-opacity="1" stop-color="rgb(38.739014%, 82.763672%, 41.2323%)" offset="0.488281"/><stop stop-opacity="1" stop-color="rgb(38.442993%, 82.626343%, 41.204834%)" offset="0.492187"/><stop stop-opacity="1" stop-color="rgb(38.146973%, 82.487488%, 41.177368%)" offset="0.496094"/><stop stop-opacity="1" stop-color="rgb(37.850952%, 82.350159%, 41.149902%)" offset="0.5"/><stop stop-opacity="1" stop-color="rgb(37.554932%, 82.211304%, 41.120911%)" offset="0.503906"/><stop stop-opacity="1" stop-color="rgb(37.260437%, 82.073975%, 41.093445%)" offset="0.507812"/><stop stop-opacity="1" stop-color="rgb(36.964417%, 81.936646%, 41.065979%)" offset="0.511719"/><stop stop-opacity="1" stop-color="rgb(36.668396%, 81.799316%, 41.038513%)" offset="0.515625"/><stop stop-opacity="1" stop-color="rgb(36.372375%, 81.660461%, 41.011047%)" offset="0.519531"/><stop stop-opacity="1" stop-color="rgb(36.077881%, 81.523132%, 40.983582%)" offset="0.523437"/><stop stop-opacity="1" stop-color="rgb(35.78186%, 81.384277%, 40.95459%)" offset="0.527344"/><stop stop-opacity="1" stop-color="rgb(35.48584%, 81.246948%, 40.927124%)" offset="0.53125"/><stop stop-opacity="1" stop-color="rgb(35.189819%, 81.109619%, 40.899658%)" offset="0.535156"/><stop stop-opacity="1" stop-color="rgb(34.895325%, 80.97229%, 40.872192%)" offset="0.539062"/><stop stop-opacity="1" stop-color="rgb(34.599304%, 80.833435%, 40.844727%)" offset="0.542969"/><stop stop-opacity="1" stop-color="rgb(34.303284%, 80.696106%, 40.817261%)" offset="0.546875"/><stop stop-opacity="1" stop-color="rgb(34.007263%, 80.557251%, 40.788269%)" offset="0.550781"/><stop stop-opacity="1" stop-color="rgb(33.712769%, 80.419922%, 40.760803%)" offset="0.554687"/><stop stop-opacity="1" stop-color="rgb(33.416748%, 80.281067%, 40.733337%)" offset="0.558594"/><stop stop-opacity="1" stop-color="rgb(33.120728%, 80.143738%, 40.705872%)" offset="0.5625"/><stop stop-opacity="1" stop-color="rgb(32.824707%, 80.006409%, 40.678406%)" offset="0.566406"/><stop stop-opacity="1" stop-color="rgb(32.528687%, 79.86908%, 40.65094%)" offset="0.570312"/><stop stop-opacity="1" stop-color="rgb(32.232666%, 79.730225%, 40.621948%)" offset="0.574219"/><stop stop-opacity="1" stop-color="rgb(31.938171%, 79.592896%, 40.594482%)" offset="0.578125"/><stop stop-opacity="1" stop-color="rgb(31.642151%, 79.454041%, 40.567017%)" offset="0.582031"/><stop stop-opacity="1" stop-color="rgb(31.34613%, 79.316711%, 40.539551%)" offset="0.585937"/><stop stop-opacity="1" stop-color="rgb(31.05011%, 79.177856%, 40.512085%)" offset="0.589844"/><stop stop-opacity="1" stop-color="rgb(30.755615%, 79.040527%, 40.484619%)" offset="0.59375"/><stop stop-opacity="1" stop-color="rgb(30.459595%, 78.903198%, 40.455627%)" offset="0.597656"/><stop stop-opacity="1" stop-color="rgb(30.163574%, 78.765869%, 40.428162%)" offset="0.601562"/><stop stop-opacity="1" stop-color="rgb(29.867554%, 78.627014%, 40.400696%)" offset="0.605469"/><stop stop-opacity="1" stop-color="rgb(29.573059%, 78.489685%, 40.37323%)" offset="0.609375"/><stop stop-opacity="1" stop-color="rgb(29.277039%, 78.35083%, 40.344238%)" offset="0.613281"/><stop stop-opacity="1" stop-color="rgb(28.981018%, 78.213501%, 40.316772%)" offset="0.617187"/><stop stop-opacity="1" stop-color="rgb(28.684998%, 78.076172%, 40.289307%)" offset="0.621094"/><stop stop-opacity="1" stop-color="rgb(28.390503%, 77.938843%, 40.261841%)" offset="0.625"/><stop stop-opacity="1" stop-color="rgb(28.094482%, 77.799988%, 40.234375%)" offset="0.628906"/><stop stop-opacity="1" stop-color="rgb(27.798462%, 77.662659%, 40.206909%)" offset="0.632812"/><stop stop-opacity="1" stop-color="rgb(27.502441%, 77.523804%, 40.177917%)" offset="0.636719"/><stop stop-opacity="1" stop-color="rgb(27.206421%, 77.386475%, 40.150452%)" offset="0.640625"/><stop stop-opacity="1" stop-color="rgb(26.9104%, 77.24762%, 40.122986%)" offset="0.644531"/><stop stop-opacity="1" stop-color="rgb(26.615906%, 77.110291%, 40.09552%)" offset="0.648437"/><stop stop-opacity="1" stop-color="rgb(26.319885%, 76.972961%, 40.068054%)" offset="0.652344"/><stop stop-opacity="1" stop-color="rgb(26.023865%, 76.835632%, 40.040588%)" offset="0.65625"/><stop stop-opacity="1" stop-color="rgb(25.727844%, 76.696777%, 40.011597%)" offset="0.660156"/><stop stop-opacity="1" stop-color="rgb(25.43335%, 76.559448%, 39.984131%)" offset="0.664062"/><stop stop-opacity="1" stop-color="rgb(25.137329%, 76.420593%, 39.956665%)" offset="0.667969"/><stop stop-opacity="1" stop-color="rgb(24.841309%, 76.283264%, 39.929199%)" offset="0.671875"/><stop stop-opacity="1" stop-color="rgb(24.545288%, 76.144409%, 39.901733%)" offset="0.675781"/><stop stop-opacity="1" stop-color="rgb(24.250793%, 76.00708%, 39.874268%)" offset="0.679687"/><stop stop-opacity="1" stop-color="rgb(23.954773%, 75.869751%, 39.845276%)" offset="0.683594"/><stop stop-opacity="1" stop-color="rgb(23.658752%, 75.732422%, 39.81781%)" offset="0.6875"/><stop stop-opacity="1" stop-color="rgb(23.362732%, 75.593567%, 39.790344%)" offset="0.691406"/><stop stop-opacity="1" stop-color="rgb(23.068237%, 75.456238%, 39.762878%)" offset="0.695312"/><stop stop-opacity="1" stop-color="rgb(22.772217%, 75.317383%, 39.735413%)" offset="0.699219"/><stop stop-opacity="1" stop-color="rgb(22.476196%, 75.180054%, 39.707947%)" offset="0.703125"/><stop stop-opacity="1" stop-color="rgb(22.180176%, 75.042725%, 39.678955%)" offset="0.707031"/><stop stop-opacity="1" stop-color="rgb(21.884155%, 74.905396%, 39.651489%)" offset="0.710937"/><stop stop-opacity="1" stop-color="rgb(21.588135%, 74.766541%, 39.624023%)" offset="0.714844"/><stop stop-opacity="1" stop-color="rgb(21.29364%, 74.629211%, 39.596558%)" offset="0.71875"/><stop stop-opacity="1" stop-color="rgb(20.99762%, 74.490356%, 39.569092%)" offset="0.722656"/><stop stop-opacity="1" stop-color="rgb(20.701599%, 74.353027%, 39.541626%)" offset="0.726562"/><stop stop-opacity="1" stop-color="rgb(20.405579%, 74.214172%, 39.512634%)" offset="0.730469"/><stop stop-opacity="1" stop-color="rgb(20.111084%, 74.076843%, 39.485168%)" offset="0.734375"/><stop stop-opacity="1" stop-color="rgb(19.815063%, 73.939514%, 39.457703%)" offset="0.738281"/><stop stop-opacity="1" stop-color="rgb(19.519043%, 73.802185%, 39.430237%)" offset="0.742187"/><stop stop-opacity="1" stop-color="rgb(19.223022%, 73.66333%, 39.402771%)" offset="0.746094"/><stop stop-opacity="1" stop-color="rgb(18.928528%, 73.526001%, 39.375305%)" offset="0.75"/><stop stop-opacity="1" stop-color="rgb(18.632507%, 73.387146%, 39.346313%)" offset="0.753906"/><stop stop-opacity="1" stop-color="rgb(18.336487%, 73.249817%, 39.318848%)" offset="0.757812"/><stop stop-opacity="1" stop-color="rgb(18.040466%, 73.112488%, 39.291382%)" offset="0.761719"/><stop stop-opacity="1" stop-color="rgb(17.745972%, 72.975159%, 39.263916%)" offset="0.765625"/><stop stop-opacity="1" stop-color="rgb(17.449951%, 72.836304%, 39.234924%)" offset="0.769531"/><stop stop-opacity="1" stop-color="rgb(17.153931%, 72.698975%, 39.207458%)" offset="0.773438"/><stop stop-opacity="1" stop-color="rgb(16.85791%, 72.56012%, 39.179993%)" offset="0.777344"/><stop stop-opacity="1" stop-color="rgb(16.56189%, 72.422791%, 39.152527%)" offset="0.78125"/><stop stop-opacity="1" stop-color="rgb(16.265869%, 72.283936%, 39.125061%)" offset="0.785156"/><stop stop-opacity="1" stop-color="rgb(15.971375%, 72.146606%, 39.097595%)" offset="0.789062"/><stop stop-opacity="1" stop-color="rgb(15.675354%, 72.009277%, 39.068604%)" offset="0.792969"/><stop stop-opacity="1" stop-color="rgb(15.379333%, 71.871948%, 39.041138%)" offset="0.796875"/><stop stop-opacity="1" stop-color="rgb(15.083313%, 71.733093%, 39.013672%)" offset="0.800781"/><stop stop-opacity="1" stop-color="rgb(14.788818%, 71.595764%, 38.986206%)" offset="0.804688"/><stop stop-opacity="1" stop-color="rgb(14.492798%, 71.456909%, 38.95874%)" offset="0.808594"/><stop stop-opacity="1" stop-color="rgb(14.196777%, 71.31958%, 38.931274%)" offset="0.8125"/><stop stop-opacity="1" stop-color="rgb(13.900757%, 71.180725%, 38.902283%)" offset="0.816406"/><stop stop-opacity="1" stop-color="rgb(13.606262%, 71.043396%, 38.874817%)" offset="0.820312"/><stop stop-opacity="1" stop-color="rgb(13.310242%, 70.906067%, 38.847351%)" offset="0.824219"/><stop stop-opacity="1" stop-color="rgb(13.014221%, 70.768738%, 38.819885%)" offset="0.828125"/><stop stop-opacity="1" stop-color="rgb(12.718201%, 70.629883%, 38.792419%)" offset="0.832031"/><stop stop-opacity="1" stop-color="rgb(12.42218%, 70.492554%, 38.764954%)" offset="0.835938"/><stop stop-opacity="1" stop-color="rgb(12.12616%, 70.353699%, 38.735962%)" offset="0.839844"/><stop stop-opacity="1" stop-color="rgb(11.831665%, 70.21637%, 38.708496%)" offset="0.84375"/><stop stop-opacity="1" stop-color="rgb(11.535645%, 70.079041%, 38.68103%)" offset="0.847656"/><stop stop-opacity="1" stop-color="rgb(11.239624%, 69.941711%, 38.653564%)" offset="0.851562"/><stop stop-opacity="1" stop-color="rgb(10.943604%, 69.802856%, 38.626099%)" offset="0.855469"/><stop stop-opacity="1" stop-color="rgb(10.649109%, 69.665527%, 38.598633%)" offset="0.859375"/><stop stop-opacity="1" stop-color="rgb(10.353088%, 69.526672%, 38.569641%)" offset="0.863281"/><stop stop-opacity="1" stop-color="rgb(10.057068%, 69.389343%, 38.542175%)" offset="0.867188"/><stop stop-opacity="1" stop-color="rgb(9.761047%, 69.250488%, 38.514709%)" offset="0.871094"/><stop stop-opacity="1" stop-color="rgb(9.466553%, 69.113159%, 38.487244%)" offset="0.875"/><stop stop-opacity="1" stop-color="rgb(9.170532%, 68.97583%, 38.459778%)" offset="0.878906"/><stop stop-opacity="1" stop-color="rgb(8.874512%, 68.838501%, 38.432312%)" offset="0.882812"/><stop stop-opacity="1" stop-color="rgb(8.578491%, 68.699646%, 38.40332%)" offset="0.886719"/><stop stop-opacity="1" stop-color="rgb(8.283997%, 68.562317%, 38.375854%)" offset="0.890625"/><stop stop-opacity="1" stop-color="rgb(7.987976%, 68.423462%, 38.348389%)" offset="0.894531"/><stop stop-opacity="1" stop-color="rgb(7.691956%, 68.286133%, 38.320923%)" offset="0.898438"/><stop stop-opacity="1" stop-color="rgb(7.395935%, 68.148804%, 38.293457%)" offset="0.902344"/><stop stop-opacity="1" stop-color="rgb(7.099915%, 68.011475%, 38.265991%)" offset="0.90625"/><stop stop-opacity="1" stop-color="rgb(6.803894%, 67.87262%, 38.237%)" offset="0.910156"/><stop stop-opacity="1" stop-color="rgb(6.509399%, 67.735291%, 38.209534%)" offset="0.914062"/><stop stop-opacity="1" stop-color="rgb(6.213379%, 67.596436%, 38.182068%)" offset="0.917969"/><stop stop-opacity="1" stop-color="rgb(5.917358%, 67.459106%, 38.154602%)" offset="0.921875"/><stop stop-opacity="1" stop-color="rgb(5.621338%, 67.320251%, 38.12561%)" offset="0.925781"/><stop stop-opacity="1" stop-color="rgb(5.326843%, 67.182922%, 38.098145%)" offset="0.929688"/><stop stop-opacity="1" stop-color="rgb(5.030823%, 67.045593%, 38.070679%)" offset="0.933594"/><stop stop-opacity="1" stop-color="rgb(4.734802%, 66.908264%, 38.043213%)" offset="0.9375"/><stop stop-opacity="1" stop-color="rgb(4.438782%, 66.769409%, 38.015747%)" offset="0.941406"/><stop stop-opacity="1" stop-color="rgb(4.144287%, 66.63208%, 37.988281%)" offset="0.945312"/><stop stop-opacity="1" stop-color="rgb(3.848267%, 66.493225%, 37.95929%)" offset="0.949219"/><stop stop-opacity="1" stop-color="rgb(3.552246%, 66.355896%, 37.931824%)" offset="0.953125"/><stop stop-opacity="1" stop-color="rgb(3.256226%, 66.217041%, 37.904358%)" offset="0.957031"/><stop stop-opacity="1" stop-color="rgb(2.961731%, 66.079712%, 37.876892%)" offset="0.960938"/><stop stop-opacity="1" stop-color="rgb(2.66571%, 65.942383%, 37.849426%)" offset="0.964844"/><stop stop-opacity="1" stop-color="rgb(2.36969%, 65.805054%, 37.82196%)" offset="0.96875"/><stop stop-opacity="1" stop-color="rgb(2.073669%, 65.666199%, 37.792969%)" offset="0.972656"/><stop stop-opacity="1" stop-color="rgb(1.777649%, 65.52887%, 37.765503%)" offset="0.976562"/><stop stop-opacity="1" stop-color="rgb(1.481628%, 65.390015%, 37.738037%)" offset="0.980469"/><stop stop-opacity="1" stop-color="rgb(1.187134%, 65.252686%, 37.710571%)" offset="0.984375"/><stop stop-opacity="1" stop-color="rgb(0.891113%, 65.115356%, 37.683105%)" offset="0.988281"/><stop stop-opacity="1" stop-color="rgb(0.595093%, 64.978027%, 37.65564%)" offset="0.992188"/><stop stop-opacity="1" stop-color="rgb(0.299072%, 64.839172%, 37.626648%)" offset="0.996094"/><stop stop-opacity="1" stop-color="rgb(0.00457764%, 64.701843%, 37.599182%)" offset="1"/></linearGradient><clipPath id="17adc11e54"><path d="M 113 0.0976562 L 526 0.0976562 L 526 142 L 113 142 Z M 113 0.0976562 " clip-rule="nonzero"/></clipPath><clipPath id="4bb9cf0bbf"><path d="M 78 25 L 558 25 L 558 167.902344 L 78 167.902344 Z M 78 25 " clip-rule="nonzero"/></clipPath></defs><g clip-path="url(#d7ff433f42)"><g clip-path="url(#4bbfa5a674)"><path fill="url(#f8a8e5dec5)" d="M 18.902344 5.324219 L 18.902344 162.023438 L 618.15625 162.023438 L 618.15625 5.324219 Z M 18.902344 5.324219 " fill-rule="nonzero"/></g></g><g clip-path="url(#17adc11e54)"><path stroke-linecap="butt" transform="matrix(0.74912, 0, 0, 0.74912, 18.902795, 14.007252)" fill="none" stroke-linejoin="miter" d="M 225.409806 23.340644 L 235.68228 23.340644 L 235.68228 41.794596 L 254.605533 41.794596 L 254.605533 23.340644 L 264.878007 23.340644 L 264.878007 69.999576 L 254.605533 69.999576 L 254.605533 51.269258 L 235.68228 51.269258 L 235.68228 69.999576 L 225.409806 69.999576 Z M 292.540684 70.797388 C 289.782238 70.797388 287.227156 70.317658 284.875437 69.363413 C 282.518504 68.409168 280.484867 67.105555 278.769312 65.442144 C 277.058971 63.773519 275.713642 61.812884 274.733325 59.570669 C 273.758222 57.323239 273.268063 54.914162 273.268063 52.343436 L 273.268063 52.197431 C 273.268063 49.626705 273.758222 47.217628 274.733325 44.970198 C 275.713642 42.722769 277.0694 40.762134 278.805813 39.077865 C 280.542226 37.388382 282.586292 36.053482 284.938011 35.073165 C 287.294944 34.098062 289.870884 33.607903 292.671046 33.607903 C 295.424277 33.607903 297.97936 34.087633 300.336293 35.041878 C 302.688012 35.996123 304.716434 37.310166 306.42156 38.978791 C 308.137116 40.642202 309.482445 42.592407 310.457548 44.839837 C 311.443079 47.087266 311.938453 49.496344 311.938453 52.06707 L 311.938453 52.197431 C 311.938453 54.778586 311.443079 57.192878 310.457548 59.440307 C 309.482445 61.682523 308.126687 63.653586 306.390274 65.343069 C 304.66429 67.027338 302.625438 68.357023 300.268505 69.332126 C 297.916786 70.307229 295.340846 70.797388 292.540684 70.797388 Z M 292.671046 62.073607 C 294.136307 62.073607 295.429492 61.818098 296.561028 61.307082 C 297.697779 60.790851 298.662453 60.0869 299.45505 59.210871 C 300.258076 58.3192 300.873382 57.286738 301.295752 56.103057 C 301.718123 54.919376 301.931916 53.667907 301.931916 52.343436 L 301.931916 52.197431 C 301.931916 50.862531 301.707694 49.605848 301.264466 48.43781 C 300.816023 47.254129 300.174645 46.206024 299.324689 45.293494 C 298.490376 44.386179 297.494416 43.66137 296.331592 43.129496 C 295.179198 42.597622 293.9173 42.331685 292.540684 42.331685 C 291.075423 42.331685 289.771809 42.587193 288.635059 43.098209 C 287.503522 43.609226 286.538848 44.307963 285.735822 45.199634 C 284.932796 46.086091 284.322705 47.123768 283.89512 48.307449 C 283.472749 49.475486 283.264171 50.73217 283.264171 52.06707 L 283.264171 52.197431 C 283.264171 53.532331 283.483178 54.789015 283.931621 55.972696 C 284.37485 57.140733 285.021442 58.183624 285.866184 59.096154 C 286.710925 60.008683 287.701671 60.733492 288.827993 61.275795 C 289.969959 61.807669 291.2475 62.073607 292.671046 62.073607 Z M 319.269975 34.275353 L 329.396444 34.275353 L 329.396444 41.4713 C 330.413262 39.030935 331.81595 37.075515 333.594079 35.610254 C 335.372208 34.134563 337.776071 33.467113 340.800454 33.607903 L 340.800454 44.203673 L 340.263366 44.203673 C 336.879185 44.203673 334.225028 45.230921 332.290466 47.280201 C 330.361118 49.319053 329.396444 52.494655 329.396444 56.801794 L 329.396444 69.999576 L 319.269975 69.999576 Z M 357.257271 70.667026 C 355.562573 70.667026 353.972165 70.432376 352.486045 69.96829 C 350.999926 69.498989 349.701527 68.800252 348.580419 67.866865 C 347.474955 66.933478 346.598927 65.791512 345.94712 64.435754 C 345.305742 63.079996 344.987661 61.510446 344.987661 59.732317 L 344.987661 59.601956 C 344.987661 57.646535 345.342244 55.962267 346.061838 54.538721 C 346.776218 53.120389 347.76175 51.941923 349.023648 51.008536 C 350.29076 50.075148 351.802952 49.376412 353.560223 48.907111 C 355.317494 48.443024 357.262485 48.208374 359.389982 48.208374 C 361.209827 48.208374 362.800235 48.34395 364.155993 48.615101 C 365.511751 48.875824 366.836222 49.230407 368.129407 49.673635 L 368.129407 49.068759 C 368.129407 46.936047 367.482814 45.309138 366.18963 44.203673 C 364.90166 43.08778 362.99317 42.529834 360.46416 42.529834 C 358.50874 42.529834 356.782755 42.696696 355.286207 43.035636 C 353.800088 43.369361 352.240966 43.849091 350.598413 44.464396 L 348.064189 36.736576 C 350.014394 35.88662 352.053246 35.198312 354.180743 34.666437 C 356.318669 34.134563 358.899824 33.868626 361.929421 33.868626 C 364.724368 33.868626 367.112588 34.217994 369.088866 34.911517 C 371.065144 35.59461 372.697268 36.585356 373.985238 37.873327 C 375.320139 39.208227 376.295241 40.840351 376.915761 42.774913 C 377.54671 44.704261 377.859578 46.868259 377.859578 49.266908 L 377.859578 69.999576 L 368.061619 69.999576 L 368.061619 66.125237 C 366.815364 67.507067 365.324031 68.607317 363.587618 69.431201 C 361.851204 70.255085 359.739351 70.667026 357.257271 70.667026 Z M 360.333798 63.669229 C 362.732447 63.669229 364.651366 63.09564 366.09577 61.943245 C 367.534959 60.785637 368.259768 59.26823 368.259768 57.401456 L 368.259768 55.597255 C 367.368097 55.195742 366.37735 54.87766 365.282315 54.637796 C 364.192494 54.387502 363.034885 54.262355 361.79906 54.262355 C 359.614204 54.262355 357.903863 54.684726 356.652394 55.529467 C 355.416568 56.379423 354.801263 57.599605 354.801263 59.195228 L 354.801263 59.341233 C 354.801263 60.717849 355.307065 61.786812 356.329098 62.548122 C 357.351131 63.293789 358.686031 63.669229 360.333798 63.669229 Z M 365.866334 18.538132 L 374.590115 22.334254 L 365.928907 30.338441 L 358.461809 30.338441 Z M 386.593788 34.275353 L 396.715043 34.275353 L 396.715043 41.4713 C 397.737075 39.030935 399.134549 37.075515 400.917892 35.610254 C 402.696021 34.134563 405.099884 33.467113 408.124267 33.607903 L 408.124267 44.203673 L 407.587179 44.203673 C 404.202998 44.203673 401.543627 45.230921 399.614279 47.280201 C 397.684931 49.319053 396.715043 52.494655 396.715043 56.801794 L 396.715043 69.999576 L 386.593788 69.999576 Z M 414.652764 21.338294 L 425.311107 21.338294 L 425.311107 30.338441 L 414.652764 30.338441 Z M 414.913486 34.275353 L 425.050384 34.275353 L 425.050384 69.999576 L 414.913486 69.999576 Z M 452.1134 70.797388 C 449.360168 70.797388 446.805086 70.317658 444.448153 69.363413 C 442.096434 68.409168 440.062797 67.105555 438.347242 65.442144 C 436.631686 63.773519 435.286357 61.812884 434.311254 59.570669 C 433.336152 57.323239 432.845993 54.914162 432.845993 52.343436 L 432.845993 52.197431 C 432.845993 49.626705 433.336152 47.217628 434.311254 44.970198 C 435.286357 42.722769 436.642115 40.762134 438.378528 39.077865 C 440.114941 37.388382 442.159007 36.053482 444.515941 35.073165 C 446.867659 34.098062 449.443599 33.607903 452.243761 33.607903 C 455.002207 33.607903 457.557289 34.087633 459.909008 35.041878 C 462.265941 35.996123 464.294364 37.310166 465.994276 38.978791 C 467.709831 40.642202 469.05516 42.592407 470.030263 44.839837 C 471.021009 47.087266 471.516382 49.496344 471.516382 52.06707 L 471.516382 52.197431 C 471.516382 54.778586 471.021009 57.192878 470.030263 59.440307 C 469.05516 61.682523 467.699402 63.653586 465.962989 65.343069 C 464.237005 67.027338 462.198153 68.357023 459.846435 69.332126 C 457.489502 70.307229 454.913561 70.797388 452.1134 70.797388 Z M 452.243761 62.073607 C 453.709023 62.073607 455.007422 61.818098 456.133744 61.307082 C 457.275709 60.790851 458.240383 60.0869 459.03298 59.210871 C 459.836006 58.3192 460.446097 57.286738 460.868468 56.103057 C 461.296053 54.919376 461.504631 53.667907 461.504631 52.343436 L 461.504631 52.197431 C 461.504631 50.862531 461.280409 49.605848 460.837181 48.43781 C 460.393952 47.254129 459.74736 46.206024 458.902619 45.293494 C 458.068306 44.386179 457.067131 43.66137 455.904308 43.129496 C 454.757128 42.597622 453.49523 42.331685 452.1134 42.331685 C 450.648138 42.331685 449.349739 42.587193 448.207774 43.098209 C 447.081452 43.609226 446.116778 44.307963 445.313752 45.199634 C 444.510726 46.086091 443.895421 47.123768 443.47305 48.307449 C 443.050679 49.475486 442.836886 50.73217 442.836886 52.06707 L 442.836886 52.197431 C 442.836886 53.532331 443.061108 54.789015 443.504336 55.972696 C 443.952779 57.140733 444.594157 58.183624 445.444113 59.096154 C 446.288855 60.008683 447.274387 60.733492 448.405923 61.275795 C 449.542674 61.807669 450.82543 62.073607 452.243761 62.073607 Z M 513.508379 70.667026 C 511.412168 70.667026 509.38896 70.270728 507.438755 69.478131 C 505.483334 68.675105 503.746921 67.48621 502.229515 65.916659 C 500.722538 64.331465 499.512785 62.396903 498.600255 60.107758 C 497.687726 57.813398 497.234068 55.180099 497.234068 52.197431 L 497.234068 52.06707 C 497.234068 49.094831 497.687726 46.461532 498.600255 44.172387 C 499.512785 41.883242 500.712109 39.953894 502.198228 38.379129 C 503.694777 36.793935 505.420761 35.605039 507.370967 34.812442 C 509.326387 34.009416 511.370453 33.607903 513.508379 33.607903 C 516.219895 33.607903 518.451681 34.139778 520.198523 35.203526 C 521.955794 36.267275 523.436699 37.508315 524.641238 38.931861 L 524.641238 21.338294 L 534.762492 21.338294 L 534.762492 69.999576 L 524.641238 69.999576 L 524.641238 64.873768 C 523.389769 66.552822 521.888006 67.945082 520.130735 69.040117 C 518.373464 70.124723 516.16775 70.667026 513.508379 70.667026 Z M 516.094748 62.073607 C 517.299287 62.073607 518.420394 61.838956 519.463285 61.37487 C 520.506176 60.905569 521.418705 60.243333 522.195659 59.37252 C 522.977827 58.50692 523.603561 57.464029 524.067648 56.249062 C 524.536949 55.023665 524.771599 53.673122 524.771599 52.197431 L 524.771599 52.06707 C 524.771599 50.601808 524.536949 49.261694 524.067648 48.046726 C 523.603561 46.821329 522.977827 45.773224 522.195659 44.90241 C 521.418705 44.036811 520.506176 43.369361 519.463285 42.905274 C 518.420394 42.435974 517.299287 42.201323 516.094748 42.201323 C 514.900638 42.201323 513.77953 42.435974 512.726211 42.905274 C 511.68332 43.369361 510.760362 44.036811 509.957336 44.90241 C 509.164739 45.773224 508.539004 46.8109 508.069703 48.015439 C 507.605617 49.204335 507.370967 50.560093 507.370967 52.06707 L 507.370967 52.197431 C 507.370967 53.673122 507.605617 55.023665 508.069703 56.249062 C 508.539004 57.464029 509.164739 58.50692 509.957336 59.37252 C 510.760362 60.243333 511.68332 60.905569 512.726211 61.37487 C 513.77953 61.838956 514.900638 62.073607 516.094748 62.073607 Z M 560.761759 70.797388 C 558.091959 70.797388 555.615093 70.354159 553.325948 69.462488 C 551.036803 68.570816 549.05531 67.308918 547.386685 65.67158 C 545.723274 64.023812 544.43009 62.078821 543.496703 59.847035 C 542.563315 57.599605 542.094014 55.096667 542.094014 52.343436 L 542.094014 52.197431 C 542.094014 49.668421 542.532029 47.269772 543.397628 45.001485 C 544.263227 42.733197 545.472981 40.762134 547.026888 39.077865 C 548.580795 37.388382 550.431926 36.053482 552.59071 35.073165 C 554.749494 34.098062 557.137714 33.607903 559.75537 33.607903 C 562.738037 33.607903 565.313977 34.139778 567.48319 35.203526 C 569.662832 36.267275 571.477462 37.70125 572.921865 39.500236 C 574.371484 41.304437 575.440447 43.369361 576.12354 45.700222 C 576.822277 48.036297 577.166431 50.471447 577.166431 53.010886 C 577.166431 53.40197 577.150787 53.819126 577.119501 54.262355 C 577.098643 54.705583 577.062142 55.174884 577.020426 55.659828 L 552.168339 55.659828 C 552.658498 57.975046 553.664887 59.721888 555.197937 60.900355 C 556.725772 62.073607 558.623833 62.66284 560.89212 62.66284 C 562.586818 62.66284 564.09901 62.37083 565.43391 61.797241 C 566.76881 61.223651 568.145426 60.290263 569.568972 58.997079 L 575.36223 64.143745 C 573.667532 66.224312 571.623466 67.856436 569.224818 69.040117 C 566.826169 70.213369 564.005149 70.797388 560.761759 70.797388 Z M 567.290255 49.329482 C 566.982602 47.066409 566.184791 45.230921 564.896821 43.828233 C 563.603636 42.430759 561.893296 41.732022 559.75537 41.732022 C 557.627872 41.732022 555.907103 42.42033 554.59306 43.796946 C 553.279018 45.173562 552.423847 47.019479 552.022335 49.329482 Z M 567.290255 49.329482 " stroke="#ffffff" stroke-width="17.50001" stroke-opacity="1" stroke-miterlimit="4"/></g><g clip-path="url(#4bb9cf0bbf)"><path stroke-linecap="butt" transform="matrix(0.74912, 0, 0, 0.74912, 18.902795, 14.007252)" fill="none" stroke-linejoin="miter" d="M 198.863022 116.001488 L 208.33247 116.001488 L 228.335115 162.99936 L 217.59334 162.99936 L 213.327917 152.533951 L 193.606852 152.533951 L 189.325786 162.99936 L 178.860377 162.99936 Z M 209.66737 143.47123 L 203.467385 128.333671 L 197.267399 143.47123 Z M 246.52313 163.604237 C 244.974437 163.604237 243.56132 163.43216 242.294208 163.098435 C 241.021881 162.759495 239.93206 162.175476 239.019531 161.341164 C 238.112216 160.491208 237.397836 159.390958 236.892033 158.0352 C 236.381017 156.679442 236.125509 154.953458 236.125509 152.862462 L 236.125509 135.936345 L 231.860086 135.936345 L 231.860086 127.275137 L 236.125509 127.275137 L 236.125509 118.128985 L 246.262407 118.128985 L 246.262407 127.275137 L 254.662892 127.275137 L 254.662892 135.936345 L 246.262407 135.936345 L 246.262407 151.199051 C 246.262407 153.514268 247.347013 154.666663 249.516226 154.666663 C 251.299569 154.666663 252.96298 154.244292 254.516887 153.399551 L 254.516887 161.534098 C 253.453139 162.154618 252.274672 162.655206 250.981488 163.030647 C 249.703946 163.411302 248.217827 163.604237 246.52313 163.604237 Z M 279.050892 163.797171 C 276.381092 163.797171 273.904227 163.353943 271.615081 162.462271 C 269.325936 161.575814 267.344444 160.308702 265.675818 158.671363 C 264.012408 157.023596 262.719223 155.078605 261.785836 152.846818 C 260.852449 150.599389 260.383148 148.096451 260.383148 145.343219 L 260.383148 145.197215 C 260.383148 142.668205 260.821162 140.269556 261.686761 138.001268 C 262.557575 135.732981 263.767328 133.761917 265.316021 132.077649 C 266.869928 130.388166 268.721059 129.053266 270.885058 128.072948 C 273.043842 127.097846 275.426847 126.612901 278.044503 126.612901 C 281.02717 126.612901 283.603111 127.139561 285.772323 128.20331 C 287.95718 129.267058 289.766595 130.701033 291.210999 132.50002 C 292.665831 134.304221 293.72958 136.369144 294.417888 138.700005 C 295.11141 141.036081 295.455564 143.47123 295.455564 146.010669 C 295.455564 146.401754 295.439921 146.81891 295.408634 147.262138 C 295.387776 147.705367 295.35649 148.174668 295.309559 148.664826 L 270.457473 148.664826 C 270.947631 150.974829 271.959235 152.721672 273.48707 153.900138 C 275.014905 155.07339 276.912966 155.662623 279.181254 155.662623 C 280.875951 155.662623 282.388143 155.370614 283.723043 154.797024 C 285.057943 154.223434 286.434559 153.290047 287.858105 151.996862 L 293.651363 157.143528 C 291.956666 159.224095 289.9126 160.856219 287.513951 162.0399 C 285.115302 163.213153 282.294283 163.797171 279.050892 163.797171 Z M 285.579389 142.329265 C 285.27695 140.066192 284.479139 138.230704 283.185954 136.833231 C 281.89277 135.430543 280.182429 134.731806 278.044503 134.731806 C 275.917006 134.731806 274.196236 135.420114 272.882194 136.79673 C 271.573366 138.17856 270.712981 140.019262 270.311468 142.329265 Z M 302.985235 127.275137 L 313.111705 127.275137 L 313.111705 132.338372 C 313.685295 131.577061 314.316244 130.857467 314.999337 130.174373 C 315.692859 129.480851 316.464599 128.865545 317.30934 128.333671 C 318.154082 127.801797 319.087469 127.38464 320.109502 127.082202 C 321.12632 126.769335 322.283929 126.612901 323.577113 126.612901 C 327.446238 126.612901 330.439335 127.786153 332.54076 130.143087 C 334.657828 132.494805 335.716362 135.738195 335.716362 139.873257 L 335.716362 162.99936 L 325.574249 162.99936 L 325.574249 143.064503 C 325.574249 140.665854 325.037161 138.861653 323.962983 137.646686 C 322.904449 136.416074 321.392257 135.805983 319.442052 135.805983 C 317.486631 135.805983 315.943153 136.416074 314.801188 137.646686 C 313.674866 138.861653 313.111705 140.665854 313.111705 143.064503 L 313.111705 162.99936 L 302.985235 162.99936 Z M 359.17619 163.66681 C 357.085194 163.66681 355.061986 163.270512 353.106565 162.477915 C 351.15636 161.674889 349.419947 160.485993 347.897326 158.916443 C 346.390349 157.331249 345.180596 155.396686 344.268066 153.107541 C 343.360751 150.818396 342.901879 148.179882 342.901879 145.197215 L 342.901879 145.066853 C 342.901879 142.094615 343.360751 139.461315 344.268066 137.17217 C 345.180596 134.883025 346.37992 132.953677 347.866039 131.378912 C 349.362588 129.793718 351.088572 128.604823 353.043992 127.812226 C 354.994198 127.014414 357.038264 126.612901 359.17619 126.612901 C 361.887706 126.612901 364.119492 127.139561 365.866334 128.20331 C 367.623605 129.267058 369.10451 130.513313 370.309048 131.931644 L 370.309048 114.338077 L 380.430303 114.338077 L 380.430303 162.99936 L 370.309048 162.99936 L 370.309048 157.873552 C 369.062794 159.55782 367.561031 160.944865 365.80376 162.0399 C 364.041275 163.124507 361.835561 163.66681 359.17619 163.66681 Z M 361.767773 155.07339 C 362.967098 155.07339 364.09342 154.83874 365.13631 154.374653 C 366.173987 153.910567 367.086516 153.243117 367.868684 152.372303 C 368.650852 151.506704 369.271372 150.463813 369.740673 149.248845 C 370.204759 148.023449 370.43941 146.672905 370.43941 145.197215 L 370.43941 145.066853 C 370.43941 143.601592 370.204759 142.261477 369.740673 141.046509 C 369.271372 139.821113 368.650852 138.773008 367.868684 137.907408 C 367.086516 137.036594 366.173987 136.369144 365.13631 135.905058 C 364.09342 135.435757 362.967098 135.201107 361.767773 135.201107 C 360.573663 135.201107 359.447341 135.435757 358.394022 135.905058 C 357.356345 136.369144 356.433387 137.036594 355.630361 137.907408 C 354.837764 138.773008 354.206815 139.810684 353.742729 141.015223 C 353.273428 142.209333 353.043992 143.559876 353.043992 145.066853 L 353.043992 145.197215 C 353.043992 146.672905 353.273428 148.023449 353.742729 149.248845 C 354.206815 150.463813 354.837764 151.506704 355.630361 152.372303 C 356.433387 153.243117 357.356345 153.910567 358.394022 154.374653 C 359.447341 154.83874 360.573663 155.07339 361.767773 155.07339 Z M 389.701602 114.338077 L 400.359946 114.338077 L 400.359946 123.338224 L 389.701602 123.338224 Z M 389.962325 127.275137 L 400.104437 127.275137 L 400.104437 162.99936 L 389.962325 162.99936 Z M 409.636459 127.275137 L 419.757714 127.275137 L 419.757714 132.338372 C 420.336518 131.577061 420.962253 130.857467 421.650561 130.174373 C 422.344083 129.480851 423.110608 128.865545 423.960564 128.333671 C 424.805305 127.801797 425.749121 127.38464 426.792012 127.082202 C 427.845332 126.769335 429.008155 126.612901 430.290911 126.612901 C 432.642629 126.612901 434.676266 127.097846 436.391821 128.072948 C 438.107377 129.053266 439.431848 130.450739 440.365235 132.275798 C 441.913928 130.409024 443.645127 128.995907 445.553617 128.041662 C 447.467321 127.087417 449.646963 126.612901 452.097756 126.612901 C 455.873021 126.612901 458.824402 127.72358 460.951899 129.944937 C 463.089825 132.16108 464.158788 135.420114 464.158788 139.727253 L 464.158788 162.99936 L 454.016675 162.99936 L 454.016675 143.064503 C 454.016675 140.665854 453.505659 138.861653 452.48884 137.646686 C 451.466807 136.416074 450.001546 135.805983 448.093056 135.805983 C 446.184566 135.805983 444.682803 136.416074 443.587768 137.646686 C 442.503161 138.861653 441.960858 140.665854 441.960858 143.064503 L 441.960858 162.99936 L 431.818745 162.99936 L 431.818745 143.064503 C 431.818745 140.665854 431.307729 138.861653 430.290911 137.646686 C 429.268878 136.416074 427.803616 135.805983 425.895126 135.805983 C 423.986636 135.805983 422.484873 136.416074 421.389838 137.646686 C 420.305232 138.861653 419.757714 140.665854 419.757714 143.064503 L 419.757714 162.99936 L 409.636459 162.99936 Z M 489.886903 163.797171 C 487.217103 163.797171 484.740237 163.353943 482.451092 162.462271 C 480.161947 161.575814 478.180454 160.308702 476.506615 158.671363 C 474.848418 157.023596 473.550019 155.078605 472.621846 152.846818 C 471.688459 150.599389 471.219158 148.096451 471.219158 145.343219 L 471.219158 145.197215 C 471.219158 142.668205 471.651958 140.269556 472.522772 138.001268 C 473.388371 135.732981 474.598124 133.761917 476.152032 132.077649 C 477.700724 130.388166 479.55707 129.053266 481.715854 128.072948 C 483.874638 127.097846 486.262858 126.612901 488.875299 126.612901 C 491.863181 126.612901 494.439121 127.139561 496.608334 128.20331 C 498.787976 129.267058 500.602606 130.701033 502.041795 132.50002 C 503.496627 134.304221 504.56559 136.369144 505.248684 138.700005 C 505.942206 141.036081 506.291575 143.47123 506.291575 146.010669 C 506.291575 146.401754 506.275931 146.81891 506.244645 147.262138 C 506.218572 147.705367 506.187286 148.174668 506.14557 148.664826 L 481.293483 148.664826 C 481.783642 150.974829 482.790031 152.721672 484.323081 153.900138 C 485.850916 155.07339 487.748977 155.662623 490.017264 155.662623 C 491.706747 155.662623 493.224153 155.370614 494.559054 154.797024 C 495.893954 154.223434 497.27057 153.290047 498.688901 151.996862 L 504.482159 157.143528 C 502.792676 159.224095 500.74861 160.856219 498.349962 162.0399 C 495.951313 163.213153 493.130293 163.797171 489.886903 163.797171 Z M 496.410185 142.329265 C 496.107746 140.066192 495.309935 138.230704 494.021965 136.833231 C 492.72878 135.430543 491.013225 134.731806 488.875299 134.731806 C 486.753016 134.731806 485.032247 135.420114 483.718204 136.79673 C 482.404162 138.17856 481.548991 140.019262 481.147478 142.329265 Z M 513.821246 127.275137 L 523.942501 127.275137 L 523.942501 132.338372 C 524.521305 131.577061 525.14704 130.857467 525.830133 130.174373 C 526.52887 129.480851 527.295395 128.865545 528.145351 128.333671 C 528.990092 127.801797 529.923479 127.38464 530.940298 127.082202 C 531.962331 126.769335 533.119939 126.612901 534.40791 126.612901 C 538.282249 126.612901 541.270131 127.786153 543.37677 130.143087 C 545.493838 132.494805 546.547158 135.738195 546.547158 139.873257 L 546.547158 162.99936 L 536.41026 162.99936 L 536.41026 143.064503 C 536.41026 140.665854 535.873171 138.861653 534.798994 137.646686 C 533.735245 136.416074 532.228268 135.805983 530.272848 135.805983 C 528.322642 135.805983 526.773949 136.416074 525.637198 137.646686 C 524.510876 138.861653 523.942501 140.665854 523.942501 143.064503 L 523.942501 162.99936 L 513.821246 162.99936 Z M 567.410188 163.604237 C 565.85628 163.604237 564.443163 163.43216 563.176051 163.098435 C 561.908939 162.759495 560.819118 162.175476 559.906589 161.341164 C 558.994059 160.491208 558.284894 159.390958 557.773877 158.0352 C 557.262861 156.679442 557.007352 154.953458 557.007352 152.862462 L 557.007352 135.936345 L 552.741929 135.936345 L 552.741929 127.275137 L 557.007352 127.275137 L 557.007352 118.128985 L 567.149465 118.128985 L 567.149465 127.275137 L 575.544736 127.275137 L 575.544736 135.936345 L 567.149465 135.936345 L 567.149465 151.199051 C 567.149465 153.514268 568.234071 154.666663 570.403284 154.666663 C 572.181413 154.666663 573.844824 154.244292 575.398731 153.399551 L 575.398731 161.534098 C 574.334982 162.154618 573.156516 162.655206 571.868546 163.030647 C 570.58579 163.411302 569.099671 163.604237 567.410188 163.604237 Z M 600.537613 163.797171 C 597.784381 163.797171 595.229299 163.322656 592.872366 162.363197 C 590.520647 161.408952 588.48701 160.105338 586.771455 158.441927 C 585.055899 156.773302 583.71057 154.812667 582.735467 152.570452 C 581.75515 150.323023 581.270206 147.913945 581.270206 145.343219 L 581.270206 145.197215 C 581.270206 142.626489 581.75515 140.217411 582.735467 137.969982 C 583.71057 135.722552 585.066328 133.761917 586.802741 132.077649 C 588.539154 130.388166 590.58322 129.053266 592.940154 128.072948 C 595.291872 127.097846 597.867812 126.612901 600.667974 126.612901 C 603.42642 126.612901 605.981502 127.087417 608.333221 128.041662 C 610.690154 128.995907 612.718577 130.309949 614.418489 131.978574 C 616.134044 133.641985 617.479373 135.592191 618.454476 137.83962 C 619.445222 140.08705 619.935381 142.496128 619.935381 145.066853 L 619.935381 145.197215 C 619.935381 147.778369 619.445222 150.192661 618.454476 152.440091 C 617.479373 154.682306 616.123615 156.65337 614.387202 158.348067 C 612.661218 160.027121 610.622366 161.356807 608.270648 162.33191 C 605.913715 163.307013 603.337774 163.797171 600.537613 163.797171 Z M 600.667974 155.07339 C 602.133236 155.07339 603.431635 154.817882 604.557957 154.306865 C 605.699922 153.790635 606.664596 153.086683 607.457193 152.210655 C 608.260219 151.318983 608.87031 150.286522 609.292681 149.102841 C 609.715051 147.91916 609.928844 146.667691 609.928844 145.343219 L 609.928844 145.197215 C 609.928844 143.862315 609.704622 142.605631 609.261394 141.437593 C 608.818165 140.253912 608.171573 139.205807 607.326832 138.293278 C 606.487304 137.385963 605.491344 136.661154 604.328521 136.12928 C 603.181341 135.597405 601.914228 135.331468 600.537613 135.331468 C 599.072351 135.331468 597.773952 135.586976 596.631987 136.097993 C 595.505665 136.609009 594.540991 137.307746 593.737965 138.199418 C 592.934939 139.085875 592.319634 140.123551 591.897263 141.307232 C 591.474892 142.480484 591.261099 143.731953 591.261099 145.066853 L 591.261099 145.197215 C 591.261099 146.532115 591.485321 147.788798 591.928549 148.972479 C 592.371778 150.145731 593.01837 151.183408 593.868326 152.095937 C 594.713068 153.008466 595.6986 153.733276 596.830136 154.275579 C 597.966887 154.807453 599.249643 155.07339 600.667974 155.07339 Z M 600.667974 155.07339 " stroke="#ffffff" stroke-width="17.50001" stroke-opacity="1" stroke-miterlimit="4"/></g><g fill="#000000" fill-opacity="1"><g transform="translate(183.568666, 66.44563)"><g><path d="M 4.1875 -34.953125 L 11.890625 -34.953125 L 11.890625 -21.125 L 26.0625 -21.125 L 26.0625 -34.953125 L 33.75 -34.953125 L 33.75 0 L 26.0625 0 L 26.0625 -14.03125 L 11.890625 -14.03125 L 11.890625 0 L 4.1875 0 Z M 4.1875 -34.953125 "/></g></g></g><g fill="#000000" fill-opacity="1"><g transform="translate(221.518193, 66.44563)"><g><path d="M 16.53125 0.59375 C 14.46875 0.59375 12.550781 0.238281 10.78125 -0.46875 C 9.019531 -1.1875 7.5 -2.171875 6.21875 -3.421875 C 4.9375 -4.671875 3.925781 -6.132812 3.1875 -7.8125 C 2.457031 -9.5 2.09375 -11.304688 2.09375 -13.234375 L 2.09375 -13.328125 C 2.09375 -15.265625 2.457031 -17.070312 3.1875 -18.75 C 3.925781 -20.425781 4.941406 -21.894531 6.234375 -23.15625 C 7.535156 -24.425781 9.066406 -25.425781 10.828125 -26.15625 C 12.597656 -26.894531 14.53125 -27.265625 16.625 -27.265625 C 18.6875 -27.265625 20.597656 -26.90625 22.359375 -26.1875 C 24.128906 -25.476562 25.65625 -24.5 26.9375 -23.25 C 28.21875 -22 29.222656 -20.53125 29.953125 -18.84375 C 30.691406 -17.164062 31.0625 -15.363281 31.0625 -13.4375 L 31.0625 -13.328125 C 31.0625 -11.398438 30.691406 -9.59375 29.953125 -7.90625 C 29.222656 -6.226562 28.207031 -4.753906 26.90625 -3.484375 C 25.613281 -2.222656 24.082031 -1.226562 22.3125 -0.5 C 20.550781 0.226562 18.625 0.59375 16.53125 0.59375 Z M 16.625 -5.9375 C 17.726562 -5.9375 18.703125 -6.128906 19.546875 -6.515625 C 20.398438 -6.898438 21.125 -7.425781 21.71875 -8.09375 C 22.320312 -8.757812 22.78125 -9.53125 23.09375 -10.40625 C 23.414062 -11.289062 23.578125 -12.234375 23.578125 -13.234375 L 23.578125 -13.328125 C 23.578125 -14.328125 23.410156 -15.269531 23.078125 -16.15625 C 22.742188 -17.039062 22.257812 -17.820312 21.625 -18.5 C 20.988281 -19.1875 20.238281 -19.726562 19.375 -20.125 C 18.507812 -20.519531 17.5625 -20.71875 16.53125 -20.71875 C 15.425781 -20.71875 14.445312 -20.523438 13.59375 -20.140625 C 12.75 -19.765625 12.023438 -19.242188 11.421875 -18.578125 C 10.828125 -17.910156 10.375 -17.132812 10.0625 -16.25 C 9.75 -15.375 9.59375 -14.4375 9.59375 -13.4375 L 9.59375 -13.328125 C 9.59375 -12.328125 9.757812 -11.382812 10.09375 -10.5 C 10.425781 -9.625 10.90625 -8.84375 11.53125 -8.15625 C 12.164062 -7.476562 12.90625 -6.9375 13.75 -6.53125 C 14.601562 -6.132812 15.5625 -5.9375 16.625 -5.9375 Z M 16.625 -5.9375 "/></g></g></g><g fill="#000000" fill-opacity="1"><g transform="translate(254.674088, 66.44563)"><g><path d="M 3.390625 -26.765625 L 10.984375 -26.765625 L 10.984375 -21.375 C 11.753906 -23.207031 12.800781 -24.671875 14.125 -25.765625 C 15.457031 -26.867188 17.257812 -27.367188 19.53125 -27.265625 L 19.53125 -19.328125 L 19.125 -19.328125 C 16.59375 -19.328125 14.601562 -18.5625 13.15625 -17.03125 C 11.707031 -15.5 10.984375 -13.117188 10.984375 -9.890625 L 10.984375 0 L 3.390625 0 Z M 3.390625 -26.765625 "/></g></g></g><g fill="#000000" fill-opacity="1"><g transform="translate(275.546323, 66.44563)"><g><path d="M 10.984375 0.5 C 9.722656 0.5 8.535156 0.328125 7.421875 -0.015625 C 6.304688 -0.367188 5.332031 -0.894531 4.5 -1.59375 C 3.664062 -2.289062 3.003906 -3.144531 2.515625 -4.15625 C 2.035156 -5.175781 1.796875 -6.351562 1.796875 -7.6875 L 1.796875 -7.796875 C 1.796875 -9.253906 2.0625 -10.515625 2.59375 -11.578125 C 3.125 -12.648438 3.863281 -13.535156 4.8125 -14.234375 C 5.757812 -14.929688 6.890625 -15.453125 8.203125 -15.796875 C 9.523438 -16.148438 10.984375 -16.328125 12.578125 -16.328125 C 13.941406 -16.328125 15.128906 -16.226562 16.140625 -16.03125 C 17.160156 -15.832031 18.15625 -15.566406 19.125 -15.234375 L 19.125 -15.6875 C 19.125 -17.28125 18.640625 -18.492188 17.671875 -19.328125 C 16.710938 -20.160156 15.285156 -20.578125 13.390625 -20.578125 C 11.921875 -20.578125 10.628906 -20.453125 9.515625 -20.203125 C 8.398438 -19.953125 7.226562 -19.59375 6 -19.125 L 4.09375 -24.921875 C 5.5625 -25.554688 7.09375 -26.070312 8.6875 -26.46875 C 10.289062 -26.863281 12.222656 -27.0625 14.484375 -27.0625 C 16.578125 -27.0625 18.363281 -26.800781 19.84375 -26.28125 C 21.332031 -25.769531 22.554688 -25.03125 23.515625 -24.0625 C 24.515625 -23.070312 25.25 -21.851562 25.71875 -20.40625 C 26.1875 -18.957031 26.421875 -17.332031 26.421875 -15.53125 L 26.421875 0 L 19.078125 0 L 19.078125 -2.890625 C 18.140625 -1.859375 17.019531 -1.035156 15.71875 -0.421875 C 14.425781 0.191406 12.847656 0.5 10.984375 0.5 Z M 13.28125 -4.75 C 15.082031 -4.75 16.519531 -5.179688 17.59375 -6.046875 C 18.675781 -6.910156 19.21875 -8.039062 19.21875 -9.4375 L 19.21875 -10.78125 C 18.5625 -11.082031 17.820312 -11.320312 17 -11.5 C 16.1875 -11.6875 15.3125 -11.78125 14.375 -11.78125 C 12.75 -11.78125 11.46875 -11.460938 10.53125 -10.828125 C 9.601562 -10.203125 9.140625 -9.289062 9.140625 -8.09375 L 9.140625 -7.984375 C 9.140625 -6.953125 9.519531 -6.15625 10.28125 -5.59375 C 11.050781 -5.03125 12.050781 -4.75 13.28125 -4.75 Z M 17.4375 -38.546875 L 23.96875 -35.703125 L 17.484375 -29.71875 L 11.890625 -29.71875 Z M 17.4375 -38.546875 "/></g></g></g><g fill="#000000" fill-opacity="1"><g transform="translate(305.107003, 66.44563)"><g><path d="M 3.390625 -26.765625 L 10.984375 -26.765625 L 10.984375 -21.375 C 11.753906 -23.207031 12.800781 -24.671875 14.125 -25.765625 C 15.457031 -26.867188 17.257812 -27.367188 19.53125 -27.265625 L 19.53125 -19.328125 L 19.125 -19.328125 C 16.59375 -19.328125 14.601562 -18.5625 13.15625 -17.03125 C 11.707031 -15.5 10.984375 -13.117188 10.984375 -9.890625 L 10.984375 0 L 3.390625 0 Z M 3.390625 -26.765625 "/></g></g></g><g fill="#000000" fill-opacity="1"><g transform="translate(325.979238, 66.44563)"><g><path d="M 3.546875 -36.453125 L 11.53125 -36.453125 L 11.53125 -29.71875 L 3.546875 -29.71875 Z M 3.75 -26.765625 L 11.328125 -26.765625 L 11.328125 0 L 3.75 0 Z M 3.75 -26.765625 "/></g></g></g><g fill="#000000" fill-opacity="1"><g transform="translate(341.059181, 66.44563)"><g><path d="M 16.53125 0.59375 C 14.46875 0.59375 12.550781 0.238281 10.78125 -0.46875 C 9.019531 -1.1875 7.5 -2.171875 6.21875 -3.421875 C 4.9375 -4.671875 3.925781 -6.132812 3.1875 -7.8125 C 2.457031 -9.5 2.09375 -11.304688 2.09375 -13.234375 L 2.09375 -13.328125 C 2.09375 -15.265625 2.457031 -17.070312 3.1875 -18.75 C 3.925781 -20.425781 4.941406 -21.894531 6.234375 -23.15625 C 7.535156 -24.425781 9.066406 -25.425781 10.828125 -26.15625 C 12.597656 -26.894531 14.53125 -27.265625 16.625 -27.265625 C 18.6875 -27.265625 20.597656 -26.90625 22.359375 -26.1875 C 24.128906 -25.476562 25.65625 -24.5 26.9375 -23.25 C 28.21875 -22 29.222656 -20.53125 29.953125 -18.84375 C 30.691406 -17.164062 31.0625 -15.363281 31.0625 -13.4375 L 31.0625 -13.328125 C 31.0625 -11.398438 30.691406 -9.59375 29.953125 -7.90625 C 29.222656 -6.226562 28.207031 -4.753906 26.90625 -3.484375 C 25.613281 -2.222656 24.082031 -1.226562 22.3125 -0.5 C 20.550781 0.226562 18.625 0.59375 16.53125 0.59375 Z M 16.625 -5.9375 C 17.726562 -5.9375 18.703125 -6.128906 19.546875 -6.515625 C 20.398438 -6.898438 21.125 -7.425781 21.71875 -8.09375 C 22.320312 -8.757812 22.78125 -9.53125 23.09375 -10.40625 C 23.414062 -11.289062 23.578125 -12.234375 23.578125 -13.234375 L 23.578125 -13.328125 C 23.578125 -14.328125 23.410156 -15.269531 23.078125 -16.15625 C 22.742188 -17.039062 22.257812 -17.820312 21.625 -18.5 C 20.988281 -19.1875 20.238281 -19.726562 19.375 -20.125 C 18.507812 -20.519531 17.5625 -20.71875 16.53125 -20.71875 C 15.425781 -20.71875 14.445312 -20.523438 13.59375 -20.140625 C 12.75 -19.765625 12.023438 -19.242188 11.421875 -18.578125 C 10.828125 -17.910156 10.375 -17.132812 10.0625 -16.25 C 9.75 -15.375 9.59375 -14.4375 9.59375 -13.4375 L 9.59375 -13.328125 C 9.59375 -12.328125 9.757812 -11.382812 10.09375 -10.5 C 10.425781 -9.625 10.90625 -8.84375 11.53125 -8.15625 C 12.164062 -7.476562 12.90625 -6.9375 13.75 -6.53125 C 14.601562 -6.132812 15.5625 -5.9375 16.625 -5.9375 Z M 16.625 -5.9375 "/></g></g></g><g fill="#000000" fill-opacity="1"><g transform="translate(374.215077, 66.44563)"><g/></g></g><g fill="#000000" fill-opacity="1"><g transform="translate(389.195162, 66.44563)"><g><path d="M 14.375 0.5 C 12.8125 0.5 11.296875 0.203125 9.828125 -0.390625 C 8.367188 -0.992188 7.070312 -1.882812 5.9375 -3.0625 C 4.8125 -4.25 3.90625 -5.695312 3.21875 -7.40625 C 2.539062 -9.125 2.203125 -11.097656 2.203125 -13.328125 L 2.203125 -13.4375 C 2.203125 -15.664062 2.539062 -17.632812 3.21875 -19.34375 C 3.90625 -21.0625 4.804688 -22.507812 5.921875 -23.6875 C 7.035156 -24.875 8.320312 -25.765625 9.78125 -26.359375 C 11.25 -26.960938 12.78125 -27.265625 14.375 -27.265625 C 16.40625 -27.265625 18.078125 -26.863281 19.390625 -26.0625 C 20.710938 -25.269531 21.820312 -24.335938 22.71875 -23.265625 L 22.71875 -36.453125 L 30.3125 -36.453125 L 30.3125 0 L 22.71875 0 L 22.71875 -3.84375 C 21.789062 -2.582031 20.664062 -1.539062 19.34375 -0.71875 C 18.03125 0.09375 16.375 0.5 14.375 0.5 Z M 16.328125 -5.9375 C 17.222656 -5.9375 18.0625 -6.109375 18.84375 -6.453125 C 19.632812 -6.804688 20.316406 -7.304688 20.890625 -7.953125 C 21.472656 -8.609375 21.941406 -9.394531 22.296875 -10.3125 C 22.648438 -11.226562 22.828125 -12.234375 22.828125 -13.328125 L 22.828125 -13.4375 C 22.828125 -14.53125 22.648438 -15.535156 22.296875 -16.453125 C 21.941406 -17.367188 21.472656 -18.148438 20.890625 -18.796875 C 20.316406 -19.453125 19.632812 -19.953125 18.84375 -20.296875 C 18.0625 -20.648438 17.222656 -20.828125 16.328125 -20.828125 C 15.429688 -20.828125 14.59375 -20.648438 13.8125 -20.296875 C 13.03125 -19.953125 12.335938 -19.453125 11.734375 -18.796875 C 11.140625 -18.148438 10.664062 -17.375 10.3125 -16.46875 C 9.957031 -15.570312 9.78125 -14.5625 9.78125 -13.4375 L 9.78125 -13.328125 C 9.78125 -12.234375 9.957031 -11.226562 10.3125 -10.3125 C 10.664062 -9.394531 11.140625 -8.609375 11.734375 -7.953125 C 12.335938 -7.304688 13.03125 -6.804688 13.8125 -6.453125 C 14.59375 -6.109375 15.429688 -5.9375 16.328125 -5.9375 Z M 16.328125 -5.9375 "/></g></g></g><g fill="#000000" fill-opacity="1"><g transform="translate(422.900335, 66.44563)"><g><path d="M 16.078125 0.59375 C 14.078125 0.59375 12.21875 0.265625 10.5 -0.390625 C 8.789062 -1.054688 7.3125 -2.003906 6.0625 -3.234375 C 4.8125 -4.472656 3.835938 -5.929688 3.140625 -7.609375 C 2.441406 -9.296875 2.09375 -11.171875 2.09375 -13.234375 L 2.09375 -13.328125 C 2.09375 -15.234375 2.414062 -17.03125 3.0625 -18.71875 C 3.71875 -20.414062 4.628906 -21.894531 5.796875 -23.15625 C 6.960938 -24.425781 8.351562 -25.425781 9.96875 -26.15625 C 11.582031 -26.894531 13.367188 -27.265625 15.328125 -27.265625 C 17.554688 -27.265625 19.488281 -26.863281 21.125 -26.0625 C 22.757812 -25.269531 24.113281 -24.195312 25.1875 -22.84375 C 26.269531 -21.5 27.066406 -19.953125 27.578125 -18.203125 C 28.097656 -16.453125 28.359375 -14.628906 28.359375 -12.734375 C 28.359375 -12.429688 28.347656 -12.113281 28.328125 -11.78125 C 28.316406 -11.445312 28.296875 -11.097656 28.265625 -10.734375 L 9.640625 -10.734375 C 10.003906 -9.003906 10.757812 -7.695312 11.90625 -6.8125 C 13.0625 -5.9375 14.488281 -5.5 16.1875 -5.5 C 17.445312 -5.5 18.578125 -5.710938 19.578125 -6.140625 C 20.578125 -6.578125 21.609375 -7.273438 22.671875 -8.234375 L 27.015625 -4.390625 C 25.753906 -2.828125 24.222656 -1.601562 22.421875 -0.71875 C 20.617188 0.15625 18.503906 0.59375 16.078125 0.59375 Z M 20.96875 -15.484375 C 20.738281 -17.179688 20.140625 -18.550781 19.171875 -19.59375 C 18.210938 -20.644531 16.929688 -21.171875 15.328125 -21.171875 C 13.734375 -21.171875 12.441406 -20.65625 11.453125 -19.625 C 10.472656 -18.59375 9.832031 -17.210938 9.53125 -15.484375 Z M 20.96875 -15.484375 "/></g></g></g><g fill="#000000" fill-opacity="1"><g transform="translate(151.695969, 136.113761)"><g><path d="M 16.1875 -35.203125 L 23.265625 -35.203125 L 38.25 0 L 30.21875 0 L 27.015625 -7.84375 L 12.234375 -7.84375 L 9.03125 0 L 1.203125 0 Z M 24.265625 -14.625 L 19.625 -25.96875 L 14.984375 -14.625 Z M 24.265625 -14.625 "/></g></g></g><g fill="#000000" fill-opacity="1"><g transform="translate(191.143506, 136.113761)"><g><path d="M 12.4375 0.453125 C 11.269531 0.453125 10.210938 0.328125 9.265625 0.078125 C 8.316406 -0.171875 7.5 -0.613281 6.8125 -1.25 C 6.132812 -1.882812 5.601562 -2.707031 5.21875 -3.71875 C 4.832031 -4.738281 4.640625 -6.03125 4.640625 -7.59375 L 4.640625 -20.28125 L 1.453125 -20.28125 L 1.453125 -26.765625 L 4.640625 -26.765625 L 4.640625 -33.609375 L 12.234375 -33.609375 L 12.234375 -26.765625 L 18.53125 -26.765625 L 18.53125 -20.28125 L 12.234375 -20.28125 L 12.234375 -8.84375 C 12.234375 -7.101562 13.050781 -6.234375 14.6875 -6.234375 C 16.007812 -6.234375 17.253906 -6.550781 18.421875 -7.1875 L 18.421875 -1.09375 C 17.628906 -0.632812 16.75 -0.265625 15.78125 0.015625 C 14.8125 0.304688 13.695312 0.453125 12.4375 0.453125 Z M 12.4375 0.453125 "/></g></g></g><g fill="#000000" fill-opacity="1"><g transform="translate(211.865942, 136.113761)"><g><path d="M 16.078125 0.59375 C 14.078125 0.59375 12.21875 0.265625 10.5 -0.390625 C 8.789062 -1.054688 7.3125 -2.003906 6.0625 -3.234375 C 4.8125 -4.472656 3.835938 -5.929688 3.140625 -7.609375 C 2.441406 -9.296875 2.09375 -11.171875 2.09375 -13.234375 L 2.09375 -13.328125 C 2.09375 -15.234375 2.414062 -17.03125 3.0625 -18.71875 C 3.71875 -20.414062 4.628906 -21.894531 5.796875 -23.15625 C 6.960938 -24.425781 8.351562 -25.425781 9.96875 -26.15625 C 11.582031 -26.894531 13.367188 -27.265625 15.328125 -27.265625 C 17.554688 -27.265625 19.488281 -26.863281 21.125 -26.0625 C 22.757812 -25.269531 24.113281 -24.195312 25.1875 -22.84375 C 26.269531 -21.5 27.066406 -19.953125 27.578125 -18.203125 C 28.097656 -16.453125 28.359375 -14.628906 28.359375 -12.734375 C 28.359375 -12.429688 28.347656 -12.113281 28.328125 -11.78125 C 28.316406 -11.445312 28.296875 -11.097656 28.265625 -10.734375 L 9.640625 -10.734375 C 10.003906 -9.003906 10.757812 -7.695312 11.90625 -6.8125 C 13.0625 -5.9375 14.488281 -5.5 16.1875 -5.5 C 17.445312 -5.5 18.578125 -5.710938 19.578125 -6.140625 C 20.578125 -6.578125 21.609375 -7.273438 22.671875 -8.234375 L 27.015625 -4.390625 C 25.753906 -2.828125 24.222656 -1.601562 22.421875 -0.71875 C 20.617188 0.15625 18.503906 0.59375 16.078125 0.59375 Z M 20.96875 -15.484375 C 20.738281 -17.179688 20.140625 -18.550781 19.171875 -19.59375 C 18.210938 -20.644531 16.929688 -21.171875 15.328125 -21.171875 C 13.734375 -21.171875 12.441406 -20.65625 11.453125 -19.625 C 10.472656 -18.59375 9.832031 -17.210938 9.53125 -15.484375 Z M 20.96875 -15.484375 "/></g></g></g><g fill="#000000" fill-opacity="1"><g transform="translate(242.475224, 136.113761)"><g><path d="M 3.390625 -26.765625 L 10.984375 -26.765625 L 10.984375 -22.96875 C 11.421875 -23.53125 11.894531 -24.070312 12.40625 -24.59375 C 12.925781 -25.113281 13.5 -25.570312 14.125 -25.96875 C 14.757812 -26.363281 15.457031 -26.675781 16.21875 -26.90625 C 16.988281 -27.144531 17.859375 -27.265625 18.828125 -27.265625 C 21.722656 -27.265625 23.960938 -26.378906 25.546875 -24.609375 C 27.128906 -22.847656 27.921875 -20.421875 27.921875 -17.328125 L 27.921875 0 L 20.328125 0 L 20.328125 -14.9375 C 20.328125 -16.726562 19.925781 -18.082031 19.125 -19 C 18.320312 -19.914062 17.191406 -20.375 15.734375 -20.375 C 14.265625 -20.375 13.101562 -19.914062 12.25 -19 C 11.40625 -18.082031 10.984375 -16.726562 10.984375 -14.9375 L 10.984375 0 L 3.390625 0 Z M 3.390625 -26.765625 "/></g></g></g><g fill="#000000" fill-opacity="1"><g transform="translate(273.583843, 136.113761)"><g><path d="M 14.375 0.5 C 12.8125 0.5 11.296875 0.203125 9.828125 -0.390625 C 8.367188 -0.992188 7.070312 -1.882812 5.9375 -3.0625 C 4.8125 -4.25 3.90625 -5.695312 3.21875 -7.40625 C 2.539062 -9.125 2.203125 -11.097656 2.203125 -13.328125 L 2.203125 -13.4375 C 2.203125 -15.664062 2.539062 -17.632812 3.21875 -19.34375 C 3.90625 -21.0625 4.804688 -22.507812 5.921875 -23.6875 C 7.035156 -24.875 8.320312 -25.765625 9.78125 -26.359375 C 11.25 -26.960938 12.78125 -27.265625 14.375 -27.265625 C 16.40625 -27.265625 18.078125 -26.863281 19.390625 -26.0625 C 20.710938 -25.269531 21.820312 -24.335938 22.71875 -23.265625 L 22.71875 -36.453125 L 30.3125 -36.453125 L 30.3125 0 L 22.71875 0 L 22.71875 -3.84375 C 21.789062 -2.582031 20.664062 -1.539062 19.34375 -0.71875 C 18.03125 0.09375 16.375 0.5 14.375 0.5 Z M 16.328125 -5.9375 C 17.222656 -5.9375 18.0625 -6.109375 18.84375 -6.453125 C 19.632812 -6.804688 20.316406 -7.304688 20.890625 -7.953125 C 21.472656 -8.609375 21.941406 -9.394531 22.296875 -10.3125 C 22.648438 -11.226562 22.828125 -12.234375 22.828125 -13.328125 L 22.828125 -13.4375 C 22.828125 -14.53125 22.648438 -15.535156 22.296875 -16.453125 C 21.941406 -17.367188 21.472656 -18.148438 20.890625 -18.796875 C 20.316406 -19.453125 19.632812 -19.953125 18.84375 -20.296875 C 18.0625 -20.648438 17.222656 -20.828125 16.328125 -20.828125 C 15.429688 -20.828125 14.59375 -20.648438 13.8125 -20.296875 C 13.03125 -19.953125 12.335938 -19.453125 11.734375 -18.796875 C 11.140625 -18.148438 10.664062 -17.375 10.3125 -16.46875 C 9.957031 -15.570312 9.78125 -14.5625 9.78125 -13.4375 L 9.78125 -13.328125 C 9.78125 -12.234375 9.957031 -11.226562 10.3125 -10.3125 C 10.664062 -9.394531 11.140625 -8.609375 11.734375 -7.953125 C 12.335938 -7.304688 13.03125 -6.804688 13.8125 -6.453125 C 14.59375 -6.109375 15.429688 -5.9375 16.328125 -5.9375 Z M 16.328125 -5.9375 "/></g></g></g><g fill="#000000" fill-opacity="1"><g transform="translate(307.289017, 136.113761)"><g><path d="M 3.546875 -36.453125 L 11.53125 -36.453125 L 11.53125 -29.71875 L 3.546875 -29.71875 Z M 3.75 -26.765625 L 11.328125 -26.765625 L 11.328125 0 L 3.75 0 Z M 3.75 -26.765625 "/></g></g></g><g fill="#000000" fill-opacity="1"><g transform="translate(322.36896, 136.113761)"><g><path d="M 3.390625 -26.765625 L 10.984375 -26.765625 L 10.984375 -22.96875 C 11.421875 -23.53125 11.894531 -24.070312 12.40625 -24.59375 C 12.925781 -25.113281 13.5 -25.570312 14.125 -25.96875 C 14.757812 -26.363281 15.46875 -26.675781 16.25 -26.90625 C 17.03125 -27.144531 17.90625 -27.265625 18.875 -27.265625 C 20.632812 -27.265625 22.15625 -26.894531 23.4375 -26.15625 C 24.726562 -25.425781 25.722656 -24.378906 26.421875 -23.015625 C 27.585938 -24.421875 28.882812 -25.476562 30.3125 -26.1875 C 31.738281 -26.90625 33.367188 -27.265625 35.203125 -27.265625 C 38.035156 -27.265625 40.25 -26.429688 41.84375 -24.765625 C 43.445312 -23.097656 44.25 -20.648438 44.25 -17.421875 L 44.25 0 L 36.65625 0 L 36.65625 -14.9375 C 36.65625 -16.726562 36.269531 -18.082031 35.5 -19 C 34.738281 -19.914062 33.640625 -20.375 32.203125 -20.375 C 30.773438 -20.375 29.648438 -19.914062 28.828125 -19 C 28.015625 -18.082031 27.609375 -16.726562 27.609375 -14.9375 L 27.609375 0 L 20.03125 0 L 20.03125 -14.9375 C 20.03125 -16.726562 19.644531 -18.082031 18.875 -19 C 18.113281 -19.914062 17.015625 -20.375 15.578125 -20.375 C 14.148438 -20.375 13.023438 -19.914062 12.203125 -19 C 11.390625 -18.082031 10.984375 -16.726562 10.984375 -14.9375 L 10.984375 0 L 3.390625 0 Z M 3.390625 -26.765625 "/></g></g></g><g fill="#000000" fill-opacity="1"><g transform="translate(369.805865, 136.113761)"><g><path d="M 16.078125 0.59375 C 14.078125 0.59375 12.21875 0.265625 10.5 -0.390625 C 8.789062 -1.054688 7.3125 -2.003906 6.0625 -3.234375 C 4.8125 -4.472656 3.835938 -5.929688 3.140625 -7.609375 C 2.441406 -9.296875 2.09375 -11.171875 2.09375 -13.234375 L 2.09375 -13.328125 C 2.09375 -15.234375 2.414062 -17.03125 3.0625 -18.71875 C 3.71875 -20.414062 4.628906 -21.894531 5.796875 -23.15625 C 6.960938 -24.425781 8.351562 -25.425781 9.96875 -26.15625 C 11.582031 -26.894531 13.367188 -27.265625 15.328125 -27.265625 C 17.554688 -27.265625 19.488281 -26.863281 21.125 -26.0625 C 22.757812 -25.269531 24.113281 -24.195312 25.1875 -22.84375 C 26.269531 -21.5 27.066406 -19.953125 27.578125 -18.203125 C 28.097656 -16.453125 28.359375 -14.628906 28.359375 -12.734375 C 28.359375 -12.429688 28.347656 -12.113281 28.328125 -11.78125 C 28.316406 -11.445312 28.296875 -11.097656 28.265625 -10.734375 L 9.640625 -10.734375 C 10.003906 -9.003906 10.757812 -7.695312 11.90625 -6.8125 C 13.0625 -5.9375 14.488281 -5.5 16.1875 -5.5 C 17.445312 -5.5 18.578125 -5.710938 19.578125 -6.140625 C 20.578125 -6.578125 21.609375 -7.273438 22.671875 -8.234375 L 27.015625 -4.390625 C 25.753906 -2.828125 24.222656 -1.601562 22.421875 -0.71875 C 20.617188 0.15625 18.503906 0.59375 16.078125 0.59375 Z M 20.96875 -15.484375 C 20.738281 -17.179688 20.140625 -18.550781 19.171875 -19.59375 C 18.210938 -20.644531 16.929688 -21.171875 15.328125 -21.171875 C 13.734375 -21.171875 12.441406 -20.65625 11.453125 -19.625 C 10.472656 -18.59375 9.832031 -17.210938 9.53125 -15.484375 Z M 20.96875 -15.484375 "/></g></g></g><g fill="#000000" fill-opacity="1"><g transform="translate(400.415135, 136.113761)"><g><path d="M 3.390625 -26.765625 L 10.984375 -26.765625 L 10.984375 -22.96875 C 11.421875 -23.53125 11.894531 -24.070312 12.40625 -24.59375 C 12.925781 -25.113281 13.5 -25.570312 14.125 -25.96875 C 14.757812 -26.363281 15.457031 -26.675781 16.21875 -26.90625 C 16.988281 -27.144531 17.859375 -27.265625 18.828125 -27.265625 C 21.722656 -27.265625 23.960938 -26.378906 25.546875 -24.609375 C 27.128906 -22.847656 27.921875 -20.421875 27.921875 -17.328125 L 27.921875 0 L 20.328125 0 L 20.328125 -14.9375 C 20.328125 -16.726562 19.925781 -18.082031 19.125 -19 C 18.320312 -19.914062 17.191406 -20.375 15.734375 -20.375 C 14.265625 -20.375 13.101562 -19.914062 12.25 -19 C 11.40625 -18.082031 10.984375 -16.726562 10.984375 -14.9375 L 10.984375 0 L 3.390625 0 Z M 3.390625 -26.765625 "/></g></g></g><g fill="#000000" fill-opacity="1"><g transform="translate(431.523767, 136.113761)"><g><path d="M 12.4375 0.453125 C 11.269531 0.453125 10.210938 0.328125 9.265625 0.078125 C 8.316406 -0.171875 7.5 -0.613281 6.8125 -1.25 C 6.132812 -1.882812 5.601562 -2.707031 5.21875 -3.71875 C 4.832031 -4.738281 4.640625 -6.03125 4.640625 -7.59375 L 4.640625 -20.28125 L 1.453125 -20.28125 L 1.453125 -26.765625 L 4.640625 -26.765625 L 4.640625 -33.609375 L 12.234375 -33.609375 L 12.234375 -26.765625 L 18.53125 -26.765625 L 18.53125 -20.28125 L 12.234375 -20.28125 L 12.234375 -8.84375 C 12.234375 -7.101562 13.050781 -6.234375 14.6875 -6.234375 C 16.007812 -6.234375 17.253906 -6.550781 18.421875 -7.1875 L 18.421875 -1.09375 C 17.628906 -0.632812 16.75 -0.265625 15.78125 0.015625 C 14.8125 0.304688 13.695312 0.453125 12.4375 0.453125 Z M 12.4375 0.453125 "/></g></g></g><g fill="#000000" fill-opacity="1"><g transform="translate(452.246203, 136.113761)"><g><path d="M 16.53125 0.59375 C 14.46875 0.59375 12.550781 0.238281 10.78125 -0.46875 C 9.019531 -1.1875 7.5 -2.171875 6.21875 -3.421875 C 4.9375 -4.671875 3.925781 -6.132812 3.1875 -7.8125 C 2.457031 -9.5 2.09375 -11.304688 2.09375 -13.234375 L 2.09375 -13.328125 C 2.09375 -15.265625 2.457031 -17.070312 3.1875 -18.75 C 3.925781 -20.425781 4.941406 -21.894531 6.234375 -23.15625 C 7.535156 -24.425781 9.066406 -25.425781 10.828125 -26.15625 C 12.597656 -26.894531 14.53125 -27.265625 16.625 -27.265625 C 18.6875 -27.265625 20.597656 -26.90625 22.359375 -26.1875 C 24.128906 -25.476562 25.65625 -24.5 26.9375 -23.25 C 28.21875 -22 29.222656 -20.53125 29.953125 -18.84375 C 30.691406 -17.164062 31.0625 -15.363281 31.0625 -13.4375 L 31.0625 -13.328125 C 31.0625 -11.398438 30.691406 -9.59375 29.953125 -7.90625 C 29.222656 -6.226562 28.207031 -4.753906 26.90625 -3.484375 C 25.613281 -2.222656 24.082031 -1.226562 22.3125 -0.5 C 20.550781 0.226562 18.625 0.59375 16.53125 0.59375 Z M 16.625 -5.9375 C 17.726562 -5.9375 18.703125 -6.128906 19.546875 -6.515625 C 20.398438 -6.898438 21.125 -7.425781 21.71875 -8.09375 C 22.320312 -8.757812 22.78125 -9.53125 23.09375 -10.40625 C 23.414062 -11.289062 23.578125 -12.234375 23.578125 -13.234375 L 23.578125 -13.328125 C 23.578125 -14.328125 23.410156 -15.269531 23.078125 -16.15625 C 22.742188 -17.039062 22.257812 -17.820312 21.625 -18.5 C 20.988281 -19.1875 20.238281 -19.726562 19.375 -20.125 C 18.507812 -20.519531 17.5625 -20.71875 16.53125 -20.71875 C 15.425781 -20.71875 14.445312 -20.523438 13.59375 -20.140625 C 12.75 -19.765625 12.023438 -19.242188 11.421875 -18.578125 C 10.828125 -17.910156 10.375 -17.132812 10.0625 -16.25 C 9.75 -15.375 9.59375 -14.4375 9.59375 -13.4375 L 9.59375 -13.328125 C 9.59375 -12.328125 9.757812 -11.382812 10.09375 -10.5 C 10.425781 -9.625 10.90625 -8.84375 11.53125 -8.15625 C 12.164062 -7.476562 12.90625 -6.9375 13.75 -6.53125 C 14.601562 -6.132812 15.5625 -5.9375 16.625 -5.9375 Z M 16.625 -5.9375 "/></g></g></g></svg>