<svg xmlns="http://www.w3.org/2000/svg" xmlns:xlink="http://www.w3.org/1999/xlink" width="851" zoomAndPan="magnify" viewBox="0 0 638.25 157.5" height="210" preserveAspectRatio="xMidYMid meet" version="1.0"><defs><g/><clipPath id="0c4f6bf4f2"><path d="M 19.5 0 L 617.5625 0 L 617.5625 156.386719 L 19.5 156.386719 Z M 19.5 0 " clip-rule="nonzero"/></clipPath><clipPath id="2f77464873"><path d="M 94.265625 0 L 542.839844 0 C 562.667969 0 581.683594 7.875 595.703125 21.898438 C 609.726562 35.917969 617.601562 54.933594 617.601562 74.761719 L 617.601562 81.625 C 617.601562 101.453125 609.726562 120.46875 595.703125 134.488281 C 581.683594 148.511719 562.667969 156.386719 542.839844 156.386719 L 94.265625 156.386719 C 74.4375 156.386719 55.417969 148.511719 41.398438 134.488281 C 27.378906 120.46875 19.5 101.453125 19.5 81.625 L 19.5 74.761719 C 19.5 54.933594 27.378906 35.917969 41.398438 21.898438 C 55.417969 7.875 74.4375 0 94.265625 0 Z M 94.265625 0 " clip-rule="nonzero"/></clipPath><linearGradient x1="0.00225788" gradientTransform="matrix(0.610889, 0, 0, 0.610889, 19.499815, 0.00000498418)" y1="128" x2="979.00222" gradientUnits="userSpaceOnUse" y2="128" id="8800976001"><stop stop-opacity="1" stop-color="rgb(75.698853%, 99.998474%, 44.699097%)" offset="0"/><stop stop-opacity="1" stop-color="rgb(75.402832%, 99.861145%, 44.671631%)" offset="0.00390625"/><stop stop-opacity="1" stop-color="rgb(75.108337%, 99.723816%, 44.644165%)" offset="0.0078125"/><stop stop-opacity="1" stop-color="rgb(74.812317%, 99.584961%, 44.615173%)" offset="0.0117187"/><stop stop-opacity="1" stop-color="rgb(74.516296%, 99.447632%, 44.587708%)" offset="0.015625"/><stop stop-opacity="1" stop-color="rgb(74.220276%, 99.308777%, 44.560242%)" offset="0.0195312"/><stop stop-opacity="1" stop-color="rgb(73.924255%, 99.171448%, 44.532776%)" offset="0.0234375"/><stop stop-opacity="1" stop-color="rgb(73.628235%, 99.034119%, 44.50531%)" offset="0.0273437"/><stop stop-opacity="1" stop-color="rgb(73.33374%, 98.89679%, 44.477844%)" offset="0.03125"/><stop stop-opacity="1" stop-color="rgb(73.03772%, 98.757935%, 44.448853%)" offset="0.0351562"/><stop stop-opacity="1" stop-color="rgb(72.741699%, 98.620605%, 44.421387%)" offset="0.0390625"/><stop stop-opacity="1" stop-color="rgb(72.445679%, 98.48175%, 44.393921%)" offset="0.0429687"/><stop stop-opacity="1" stop-color="rgb(72.151184%, 98.344421%, 44.366455%)" offset="0.046875"/><stop stop-opacity="1" stop-color="rgb(71.855164%, 98.205566%, 44.338989%)" offset="0.0507812"/><stop stop-opacity="1" stop-color="rgb(71.559143%, 98.068237%, 44.311523%)" offset="0.0546875"/><stop stop-opacity="1" stop-color="rgb(71.263123%, 97.930908%, 44.282532%)" offset="0.0585937"/><stop stop-opacity="1" stop-color="rgb(70.968628%, 97.793579%, 44.255066%)" offset="0.0625"/><stop stop-opacity="1" stop-color="rgb(70.672607%, 97.654724%, 44.2276%)" offset="0.0664062"/><stop stop-opacity="1" stop-color="rgb(70.376587%, 97.517395%, 44.200134%)" offset="0.0703125"/><stop stop-opacity="1" stop-color="rgb(70.080566%, 97.37854%, 44.172668%)" offset="0.0742188"/><stop stop-opacity="1" stop-color="rgb(69.786072%, 97.241211%, 44.145203%)" offset="0.078125"/><stop stop-opacity="1" stop-color="rgb(69.490051%, 97.102356%, 44.116211%)" offset="0.0820312"/><stop stop-opacity="1" stop-color="rgb(69.194031%, 96.965027%, 44.088745%)" offset="0.0859375"/><stop stop-opacity="1" stop-color="rgb(68.89801%, 96.827698%, 44.061279%)" offset="0.0898438"/><stop stop-opacity="1" stop-color="rgb(68.60199%, 96.690369%, 44.033813%)" offset="0.09375"/><stop stop-opacity="1" stop-color="rgb(68.305969%, 96.551514%, 44.006348%)" offset="0.0976562"/><stop stop-opacity="1" stop-color="rgb(68.011475%, 96.414185%, 43.978882%)" offset="0.101562"/><stop stop-opacity="1" stop-color="rgb(67.715454%, 96.27533%, 43.94989%)" offset="0.105469"/><stop stop-opacity="1" stop-color="rgb(67.419434%, 96.138%, 43.922424%)" offset="0.109375"/><stop stop-opacity="1" stop-color="rgb(67.123413%, 96.000671%, 43.894958%)" offset="0.113281"/><stop stop-opacity="1" stop-color="rgb(66.828918%, 95.863342%, 43.867493%)" offset="0.117188"/><stop stop-opacity="1" stop-color="rgb(66.532898%, 95.724487%, 43.838501%)" offset="0.121094"/><stop stop-opacity="1" stop-color="rgb(66.236877%, 95.587158%, 43.811035%)" offset="0.125"/><stop stop-opacity="1" stop-color="rgb(65.940857%, 95.448303%, 43.783569%)" offset="0.128906"/><stop stop-opacity="1" stop-color="rgb(65.646362%, 95.310974%, 43.756104%)" offset="0.132812"/><stop stop-opacity="1" stop-color="rgb(65.350342%, 95.172119%, 43.728638%)" offset="0.136719"/><stop stop-opacity="1" stop-color="rgb(65.054321%, 95.03479%, 43.701172%)" offset="0.140625"/><stop stop-opacity="1" stop-color="rgb(64.758301%, 94.897461%, 43.67218%)" offset="0.144531"/><stop stop-opacity="1" stop-color="rgb(64.463806%, 94.760132%, 43.644714%)" offset="0.148438"/><stop stop-opacity="1" stop-color="rgb(64.167786%, 94.621277%, 43.617249%)" offset="0.152344"/><stop stop-opacity="1" stop-color="rgb(63.871765%, 94.483948%, 43.589783%)" offset="0.15625"/><stop stop-opacity="1" stop-color="rgb(63.575745%, 94.345093%, 43.562317%)" offset="0.160156"/><stop stop-opacity="1" stop-color="rgb(63.279724%, 94.207764%, 43.534851%)" offset="0.164062"/><stop stop-opacity="1" stop-color="rgb(62.983704%, 94.070435%, 43.505859%)" offset="0.167969"/><stop stop-opacity="1" stop-color="rgb(62.689209%, 93.933105%, 43.478394%)" offset="0.171875"/><stop stop-opacity="1" stop-color="rgb(62.393188%, 93.79425%, 43.450928%)" offset="0.175781"/><stop stop-opacity="1" stop-color="rgb(62.097168%, 93.656921%, 43.423462%)" offset="0.179688"/><stop stop-opacity="1" stop-color="rgb(61.801147%, 93.518066%, 43.395996%)" offset="0.183594"/><stop stop-opacity="1" stop-color="rgb(61.506653%, 93.380737%, 43.36853%)" offset="0.1875"/><stop stop-opacity="1" stop-color="rgb(61.210632%, 93.241882%, 43.339539%)" offset="0.191406"/><stop stop-opacity="1" stop-color="rgb(60.914612%, 93.104553%, 43.312073%)" offset="0.195312"/><stop stop-opacity="1" stop-color="rgb(60.618591%, 92.967224%, 43.284607%)" offset="0.199219"/><stop stop-opacity="1" stop-color="rgb(60.324097%, 92.829895%, 43.257141%)" offset="0.203125"/><stop stop-opacity="1" stop-color="rgb(60.028076%, 92.69104%, 43.229675%)" offset="0.207031"/><stop stop-opacity="1" stop-color="rgb(59.732056%, 92.553711%, 43.202209%)" offset="0.210938"/><stop stop-opacity="1" stop-color="rgb(59.436035%, 92.414856%, 43.173218%)" offset="0.214844"/><stop stop-opacity="1" stop-color="rgb(59.141541%, 92.277527%, 43.145752%)" offset="0.21875"/><stop stop-opacity="1" stop-color="rgb(58.84552%, 92.138672%, 43.118286%)" offset="0.222656"/><stop stop-opacity="1" stop-color="rgb(58.5495%, 92.001343%, 43.09082%)" offset="0.226562"/><stop stop-opacity="1" stop-color="rgb(58.253479%, 91.864014%, 43.063354%)" offset="0.230469"/><stop stop-opacity="1" stop-color="rgb(57.957458%, 91.726685%, 43.035889%)" offset="0.234375"/><stop stop-opacity="1" stop-color="rgb(57.661438%, 91.58783%, 43.006897%)" offset="0.238281"/><stop stop-opacity="1" stop-color="rgb(57.366943%, 91.4505%, 42.979431%)" offset="0.242188"/><stop stop-opacity="1" stop-color="rgb(57.070923%, 91.311646%, 42.951965%)" offset="0.246094"/><stop stop-opacity="1" stop-color="rgb(56.774902%, 91.174316%, 42.9245%)" offset="0.25"/><stop stop-opacity="1" stop-color="rgb(56.478882%, 91.036987%, 42.897034%)" offset="0.253906"/><stop stop-opacity="1" stop-color="rgb(56.184387%, 90.899658%, 42.869568%)" offset="0.257812"/><stop stop-opacity="1" stop-color="rgb(55.888367%, 90.760803%, 42.840576%)" offset="0.261719"/><stop stop-opacity="1" stop-color="rgb(55.592346%, 90.623474%, 42.81311%)" offset="0.265625"/><stop stop-opacity="1" stop-color="rgb(55.296326%, 90.484619%, 42.785645%)" offset="0.269531"/><stop stop-opacity="1" stop-color="rgb(55.001831%, 90.34729%, 42.758179%)" offset="0.273437"/><stop stop-opacity="1" stop-color="rgb(54.705811%, 90.208435%, 42.729187%)" offset="0.277344"/><stop stop-opacity="1" stop-color="rgb(54.40979%, 90.071106%, 42.701721%)" offset="0.28125"/><stop stop-opacity="1" stop-color="rgb(54.11377%, 89.933777%, 42.674255%)" offset="0.285156"/><stop stop-opacity="1" stop-color="rgb(53.819275%, 89.796448%, 42.64679%)" offset="0.289062"/><stop stop-opacity="1" stop-color="rgb(53.523254%, 89.657593%, 42.619324%)" offset="0.292969"/><stop stop-opacity="1" stop-color="rgb(53.227234%, 89.520264%, 42.591858%)" offset="0.296875"/><stop stop-opacity="1" stop-color="rgb(52.931213%, 89.381409%, 42.562866%)" offset="0.300781"/><stop stop-opacity="1" stop-color="rgb(52.635193%, 89.24408%, 42.5354%)" offset="0.304687"/><stop stop-opacity="1" stop-color="rgb(52.339172%, 89.10675%, 42.507935%)" offset="0.308594"/><stop stop-opacity="1" stop-color="rgb(52.044678%, 88.969421%, 42.480469%)" offset="0.3125"/><stop stop-opacity="1" stop-color="rgb(51.748657%, 88.830566%, 42.453003%)" offset="0.316406"/><stop stop-opacity="1" stop-color="rgb(51.452637%, 88.693237%, 42.425537%)" offset="0.320312"/><stop stop-opacity="1" stop-color="rgb(51.156616%, 88.554382%, 42.396545%)" offset="0.324219"/><stop stop-opacity="1" stop-color="rgb(50.862122%, 88.417053%, 42.36908%)" offset="0.328125"/><stop stop-opacity="1" stop-color="rgb(50.566101%, 88.278198%, 42.341614%)" offset="0.332031"/><stop stop-opacity="1" stop-color="rgb(50.270081%, 88.140869%, 42.314148%)" offset="0.335937"/><stop stop-opacity="1" stop-color="rgb(49.97406%, 88.00354%, 42.286682%)" offset="0.339844"/><stop stop-opacity="1" stop-color="rgb(49.679565%, 87.866211%, 42.259216%)" offset="0.34375"/><stop stop-opacity="1" stop-color="rgb(49.383545%, 87.727356%, 42.230225%)" offset="0.347656"/><stop stop-opacity="1" stop-color="rgb(49.087524%, 87.590027%, 42.202759%)" offset="0.351562"/><stop stop-opacity="1" stop-color="rgb(48.791504%, 87.451172%, 42.175293%)" offset="0.355469"/><stop stop-opacity="1" stop-color="rgb(48.495483%, 87.313843%, 42.147827%)" offset="0.359375"/><stop stop-opacity="1" stop-color="rgb(48.199463%, 87.174988%, 42.120361%)" offset="0.363281"/><stop stop-opacity="1" stop-color="rgb(47.904968%, 87.037659%, 42.092896%)" offset="0.367187"/><stop stop-opacity="1" stop-color="rgb(47.608948%, 86.90033%, 42.063904%)" offset="0.371094"/><stop stop-opacity="1" stop-color="rgb(47.312927%, 86.763%, 42.036438%)" offset="0.375"/><stop stop-opacity="1" stop-color="rgb(47.016907%, 86.624146%, 42.008972%)" offset="0.378906"/><stop stop-opacity="1" stop-color="rgb(46.722412%, 86.486816%, 41.981506%)" offset="0.382812"/><stop stop-opacity="1" stop-color="rgb(46.426392%, 86.347961%, 41.954041%)" offset="0.386719"/><stop stop-opacity="1" stop-color="rgb(46.130371%, 86.210632%, 41.926575%)" offset="0.390625"/><stop stop-opacity="1" stop-color="rgb(45.834351%, 86.073303%, 41.897583%)" offset="0.394531"/><stop stop-opacity="1" stop-color="rgb(45.539856%, 85.935974%, 41.870117%)" offset="0.398437"/><stop stop-opacity="1" stop-color="rgb(45.243835%, 85.797119%, 41.842651%)" offset="0.402344"/><stop stop-opacity="1" stop-color="rgb(44.947815%, 85.65979%, 41.815186%)" offset="0.40625"/><stop stop-opacity="1" stop-color="rgb(44.651794%, 85.520935%, 41.78772%)" offset="0.410156"/><stop stop-opacity="1" stop-color="rgb(44.3573%, 85.383606%, 41.760254%)" offset="0.414062"/><stop stop-opacity="1" stop-color="rgb(44.061279%, 85.244751%, 41.731262%)" offset="0.417969"/><stop stop-opacity="1" stop-color="rgb(43.765259%, 85.107422%, 41.703796%)" offset="0.421875"/><stop stop-opacity="1" stop-color="rgb(43.469238%, 84.970093%, 41.676331%)" offset="0.425781"/><stop stop-opacity="1" stop-color="rgb(43.173218%, 84.832764%, 41.648865%)" offset="0.429687"/><stop stop-opacity="1" stop-color="rgb(42.877197%, 84.693909%, 41.621399%)" offset="0.433594"/><stop stop-opacity="1" stop-color="rgb(42.582703%, 84.55658%, 41.593933%)" offset="0.4375"/><stop stop-opacity="1" stop-color="rgb(42.286682%, 84.417725%, 41.564941%)" offset="0.441406"/><stop stop-opacity="1" stop-color="rgb(41.990662%, 84.280396%, 41.537476%)" offset="0.445312"/><stop stop-opacity="1" stop-color="rgb(41.694641%, 84.141541%, 41.51001%)" offset="0.449219"/><stop stop-opacity="1" stop-color="rgb(41.400146%, 84.004211%, 41.482544%)" offset="0.453125"/><stop stop-opacity="1" stop-color="rgb(41.104126%, 83.866882%, 41.453552%)" offset="0.457031"/><stop stop-opacity="1" stop-color="rgb(40.808105%, 83.729553%, 41.426086%)" offset="0.460937"/><stop stop-opacity="1" stop-color="rgb(40.512085%, 83.590698%, 41.398621%)" offset="0.464844"/><stop stop-opacity="1" stop-color="rgb(40.21759%, 83.453369%, 41.371155%)" offset="0.46875"/><stop stop-opacity="1" stop-color="rgb(39.92157%, 83.314514%, 41.343689%)" offset="0.472656"/><stop stop-opacity="1" stop-color="rgb(39.625549%, 83.177185%, 41.316223%)" offset="0.476562"/><stop stop-opacity="1" stop-color="rgb(39.329529%, 83.039856%, 41.287231%)" offset="0.480469"/><stop stop-opacity="1" stop-color="rgb(39.035034%, 82.902527%, 41.259766%)" offset="0.484375"/><stop stop-opacity="1" stop-color="rgb(38.739014%, 82.763672%, 41.2323%)" offset="0.488281"/><stop stop-opacity="1" stop-color="rgb(38.442993%, 82.626343%, 41.204834%)" offset="0.492187"/><stop stop-opacity="1" stop-color="rgb(38.146973%, 82.487488%, 41.177368%)" offset="0.496094"/><stop stop-opacity="1" stop-color="rgb(37.850952%, 82.350159%, 41.149902%)" offset="0.5"/><stop stop-opacity="1" stop-color="rgb(37.554932%, 82.211304%, 41.120911%)" offset="0.503906"/><stop stop-opacity="1" stop-color="rgb(37.260437%, 82.073975%, 41.093445%)" offset="0.507812"/><stop stop-opacity="1" stop-color="rgb(36.964417%, 81.936646%, 41.065979%)" offset="0.511719"/><stop stop-opacity="1" stop-color="rgb(36.668396%, 81.799316%, 41.038513%)" offset="0.515625"/><stop stop-opacity="1" stop-color="rgb(36.372375%, 81.660461%, 41.011047%)" offset="0.519531"/><stop stop-opacity="1" stop-color="rgb(36.077881%, 81.523132%, 40.983582%)" offset="0.523437"/><stop stop-opacity="1" stop-color="rgb(35.78186%, 81.384277%, 40.95459%)" offset="0.527344"/><stop stop-opacity="1" stop-color="rgb(35.48584%, 81.246948%, 40.927124%)" offset="0.53125"/><stop stop-opacity="1" stop-color="rgb(35.189819%, 81.109619%, 40.899658%)" offset="0.535156"/><stop stop-opacity="1" stop-color="rgb(34.895325%, 80.97229%, 40.872192%)" offset="0.539062"/><stop stop-opacity="1" stop-color="rgb(34.599304%, 80.833435%, 40.844727%)" offset="0.542969"/><stop stop-opacity="1" stop-color="rgb(34.303284%, 80.696106%, 40.817261%)" offset="0.546875"/><stop stop-opacity="1" stop-color="rgb(34.007263%, 80.557251%, 40.788269%)" offset="0.550781"/><stop stop-opacity="1" stop-color="rgb(33.712769%, 80.419922%, 40.760803%)" offset="0.554687"/><stop stop-opacity="1" stop-color="rgb(33.416748%, 80.281067%, 40.733337%)" offset="0.558594"/><stop stop-opacity="1" stop-color="rgb(33.120728%, 80.143738%, 40.705872%)" offset="0.5625"/><stop stop-opacity="1" stop-color="rgb(32.824707%, 80.006409%, 40.678406%)" offset="0.566406"/><stop stop-opacity="1" stop-color="rgb(32.528687%, 79.86908%, 40.65094%)" offset="0.570312"/><stop stop-opacity="1" stop-color="rgb(32.232666%, 79.730225%, 40.621948%)" offset="0.574219"/><stop stop-opacity="1" stop-color="rgb(31.938171%, 79.592896%, 40.594482%)" offset="0.578125"/><stop stop-opacity="1" stop-color="rgb(31.642151%, 79.454041%, 40.567017%)" offset="0.582031"/><stop stop-opacity="1" stop-color="rgb(31.34613%, 79.316711%, 40.539551%)" offset="0.585937"/><stop stop-opacity="1" stop-color="rgb(31.05011%, 79.177856%, 40.512085%)" offset="0.589844"/><stop stop-opacity="1" stop-color="rgb(30.755615%, 79.040527%, 40.484619%)" offset="0.59375"/><stop stop-opacity="1" stop-color="rgb(30.459595%, 78.903198%, 40.455627%)" offset="0.597656"/><stop stop-opacity="1" stop-color="rgb(30.163574%, 78.765869%, 40.428162%)" offset="0.601562"/><stop stop-opacity="1" stop-color="rgb(29.867554%, 78.627014%, 40.400696%)" offset="0.605469"/><stop stop-opacity="1" stop-color="rgb(29.573059%, 78.489685%, 40.37323%)" offset="0.609375"/><stop stop-opacity="1" stop-color="rgb(29.277039%, 78.35083%, 40.344238%)" offset="0.613281"/><stop stop-opacity="1" stop-color="rgb(28.981018%, 78.213501%, 40.316772%)" offset="0.617187"/><stop stop-opacity="1" stop-color="rgb(28.684998%, 78.076172%, 40.289307%)" offset="0.621094"/><stop stop-opacity="1" stop-color="rgb(28.390503%, 77.938843%, 40.261841%)" offset="0.625"/><stop stop-opacity="1" stop-color="rgb(28.094482%, 77.799988%, 40.234375%)" offset="0.628906"/><stop stop-opacity="1" stop-color="rgb(27.798462%, 77.662659%, 40.206909%)" offset="0.632812"/><stop stop-opacity="1" stop-color="rgb(27.502441%, 77.523804%, 40.177917%)" offset="0.636719"/><stop stop-opacity="1" stop-color="rgb(27.206421%, 77.386475%, 40.150452%)" offset="0.640625"/><stop stop-opacity="1" stop-color="rgb(26.9104%, 77.24762%, 40.122986%)" offset="0.644531"/><stop stop-opacity="1" stop-color="rgb(26.615906%, 77.110291%, 40.09552%)" offset="0.648437"/><stop stop-opacity="1" stop-color="rgb(26.319885%, 76.972961%, 40.068054%)" offset="0.652344"/><stop stop-opacity="1" stop-color="rgb(26.023865%, 76.835632%, 40.040588%)" offset="0.65625"/><stop stop-opacity="1" stop-color="rgb(25.727844%, 76.696777%, 40.011597%)" offset="0.660156"/><stop stop-opacity="1" stop-color="rgb(25.43335%, 76.559448%, 39.984131%)" offset="0.664062"/><stop stop-opacity="1" stop-color="rgb(25.137329%, 76.420593%, 39.956665%)" offset="0.667969"/><stop stop-opacity="1" stop-color="rgb(24.841309%, 76.283264%, 39.929199%)" offset="0.671875"/><stop stop-opacity="1" stop-color="rgb(24.545288%, 76.144409%, 39.901733%)" offset="0.675781"/><stop stop-opacity="1" stop-color="rgb(24.250793%, 76.00708%, 39.874268%)" offset="0.679687"/><stop stop-opacity="1" stop-color="rgb(23.954773%, 75.869751%, 39.845276%)" offset="0.683594"/><stop stop-opacity="1" stop-color="rgb(23.658752%, 75.732422%, 39.81781%)" offset="0.6875"/><stop stop-opacity="1" stop-color="rgb(23.362732%, 75.593567%, 39.790344%)" offset="0.691406"/><stop stop-opacity="1" stop-color="rgb(23.068237%, 75.456238%, 39.762878%)" offset="0.695312"/><stop stop-opacity="1" stop-color="rgb(22.772217%, 75.317383%, 39.735413%)" offset="0.699219"/><stop stop-opacity="1" stop-color="rgb(22.476196%, 75.180054%, 39.707947%)" offset="0.703125"/><stop stop-opacity="1" stop-color="rgb(22.180176%, 75.042725%, 39.678955%)" offset="0.707031"/><stop stop-opacity="1" stop-color="rgb(21.884155%, 74.905396%, 39.651489%)" offset="0.710937"/><stop stop-opacity="1" stop-color="rgb(21.588135%, 74.766541%, 39.624023%)" offset="0.714844"/><stop stop-opacity="1" stop-color="rgb(21.29364%, 74.629211%, 39.596558%)" offset="0.71875"/><stop stop-opacity="1" stop-color="rgb(20.99762%, 74.490356%, 39.569092%)" offset="0.722656"/><stop stop-opacity="1" stop-color="rgb(20.701599%, 74.353027%, 39.541626%)" offset="0.726562"/><stop stop-opacity="1" stop-color="rgb(20.405579%, 74.214172%, 39.512634%)" offset="0.730469"/><stop stop-opacity="1" stop-color="rgb(20.111084%, 74.076843%, 39.485168%)" offset="0.734375"/><stop stop-opacity="1" stop-color="rgb(19.815063%, 73.939514%, 39.457703%)" offset="0.738281"/><stop stop-opacity="1" stop-color="rgb(19.519043%, 73.802185%, 39.430237%)" offset="0.742187"/><stop stop-opacity="1" stop-color="rgb(19.223022%, 73.66333%, 39.402771%)" offset="0.746094"/><stop stop-opacity="1" stop-color="rgb(18.928528%, 73.526001%, 39.375305%)" offset="0.75"/><stop stop-opacity="1" stop-color="rgb(18.632507%, 73.387146%, 39.346313%)" offset="0.753906"/><stop stop-opacity="1" stop-color="rgb(18.336487%, 73.249817%, 39.318848%)" offset="0.757812"/><stop stop-opacity="1" stop-color="rgb(18.040466%, 73.112488%, 39.291382%)" offset="0.761719"/><stop stop-opacity="1" stop-color="rgb(17.745972%, 72.975159%, 39.263916%)" offset="0.765625"/><stop stop-opacity="1" stop-color="rgb(17.449951%, 72.836304%, 39.234924%)" offset="0.769531"/><stop stop-opacity="1" stop-color="rgb(17.153931%, 72.698975%, 39.207458%)" offset="0.773438"/><stop stop-opacity="1" stop-color="rgb(16.85791%, 72.56012%, 39.179993%)" offset="0.777344"/><stop stop-opacity="1" stop-color="rgb(16.56189%, 72.422791%, 39.152527%)" offset="0.78125"/><stop stop-opacity="1" stop-color="rgb(16.265869%, 72.283936%, 39.125061%)" offset="0.785156"/><stop stop-opacity="1" stop-color="rgb(15.971375%, 72.146606%, 39.097595%)" offset="0.789062"/><stop stop-opacity="1" stop-color="rgb(15.675354%, 72.009277%, 39.068604%)" offset="0.792969"/><stop stop-opacity="1" stop-color="rgb(15.379333%, 71.871948%, 39.041138%)" offset="0.796875"/><stop stop-opacity="1" stop-color="rgb(15.083313%, 71.733093%, 39.013672%)" offset="0.800781"/><stop stop-opacity="1" stop-color="rgb(14.788818%, 71.595764%, 38.986206%)" offset="0.804688"/><stop stop-opacity="1" stop-color="rgb(14.492798%, 71.456909%, 38.95874%)" offset="0.808594"/><stop stop-opacity="1" stop-color="rgb(14.196777%, 71.31958%, 38.931274%)" offset="0.8125"/><stop stop-opacity="1" stop-color="rgb(13.900757%, 71.180725%, 38.902283%)" offset="0.816406"/><stop stop-opacity="1" stop-color="rgb(13.606262%, 71.043396%, 38.874817%)" offset="0.820312"/><stop stop-opacity="1" stop-color="rgb(13.310242%, 70.906067%, 38.847351%)" offset="0.824219"/><stop stop-opacity="1" stop-color="rgb(13.014221%, 70.768738%, 38.819885%)" offset="0.828125"/><stop stop-opacity="1" stop-color="rgb(12.718201%, 70.629883%, 38.792419%)" offset="0.832031"/><stop stop-opacity="1" stop-color="rgb(12.42218%, 70.492554%, 38.764954%)" offset="0.835938"/><stop stop-opacity="1" stop-color="rgb(12.12616%, 70.353699%, 38.735962%)" offset="0.839844"/><stop stop-opacity="1" stop-color="rgb(11.831665%, 70.21637%, 38.708496%)" offset="0.84375"/><stop stop-opacity="1" stop-color="rgb(11.535645%, 70.079041%, 38.68103%)" offset="0.847656"/><stop stop-opacity="1" stop-color="rgb(11.239624%, 69.941711%, 38.653564%)" offset="0.851562"/><stop stop-opacity="1" stop-color="rgb(10.943604%, 69.802856%, 38.626099%)" offset="0.855469"/><stop stop-opacity="1" stop-color="rgb(10.649109%, 69.665527%, 38.598633%)" offset="0.859375"/><stop stop-opacity="1" stop-color="rgb(10.353088%, 69.526672%, 38.569641%)" offset="0.863281"/><stop stop-opacity="1" stop-color="rgb(10.057068%, 69.389343%, 38.542175%)" offset="0.867188"/><stop stop-opacity="1" stop-color="rgb(9.761047%, 69.250488%, 38.514709%)" offset="0.871094"/><stop stop-opacity="1" stop-color="rgb(9.466553%, 69.113159%, 38.487244%)" offset="0.875"/><stop stop-opacity="1" stop-color="rgb(9.170532%, 68.97583%, 38.459778%)" offset="0.878906"/><stop stop-opacity="1" stop-color="rgb(8.874512%, 68.838501%, 38.432312%)" offset="0.882812"/><stop stop-opacity="1" stop-color="rgb(8.578491%, 68.699646%, 38.40332%)" offset="0.886719"/><stop stop-opacity="1" stop-color="rgb(8.283997%, 68.562317%, 38.375854%)" offset="0.890625"/><stop stop-opacity="1" stop-color="rgb(7.987976%, 68.423462%, 38.348389%)" offset="0.894531"/><stop stop-opacity="1" stop-color="rgb(7.691956%, 68.286133%, 38.320923%)" offset="0.898438"/><stop stop-opacity="1" stop-color="rgb(7.395935%, 68.148804%, 38.293457%)" offset="0.902344"/><stop stop-opacity="1" stop-color="rgb(7.099915%, 68.011475%, 38.265991%)" offset="0.90625"/><stop stop-opacity="1" stop-color="rgb(6.803894%, 67.87262%, 38.237%)" offset="0.910156"/><stop stop-opacity="1" stop-color="rgb(6.509399%, 67.735291%, 38.209534%)" offset="0.914062"/><stop stop-opacity="1" stop-color="rgb(6.213379%, 67.596436%, 38.182068%)" offset="0.917969"/><stop stop-opacity="1" stop-color="rgb(5.917358%, 67.459106%, 38.154602%)" offset="0.921875"/><stop stop-opacity="1" stop-color="rgb(5.621338%, 67.320251%, 38.12561%)" offset="0.925781"/><stop stop-opacity="1" stop-color="rgb(5.326843%, 67.182922%, 38.098145%)" offset="0.929688"/><stop stop-opacity="1" stop-color="rgb(5.030823%, 67.045593%, 38.070679%)" offset="0.933594"/><stop stop-opacity="1" stop-color="rgb(4.734802%, 66.908264%, 38.043213%)" offset="0.9375"/><stop stop-opacity="1" stop-color="rgb(4.438782%, 66.769409%, 38.015747%)" offset="0.941406"/><stop stop-opacity="1" stop-color="rgb(4.144287%, 66.63208%, 37.988281%)" offset="0.945312"/><stop stop-opacity="1" stop-color="rgb(3.848267%, 66.493225%, 37.95929%)" offset="0.949219"/><stop stop-opacity="1" stop-color="rgb(3.552246%, 66.355896%, 37.931824%)" offset="0.953125"/><stop stop-opacity="1" stop-color="rgb(3.256226%, 66.217041%, 37.904358%)" offset="0.957031"/><stop stop-opacity="1" stop-color="rgb(2.961731%, 66.079712%, 37.876892%)" offset="0.960938"/><stop stop-opacity="1" stop-color="rgb(2.66571%, 65.942383%, 37.849426%)" offset="0.964844"/><stop stop-opacity="1" stop-color="rgb(2.36969%, 65.805054%, 37.82196%)" offset="0.96875"/><stop stop-opacity="1" stop-color="rgb(2.073669%, 65.666199%, 37.792969%)" offset="0.972656"/><stop stop-opacity="1" stop-color="rgb(1.777649%, 65.52887%, 37.765503%)" offset="0.976562"/><stop stop-opacity="1" stop-color="rgb(1.481628%, 65.390015%, 37.738037%)" offset="0.980469"/><stop stop-opacity="1" stop-color="rgb(1.187134%, 65.252686%, 37.710571%)" offset="0.984375"/><stop stop-opacity="1" stop-color="rgb(0.891113%, 65.115356%, 37.683105%)" offset="0.988281"/><stop stop-opacity="1" stop-color="rgb(0.595093%, 64.978027%, 37.65564%)" offset="0.992188"/><stop stop-opacity="1" stop-color="rgb(0.299072%, 64.839172%, 37.626648%)" offset="0.996094"/><stop stop-opacity="1" stop-color="rgb(0.00457764%, 64.701843%, 37.599182%)" offset="1"/></linearGradient><clipPath id="36e53d807b"><path d="M 44 0 L 594 0 L 594 157 L 44 157 Z M 44 0 " clip-rule="nonzero"/></clipPath></defs><g clip-path="url(#0c4f6bf4f2)"><g clip-path="url(#2f77464873)"><path fill="url(#8800976001)" d="M 19.5 0 L 19.5 156.386719 L 617.5625 156.386719 L 617.5625 0 Z M 19.5 0 " fill-rule="nonzero"/></g></g><g clip-path="url(#36e53d807b)"><path stroke-linecap="butt" transform="matrix(0.747627, 0, 0, 0.747627, 19.501194, 43.429182)" fill="none" stroke-linejoin="miter" d="M 132.130088 23.340162 L 151.200856 23.340162 C 154.001385 23.340162 156.498872 23.732027 158.688092 24.510532 C 160.892986 25.283813 162.758264 26.381035 164.28915 27.802199 C 165.830486 29.223363 167.006081 30.92667 167.821161 32.91212 C 168.641465 34.88712 169.05423 37.071115 169.05423 39.469329 L 169.05423 39.599951 C 169.05423 42.311657 168.568317 44.694197 167.591267 46.742345 C 166.614216 48.785269 165.271425 50.493801 163.557669 51.867941 C 161.854362 53.247306 159.853237 54.28183 157.564745 54.976737 C 155.276253 55.661195 152.820565 56.006036 150.192456 56.006036 L 142.396953 56.006036 L 142.396953 69.998233 L 132.130088 69.998233 Z M 150.537298 46.872967 C 153.107933 46.872967 155.103832 46.193734 156.524996 44.840493 C 157.94616 43.482028 158.656742 41.804845 158.656742 39.808946 L 158.656742 39.662649 C 158.656742 37.353258 157.914811 35.602927 156.425724 34.406432 C 154.941861 33.204712 152.904163 32.603853 150.323078 32.603853 L 142.396953 32.603853 L 142.396953 46.872967 Z M 185.721558 70.667016 C 184.028701 70.667016 182.440341 70.431897 180.951254 69.966883 C 179.467391 69.50187 178.166399 68.801738 177.048278 67.866486 C 175.940606 66.93646 175.062828 65.792214 174.409719 64.433748 C 173.772285 63.080507 173.448344 61.507822 173.448344 59.731367 L 173.448344 59.600745 C 173.448344 57.646645 173.808859 55.959012 174.524666 54.537848 C 175.240473 53.116684 176.227973 51.941089 177.487166 51.005838 C 178.756809 50.075811 180.266796 49.375679 182.027577 48.910666 C 183.783132 48.440427 185.726783 48.210533 187.853304 48.210533 C 189.676783 48.210533 191.265143 48.34638 192.623609 48.612848 C 193.97685 48.874091 195.298741 49.229382 196.594509 49.673496 L 196.594509 49.072636 C 196.594509 46.935665 195.946625 45.310732 194.656083 44.20306 C 193.36554 43.084938 191.453238 42.531102 188.924402 42.531102 C 186.975527 42.531102 185.25132 42.698298 183.751783 43.032689 C 182.267921 43.367081 180.70046 43.847768 179.065077 44.464303 L 176.525791 36.736723 C 178.479891 35.890295 180.51759 35.200612 182.644111 34.667676 C 184.781082 34.134739 187.362167 33.868271 190.39259 33.868271 C 193.193119 33.868271 195.575659 34.218337 197.550659 34.913244 C 199.525659 35.597702 201.161043 36.585202 202.451585 37.875744 C 203.783927 39.208086 204.760977 40.843469 205.382736 42.771446 C 206.009721 44.704647 206.323213 46.867742 206.323213 49.265957 L 206.323213 69.998233 L 196.526585 69.998233 L 196.526585 66.126605 C 195.277842 67.505971 193.788754 68.608418 192.054098 69.428722 C 190.314217 70.254251 188.203371 70.667016 185.721558 70.667016 Z M 188.799006 63.670917 C 191.191995 63.670917 193.114746 63.096182 194.55681 61.946711 C 195.998874 60.781565 196.719905 59.271579 196.719905 57.401076 L 196.719905 55.598496 C 195.831678 55.196182 194.838953 54.877465 193.741731 54.637121 C 192.660183 54.386327 191.500262 54.26093 190.261969 54.26093 C 188.083199 54.26093 186.364217 54.684145 185.120699 55.530573 C 183.882405 56.377002 183.26587 57.599621 183.26587 59.193206 L 183.26587 59.339502 C 183.26587 60.718867 183.772683 61.78474 184.791532 62.547571 C 185.815606 63.294727 187.147947 63.670917 188.799006 63.670917 Z M 194.332141 18.538508 L 203.052445 22.331762 L 194.394839 30.341485 L 186.923278 30.341485 Z M 231.057737 80.808484 C 228.116137 80.808484 225.310383 80.479318 222.640475 79.831434 C 219.986242 79.188775 217.520105 78.269198 215.252512 77.062254 L 218.721824 69.465296 C 220.587102 70.484145 222.46283 71.278325 224.349007 71.853061 C 226.240409 72.443471 228.382605 72.736063 230.780819 72.736063 C 234.250132 72.736063 236.815542 71.910534 238.47705 70.259476 C 240.149008 68.624092 240.984987 66.204978 240.984987 63.002134 L 240.984987 61.262253 C 239.475 63.085732 237.834391 64.512121 236.052711 65.54142 C 234.271031 66.560269 232.029563 67.072306 229.312632 67.072306 C 227.233134 67.072306 225.23201 66.706566 223.309258 65.980309 C 221.402182 65.243603 219.714549 64.162055 218.246361 62.740891 C 216.783398 61.309277 215.618253 59.564171 214.750925 57.500348 C 213.883597 55.44175 213.449933 53.074885 213.449933 50.404978 L 213.449933 50.274356 C 213.449933 47.604449 213.894046 45.242808 214.782274 43.178985 C 215.670501 41.109938 216.851322 39.359607 218.314285 37.938443 C 219.777248 36.517279 221.46488 35.446181 223.377182 34.714699 C 225.294708 33.977993 227.274933 33.612252 229.312632 33.612252 C 232.071362 33.612252 234.338955 34.119064 236.11541 35.137914 C 237.89709 36.161988 239.475 37.426406 240.854365 38.931168 L 240.854365 34.27581 L 250.974934 34.27581 L 250.974934 61.925812 C 250.974934 68.284476 249.470172 72.976407 246.450198 76.006831 C 244.757341 77.689238 242.63082 78.906632 240.070635 79.669463 C 237.520899 80.427069 234.5166 80.808484 231.057737 80.808484 Z M 232.243782 58.670719 C 233.492526 58.670719 234.647222 58.472174 235.713095 58.069859 C 236.784193 57.667544 237.708994 57.103258 238.47705 56.377002 C 239.26078 55.640295 239.87209 54.762518 240.316203 53.743668 C 240.760317 52.709145 240.984987 51.601473 240.984987 50.404978 L 240.984987 50.274356 C 240.984987 49.072636 240.760317 47.95974 240.316203 46.94089 C 239.87209 45.916816 239.26078 45.039038 238.47705 44.302332 C 237.708994 43.565626 236.784193 43.00134 235.713095 42.609475 C 234.647222 42.20716 233.492526 42.008615 232.243782 42.008615 C 231.005489 42.008615 229.861243 42.20716 228.811044 42.609475 C 227.771296 43.00134 226.856944 43.565626 226.078438 44.302332 C 225.305158 45.039038 224.699073 45.916816 224.254959 46.94089 C 223.810846 47.95974 223.586176 49.072636 223.586176 50.274356 L 223.586176 50.404978 C 223.586176 52.892015 224.406481 54.893139 226.041864 56.408351 C 227.692923 57.918338 229.76197 58.670719 232.243782 58.670719 Z M 260.249075 21.339037 L 270.907805 21.339037 L 270.907805 30.341485 L 260.249075 30.341485 Z M 260.505093 34.27581 L 270.646562 34.27581 L 270.646562 69.998233 L 260.505093 69.998233 Z M 280.181946 34.27581 L 290.302515 34.27581 L 290.302515 39.338707 C 290.877251 38.581102 291.50946 37.86007 292.193917 37.175612 C 292.888825 36.480705 293.65688 35.869395 294.503309 35.336459 C 295.349738 34.803522 296.284989 34.385533 297.303838 34.08249 C 298.322687 33.768998 299.477383 33.612252 300.767926 33.612252 C 304.644778 33.612252 307.633402 34.787847 309.739024 37.144263 C 311.84987 39.495453 312.910519 42.740096 312.910519 46.872967 L 312.910519 69.998233 L 302.76905 69.998233 L 302.76905 50.065361 C 302.76905 47.667147 302.236113 45.859343 301.159791 44.641948 C 300.093918 43.419329 298.589156 42.80802 296.635055 42.80802 C 294.680954 42.80802 293.134393 43.419329 291.995372 44.641948 C 290.866801 45.859343 290.302515 47.667147 290.302515 50.065361 L 290.302515 69.998233 L 280.181946 69.998233 Z M 331.829765 70.667016 C 330.136908 70.667016 328.548548 70.431897 327.064686 69.966883 C 325.575599 69.50187 324.274606 68.801738 323.156485 67.866486 C 322.048813 66.93646 321.171035 65.792214 320.523151 64.433748 C 319.880492 63.080507 319.561776 61.507822 319.561776 59.731367 L 319.561776 59.600745 C 319.561776 57.646645 319.917067 55.959012 320.632873 54.537848 C 321.34868 53.116684 322.33618 51.941089 323.595374 51.005838 C 324.865017 50.075811 326.380228 49.375679 328.135784 48.910666 C 329.896564 48.440427 331.83499 48.210533 333.961512 48.210533 C 335.784991 48.210533 337.37335 48.34638 338.731816 48.612848 C 340.090282 48.874091 341.412173 49.229382 342.702716 49.673496 L 342.702716 49.072636 C 342.702716 46.935665 342.054832 45.310732 340.76429 44.20306 C 339.473747 43.084938 337.56667 42.531102 335.037834 42.531102 C 333.083734 42.531102 331.359527 42.698298 329.85999 43.032689 C 328.376128 43.367081 326.813892 43.847768 325.173284 44.464303 L 322.633998 36.736723 C 324.588099 35.890295 326.631022 35.200612 328.757543 34.667676 C 330.894514 34.134739 333.475599 33.868271 336.500797 33.868271 C 339.301327 33.868271 341.689091 34.218337 343.664091 34.913244 C 345.639091 35.597702 347.26925 36.585202 348.559793 37.875744 C 349.897359 39.208086 350.874409 40.843469 351.490944 42.771446 C 352.117928 44.704647 352.436645 46.867742 352.436645 49.265957 L 352.436645 69.998233 L 342.640017 69.998233 L 342.640017 66.126605 C 341.391274 67.505971 339.896962 68.608418 338.162305 69.428722 C 336.427649 70.254251 334.316803 70.667016 331.829765 70.667016 Z M 334.907213 63.670917 C 337.305427 63.670917 339.228178 63.096182 340.670242 61.946711 C 342.112306 60.781565 342.833337 59.271579 342.833337 57.401076 L 342.833337 55.598496 C 341.94511 55.196182 340.952385 54.877465 339.855163 54.637121 C 338.76839 54.386327 337.608469 54.26093 336.370176 54.26093 C 334.191406 54.26093 332.477649 54.684145 331.228906 55.530573 C 329.990612 56.377002 329.374078 57.599621 329.374078 59.193206 L 329.374078 59.339502 C 329.374078 60.718867 329.886115 61.78474 330.904964 62.547571 C 331.923813 63.294727 333.256154 63.670917 334.907213 63.670917 Z M 382.223617 23.340162 L 401.29961 23.340162 C 404.094914 23.340162 406.592401 23.732027 408.781621 24.510532 C 410.986515 25.283813 412.851793 26.381035 414.382679 27.802199 C 415.924015 29.223363 417.09961 30.92667 417.91469 32.91212 C 418.740219 34.88712 419.152983 37.071115 419.152983 39.469329 L 419.152983 39.599951 C 419.152983 42.311657 418.661846 44.694197 417.684796 46.742345 C 416.707745 48.785269 415.364954 50.493801 413.651197 51.867941 C 411.947891 53.247306 409.951991 54.28183 407.663499 54.976737 C 405.369782 55.661195 402.914094 56.006036 400.29121 56.006036 L 392.495707 56.006036 L 392.495707 69.998233 L 382.223617 69.998233 Z M 400.630827 46.872967 C 403.201462 46.872967 405.197361 46.193734 406.618525 44.840493 C 408.039689 43.482028 408.750271 41.804845 408.750271 39.808946 L 408.750271 39.662649 C 408.750271 37.353258 408.00834 35.602927 406.524478 34.406432 C 405.03539 33.204712 403.002917 32.603853 400.416607 32.603853 L 392.495707 32.603853 L 392.495707 46.872967 Z M 425.694518 34.27581 L 435.815087 34.27581 L 435.815087 41.470454 C 436.833937 39.03044 438.234201 37.07634 440.015881 35.613377 C 441.792336 34.134739 444.195775 33.471181 447.226199 33.612252 L 447.226199 44.20306 L 446.688037 44.20306 C 443.302323 44.20306 440.642865 45.232358 438.714889 47.280507 C 436.781688 49.318205 435.815087 52.494925 435.815087 56.800216 L 435.815087 69.998233 L 425.694518 69.998233 Z M 453.752059 21.339037 L 464.41079 21.339037 L 464.41079 30.341485 L 453.752059 30.341485 Z M 454.013302 34.27581 L 464.149546 34.27581 L 464.149546 69.998233 L 454.013302 69.998233 Z M 473.68493 34.27581 L 483.805499 34.27581 L 483.805499 39.338707 C 484.38546 38.581102 485.012444 37.86007 485.696902 37.175612 C 486.391809 36.480705 487.159865 35.869395 488.006293 35.336459 C 488.852722 34.803522 489.787973 34.385533 490.806822 34.08249 C 491.825672 33.768998 492.980367 33.612252 494.27091 33.612252 C 498.147762 33.612252 501.136386 34.787847 503.242008 37.144263 C 505.352855 39.495453 506.413503 42.740096 506.413503 46.872967 L 506.413503 69.998233 L 496.272034 69.998233 L 496.272034 50.065361 C 496.272034 47.667147 495.739098 45.859343 494.662775 44.641948 C 493.602127 43.419329 492.09214 42.80802 490.138039 42.80802 C 488.183939 42.80802 486.637378 43.419329 485.498357 44.641948 C 484.369785 45.859343 483.805499 47.667147 483.805499 50.065361 L 483.805499 69.998233 L 473.68493 69.998233 Z M 532.072829 70.797637 C 529.402922 70.797637 526.926334 70.311725 524.632617 69.334674 C 522.344125 68.357624 520.37435 67.035732 518.728517 65.379449 C 517.087908 63.707492 515.802591 61.748166 514.872564 59.501473 C 513.937313 57.25478 513.472299 54.87224 513.472299 52.343404 L 513.472299 52.197107 C 513.472299 49.668271 513.937313 47.270057 514.872564 45.002464 C 515.802591 42.734872 517.087908 40.759872 518.728517 39.077464 C 520.37435 37.384607 522.344125 36.052266 524.632617 35.075215 C 526.926334 34.098165 529.444721 33.612252 532.203451 33.612252 C 535.578716 33.612252 538.37402 34.139964 540.599814 35.205837 C 542.825608 36.266485 544.784933 37.734673 546.47779 39.599951 L 540.275872 46.272107 C 539.115951 45.065163 537.919457 44.114237 536.696838 43.40888 C 535.479443 42.693073 533.959007 42.332557 532.135528 42.332557 C 530.844985 42.332557 529.67984 42.588575 528.640091 43.100612 C 527.595118 43.607425 526.685991 44.307557 525.90226 45.195784 C 525.123755 46.089237 524.522895 47.123761 524.099681 48.304581 C 523.676467 49.480176 523.462247 50.72892 523.462247 52.066486 L 523.462247 52.197107 C 523.462247 53.571248 523.676467 54.867015 524.099681 56.068735 C 524.522895 57.275679 525.134205 58.320653 525.938834 59.20888 C 526.738239 60.086658 527.69439 60.78679 528.802062 61.309277 C 529.920184 61.821314 531.163702 62.072108 532.527393 62.072108 C 534.22025 62.072108 535.704113 61.732491 536.973756 61.048034 C 538.238174 60.353126 539.492142 59.428325 540.730436 58.268404 L 546.67111 64.271777 C 544.936454 66.178854 542.956229 67.746314 540.730436 68.974158 C 538.504642 70.191553 535.620515 70.797637 532.072829 70.797637 Z M 553.468664 21.339037 L 564.127394 21.339037 L 564.127394 30.341485 L 553.468664 30.341485 Z M 553.729907 34.27581 L 563.866151 34.27581 L 563.866151 69.998233 L 553.729907 69.998233 Z M 573.401535 34.27581 L 583.527329 34.27581 L 583.527329 39.406631 C 584.776072 37.713774 586.270385 36.323959 588.01549 35.237186 C 589.776271 34.150414 591.98639 33.612252 594.656298 33.612252 C 596.75147 33.612252 598.773494 34.009342 600.727594 34.813972 C 602.681695 35.608152 604.411126 36.794197 605.921113 38.377332 C 607.436325 39.950017 608.653719 41.883218 609.562846 44.17171 C 610.477198 46.460202 610.931761 49.093536 610.931761 52.066486 L 610.931761 52.197107 C 610.931761 55.180507 610.477198 57.813841 609.562846 60.107558 C 608.653719 62.39605 607.451999 64.329251 605.952462 65.917611 C 604.463375 67.490296 602.744393 68.676341 600.795517 69.480971 C 598.841417 70.269926 596.793269 70.667016 594.656298 70.667016 C 591.944591 70.667016 589.708348 70.134079 587.952792 69.073431 C 586.207686 67.997108 584.729048 66.748365 583.527329 65.327201 L 583.527329 80.662188 L 573.401535 80.662188 Z M 592.054313 62.072108 C 593.256033 62.072108 594.37938 61.842214 595.424353 61.371976 C 596.474552 60.906962 597.399353 60.238179 598.188308 59.370851 C 598.992938 58.503523 599.625147 57.474224 600.095385 56.282954 C 600.560398 55.07601 600.795517 53.712319 600.795517 52.197107 L 600.795517 52.066486 C 600.795517 50.598298 600.560398 49.260732 600.095385 48.043337 C 599.625147 46.820718 598.992938 45.77052 598.188308 44.903192 C 597.399353 44.035864 596.474552 43.367081 595.424353 42.902067 C 594.37938 42.437054 593.256033 42.201935 592.054313 42.201935 C 590.857819 42.201935 589.739697 42.437054 588.684274 42.902067 C 587.644525 43.367081 586.730173 44.035864 585.951668 44.903192 C 585.178387 45.77052 584.561853 46.820718 584.096839 48.043337 C 583.626601 49.260732 583.396707 50.598298 583.396707 52.066486 L 583.396707 52.197107 C 583.396707 53.67052 583.626601 55.023761 584.096839 56.24638 C 584.561853 57.463774 585.178387 58.503523 585.951668 59.370851 C 586.730173 60.238179 587.644525 60.906962 588.684274 61.371976 C 589.739697 61.842214 590.857819 62.072108 592.054313 62.072108 Z M 628.518667 70.667016 C 626.82581 70.667016 625.23745 70.431897 623.748362 69.966883 C 622.2645 69.50187 620.963508 68.801738 619.845386 67.866486 C 618.737714 66.93646 617.859936 65.792214 617.206828 64.433748 C 616.569394 63.080507 616.250677 61.507822 616.250677 59.731367 L 616.250677 59.600745 C 616.250677 57.646645 616.605968 55.959012 617.321775 54.537848 C 618.037582 53.116684 619.025082 51.941089 620.284275 51.005838 C 621.553918 50.075811 623.069129 49.375679 624.824685 48.910666 C 626.580241 48.440427 628.523892 48.210533 630.650413 48.210533 C 632.473892 48.210533 634.062252 48.34638 635.420717 48.612848 C 636.773958 48.874091 638.101075 49.229382 639.391617 49.673496 L 639.391617 49.072636 C 639.391617 46.935665 638.743733 45.310732 637.453191 44.20306 C 636.162649 43.084938 634.255572 42.531102 631.726736 42.531102 C 629.772635 42.531102 628.048429 42.698298 626.548892 43.032689 C 625.065029 43.367081 623.502794 43.847768 621.862185 44.464303 L 619.322899 36.736723 C 621.277 35.890295 623.314698 35.200612 625.44122 34.667676 C 627.57819 34.134739 630.1645 33.868271 633.189699 33.868271 C 635.990228 33.868271 638.377993 34.218337 640.352993 34.913244 C 642.322768 35.597702 643.958151 36.585202 645.248694 37.875744 C 646.58626 39.208086 647.558086 40.843469 648.179845 42.771446 C 648.806829 44.704647 649.120321 46.867742 649.120321 49.265957 L 649.120321 69.998233 L 639.323694 69.998233 L 639.323694 66.126605 C 638.080175 67.505971 636.585863 68.608418 634.851207 69.428722 C 633.111326 70.254251 631.005704 70.667016 628.518667 70.667016 Z M 631.596114 63.670917 C 633.994328 63.670917 635.911855 63.096182 637.353918 61.946711 C 638.801207 60.781565 639.522239 59.271579 639.522239 57.401076 L 639.522239 55.598496 C 638.628786 55.196182 637.636061 54.877465 636.544064 54.637121 C 635.457291 54.386327 634.297371 54.26093 633.059077 54.26093 C 630.880307 54.26093 629.16655 54.684145 627.917807 55.530573 C 626.679513 56.377002 626.062979 57.599621 626.062979 59.193206 L 626.062979 59.339502 C 626.062979 60.718867 626.569791 61.78474 627.593865 62.547571 C 628.612714 63.294727 629.945056 63.670917 631.596114 63.670917 Z M 658.310864 21.339037 L 668.452332 21.339037 L 668.452332 69.998233 L 658.310864 69.998233 Z M 658.310864 21.339037 " stroke="#ffffff" stroke-width="17.50001" stroke-opacity="1" stroke-miterlimit="4"/></g><g fill="#000000" fill-opacity="1"><g transform="translate(114.099316, 95.76304)"><g><path d="M 4.1875 -34.890625 L 18.4375 -34.890625 C 20.53125 -34.890625 22.398438 -34.597656 24.046875 -34.015625 C 25.691406 -33.429688 27.085938 -32.609375 28.234375 -31.546875 C 29.378906 -30.484375 30.257812 -29.210938 30.875 -27.734375 C 31.488281 -26.253906 31.796875 -24.617188 31.796875 -22.828125 L 31.796875 -22.734375 C 31.796875 -20.703125 31.429688 -18.921875 30.703125 -17.390625 C 29.972656 -15.867188 28.96875 -14.59375 27.6875 -13.5625 C 26.40625 -12.53125 24.910156 -11.753906 23.203125 -11.234375 C 21.492188 -10.722656 19.65625 -10.46875 17.6875 -10.46875 L 11.859375 -10.46875 L 11.859375 0 L 4.1875 0 Z M 17.9375 -17.296875 C 19.863281 -17.296875 21.359375 -17.800781 22.421875 -18.8125 C 23.492188 -19.832031 24.03125 -21.085938 24.03125 -22.578125 L 24.03125 -22.671875 C 24.03125 -24.398438 23.472656 -25.710938 22.359375 -26.609375 C 21.242188 -27.515625 19.722656 -27.96875 17.796875 -27.96875 L 11.859375 -27.96875 L 11.859375 -17.296875 Z M 17.9375 -17.296875 "/></g></g></g><g fill="#000000" fill-opacity="1"><g transform="translate(147.388467, 95.76304)"><g><path d="M 10.96875 0.5 C 9.707031 0.5 8.519531 0.328125 7.40625 -0.015625 C 6.289062 -0.367188 5.316406 -0.894531 4.484375 -1.59375 C 3.648438 -2.289062 2.992188 -3.144531 2.515625 -4.15625 C 2.035156 -5.175781 1.796875 -6.347656 1.796875 -7.671875 L 1.796875 -7.78125 C 1.796875 -9.238281 2.0625 -10.5 2.59375 -11.5625 C 3.125 -12.625 3.863281 -13.503906 4.8125 -14.203125 C 5.757812 -14.898438 6.890625 -15.421875 8.203125 -15.765625 C 9.515625 -16.117188 10.96875 -16.296875 12.5625 -16.296875 C 13.925781 -16.296875 15.113281 -16.195312 16.125 -16 C 17.132812 -15.800781 18.125 -15.535156 19.09375 -15.203125 L 19.09375 -15.65625 C 19.09375 -17.25 18.609375 -18.457031 17.640625 -19.28125 C 16.679688 -20.113281 15.253906 -20.53125 13.359375 -20.53125 C 11.898438 -20.53125 10.613281 -20.40625 9.5 -20.15625 C 8.382812 -19.90625 7.210938 -19.550781 5.984375 -19.09375 L 4.09375 -24.875 C 5.550781 -25.5 7.078125 -26.007812 8.671875 -26.40625 C 10.265625 -26.8125 12.191406 -27.015625 14.453125 -27.015625 C 16.546875 -27.015625 18.332031 -26.753906 19.8125 -26.234375 C 21.289062 -25.722656 22.507812 -24.988281 23.46875 -24.03125 C 24.46875 -23.03125 25.203125 -21.804688 25.671875 -20.359375 C 26.140625 -18.910156 26.375 -17.289062 26.375 -15.5 L 26.375 0 L 19.046875 0 L 19.046875 -2.890625 C 18.109375 -1.859375 16.988281 -1.035156 15.6875 -0.421875 C 14.394531 0.191406 12.820312 0.5 10.96875 0.5 Z M 13.265625 -4.734375 C 15.054688 -4.734375 16.488281 -5.164062 17.5625 -6.03125 C 18.644531 -6.894531 19.1875 -8.023438 19.1875 -9.421875 L 19.1875 -10.765625 C 18.519531 -11.066406 17.78125 -11.304688 16.96875 -11.484375 C 16.15625 -11.671875 15.285156 -11.765625 14.359375 -11.765625 C 12.722656 -11.765625 11.441406 -11.445312 10.515625 -10.8125 C 9.585938 -10.1875 9.125 -9.273438 9.125 -8.078125 L 9.125 -7.96875 C 9.125 -6.945312 9.503906 -6.148438 10.265625 -5.578125 C 11.035156 -5.015625 12.035156 -4.734375 13.265625 -4.734375 Z M 17.390625 -38.484375 L 23.921875 -35.640625 L 17.4375 -29.65625 L 11.859375 -29.65625 Z M 17.390625 -38.484375 "/></g></g></g><g fill="#000000" fill-opacity="1"><g transform="translate(176.890227, 95.76304)"><g><path d="M 15.359375 8.078125 C 13.160156 8.078125 11.0625 7.832031 9.0625 7.34375 C 7.070312 6.863281 5.226562 6.175781 3.53125 5.28125 L 6.125 -0.40625 C 7.519531 0.363281 8.925781 0.960938 10.34375 1.390625 C 11.757812 1.828125 13.363281 2.046875 15.15625 2.046875 C 17.75 2.046875 19.664062 1.429688 20.90625 0.203125 C 22.15625 -1.023438 22.78125 -2.835938 22.78125 -5.234375 L 22.78125 -6.53125 C 21.644531 -5.164062 20.410156 -4.097656 19.078125 -3.328125 C 17.753906 -2.566406 16.082031 -2.1875 14.0625 -2.1875 C 12.5 -2.1875 11 -2.460938 9.5625 -3.015625 C 8.132812 -3.566406 6.875 -4.375 5.78125 -5.4375 C 4.6875 -6.5 3.8125 -7.800781 3.15625 -9.34375 C 2.507812 -10.882812 2.1875 -12.65625 2.1875 -14.65625 L 2.1875 -14.75 C 2.1875 -16.75 2.519531 -18.519531 3.1875 -20.0625 C 3.851562 -21.601562 4.734375 -22.90625 5.828125 -23.96875 C 6.929688 -25.03125 8.195312 -25.835938 9.625 -26.390625 C 11.050781 -26.941406 12.53125 -27.21875 14.0625 -27.21875 C 16.113281 -27.21875 17.804688 -26.832031 19.140625 -26.0625 C 20.472656 -25.300781 21.648438 -24.359375 22.671875 -23.234375 L 22.671875 -26.71875 L 30.25 -26.71875 L 30.25 -6.03125 C 30.25 -1.28125 29.117188 2.222656 26.859375 4.484375 C 25.597656 5.742188 24.007812 6.65625 22.09375 7.21875 C 20.1875 7.789062 17.941406 8.078125 15.359375 8.078125 Z M 16.25 -8.46875 C 17.175781 -8.46875 18.035156 -8.617188 18.828125 -8.921875 C 19.628906 -9.222656 20.320312 -9.644531 20.90625 -10.1875 C 21.488281 -10.738281 21.945312 -11.394531 22.28125 -12.15625 C 22.613281 -12.925781 22.78125 -13.757812 22.78125 -14.65625 L 22.78125 -14.75 C 22.78125 -15.644531 22.613281 -16.472656 22.28125 -17.234375 C 21.945312 -18.003906 21.488281 -18.660156 20.90625 -19.203125 C 20.320312 -19.753906 19.628906 -20.179688 18.828125 -20.484375 C 18.035156 -20.785156 17.175781 -20.9375 16.25 -20.9375 C 15.320312 -20.9375 14.46875 -20.785156 13.6875 -20.484375 C 12.90625 -20.179688 12.222656 -19.753906 11.640625 -19.203125 C 11.054688 -18.660156 10.597656 -18.003906 10.265625 -17.234375 C 9.929688 -16.472656 9.765625 -15.644531 9.765625 -14.75 L 9.765625 -14.65625 C 9.765625 -12.789062 10.378906 -11.289062 11.609375 -10.15625 C 12.835938 -9.03125 14.382812 -8.46875 16.25 -8.46875 Z M 16.25 -8.46875 "/></g></g></g><g fill="#000000" fill-opacity="1"><g transform="translate(210.52822, 95.76304)"><g><path d="M 3.53125 -36.390625 L 11.515625 -36.390625 L 11.515625 -29.65625 L 3.53125 -29.65625 Z M 3.734375 -26.71875 L 11.3125 -26.71875 L 11.3125 0 L 3.734375 0 Z M 3.734375 -26.71875 "/></g></g></g><g fill="#000000" fill-opacity="1"><g transform="translate(225.578106, 95.76304)"><g><path d="M 3.390625 -26.71875 L 10.96875 -26.71875 L 10.96875 -22.921875 C 11.394531 -23.492188 11.863281 -24.035156 12.375 -24.546875 C 12.894531 -25.066406 13.46875 -25.523438 14.09375 -25.921875 C 14.726562 -26.316406 15.425781 -26.628906 16.1875 -26.859375 C 16.957031 -27.097656 17.828125 -27.21875 18.796875 -27.21875 C 21.679688 -27.21875 23.910156 -26.335938 25.484375 -24.578125 C 27.066406 -22.816406 27.859375 -20.390625 27.859375 -17.296875 L 27.859375 0 L 20.28125 0 L 20.28125 -14.90625 C 20.28125 -16.695312 19.878906 -18.050781 19.078125 -18.96875 C 18.285156 -19.882812 17.160156 -20.34375 15.703125 -20.34375 C 14.234375 -20.34375 13.078125 -19.882812 12.234375 -18.96875 C 11.390625 -18.050781 10.96875 -16.695312 10.96875 -14.90625 L 10.96875 0 L 3.390625 0 Z M 3.390625 -26.71875 "/></g></g></g><g fill="#000000" fill-opacity="1"><g transform="translate(256.62472, 95.76304)"><g><path d="M 10.96875 0.5 C 9.707031 0.5 8.519531 0.328125 7.40625 -0.015625 C 6.289062 -0.367188 5.316406 -0.894531 4.484375 -1.59375 C 3.648438 -2.289062 2.992188 -3.144531 2.515625 -4.15625 C 2.035156 -5.175781 1.796875 -6.347656 1.796875 -7.671875 L 1.796875 -7.78125 C 1.796875 -9.238281 2.0625 -10.5 2.59375 -11.5625 C 3.125 -12.625 3.863281 -13.503906 4.8125 -14.203125 C 5.757812 -14.898438 6.890625 -15.421875 8.203125 -15.765625 C 9.515625 -16.117188 10.96875 -16.296875 12.5625 -16.296875 C 13.925781 -16.296875 15.113281 -16.195312 16.125 -16 C 17.132812 -15.800781 18.125 -15.535156 19.09375 -15.203125 L 19.09375 -15.65625 C 19.09375 -17.25 18.609375 -18.457031 17.640625 -19.28125 C 16.679688 -20.113281 15.253906 -20.53125 13.359375 -20.53125 C 11.898438 -20.53125 10.613281 -20.40625 9.5 -20.15625 C 8.382812 -19.90625 7.210938 -19.550781 5.984375 -19.09375 L 4.09375 -24.875 C 5.550781 -25.5 7.078125 -26.007812 8.671875 -26.40625 C 10.265625 -26.8125 12.191406 -27.015625 14.453125 -27.015625 C 16.546875 -27.015625 18.332031 -26.753906 19.8125 -26.234375 C 21.289062 -25.722656 22.507812 -24.988281 23.46875 -24.03125 C 24.46875 -23.03125 25.203125 -21.804688 25.671875 -20.359375 C 26.140625 -18.910156 26.375 -17.289062 26.375 -15.5 L 26.375 0 L 19.046875 0 L 19.046875 -2.890625 C 18.109375 -1.859375 16.988281 -1.035156 15.6875 -0.421875 C 14.394531 0.191406 12.820312 0.5 10.96875 0.5 Z M 13.265625 -4.734375 C 15.054688 -4.734375 16.488281 -5.164062 17.5625 -6.03125 C 18.644531 -6.894531 19.1875 -8.023438 19.1875 -9.421875 L 19.1875 -10.765625 C 18.519531 -11.066406 17.78125 -11.304688 16.96875 -11.484375 C 16.15625 -11.671875 15.285156 -11.765625 14.359375 -11.765625 C 12.722656 -11.765625 11.441406 -11.445312 10.515625 -10.8125 C 9.585938 -10.1875 9.125 -9.273438 9.125 -8.078125 L 9.125 -7.96875 C 9.125 -6.945312 9.503906 -6.148438 10.265625 -5.578125 C 11.035156 -5.015625 12.035156 -4.734375 13.265625 -4.734375 Z M 13.265625 -4.734375 "/></g></g></g><g fill="#000000" fill-opacity="1"><g transform="translate(286.126479, 95.76304)"><g/></g></g><g fill="#000000" fill-opacity="1"><g transform="translate(301.076694, 95.76304)"><g><path d="M 4.1875 -34.890625 L 18.4375 -34.890625 C 20.53125 -34.890625 22.398438 -34.597656 24.046875 -34.015625 C 25.691406 -33.429688 27.085938 -32.609375 28.234375 -31.546875 C 29.378906 -30.484375 30.257812 -29.210938 30.875 -27.734375 C 31.488281 -26.253906 31.796875 -24.617188 31.796875 -22.828125 L 31.796875 -22.734375 C 31.796875 -20.703125 31.429688 -18.921875 30.703125 -17.390625 C 29.972656 -15.867188 28.96875 -14.59375 27.6875 -13.5625 C 26.40625 -12.53125 24.910156 -11.753906 23.203125 -11.234375 C 21.492188 -10.722656 19.65625 -10.46875 17.6875 -10.46875 L 11.859375 -10.46875 L 11.859375 0 L 4.1875 0 Z M 17.9375 -17.296875 C 19.863281 -17.296875 21.359375 -17.800781 22.421875 -18.8125 C 23.492188 -19.832031 24.03125 -21.085938 24.03125 -22.578125 L 24.03125 -22.671875 C 24.03125 -24.398438 23.472656 -25.710938 22.359375 -26.609375 C 21.242188 -27.515625 19.722656 -27.96875 17.796875 -27.96875 L 11.859375 -27.96875 L 11.859375 -17.296875 Z M 17.9375 -17.296875 "/></g></g></g><g fill="#000000" fill-opacity="1"><g transform="translate(334.365845, 95.76304)"><g><path d="M 3.390625 -26.71875 L 10.96875 -26.71875 L 10.96875 -21.328125 C 11.726562 -23.160156 12.769531 -24.625 14.09375 -25.71875 C 15.425781 -26.8125 17.222656 -27.3125 19.484375 -27.21875 L 19.484375 -19.296875 L 19.09375 -19.296875 C 16.5625 -19.296875 14.570312 -18.53125 13.125 -17 C 11.6875 -15.46875 10.96875 -13.09375 10.96875 -9.875 L 10.96875 0 L 3.390625 0 Z M 3.390625 -26.71875 "/></g></g></g><g fill="#000000" fill-opacity="1"><g transform="translate(355.196466, 95.76304)"><g><path d="M 3.53125 -36.390625 L 11.515625 -36.390625 L 11.515625 -29.65625 L 3.53125 -29.65625 Z M 3.734375 -26.71875 L 11.3125 -26.71875 L 11.3125 0 L 3.734375 0 Z M 3.734375 -26.71875 "/></g></g></g><g fill="#000000" fill-opacity="1"><g transform="translate(370.246353, 95.76304)"><g><path d="M 3.390625 -26.71875 L 10.96875 -26.71875 L 10.96875 -22.921875 C 11.394531 -23.492188 11.863281 -24.035156 12.375 -24.546875 C 12.894531 -25.066406 13.46875 -25.523438 14.09375 -25.921875 C 14.726562 -26.316406 15.425781 -26.628906 16.1875 -26.859375 C 16.957031 -27.097656 17.828125 -27.21875 18.796875 -27.21875 C 21.679688 -27.21875 23.910156 -26.335938 25.484375 -24.578125 C 27.066406 -22.816406 27.859375 -20.390625 27.859375 -17.296875 L 27.859375 0 L 20.28125 0 L 20.28125 -14.90625 C 20.28125 -16.695312 19.878906 -18.050781 19.078125 -18.96875 C 18.285156 -19.882812 17.160156 -20.34375 15.703125 -20.34375 C 14.234375 -20.34375 13.078125 -19.882812 12.234375 -18.96875 C 11.390625 -18.050781 10.96875 -16.695312 10.96875 -14.90625 L 10.96875 0 L 3.390625 0 Z M 3.390625 -26.71875 "/></g></g></g><g fill="#000000" fill-opacity="1"><g transform="translate(401.292955, 95.76304)"><g><path d="M 16 0.59375 C 14.007812 0.59375 12.15625 0.226562 10.4375 -0.5 C 8.726562 -1.226562 7.257812 -2.210938 6.03125 -3.453125 C 4.800781 -4.703125 3.835938 -6.164062 3.140625 -7.84375 C 2.441406 -9.53125 2.09375 -11.316406 2.09375 -13.203125 L 2.09375 -13.3125 C 2.09375 -15.207031 2.441406 -17 3.140625 -18.6875 C 3.835938 -20.382812 4.800781 -21.863281 6.03125 -23.125 C 7.257812 -24.382812 8.726562 -25.378906 10.4375 -26.109375 C 12.15625 -26.847656 14.039062 -27.21875 16.09375 -27.21875 C 18.625 -27.21875 20.71875 -26.816406 22.375 -26.015625 C 24.039062 -25.222656 25.503906 -24.128906 26.765625 -22.734375 L 22.125 -17.75 C 21.257812 -18.644531 20.367188 -19.359375 19.453125 -19.890625 C 18.546875 -20.421875 17.410156 -20.6875 16.046875 -20.6875 C 15.085938 -20.6875 14.21875 -20.492188 13.4375 -20.109375 C 12.65625 -19.722656 11.972656 -19.195312 11.390625 -18.53125 C 10.804688 -17.875 10.351562 -17.101562 10.03125 -16.21875 C 9.71875 -15.34375 9.5625 -14.40625 9.5625 -13.40625 L 9.5625 -13.3125 C 9.5625 -12.28125 9.71875 -11.316406 10.03125 -10.421875 C 10.351562 -9.523438 10.8125 -8.742188 11.40625 -8.078125 C 12.007812 -7.410156 12.722656 -6.882812 13.546875 -6.5 C 14.378906 -6.125 15.3125 -5.9375 16.34375 -5.9375 C 17.613281 -5.9375 18.71875 -6.191406 19.65625 -6.703125 C 20.601562 -7.222656 21.546875 -7.910156 22.484375 -8.765625 L 26.921875 -4.28125 C 25.617188 -2.851562 24.132812 -1.679688 22.46875 -0.765625 C 20.8125 0.140625 18.65625 0.59375 16 0.59375 Z M 16 0.59375 "/></g></g></g><g fill="#000000" fill-opacity="1"><g transform="translate(429.748213, 95.76304)"><g><path d="M 3.53125 -36.390625 L 11.515625 -36.390625 L 11.515625 -29.65625 L 3.53125 -29.65625 Z M 3.734375 -26.71875 L 11.3125 -26.71875 L 11.3125 0 L 3.734375 0 Z M 3.734375 -26.71875 "/></g></g></g><g fill="#000000" fill-opacity="1"><g transform="translate(444.798099, 95.76304)"><g><path d="M 3.390625 -26.71875 L 10.96875 -26.71875 L 10.96875 -22.875 C 11.894531 -24.132812 13.015625 -25.171875 14.328125 -25.984375 C 15.640625 -26.804688 17.296875 -27.21875 19.296875 -27.21875 C 20.847656 -27.21875 22.351562 -26.914062 23.8125 -26.3125 C 25.28125 -25.71875 26.578125 -24.828125 27.703125 -23.640625 C 28.835938 -22.460938 29.742188 -21.019531 30.421875 -19.3125 C 31.109375 -17.601562 31.453125 -15.632812 31.453125 -13.40625 L 31.453125 -13.3125 C 31.453125 -11.082031 31.109375 -9.109375 30.421875 -7.390625 C 29.742188 -5.679688 28.847656 -4.238281 27.734375 -3.0625 C 26.617188 -1.882812 25.332031 -0.992188 23.875 -0.390625 C 22.414062 0.203125 20.890625 0.5 19.296875 0.5 C 17.265625 0.5 15.59375 0.101562 14.28125 -0.6875 C 12.96875 -1.488281 11.863281 -2.421875 10.96875 -3.484375 L 10.96875 7.96875 L 3.390625 7.96875 Z M 17.34375 -5.9375 C 18.238281 -5.9375 19.078125 -6.109375 19.859375 -6.453125 C 20.640625 -6.804688 21.328125 -7.304688 21.921875 -7.953125 C 22.523438 -8.597656 23 -9.367188 23.34375 -10.265625 C 23.695312 -11.160156 23.875 -12.175781 23.875 -13.3125 L 23.875 -13.40625 C 23.875 -14.5 23.695312 -15.503906 23.34375 -16.421875 C 23 -17.335938 22.523438 -18.117188 21.921875 -18.765625 C 21.328125 -19.410156 20.640625 -19.90625 19.859375 -20.25 C 19.078125 -20.601562 18.238281 -20.78125 17.34375 -20.78125 C 16.445312 -20.78125 15.609375 -20.601562 14.828125 -20.25 C 14.046875 -19.90625 13.363281 -19.410156 12.78125 -18.765625 C 12.195312 -18.117188 11.726562 -17.335938 11.375 -16.421875 C 11.03125 -15.503906 10.859375 -14.5 10.859375 -13.40625 L 10.859375 -13.3125 C 10.859375 -12.207031 11.03125 -11.195312 11.375 -10.28125 C 11.726562 -9.375 12.195312 -8.597656 12.78125 -7.953125 C 13.363281 -7.304688 14.046875 -6.804688 14.828125 -6.453125 C 15.609375 -6.109375 16.445312 -5.9375 17.34375 -5.9375 Z M 17.34375 -5.9375 "/></g></g></g><g fill="#000000" fill-opacity="1"><g transform="translate(478.436092, 95.76304)"><g><path d="M 10.96875 0.5 C 9.707031 0.5 8.519531 0.328125 7.40625 -0.015625 C 6.289062 -0.367188 5.316406 -0.894531 4.484375 -1.59375 C 3.648438 -2.289062 2.992188 -3.144531 2.515625 -4.15625 C 2.035156 -5.175781 1.796875 -6.347656 1.796875 -7.671875 L 1.796875 -7.78125 C 1.796875 -9.238281 2.0625 -10.5 2.59375 -11.5625 C 3.125 -12.625 3.863281 -13.503906 4.8125 -14.203125 C 5.757812 -14.898438 6.890625 -15.421875 8.203125 -15.765625 C 9.515625 -16.117188 10.96875 -16.296875 12.5625 -16.296875 C 13.925781 -16.296875 15.113281 -16.195312 16.125 -16 C 17.132812 -15.800781 18.125 -15.535156 19.09375 -15.203125 L 19.09375 -15.65625 C 19.09375 -17.25 18.609375 -18.457031 17.640625 -19.28125 C 16.679688 -20.113281 15.253906 -20.53125 13.359375 -20.53125 C 11.898438 -20.53125 10.613281 -20.40625 9.5 -20.15625 C 8.382812 -19.90625 7.210938 -19.550781 5.984375 -19.09375 L 4.09375 -24.875 C 5.550781 -25.5 7.078125 -26.007812 8.671875 -26.40625 C 10.265625 -26.8125 12.191406 -27.015625 14.453125 -27.015625 C 16.546875 -27.015625 18.332031 -26.753906 19.8125 -26.234375 C 21.289062 -25.722656 22.507812 -24.988281 23.46875 -24.03125 C 24.46875 -23.03125 25.203125 -21.804688 25.671875 -20.359375 C 26.140625 -18.910156 26.375 -17.289062 26.375 -15.5 L 26.375 0 L 19.046875 0 L 19.046875 -2.890625 C 18.109375 -1.859375 16.988281 -1.035156 15.6875 -0.421875 C 14.394531 0.191406 12.820312 0.5 10.96875 0.5 Z M 13.265625 -4.734375 C 15.054688 -4.734375 16.488281 -5.164062 17.5625 -6.03125 C 18.644531 -6.894531 19.1875 -8.023438 19.1875 -9.421875 L 19.1875 -10.765625 C 18.519531 -11.066406 17.78125 -11.304688 16.96875 -11.484375 C 16.15625 -11.671875 15.285156 -11.765625 14.359375 -11.765625 C 12.722656 -11.765625 11.441406 -11.445312 10.515625 -10.8125 C 9.585938 -10.1875 9.125 -9.273438 9.125 -8.078125 L 9.125 -7.96875 C 9.125 -6.945312 9.503906 -6.148438 10.265625 -5.578125 C 11.035156 -5.015625 12.035156 -4.734375 13.265625 -4.734375 Z M 13.265625 -4.734375 "/></g></g></g><g fill="#000000" fill-opacity="1"><g transform="translate(507.93784, 95.76304)"><g><path d="M 3.734375 -36.390625 L 11.3125 -36.390625 L 11.3125 0 L 3.734375 0 Z M 3.734375 -36.390625 "/></g></g></g></svg>