<svg xmlns="http://www.w3.org/2000/svg" xmlns:xlink="http://www.w3.org/1999/xlink" width="851" zoomAndPan="magnify" viewBox="0 0 638.25 157.5" height="210" preserveAspectRatio="xMidYMid meet" version="1.0"><defs><g/><clipPath id="f9559a9aa7"><path d="M 19.5 0 L 617.5625 0 L 617.5625 156.386719 L 19.5 156.386719 Z M 19.5 0 " clip-rule="nonzero"/></clipPath><clipPath id="19210a7fad"><path d="M 94.265625 0 L 542.839844 0 C 562.667969 0 581.683594 7.875 595.703125 21.898438 C 609.726562 35.917969 617.601562 54.933594 617.601562 74.761719 L 617.601562 81.625 C 617.601562 101.453125 609.726562 120.46875 595.703125 134.488281 C 581.683594 148.511719 562.667969 156.386719 542.839844 156.386719 L 94.265625 156.386719 C 74.4375 156.386719 55.417969 148.511719 41.398438 134.488281 C 27.378906 120.46875 19.5 101.453125 19.5 81.625 L 19.5 74.761719 C 19.5 54.933594 27.378906 35.917969 41.398438 21.898438 C 55.417969 7.875 74.4375 0 94.265625 0 Z M 94.265625 0 " clip-rule="nonzero"/></clipPath><linearGradient x1="0.00225788" gradientTransform="matrix(0.610889, 0, 0, 0.610889, 19.499815, 0.00000498418)" y1="128" x2="979.00222" gradientUnits="userSpaceOnUse" y2="128" id="02da59c6bc"><stop stop-opacity="1" stop-color="rgb(75.698853%, 99.998474%, 44.699097%)" offset="0"/><stop stop-opacity="1" stop-color="rgb(75.402832%, 99.861145%, 44.671631%)" offset="0.00390625"/><stop stop-opacity="1" stop-color="rgb(75.108337%, 99.723816%, 44.644165%)" offset="0.0078125"/><stop stop-opacity="1" stop-color="rgb(74.812317%, 99.584961%, 44.615173%)" offset="0.0117187"/><stop stop-opacity="1" stop-color="rgb(74.516296%, 99.447632%, 44.587708%)" offset="0.015625"/><stop stop-opacity="1" stop-color="rgb(74.220276%, 99.308777%, 44.560242%)" offset="0.0195312"/><stop stop-opacity="1" stop-color="rgb(73.924255%, 99.171448%, 44.532776%)" offset="0.0234375"/><stop stop-opacity="1" stop-color="rgb(73.628235%, 99.034119%, 44.50531%)" offset="0.0273437"/><stop stop-opacity="1" stop-color="rgb(73.33374%, 98.89679%, 44.477844%)" offset="0.03125"/><stop stop-opacity="1" stop-color="rgb(73.03772%, 98.757935%, 44.448853%)" offset="0.0351562"/><stop stop-opacity="1" stop-color="rgb(72.741699%, 98.620605%, 44.421387%)" offset="0.0390625"/><stop stop-opacity="1" stop-color="rgb(72.445679%, 98.48175%, 44.393921%)" offset="0.0429687"/><stop stop-opacity="1" stop-color="rgb(72.151184%, 98.344421%, 44.366455%)" offset="0.046875"/><stop stop-opacity="1" stop-color="rgb(71.855164%, 98.205566%, 44.338989%)" offset="0.0507812"/><stop stop-opacity="1" stop-color="rgb(71.559143%, 98.068237%, 44.311523%)" offset="0.0546875"/><stop stop-opacity="1" stop-color="rgb(71.263123%, 97.930908%, 44.282532%)" offset="0.0585937"/><stop stop-opacity="1" stop-color="rgb(70.968628%, 97.793579%, 44.255066%)" offset="0.0625"/><stop stop-opacity="1" stop-color="rgb(70.672607%, 97.654724%, 44.2276%)" offset="0.0664062"/><stop stop-opacity="1" stop-color="rgb(70.376587%, 97.517395%, 44.200134%)" offset="0.0703125"/><stop stop-opacity="1" stop-color="rgb(70.080566%, 97.37854%, 44.172668%)" offset="0.0742188"/><stop stop-opacity="1" stop-color="rgb(69.786072%, 97.241211%, 44.145203%)" offset="0.078125"/><stop stop-opacity="1" stop-color="rgb(69.490051%, 97.102356%, 44.116211%)" offset="0.0820312"/><stop stop-opacity="1" stop-color="rgb(69.194031%, 96.965027%, 44.088745%)" offset="0.0859375"/><stop stop-opacity="1" stop-color="rgb(68.89801%, 96.827698%, 44.061279%)" offset="0.0898438"/><stop stop-opacity="1" stop-color="rgb(68.60199%, 96.690369%, 44.033813%)" offset="0.09375"/><stop stop-opacity="1" stop-color="rgb(68.305969%, 96.551514%, 44.006348%)" offset="0.0976562"/><stop stop-opacity="1" stop-color="rgb(68.011475%, 96.414185%, 43.978882%)" offset="0.101562"/><stop stop-opacity="1" stop-color="rgb(67.715454%, 96.27533%, 43.94989%)" offset="0.105469"/><stop stop-opacity="1" stop-color="rgb(67.419434%, 96.138%, 43.922424%)" offset="0.109375"/><stop stop-opacity="1" stop-color="rgb(67.123413%, 96.000671%, 43.894958%)" offset="0.113281"/><stop stop-opacity="1" stop-color="rgb(66.828918%, 95.863342%, 43.867493%)" offset="0.117188"/><stop stop-opacity="1" stop-color="rgb(66.532898%, 95.724487%, 43.838501%)" offset="0.121094"/><stop stop-opacity="1" stop-color="rgb(66.236877%, 95.587158%, 43.811035%)" offset="0.125"/><stop stop-opacity="1" stop-color="rgb(65.940857%, 95.448303%, 43.783569%)" offset="0.128906"/><stop stop-opacity="1" stop-color="rgb(65.646362%, 95.310974%, 43.756104%)" offset="0.132812"/><stop stop-opacity="1" stop-color="rgb(65.350342%, 95.172119%, 43.728638%)" offset="0.136719"/><stop stop-opacity="1" stop-color="rgb(65.054321%, 95.03479%, 43.701172%)" offset="0.140625"/><stop stop-opacity="1" stop-color="rgb(64.758301%, 94.897461%, 43.67218%)" offset="0.144531"/><stop stop-opacity="1" stop-color="rgb(64.463806%, 94.760132%, 43.644714%)" offset="0.148438"/><stop stop-opacity="1" stop-color="rgb(64.167786%, 94.621277%, 43.617249%)" offset="0.152344"/><stop stop-opacity="1" stop-color="rgb(63.871765%, 94.483948%, 43.589783%)" offset="0.15625"/><stop stop-opacity="1" stop-color="rgb(63.575745%, 94.345093%, 43.562317%)" offset="0.160156"/><stop stop-opacity="1" stop-color="rgb(63.279724%, 94.207764%, 43.534851%)" offset="0.164062"/><stop stop-opacity="1" stop-color="rgb(62.983704%, 94.070435%, 43.505859%)" offset="0.167969"/><stop stop-opacity="1" stop-color="rgb(62.689209%, 93.933105%, 43.478394%)" offset="0.171875"/><stop stop-opacity="1" stop-color="rgb(62.393188%, 93.79425%, 43.450928%)" offset="0.175781"/><stop stop-opacity="1" stop-color="rgb(62.097168%, 93.656921%, 43.423462%)" offset="0.179688"/><stop stop-opacity="1" stop-color="rgb(61.801147%, 93.518066%, 43.395996%)" offset="0.183594"/><stop stop-opacity="1" stop-color="rgb(61.506653%, 93.380737%, 43.36853%)" offset="0.1875"/><stop stop-opacity="1" stop-color="rgb(61.210632%, 93.241882%, 43.339539%)" offset="0.191406"/><stop stop-opacity="1" stop-color="rgb(60.914612%, 93.104553%, 43.312073%)" offset="0.195312"/><stop stop-opacity="1" stop-color="rgb(60.618591%, 92.967224%, 43.284607%)" offset="0.199219"/><stop stop-opacity="1" stop-color="rgb(60.324097%, 92.829895%, 43.257141%)" offset="0.203125"/><stop stop-opacity="1" stop-color="rgb(60.028076%, 92.69104%, 43.229675%)" offset="0.207031"/><stop stop-opacity="1" stop-color="rgb(59.732056%, 92.553711%, 43.202209%)" offset="0.210938"/><stop stop-opacity="1" stop-color="rgb(59.436035%, 92.414856%, 43.173218%)" offset="0.214844"/><stop stop-opacity="1" stop-color="rgb(59.141541%, 92.277527%, 43.145752%)" offset="0.21875"/><stop stop-opacity="1" stop-color="rgb(58.84552%, 92.138672%, 43.118286%)" offset="0.222656"/><stop stop-opacity="1" stop-color="rgb(58.5495%, 92.001343%, 43.09082%)" offset="0.226562"/><stop stop-opacity="1" stop-color="rgb(58.253479%, 91.864014%, 43.063354%)" offset="0.230469"/><stop stop-opacity="1" stop-color="rgb(57.957458%, 91.726685%, 43.035889%)" offset="0.234375"/><stop stop-opacity="1" stop-color="rgb(57.661438%, 91.58783%, 43.006897%)" offset="0.238281"/><stop stop-opacity="1" stop-color="rgb(57.366943%, 91.4505%, 42.979431%)" offset="0.242188"/><stop stop-opacity="1" stop-color="rgb(57.070923%, 91.311646%, 42.951965%)" offset="0.246094"/><stop stop-opacity="1" stop-color="rgb(56.774902%, 91.174316%, 42.9245%)" offset="0.25"/><stop stop-opacity="1" stop-color="rgb(56.478882%, 91.036987%, 42.897034%)" offset="0.253906"/><stop stop-opacity="1" stop-color="rgb(56.184387%, 90.899658%, 42.869568%)" offset="0.257812"/><stop stop-opacity="1" stop-color="rgb(55.888367%, 90.760803%, 42.840576%)" offset="0.261719"/><stop stop-opacity="1" stop-color="rgb(55.592346%, 90.623474%, 42.81311%)" offset="0.265625"/><stop stop-opacity="1" stop-color="rgb(55.296326%, 90.484619%, 42.785645%)" offset="0.269531"/><stop stop-opacity="1" stop-color="rgb(55.001831%, 90.34729%, 42.758179%)" offset="0.273437"/><stop stop-opacity="1" stop-color="rgb(54.705811%, 90.208435%, 42.729187%)" offset="0.277344"/><stop stop-opacity="1" stop-color="rgb(54.40979%, 90.071106%, 42.701721%)" offset="0.28125"/><stop stop-opacity="1" stop-color="rgb(54.11377%, 89.933777%, 42.674255%)" offset="0.285156"/><stop stop-opacity="1" stop-color="rgb(53.819275%, 89.796448%, 42.64679%)" offset="0.289062"/><stop stop-opacity="1" stop-color="rgb(53.523254%, 89.657593%, 42.619324%)" offset="0.292969"/><stop stop-opacity="1" stop-color="rgb(53.227234%, 89.520264%, 42.591858%)" offset="0.296875"/><stop stop-opacity="1" stop-color="rgb(52.931213%, 89.381409%, 42.562866%)" offset="0.300781"/><stop stop-opacity="1" stop-color="rgb(52.635193%, 89.24408%, 42.5354%)" offset="0.304687"/><stop stop-opacity="1" stop-color="rgb(52.339172%, 89.10675%, 42.507935%)" offset="0.308594"/><stop stop-opacity="1" stop-color="rgb(52.044678%, 88.969421%, 42.480469%)" offset="0.3125"/><stop stop-opacity="1" stop-color="rgb(51.748657%, 88.830566%, 42.453003%)" offset="0.316406"/><stop stop-opacity="1" stop-color="rgb(51.452637%, 88.693237%, 42.425537%)" offset="0.320312"/><stop stop-opacity="1" stop-color="rgb(51.156616%, 88.554382%, 42.396545%)" offset="0.324219"/><stop stop-opacity="1" stop-color="rgb(50.862122%, 88.417053%, 42.36908%)" offset="0.328125"/><stop stop-opacity="1" stop-color="rgb(50.566101%, 88.278198%, 42.341614%)" offset="0.332031"/><stop stop-opacity="1" stop-color="rgb(50.270081%, 88.140869%, 42.314148%)" offset="0.335937"/><stop stop-opacity="1" stop-color="rgb(49.97406%, 88.00354%, 42.286682%)" offset="0.339844"/><stop stop-opacity="1" stop-color="rgb(49.679565%, 87.866211%, 42.259216%)" offset="0.34375"/><stop stop-opacity="1" stop-color="rgb(49.383545%, 87.727356%, 42.230225%)" offset="0.347656"/><stop stop-opacity="1" stop-color="rgb(49.087524%, 87.590027%, 42.202759%)" offset="0.351562"/><stop stop-opacity="1" stop-color="rgb(48.791504%, 87.451172%, 42.175293%)" offset="0.355469"/><stop stop-opacity="1" stop-color="rgb(48.495483%, 87.313843%, 42.147827%)" offset="0.359375"/><stop stop-opacity="1" stop-color="rgb(48.199463%, 87.174988%, 42.120361%)" offset="0.363281"/><stop stop-opacity="1" stop-color="rgb(47.904968%, 87.037659%, 42.092896%)" offset="0.367187"/><stop stop-opacity="1" stop-color="rgb(47.608948%, 86.90033%, 42.063904%)" offset="0.371094"/><stop stop-opacity="1" stop-color="rgb(47.312927%, 86.763%, 42.036438%)" offset="0.375"/><stop stop-opacity="1" stop-color="rgb(47.016907%, 86.624146%, 42.008972%)" offset="0.378906"/><stop stop-opacity="1" stop-color="rgb(46.722412%, 86.486816%, 41.981506%)" offset="0.382812"/><stop stop-opacity="1" stop-color="rgb(46.426392%, 86.347961%, 41.954041%)" offset="0.386719"/><stop stop-opacity="1" stop-color="rgb(46.130371%, 86.210632%, 41.926575%)" offset="0.390625"/><stop stop-opacity="1" stop-color="rgb(45.834351%, 86.073303%, 41.897583%)" offset="0.394531"/><stop stop-opacity="1" stop-color="rgb(45.539856%, 85.935974%, 41.870117%)" offset="0.398437"/><stop stop-opacity="1" stop-color="rgb(45.243835%, 85.797119%, 41.842651%)" offset="0.402344"/><stop stop-opacity="1" stop-color="rgb(44.947815%, 85.65979%, 41.815186%)" offset="0.40625"/><stop stop-opacity="1" stop-color="rgb(44.651794%, 85.520935%, 41.78772%)" offset="0.410156"/><stop stop-opacity="1" stop-color="rgb(44.3573%, 85.383606%, 41.760254%)" offset="0.414062"/><stop stop-opacity="1" stop-color="rgb(44.061279%, 85.244751%, 41.731262%)" offset="0.417969"/><stop stop-opacity="1" stop-color="rgb(43.765259%, 85.107422%, 41.703796%)" offset="0.421875"/><stop stop-opacity="1" stop-color="rgb(43.469238%, 84.970093%, 41.676331%)" offset="0.425781"/><stop stop-opacity="1" stop-color="rgb(43.173218%, 84.832764%, 41.648865%)" offset="0.429687"/><stop stop-opacity="1" stop-color="rgb(42.877197%, 84.693909%, 41.621399%)" offset="0.433594"/><stop stop-opacity="1" stop-color="rgb(42.582703%, 84.55658%, 41.593933%)" offset="0.4375"/><stop stop-opacity="1" stop-color="rgb(42.286682%, 84.417725%, 41.564941%)" offset="0.441406"/><stop stop-opacity="1" stop-color="rgb(41.990662%, 84.280396%, 41.537476%)" offset="0.445312"/><stop stop-opacity="1" stop-color="rgb(41.694641%, 84.141541%, 41.51001%)" offset="0.449219"/><stop stop-opacity="1" stop-color="rgb(41.400146%, 84.004211%, 41.482544%)" offset="0.453125"/><stop stop-opacity="1" stop-color="rgb(41.104126%, 83.866882%, 41.453552%)" offset="0.457031"/><stop stop-opacity="1" stop-color="rgb(40.808105%, 83.729553%, 41.426086%)" offset="0.460937"/><stop stop-opacity="1" stop-color="rgb(40.512085%, 83.590698%, 41.398621%)" offset="0.464844"/><stop stop-opacity="1" stop-color="rgb(40.21759%, 83.453369%, 41.371155%)" offset="0.46875"/><stop stop-opacity="1" stop-color="rgb(39.92157%, 83.314514%, 41.343689%)" offset="0.472656"/><stop stop-opacity="1" stop-color="rgb(39.625549%, 83.177185%, 41.316223%)" offset="0.476562"/><stop stop-opacity="1" stop-color="rgb(39.329529%, 83.039856%, 41.287231%)" offset="0.480469"/><stop stop-opacity="1" stop-color="rgb(39.035034%, 82.902527%, 41.259766%)" offset="0.484375"/><stop stop-opacity="1" stop-color="rgb(38.739014%, 82.763672%, 41.2323%)" offset="0.488281"/><stop stop-opacity="1" stop-color="rgb(38.442993%, 82.626343%, 41.204834%)" offset="0.492187"/><stop stop-opacity="1" stop-color="rgb(38.146973%, 82.487488%, 41.177368%)" offset="0.496094"/><stop stop-opacity="1" stop-color="rgb(37.850952%, 82.350159%, 41.149902%)" offset="0.5"/><stop stop-opacity="1" stop-color="rgb(37.554932%, 82.211304%, 41.120911%)" offset="0.503906"/><stop stop-opacity="1" stop-color="rgb(37.260437%, 82.073975%, 41.093445%)" offset="0.507812"/><stop stop-opacity="1" stop-color="rgb(36.964417%, 81.936646%, 41.065979%)" offset="0.511719"/><stop stop-opacity="1" stop-color="rgb(36.668396%, 81.799316%, 41.038513%)" offset="0.515625"/><stop stop-opacity="1" stop-color="rgb(36.372375%, 81.660461%, 41.011047%)" offset="0.519531"/><stop stop-opacity="1" stop-color="rgb(36.077881%, 81.523132%, 40.983582%)" offset="0.523437"/><stop stop-opacity="1" stop-color="rgb(35.78186%, 81.384277%, 40.95459%)" offset="0.527344"/><stop stop-opacity="1" stop-color="rgb(35.48584%, 81.246948%, 40.927124%)" offset="0.53125"/><stop stop-opacity="1" stop-color="rgb(35.189819%, 81.109619%, 40.899658%)" offset="0.535156"/><stop stop-opacity="1" stop-color="rgb(34.895325%, 80.97229%, 40.872192%)" offset="0.539062"/><stop stop-opacity="1" stop-color="rgb(34.599304%, 80.833435%, 40.844727%)" offset="0.542969"/><stop stop-opacity="1" stop-color="rgb(34.303284%, 80.696106%, 40.817261%)" offset="0.546875"/><stop stop-opacity="1" stop-color="rgb(34.007263%, 80.557251%, 40.788269%)" offset="0.550781"/><stop stop-opacity="1" stop-color="rgb(33.712769%, 80.419922%, 40.760803%)" offset="0.554687"/><stop stop-opacity="1" stop-color="rgb(33.416748%, 80.281067%, 40.733337%)" offset="0.558594"/><stop stop-opacity="1" stop-color="rgb(33.120728%, 80.143738%, 40.705872%)" offset="0.5625"/><stop stop-opacity="1" stop-color="rgb(32.824707%, 80.006409%, 40.678406%)" offset="0.566406"/><stop stop-opacity="1" stop-color="rgb(32.528687%, 79.86908%, 40.65094%)" offset="0.570312"/><stop stop-opacity="1" stop-color="rgb(32.232666%, 79.730225%, 40.621948%)" offset="0.574219"/><stop stop-opacity="1" stop-color="rgb(31.938171%, 79.592896%, 40.594482%)" offset="0.578125"/><stop stop-opacity="1" stop-color="rgb(31.642151%, 79.454041%, 40.567017%)" offset="0.582031"/><stop stop-opacity="1" stop-color="rgb(31.34613%, 79.316711%, 40.539551%)" offset="0.585937"/><stop stop-opacity="1" stop-color="rgb(31.05011%, 79.177856%, 40.512085%)" offset="0.589844"/><stop stop-opacity="1" stop-color="rgb(30.755615%, 79.040527%, 40.484619%)" offset="0.59375"/><stop stop-opacity="1" stop-color="rgb(30.459595%, 78.903198%, 40.455627%)" offset="0.597656"/><stop stop-opacity="1" stop-color="rgb(30.163574%, 78.765869%, 40.428162%)" offset="0.601562"/><stop stop-opacity="1" stop-color="rgb(29.867554%, 78.627014%, 40.400696%)" offset="0.605469"/><stop stop-opacity="1" stop-color="rgb(29.573059%, 78.489685%, 40.37323%)" offset="0.609375"/><stop stop-opacity="1" stop-color="rgb(29.277039%, 78.35083%, 40.344238%)" offset="0.613281"/><stop stop-opacity="1" stop-color="rgb(28.981018%, 78.213501%, 40.316772%)" offset="0.617187"/><stop stop-opacity="1" stop-color="rgb(28.684998%, 78.076172%, 40.289307%)" offset="0.621094"/><stop stop-opacity="1" stop-color="rgb(28.390503%, 77.938843%, 40.261841%)" offset="0.625"/><stop stop-opacity="1" stop-color="rgb(28.094482%, 77.799988%, 40.234375%)" offset="0.628906"/><stop stop-opacity="1" stop-color="rgb(27.798462%, 77.662659%, 40.206909%)" offset="0.632812"/><stop stop-opacity="1" stop-color="rgb(27.502441%, 77.523804%, 40.177917%)" offset="0.636719"/><stop stop-opacity="1" stop-color="rgb(27.206421%, 77.386475%, 40.150452%)" offset="0.640625"/><stop stop-opacity="1" stop-color="rgb(26.9104%, 77.24762%, 40.122986%)" offset="0.644531"/><stop stop-opacity="1" stop-color="rgb(26.615906%, 77.110291%, 40.09552%)" offset="0.648437"/><stop stop-opacity="1" stop-color="rgb(26.319885%, 76.972961%, 40.068054%)" offset="0.652344"/><stop stop-opacity="1" stop-color="rgb(26.023865%, 76.835632%, 40.040588%)" offset="0.65625"/><stop stop-opacity="1" stop-color="rgb(25.727844%, 76.696777%, 40.011597%)" offset="0.660156"/><stop stop-opacity="1" stop-color="rgb(25.43335%, 76.559448%, 39.984131%)" offset="0.664062"/><stop stop-opacity="1" stop-color="rgb(25.137329%, 76.420593%, 39.956665%)" offset="0.667969"/><stop stop-opacity="1" stop-color="rgb(24.841309%, 76.283264%, 39.929199%)" offset="0.671875"/><stop stop-opacity="1" stop-color="rgb(24.545288%, 76.144409%, 39.901733%)" offset="0.675781"/><stop stop-opacity="1" stop-color="rgb(24.250793%, 76.00708%, 39.874268%)" offset="0.679687"/><stop stop-opacity="1" stop-color="rgb(23.954773%, 75.869751%, 39.845276%)" offset="0.683594"/><stop stop-opacity="1" stop-color="rgb(23.658752%, 75.732422%, 39.81781%)" offset="0.6875"/><stop stop-opacity="1" stop-color="rgb(23.362732%, 75.593567%, 39.790344%)" offset="0.691406"/><stop stop-opacity="1" stop-color="rgb(23.068237%, 75.456238%, 39.762878%)" offset="0.695312"/><stop stop-opacity="1" stop-color="rgb(22.772217%, 75.317383%, 39.735413%)" offset="0.699219"/><stop stop-opacity="1" stop-color="rgb(22.476196%, 75.180054%, 39.707947%)" offset="0.703125"/><stop stop-opacity="1" stop-color="rgb(22.180176%, 75.042725%, 39.678955%)" offset="0.707031"/><stop stop-opacity="1" stop-color="rgb(21.884155%, 74.905396%, 39.651489%)" offset="0.710937"/><stop stop-opacity="1" stop-color="rgb(21.588135%, 74.766541%, 39.624023%)" offset="0.714844"/><stop stop-opacity="1" stop-color="rgb(21.29364%, 74.629211%, 39.596558%)" offset="0.71875"/><stop stop-opacity="1" stop-color="rgb(20.99762%, 74.490356%, 39.569092%)" offset="0.722656"/><stop stop-opacity="1" stop-color="rgb(20.701599%, 74.353027%, 39.541626%)" offset="0.726562"/><stop stop-opacity="1" stop-color="rgb(20.405579%, 74.214172%, 39.512634%)" offset="0.730469"/><stop stop-opacity="1" stop-color="rgb(20.111084%, 74.076843%, 39.485168%)" offset="0.734375"/><stop stop-opacity="1" stop-color="rgb(19.815063%, 73.939514%, 39.457703%)" offset="0.738281"/><stop stop-opacity="1" stop-color="rgb(19.519043%, 73.802185%, 39.430237%)" offset="0.742187"/><stop stop-opacity="1" stop-color="rgb(19.223022%, 73.66333%, 39.402771%)" offset="0.746094"/><stop stop-opacity="1" stop-color="rgb(18.928528%, 73.526001%, 39.375305%)" offset="0.75"/><stop stop-opacity="1" stop-color="rgb(18.632507%, 73.387146%, 39.346313%)" offset="0.753906"/><stop stop-opacity="1" stop-color="rgb(18.336487%, 73.249817%, 39.318848%)" offset="0.757812"/><stop stop-opacity="1" stop-color="rgb(18.040466%, 73.112488%, 39.291382%)" offset="0.761719"/><stop stop-opacity="1" stop-color="rgb(17.745972%, 72.975159%, 39.263916%)" offset="0.765625"/><stop stop-opacity="1" stop-color="rgb(17.449951%, 72.836304%, 39.234924%)" offset="0.769531"/><stop stop-opacity="1" stop-color="rgb(17.153931%, 72.698975%, 39.207458%)" offset="0.773438"/><stop stop-opacity="1" stop-color="rgb(16.85791%, 72.56012%, 39.179993%)" offset="0.777344"/><stop stop-opacity="1" stop-color="rgb(16.56189%, 72.422791%, 39.152527%)" offset="0.78125"/><stop stop-opacity="1" stop-color="rgb(16.265869%, 72.283936%, 39.125061%)" offset="0.785156"/><stop stop-opacity="1" stop-color="rgb(15.971375%, 72.146606%, 39.097595%)" offset="0.789062"/><stop stop-opacity="1" stop-color="rgb(15.675354%, 72.009277%, 39.068604%)" offset="0.792969"/><stop stop-opacity="1" stop-color="rgb(15.379333%, 71.871948%, 39.041138%)" offset="0.796875"/><stop stop-opacity="1" stop-color="rgb(15.083313%, 71.733093%, 39.013672%)" offset="0.800781"/><stop stop-opacity="1" stop-color="rgb(14.788818%, 71.595764%, 38.986206%)" offset="0.804688"/><stop stop-opacity="1" stop-color="rgb(14.492798%, 71.456909%, 38.95874%)" offset="0.808594"/><stop stop-opacity="1" stop-color="rgb(14.196777%, 71.31958%, 38.931274%)" offset="0.8125"/><stop stop-opacity="1" stop-color="rgb(13.900757%, 71.180725%, 38.902283%)" offset="0.816406"/><stop stop-opacity="1" stop-color="rgb(13.606262%, 71.043396%, 38.874817%)" offset="0.820312"/><stop stop-opacity="1" stop-color="rgb(13.310242%, 70.906067%, 38.847351%)" offset="0.824219"/><stop stop-opacity="1" stop-color="rgb(13.014221%, 70.768738%, 38.819885%)" offset="0.828125"/><stop stop-opacity="1" stop-color="rgb(12.718201%, 70.629883%, 38.792419%)" offset="0.832031"/><stop stop-opacity="1" stop-color="rgb(12.42218%, 70.492554%, 38.764954%)" offset="0.835938"/><stop stop-opacity="1" stop-color="rgb(12.12616%, 70.353699%, 38.735962%)" offset="0.839844"/><stop stop-opacity="1" stop-color="rgb(11.831665%, 70.21637%, 38.708496%)" offset="0.84375"/><stop stop-opacity="1" stop-color="rgb(11.535645%, 70.079041%, 38.68103%)" offset="0.847656"/><stop stop-opacity="1" stop-color="rgb(11.239624%, 69.941711%, 38.653564%)" offset="0.851562"/><stop stop-opacity="1" stop-color="rgb(10.943604%, 69.802856%, 38.626099%)" offset="0.855469"/><stop stop-opacity="1" stop-color="rgb(10.649109%, 69.665527%, 38.598633%)" offset="0.859375"/><stop stop-opacity="1" stop-color="rgb(10.353088%, 69.526672%, 38.569641%)" offset="0.863281"/><stop stop-opacity="1" stop-color="rgb(10.057068%, 69.389343%, 38.542175%)" offset="0.867188"/><stop stop-opacity="1" stop-color="rgb(9.761047%, 69.250488%, 38.514709%)" offset="0.871094"/><stop stop-opacity="1" stop-color="rgb(9.466553%, 69.113159%, 38.487244%)" offset="0.875"/><stop stop-opacity="1" stop-color="rgb(9.170532%, 68.97583%, 38.459778%)" offset="0.878906"/><stop stop-opacity="1" stop-color="rgb(8.874512%, 68.838501%, 38.432312%)" offset="0.882812"/><stop stop-opacity="1" stop-color="rgb(8.578491%, 68.699646%, 38.40332%)" offset="0.886719"/><stop stop-opacity="1" stop-color="rgb(8.283997%, 68.562317%, 38.375854%)" offset="0.890625"/><stop stop-opacity="1" stop-color="rgb(7.987976%, 68.423462%, 38.348389%)" offset="0.894531"/><stop stop-opacity="1" stop-color="rgb(7.691956%, 68.286133%, 38.320923%)" offset="0.898438"/><stop stop-opacity="1" stop-color="rgb(7.395935%, 68.148804%, 38.293457%)" offset="0.902344"/><stop stop-opacity="1" stop-color="rgb(7.099915%, 68.011475%, 38.265991%)" offset="0.90625"/><stop stop-opacity="1" stop-color="rgb(6.803894%, 67.87262%, 38.237%)" offset="0.910156"/><stop stop-opacity="1" stop-color="rgb(6.509399%, 67.735291%, 38.209534%)" offset="0.914062"/><stop stop-opacity="1" stop-color="rgb(6.213379%, 67.596436%, 38.182068%)" offset="0.917969"/><stop stop-opacity="1" stop-color="rgb(5.917358%, 67.459106%, 38.154602%)" offset="0.921875"/><stop stop-opacity="1" stop-color="rgb(5.621338%, 67.320251%, 38.12561%)" offset="0.925781"/><stop stop-opacity="1" stop-color="rgb(5.326843%, 67.182922%, 38.098145%)" offset="0.929688"/><stop stop-opacity="1" stop-color="rgb(5.030823%, 67.045593%, 38.070679%)" offset="0.933594"/><stop stop-opacity="1" stop-color="rgb(4.734802%, 66.908264%, 38.043213%)" offset="0.9375"/><stop stop-opacity="1" stop-color="rgb(4.438782%, 66.769409%, 38.015747%)" offset="0.941406"/><stop stop-opacity="1" stop-color="rgb(4.144287%, 66.63208%, 37.988281%)" offset="0.945312"/><stop stop-opacity="1" stop-color="rgb(3.848267%, 66.493225%, 37.95929%)" offset="0.949219"/><stop stop-opacity="1" stop-color="rgb(3.552246%, 66.355896%, 37.931824%)" offset="0.953125"/><stop stop-opacity="1" stop-color="rgb(3.256226%, 66.217041%, 37.904358%)" offset="0.957031"/><stop stop-opacity="1" stop-color="rgb(2.961731%, 66.079712%, 37.876892%)" offset="0.960938"/><stop stop-opacity="1" stop-color="rgb(2.66571%, 65.942383%, 37.849426%)" offset="0.964844"/><stop stop-opacity="1" stop-color="rgb(2.36969%, 65.805054%, 37.82196%)" offset="0.96875"/><stop stop-opacity="1" stop-color="rgb(2.073669%, 65.666199%, 37.792969%)" offset="0.972656"/><stop stop-opacity="1" stop-color="rgb(1.777649%, 65.52887%, 37.765503%)" offset="0.976562"/><stop stop-opacity="1" stop-color="rgb(1.481628%, 65.390015%, 37.738037%)" offset="0.980469"/><stop stop-opacity="1" stop-color="rgb(1.187134%, 65.252686%, 37.710571%)" offset="0.984375"/><stop stop-opacity="1" stop-color="rgb(0.891113%, 65.115356%, 37.683105%)" offset="0.988281"/><stop stop-opacity="1" stop-color="rgb(0.595093%, 64.978027%, 37.65564%)" offset="0.992188"/><stop stop-opacity="1" stop-color="rgb(0.299072%, 64.839172%, 37.626648%)" offset="0.996094"/><stop stop-opacity="1" stop-color="rgb(0.00457764%, 64.701843%, 37.599182%)" offset="1"/></linearGradient><clipPath id="6d8fed3d44"><path d="M 56 0 L 580 0 L 580 157 L 56 157 Z M 56 0 " clip-rule="nonzero"/></clipPath></defs><g clip-path="url(#f9559a9aa7)"><g clip-path="url(#19210a7fad)"><path fill="url(#02da59c6bc)" d="M 19.5 0 L 19.5 156.386719 L 617.5625 156.386719 L 617.5625 0 Z M 19.5 0 " fill-rule="nonzero"/></g></g><g clip-path="url(#6d8fed3d44)"><path stroke-linecap="butt" transform="matrix(0.747627, 0, 0, 0.747627, 19.501194, 43.429182)" fill="none" stroke-linejoin="miter" d="M 167.821161 70.667016 C 164.263026 70.667016 160.778039 70.060931 157.360975 68.843537 C 153.938687 67.620918 150.82989 65.73474 148.018911 63.195454 L 154.090208 55.938113 C 156.227179 57.662319 158.411174 59.041684 160.647417 60.070983 C 162.89411 61.095058 165.349798 61.60187 168.019706 61.60187 C 170.156677 61.60187 171.81296 61.21523 172.98333 60.447174 C 174.16415 59.663444 174.754561 58.587121 174.754561 57.207756 L 174.754561 57.06146 C 174.754561 56.397901 174.629164 55.812716 174.383595 55.305904 C 174.143251 54.793867 173.678238 54.318404 172.98333 53.87429 C 172.298873 53.424951 171.342722 52.980838 170.120103 52.536724 C 168.902708 52.09261 167.314349 51.627597 165.349798 51.136459 C 162.993383 50.561724 160.861637 49.92429 158.95456 49.218933 C 157.042258 48.503126 155.422549 47.620123 154.090208 46.580374 C 152.752642 45.530176 151.718118 44.229184 150.981411 42.677398 C 150.24993 41.115163 149.889414 39.176737 149.889414 36.867345 L 149.889414 36.736723 C 149.889414 34.599752 150.291729 32.677001 151.091134 30.973694 C 151.895763 29.259937 153.01911 27.786524 154.461173 26.548231 C 155.903237 25.299487 157.622219 24.343336 159.623343 23.685003 C 161.619243 23.010995 163.818912 22.676604 166.227576 22.676604 C 169.64464 22.676604 172.784785 23.183416 175.653238 24.202265 C 178.516465 25.221114 181.149799 26.689302 183.558463 28.596379 L 178.223873 36.344858 C 176.128701 34.913244 174.085777 33.789898 172.084653 32.974818 C 170.088753 32.149289 168.087629 31.736525 166.08128 31.736525 C 164.08538 31.736525 162.585843 32.12839 161.587893 32.91212 C 160.589944 33.680175 160.093581 34.646776 160.093581 35.806697 L 160.093581 35.937318 C 160.093581 36.694924 160.234653 37.353258 160.516795 37.907094 C 160.809388 38.46093 161.331875 38.957292 162.079031 39.406631 C 162.836637 39.850745 163.876385 40.273959 165.187827 40.671049 C 166.499269 41.073364 168.155552 41.543602 170.151452 42.071313 C 172.502642 42.693073 174.603039 43.393205 176.447418 44.17171 C 178.291796 44.944991 179.848807 45.875017 181.11845 46.97224 C 182.388093 48.059012 183.344243 49.339105 183.981677 50.812517 C 184.634786 52.27548 184.958728 54.031036 184.958728 56.068735 L 184.958728 56.199356 C 184.958728 58.508748 184.535513 60.567346 183.689085 62.3647 C 182.842656 64.16728 181.661836 65.682492 180.141399 66.910336 C 178.636637 68.122505 176.834058 69.057756 174.738886 69.70564 C 172.659388 70.348299 170.349997 70.667016 167.821161 70.667016 Z M 210.351586 70.797637 C 207.59808 70.797637 205.04312 70.322174 202.686705 69.366024 C 200.335514 68.409873 198.297815 67.103656 196.584059 65.442148 C 194.870302 63.77019 193.527511 61.816089 192.550461 59.569396 C 191.57341 57.322703 191.082273 54.914039 191.082273 52.343404 L 191.082273 52.197107 C 191.082273 49.626472 191.57341 47.217808 192.550461 44.971115 C 193.527511 42.724422 194.880752 40.759872 196.615408 39.077464 C 198.355289 37.384607 200.398212 36.052266 202.754628 35.075215 C 205.105818 34.098165 207.681678 33.612252 210.482208 33.612252 C 213.240938 33.612252 215.795898 34.087715 218.147089 35.043866 C 220.503504 35.994792 222.530753 37.311459 224.23406 38.983416 C 225.947817 40.6397 227.295833 42.5938 228.272883 44.840493 C 229.260383 47.087187 229.75152 49.495851 229.75152 52.066486 L 229.75152 52.197107 C 229.75152 54.778192 229.260383 57.192081 228.272883 59.438774 C 227.295833 61.685468 225.937367 63.655243 224.202711 65.3481 C 222.478504 67.025283 220.435581 68.357624 218.08439 69.334674 C 215.727975 70.311725 213.152115 70.797637 210.351586 70.797637 Z M 210.482208 62.072108 C 211.950395 62.072108 213.246163 61.821314 214.374734 61.309277 C 215.513755 60.78679 216.480356 60.086658 217.269311 59.20888 C 218.073941 58.320653 218.68525 57.286129 219.108464 56.100084 C 219.531679 54.919264 219.745898 53.665295 219.745898 52.343404 L 219.745898 52.197107 C 219.745898 50.859541 219.521229 49.605573 219.077115 48.435203 C 218.633001 47.254382 217.985118 46.209409 217.138689 45.295057 C 216.30271 44.38593 215.304761 43.664898 214.14484 43.131962 C 212.995369 42.599025 211.730951 42.332557 210.351586 42.332557 C 208.888623 42.332557 207.587631 42.588575 206.448609 43.100612 C 205.320038 43.607425 204.353437 44.307557 203.548808 45.195784 C 202.749403 46.089237 202.132869 47.123761 201.709654 48.304581 C 201.28644 49.480176 201.077445 50.72892 201.077445 52.066486 L 201.077445 52.197107 C 201.077445 53.529449 201.29689 54.788642 201.746228 55.969462 C 202.190342 57.145057 202.833001 58.184806 203.679429 59.093933 C 204.525858 60.008285 205.513358 60.734542 206.64193 61.277928 C 207.780951 61.810864 209.061043 62.072108 210.482208 62.072108 Z M 258.341998 70.667016 C 255.625067 70.667016 253.394048 70.134079 251.633267 69.073431 C 249.888162 67.997108 248.414749 66.748365 247.207804 65.327201 L 247.207804 69.998233 L 237.087235 69.998233 L 237.087235 21.339037 L 247.207804 21.339037 L 247.207804 39.406631 C 248.456548 37.713774 249.95086 36.323959 251.701191 35.237186 C 253.456746 34.150414 255.67209 33.612252 258.341998 33.612252 C 260.431945 33.612252 262.459194 34.009342 264.40807 34.813972 C 266.36217 35.608152 268.091601 36.794197 269.601588 38.377332 C 271.122025 39.950017 272.334194 41.883218 273.248546 44.17171 C 274.157673 46.460202 274.612237 49.093536 274.612237 52.066486 L 274.612237 52.197107 C 274.612237 55.180507 274.157673 57.813841 273.248546 60.107558 C 272.334194 62.39605 271.132475 64.329251 269.632937 65.917611 C 268.149075 67.490296 266.430093 68.676341 264.475993 69.480971 C 262.521892 70.269926 260.478969 70.667016 258.341998 70.667016 Z M 255.734789 62.072108 C 256.941733 62.072108 258.06508 61.842214 259.104829 61.371976 C 260.155027 60.906962 261.079829 60.238179 261.868784 59.370851 C 262.673413 58.503523 263.310847 57.474224 263.775861 56.282954 C 264.240874 55.07601 264.475993 53.712319 264.475993 52.197107 L 264.475993 52.066486 C 264.475993 50.598298 264.240874 49.260732 263.775861 48.043337 C 263.310847 46.820718 262.673413 45.77052 261.868784 44.903192 C 261.079829 44.035864 260.155027 43.367081 259.104829 42.902067 C 258.06508 42.437054 256.941733 42.201935 255.734789 42.201935 C 254.543519 42.201935 253.420172 42.437054 252.364749 42.902067 C 251.325 43.367081 250.415873 44.035864 249.632143 44.903192 C 248.864087 45.77052 248.242328 46.820718 247.777315 48.043337 C 247.312302 49.260732 247.077183 50.598298 247.077183 52.066486 L 247.077183 52.197107 C 247.077183 53.67052 247.312302 55.023761 247.777315 56.24638 C 248.242328 57.463774 248.864087 58.503523 249.632143 59.370851 C 250.415873 60.238179 251.325 60.906962 252.364749 61.371976 C 253.420172 61.842214 254.543519 62.072108 255.734789 62.072108 Z M 282.078573 34.27581 L 292.199142 34.27581 L 292.199142 41.470454 C 293.223216 39.03044 294.618256 37.07634 296.399936 35.613377 C 298.181616 34.134739 300.585055 33.471181 303.610254 33.612252 L 303.610254 44.20306 L 303.072092 44.20306 C 299.686378 44.20306 297.02692 45.232358 295.098944 47.280507 C 293.165743 49.318205 292.199142 52.494925 292.199142 56.800216 L 292.199142 69.998233 L 282.078573 69.998233 Z M 326.866141 70.797637 C 324.196233 70.797637 321.719646 70.353524 319.431154 69.465296 C 317.137437 68.571844 315.157212 67.307426 313.490479 65.672042 C 311.828971 64.020984 310.533204 62.077333 309.597952 59.846314 C 308.667926 57.599621 308.197688 55.096909 308.197688 52.343404 L 308.197688 52.197107 C 308.197688 49.668271 308.631352 47.270057 309.503905 45.002464 C 310.371233 42.734872 311.578177 40.759872 313.129963 39.077464 C 314.681749 37.384607 316.536577 36.052266 318.694447 35.075215 C 320.857543 34.098165 323.240083 33.612252 325.857741 33.612252 C 328.841141 33.612252 331.417001 34.139964 333.585321 35.205837 C 335.769316 36.266485 337.582345 37.698099 339.024409 39.500678 C 340.476922 41.303258 341.54802 43.367081 342.227253 45.702597 C 342.92216 48.032888 343.272226 50.472901 343.272226 53.006962 C 343.272226 53.398827 343.256552 53.816817 343.219978 54.26093 C 343.199078 54.705044 343.167729 55.175282 343.12593 55.661195 L 318.271233 55.661195 C 318.762371 57.975811 319.77077 59.720917 321.301657 60.901737 C 322.832543 62.072108 324.72917 62.662518 326.996763 62.662518 C 328.68962 62.662518 330.204832 62.37515 331.537173 61.79519 C 332.869514 61.220454 334.248879 60.290428 335.670043 58.999886 L 341.464422 64.141156 C 339.771565 66.225878 337.728641 67.856037 335.330427 69.042082 C 332.932213 70.212452 330.110784 70.797637 326.866141 70.797637 Z M 333.392001 49.33388 C 333.088959 47.066287 332.289554 45.232358 330.999011 43.832094 C 329.708469 42.431829 327.994712 41.731697 325.857741 41.731697 C 323.73122 41.731697 322.012239 42.42138 320.700797 43.800745 C 319.38413 45.174885 318.527252 47.019263 318.124937 49.33388 Z M 380.922625 70.667016 C 379.229767 70.667016 377.636183 70.431897 376.15232 69.966883 C 374.668458 69.50187 373.362241 68.801738 372.244119 67.866486 C 371.141672 66.93646 370.258669 65.792214 369.610786 64.433748 C 368.968127 63.080507 368.64941 61.507822 368.64941 59.731367 L 368.64941 59.600745 C 368.64941 57.646645 369.009926 55.959012 369.725733 54.537848 C 370.44154 53.116684 371.42904 51.941089 372.688233 51.005838 C 373.957876 50.075811 375.467863 49.375679 377.228643 48.910666 C 378.984199 48.440427 380.92785 48.210533 383.054371 48.210533 C 384.87785 48.210533 386.46621 48.34638 387.81945 48.612848 C 389.177916 48.874091 390.499808 49.229382 391.79035 49.673496 L 391.79035 49.072636 C 391.79035 46.935665 391.147691 45.310732 389.857149 44.20306 C 388.566606 43.084938 386.654305 42.531102 384.125469 42.531102 C 382.171368 42.531102 380.447162 42.698298 378.952849 43.032689 C 377.463762 43.367081 375.901527 43.847768 374.266143 44.464303 L 371.726857 36.736723 C 373.680958 35.890295 375.718656 35.200612 377.845177 34.667676 C 379.982148 34.134739 382.563233 33.868271 385.593657 33.868271 C 388.388961 33.868271 390.776726 34.218337 392.751726 34.913244 C 394.726726 35.597702 396.362109 36.585202 397.652652 37.875744 C 398.984993 39.208086 399.962043 40.843469 400.578578 42.771446 C 401.210787 44.704647 401.524279 46.867742 401.524279 49.265957 L 401.524279 69.998233 L 391.727652 69.998233 L 391.727652 66.126605 C 390.478908 67.505971 388.989821 68.608418 387.24994 69.428722 C 385.515284 70.254251 383.404437 70.667016 380.922625 70.667016 Z M 383.994847 63.670917 C 386.393061 63.670917 388.315813 63.096182 389.757876 61.946711 C 391.19994 60.781565 391.920972 59.271579 391.920972 57.401076 L 391.920972 55.598496 C 391.032744 55.196182 390.040019 54.877465 388.942797 54.637121 C 387.861249 54.386327 386.696104 54.26093 385.463035 54.26093 C 383.27904 54.26093 381.565283 54.684145 380.31654 55.530573 C 379.083471 56.377002 378.461712 57.599621 378.461712 59.193206 L 378.461712 59.339502 C 378.461712 60.718867 378.973749 61.78474 379.992598 62.547571 C 381.011447 63.294727 382.349014 63.670917 383.994847 63.670917 Z M 453.187773 70.797637 C 449.76026 70.797637 446.57309 70.181103 443.63149 68.942809 C 440.705564 67.694066 438.171503 65.990759 436.034532 63.832888 C 433.90801 61.675018 432.241278 59.130507 431.034333 56.199356 C 429.843063 53.268205 429.247428 50.138509 429.247428 46.810269 L 429.247428 46.663972 C 429.247428 43.330507 429.843063 40.21126 431.034333 37.306234 C 432.241278 34.395982 433.90801 31.841022 436.034532 29.641353 C 438.171503 27.436458 440.726463 25.707027 443.699413 24.447834 C 446.682813 23.178191 449.974479 22.545982 453.574413 22.545982 C 455.758408 22.545982 457.749083 22.723627 459.551662 23.078918 C 461.349017 23.428985 462.984401 23.914897 464.447364 24.547106 C 465.910327 25.163641 467.263567 25.916022 468.501861 26.809474 C 469.750605 27.697702 470.910525 28.674752 471.981623 29.7354 L 465.440089 37.26966 C 463.61661 35.623826 461.761781 34.333284 459.875604 33.398033 C 457.989427 32.468006 455.86813 31.997768 453.511715 31.997768 C 451.557614 31.997768 449.744585 32.379183 448.077852 33.136789 C 446.416344 33.89962 444.984731 34.944594 443.777786 36.276935 C 442.576066 37.604051 441.640815 39.145387 440.982482 40.900943 C 440.318923 42.656499 439.989757 44.537451 439.989757 46.533351 L 439.989757 46.663972 C 439.989757 48.670322 440.318923 50.561724 440.982482 52.343404 C 441.640815 54.109409 442.565617 55.661195 443.746437 56.998761 C 444.927257 58.331102 446.348421 59.386526 448.009929 60.170256 C 449.681887 60.953986 451.515815 61.340626 453.511715 61.340626 C 456.181623 61.340626 458.438765 60.854714 460.283144 59.877663 C 462.127522 58.890163 463.961451 57.557822 465.78493 55.875414 L 472.31079 62.463973 C 471.114295 63.754515 469.870777 64.909211 468.580234 65.933285 C 467.289692 66.952135 465.873753 67.829912 464.332416 68.566619 C 462.806755 69.303325 461.129572 69.857161 459.306094 70.228127 C 457.482615 70.609542 455.444916 70.797637 453.187773 70.797637 Z M 479.902523 21.339037 L 490.043992 21.339037 L 490.043992 69.998233 L 479.902523 69.998233 Z M 499.772696 21.339037 L 510.431426 21.339037 L 510.431426 30.341485 L 499.772696 30.341485 Z M 500.033939 34.27581 L 510.170183 34.27581 L 510.170183 69.998233 L 500.033939 69.998233 Z M 519.710792 34.27581 L 529.831361 34.27581 L 529.831361 39.338707 C 530.406097 38.581102 531.033081 37.86007 531.717538 37.175612 C 532.412446 36.480705 533.185726 35.869395 534.032155 35.336459 C 534.878583 34.803522 535.80861 34.385533 536.827459 34.08249 C 537.846308 33.768998 539.006229 33.612252 540.296772 33.612252 C 544.168399 33.612252 547.157023 34.787847 549.262645 37.144263 C 551.378716 39.495453 552.43414 42.740096 552.43414 46.872967 L 552.43414 69.998233 L 542.297896 69.998233 L 542.297896 50.065361 C 542.297896 47.667147 541.759735 45.859343 540.688637 44.641948 C 539.622764 43.419329 538.112777 42.80802 536.163901 42.80802 C 534.2098 42.80802 532.663239 43.419329 531.524218 44.641948 C 530.395647 45.859343 529.831361 47.667147 529.831361 50.065361 L 529.831361 69.998233 L 519.710792 69.998233 Z M 561.692606 34.27581 L 571.82885 34.27581 L 571.82885 69.998233 L 561.692606 69.998233 Z M 570.235265 18.538508 L 578.955569 22.331762 L 570.297963 30.341485 L 562.831627 30.341485 Z M 598.224882 70.797637 C 595.554975 70.797637 593.078387 70.311725 590.789895 69.334674 C 588.501403 68.357624 586.531628 67.035732 584.88057 65.379449 C 583.239961 63.707492 581.954644 61.748166 581.024617 59.501473 C 580.089366 57.25478 579.624353 54.87224 579.624353 52.343404 L 579.624353 52.197107 C 579.624353 49.668271 580.089366 47.270057 581.024617 45.002464 C 581.954644 42.734872 583.239961 40.759872 584.88057 39.077464 C 586.531628 37.384607 588.501403 36.052266 590.789895 35.075215 C 593.078387 34.098165 595.601999 33.612252 598.355504 33.612252 C 601.730769 33.612252 604.531298 34.139964 606.751867 35.205837 C 608.977661 36.266485 610.936986 37.734673 612.629843 39.599951 L 606.427925 46.272107 C 605.268004 45.065163 604.07151 44.114237 602.848891 43.40888 C 601.631496 42.693073 600.11106 42.332557 598.292806 42.332557 C 597.002263 42.332557 595.831893 42.588575 594.792144 43.100612 C 593.752395 43.607425 592.838044 44.307557 592.059538 45.195784 C 591.275808 46.089237 590.674948 47.123761 590.251734 48.304581 C 589.82852 49.480176 589.6143 50.72892 589.6143 52.066486 L 589.6143 52.197107 C 589.6143 53.571248 589.82852 54.867015 590.251734 56.068735 C 590.674948 57.275679 591.286258 58.320653 592.090887 59.20888 C 592.895517 60.086658 593.846443 60.78679 594.954115 61.309277 C 596.072237 61.821314 597.315755 62.072108 598.679446 62.072108 C 600.372303 62.072108 601.856166 61.732491 603.125809 61.048034 C 604.395451 60.353126 605.64942 59.428325 606.882489 58.268404 L 612.823163 64.271777 C 611.088507 66.178854 609.108282 67.746314 606.882489 68.974158 C 604.66192 70.191553 601.772568 70.797637 598.224882 70.797637 Z M 629.547966 70.667016 C 627.855108 70.667016 626.266749 70.431897 624.782886 69.966883 C 623.293799 69.50187 621.992807 68.801738 620.874685 67.866486 C 619.767013 66.93646 618.889235 65.792214 618.236127 64.433748 C 617.598693 63.080507 617.279976 61.507822 617.279976 59.731367 L 617.279976 59.600745 C 617.279976 57.646645 617.635267 55.959012 618.351074 54.537848 C 619.066881 53.116684 620.054381 51.941089 621.313574 51.005838 C 622.583217 50.075811 624.098428 49.375679 625.853984 48.910666 C 627.614765 48.440427 629.553191 48.210533 631.679712 48.210533 C 633.503191 48.210533 635.091551 48.34638 636.450016 48.612848 C 637.803257 48.874091 639.130374 49.229382 640.420916 49.673496 L 640.420916 49.072636 C 640.420916 46.935665 639.773032 45.310732 638.48249 44.20306 C 637.191948 43.084938 635.284871 42.531102 632.756035 42.531102 C 630.801934 42.531102 629.077728 42.698298 627.57819 43.032689 C 626.094328 43.367081 624.532092 43.847768 622.891484 44.464303 L 620.352198 36.736723 C 622.306299 35.890295 624.343997 35.200612 626.470518 34.667676 C 628.612714 34.134739 631.193799 33.868271 634.218998 33.868271 C 637.019527 33.868271 639.407292 34.218337 641.382292 34.913244 C 643.357292 35.597702 644.98745 36.585202 646.277993 37.875744 C 647.615559 39.208086 648.587384 40.843469 649.209144 42.771446 C 649.836128 44.704647 650.154845 46.867742 650.154845 49.265957 L 650.154845 69.998233 L 640.352993 69.998233 L 640.352993 66.126605 C 639.109474 67.505971 637.615162 68.608418 635.880506 69.428722 C 634.14585 70.254251 632.035003 70.667016 629.547966 70.667016 Z M 632.625413 63.670917 C 635.023627 63.670917 636.941154 63.096182 638.388442 61.946711 C 639.830506 60.781565 640.551538 59.271579 640.551538 57.401076 L 640.551538 55.598496 C 639.66331 55.196182 638.670585 54.877465 637.573363 54.637121 C 636.48659 54.386327 635.32667 54.26093 634.088376 54.26093 C 631.909606 54.26093 630.195849 54.684145 628.947106 55.530573 C 627.708812 56.377002 627.092278 57.599621 627.092278 59.193206 L 627.092278 59.339502 C 627.092278 60.718867 627.59909 61.78474 628.623164 62.547571 C 629.642013 63.294727 630.974355 63.670917 632.625413 63.670917 Z M 632.625413 63.670917 " stroke="#ffffff" stroke-width="17.50001" stroke-opacity="1" stroke-miterlimit="4"/></g><g fill="#000000" fill-opacity="1"><g transform="translate(128.374311, 95.76304)"><g><path d="M 16.59375 0.5 C 13.9375 0.5 11.328125 0.0390625 8.765625 -0.875 C 6.210938 -1.789062 3.890625 -3.191406 1.796875 -5.078125 L 6.328125 -10.515625 C 7.921875 -9.222656 9.554688 -8.191406 11.234375 -7.421875 C 12.910156 -6.660156 14.75 -6.28125 16.75 -6.28125 C 18.34375 -6.28125 19.578125 -6.570312 20.453125 -7.15625 C 21.335938 -7.738281 21.78125 -8.539062 21.78125 -9.5625 L 21.78125 -9.671875 C 21.78125 -10.171875 21.6875 -10.609375 21.5 -10.984375 C 21.320312 -11.367188 20.972656 -11.726562 20.453125 -12.0625 C 19.941406 -12.394531 19.226562 -12.726562 18.3125 -13.0625 C 17.40625 -13.394531 16.21875 -13.742188 14.75 -14.109375 C 12.988281 -14.535156 11.394531 -15.015625 9.96875 -15.546875 C 8.539062 -16.078125 7.328125 -16.734375 6.328125 -17.515625 C 5.328125 -18.296875 4.550781 -19.269531 4 -20.4375 C 3.457031 -21.601562 3.1875 -23.046875 3.1875 -24.765625 L 3.1875 -24.875 C 3.1875 -26.46875 3.484375 -27.90625 4.078125 -29.1875 C 4.679688 -30.46875 5.519531 -31.570312 6.59375 -32.5 C 7.675781 -33.425781 8.960938 -34.140625 10.453125 -34.640625 C 11.953125 -35.140625 13.601562 -35.390625 15.40625 -35.390625 C 17.957031 -35.390625 20.304688 -35.003906 22.453125 -34.234375 C 24.597656 -33.472656 26.566406 -32.378906 28.359375 -30.953125 L 24.375 -25.171875 C 22.8125 -26.234375 21.28125 -27.070312 19.78125 -27.6875 C 18.289062 -28.300781 16.796875 -28.609375 15.296875 -28.609375 C 13.804688 -28.609375 12.6875 -28.316406 11.9375 -27.734375 C 11.1875 -27.148438 10.8125 -26.425781 10.8125 -25.5625 L 10.8125 -25.46875 C 10.8125 -24.90625 10.921875 -24.414062 11.140625 -24 C 11.359375 -23.582031 11.75 -23.207031 12.3125 -22.875 C 12.875 -22.539062 13.644531 -22.222656 14.625 -21.921875 C 15.601562 -21.628906 16.84375 -21.285156 18.34375 -20.890625 C 20.101562 -20.421875 21.671875 -19.894531 23.046875 -19.3125 C 24.429688 -18.726562 25.597656 -18.03125 26.546875 -17.21875 C 27.492188 -16.40625 28.207031 -15.445312 28.6875 -14.34375 C 29.164062 -13.25 29.40625 -11.941406 29.40625 -10.421875 L 29.40625 -10.3125 C 29.40625 -8.582031 29.085938 -7.046875 28.453125 -5.703125 C 27.828125 -4.359375 26.945312 -3.226562 25.8125 -2.3125 C 24.6875 -1.40625 23.34375 -0.707031 21.78125 -0.21875 C 20.21875 0.257812 18.488281 0.5 16.59375 0.5 Z M 16.59375 0.5 "/></g></g></g><g fill="#000000" fill-opacity="1"><g transform="translate(160.268108, 95.76304)"><g><path d="M 16.5 0.59375 C 14.4375 0.59375 12.523438 0.238281 10.765625 -0.46875 C 9.003906 -1.1875 7.484375 -2.164062 6.203125 -3.40625 C 4.921875 -4.65625 3.914062 -6.117188 3.1875 -7.796875 C 2.457031 -9.472656 2.09375 -11.273438 2.09375 -13.203125 L 2.09375 -13.3125 C 2.09375 -15.238281 2.457031 -17.039062 3.1875 -18.71875 C 3.914062 -20.394531 4.925781 -21.863281 6.21875 -23.125 C 7.519531 -24.382812 9.050781 -25.378906 10.8125 -26.109375 C 12.570312 -26.847656 14.5 -27.21875 16.59375 -27.21875 C 18.65625 -27.21875 20.566406 -26.859375 22.328125 -26.140625 C 24.085938 -25.429688 25.609375 -24.453125 26.890625 -23.203125 C 28.171875 -21.953125 29.175781 -20.488281 29.90625 -18.8125 C 30.632812 -17.132812 31 -15.332031 31 -13.40625 L 31 -13.3125 C 31 -11.382812 30.632812 -9.582031 29.90625 -7.90625 C 29.175781 -6.226562 28.160156 -4.753906 26.859375 -3.484375 C 25.566406 -2.222656 24.039062 -1.226562 22.28125 -0.5 C 20.519531 0.226562 18.59375 0.59375 16.5 0.59375 Z M 16.59375 -5.9375 C 17.695312 -5.9375 18.671875 -6.125 19.515625 -6.5 C 20.359375 -6.882812 21.078125 -7.410156 21.671875 -8.078125 C 22.273438 -8.742188 22.734375 -9.515625 23.046875 -10.390625 C 23.367188 -11.273438 23.53125 -12.210938 23.53125 -13.203125 L 23.53125 -13.3125 C 23.53125 -14.300781 23.363281 -15.238281 23.03125 -16.125 C 22.695312 -17.007812 22.210938 -17.789062 21.578125 -18.46875 C 20.953125 -19.144531 20.207031 -19.679688 19.34375 -20.078125 C 18.476562 -20.484375 17.53125 -20.6875 16.5 -20.6875 C 15.40625 -20.6875 14.429688 -20.492188 13.578125 -20.109375 C 12.734375 -19.722656 12.007812 -19.195312 11.40625 -18.53125 C 10.8125 -17.875 10.351562 -17.101562 10.03125 -16.21875 C 9.71875 -15.34375 9.5625 -14.40625 9.5625 -13.40625 L 9.5625 -13.3125 C 9.5625 -12.3125 9.726562 -11.367188 10.0625 -10.484375 C 10.394531 -9.609375 10.878906 -8.828125 11.515625 -8.140625 C 12.148438 -7.460938 12.890625 -6.925781 13.734375 -6.53125 C 14.578125 -6.132812 15.53125 -5.9375 16.59375 -5.9375 Z M 16.59375 -5.9375 "/></g></g></g><g fill="#000000" fill-opacity="1"><g transform="translate(193.357918, 95.76304)"><g><path d="M 19.296875 0.5 C 17.265625 0.5 15.59375 0.101562 14.28125 -0.6875 C 12.96875 -1.488281 11.863281 -2.421875 10.96875 -3.484375 L 10.96875 0 L 3.390625 0 L 3.390625 -36.390625 L 10.96875 -36.390625 L 10.96875 -22.875 C 11.894531 -24.132812 13.015625 -25.171875 14.328125 -25.984375 C 15.640625 -26.804688 17.296875 -27.21875 19.296875 -27.21875 C 20.847656 -27.21875 22.351562 -26.914062 23.8125 -26.3125 C 25.28125 -25.71875 26.578125 -24.828125 27.703125 -23.640625 C 28.835938 -22.460938 29.742188 -21.019531 30.421875 -19.3125 C 31.109375 -17.601562 31.453125 -15.632812 31.453125 -13.40625 L 31.453125 -13.3125 C 31.453125 -11.082031 31.109375 -9.109375 30.421875 -7.390625 C 29.742188 -5.679688 28.847656 -4.238281 27.734375 -3.0625 C 26.617188 -1.882812 25.332031 -0.992188 23.875 -0.390625 C 22.414062 0.203125 20.890625 0.5 19.296875 0.5 Z M 17.34375 -5.9375 C 18.238281 -5.9375 19.078125 -6.109375 19.859375 -6.453125 C 20.640625 -6.804688 21.328125 -7.304688 21.921875 -7.953125 C 22.523438 -8.597656 23 -9.367188 23.34375 -10.265625 C 23.695312 -11.160156 23.875 -12.175781 23.875 -13.3125 L 23.875 -13.40625 C 23.875 -14.5 23.695312 -15.503906 23.34375 -16.421875 C 23 -17.335938 22.523438 -18.117188 21.921875 -18.765625 C 21.328125 -19.410156 20.640625 -19.90625 19.859375 -20.25 C 19.078125 -20.601562 18.238281 -20.78125 17.34375 -20.78125 C 16.445312 -20.78125 15.609375 -20.601562 14.828125 -20.25 C 14.046875 -19.90625 13.363281 -19.410156 12.78125 -18.765625 C 12.195312 -18.117188 11.726562 -17.335938 11.375 -16.421875 C 11.03125 -15.503906 10.859375 -14.5 10.859375 -13.40625 L 10.859375 -13.3125 C 10.859375 -12.207031 11.03125 -11.195312 11.375 -10.28125 C 11.726562 -9.375 12.195312 -8.597656 12.78125 -7.953125 C 13.363281 -7.304688 14.046875 -6.804688 14.828125 -6.453125 C 15.609375 -6.109375 16.445312 -5.9375 17.34375 -5.9375 Z M 17.34375 -5.9375 "/></g></g></g><g fill="#000000" fill-opacity="1"><g transform="translate(226.995911, 95.76304)"><g><path d="M 3.390625 -26.71875 L 10.96875 -26.71875 L 10.96875 -21.328125 C 11.726562 -23.160156 12.769531 -24.625 14.09375 -25.71875 C 15.425781 -26.8125 17.222656 -27.3125 19.484375 -27.21875 L 19.484375 -19.296875 L 19.09375 -19.296875 C 16.5625 -19.296875 14.570312 -18.53125 13.125 -17 C 11.6875 -15.46875 10.96875 -13.09375 10.96875 -9.875 L 10.96875 0 L 3.390625 0 Z M 3.390625 -26.71875 "/></g></g></g><g fill="#000000" fill-opacity="1"><g transform="translate(247.826543, 95.76304)"><g><path d="M 16.046875 0.59375 C 14.054688 0.59375 12.203125 0.265625 10.484375 -0.390625 C 8.773438 -1.054688 7.296875 -2.003906 6.046875 -3.234375 C 4.804688 -4.460938 3.835938 -5.914062 3.140625 -7.59375 C 2.441406 -9.28125 2.09375 -11.148438 2.09375 -13.203125 L 2.09375 -13.3125 C 2.09375 -15.207031 2.414062 -17 3.0625 -18.6875 C 3.707031 -20.382812 4.613281 -21.863281 5.78125 -23.125 C 6.945312 -24.382812 8.332031 -25.378906 9.9375 -26.109375 C 11.550781 -26.847656 13.335938 -27.21875 15.296875 -27.21875 C 17.523438 -27.21875 19.453125 -26.816406 21.078125 -26.015625 C 22.710938 -25.222656 24.066406 -24.148438 25.140625 -22.796875 C 26.222656 -21.453125 27.019531 -19.90625 27.53125 -18.15625 C 28.050781 -16.414062 28.3125 -14.597656 28.3125 -12.703125 C 28.3125 -12.410156 28.300781 -12.097656 28.28125 -11.765625 C 28.269531 -11.429688 28.25 -11.082031 28.21875 -10.71875 L 9.625 -10.71875 C 9.988281 -8.988281 10.742188 -7.679688 11.890625 -6.796875 C 13.035156 -5.921875 14.457031 -5.484375 16.15625 -5.484375 C 17.414062 -5.484375 18.539062 -5.695312 19.53125 -6.125 C 20.53125 -6.5625 21.5625 -7.257812 22.625 -8.21875 L 26.96875 -4.390625 C 25.707031 -2.828125 24.175781 -1.601562 22.375 -0.71875 C 20.582031 0.15625 18.472656 0.59375 16.046875 0.59375 Z M 20.9375 -15.453125 C 20.695312 -17.148438 20.09375 -18.519531 19.125 -19.5625 C 18.164062 -20.613281 16.890625 -21.140625 15.296875 -21.140625 C 13.703125 -21.140625 12.414062 -20.625 11.4375 -19.59375 C 10.457031 -18.5625 9.816406 -17.179688 9.515625 -15.453125 Z M 20.9375 -15.453125 "/></g></g></g><g fill="#000000" fill-opacity="1"><g transform="translate(278.374816, 95.76304)"><g/></g></g><g fill="#000000" fill-opacity="1"><g transform="translate(293.32503, 95.76304)"><g><path d="M 10.96875 0.5 C 9.707031 0.5 8.519531 0.328125 7.40625 -0.015625 C 6.289062 -0.367188 5.316406 -0.894531 4.484375 -1.59375 C 3.648438 -2.289062 2.992188 -3.144531 2.515625 -4.15625 C 2.035156 -5.175781 1.796875 -6.347656 1.796875 -7.671875 L 1.796875 -7.78125 C 1.796875 -9.238281 2.0625 -10.5 2.59375 -11.5625 C 3.125 -12.625 3.863281 -13.503906 4.8125 -14.203125 C 5.757812 -14.898438 6.890625 -15.421875 8.203125 -15.765625 C 9.515625 -16.117188 10.96875 -16.296875 12.5625 -16.296875 C 13.925781 -16.296875 15.113281 -16.195312 16.125 -16 C 17.132812 -15.800781 18.125 -15.535156 19.09375 -15.203125 L 19.09375 -15.65625 C 19.09375 -17.25 18.609375 -18.457031 17.640625 -19.28125 C 16.679688 -20.113281 15.253906 -20.53125 13.359375 -20.53125 C 11.898438 -20.53125 10.613281 -20.40625 9.5 -20.15625 C 8.382812 -19.90625 7.210938 -19.550781 5.984375 -19.09375 L 4.09375 -24.875 C 5.550781 -25.5 7.078125 -26.007812 8.671875 -26.40625 C 10.265625 -26.8125 12.191406 -27.015625 14.453125 -27.015625 C 16.546875 -27.015625 18.332031 -26.753906 19.8125 -26.234375 C 21.289062 -25.722656 22.507812 -24.988281 23.46875 -24.03125 C 24.46875 -23.03125 25.203125 -21.804688 25.671875 -20.359375 C 26.140625 -18.910156 26.375 -17.289062 26.375 -15.5 L 26.375 0 L 19.046875 0 L 19.046875 -2.890625 C 18.109375 -1.859375 16.988281 -1.035156 15.6875 -0.421875 C 14.394531 0.191406 12.820312 0.5 10.96875 0.5 Z M 13.265625 -4.734375 C 15.054688 -4.734375 16.488281 -5.164062 17.5625 -6.03125 C 18.644531 -6.894531 19.1875 -8.023438 19.1875 -9.421875 L 19.1875 -10.765625 C 18.519531 -11.066406 17.78125 -11.304688 16.96875 -11.484375 C 16.15625 -11.671875 15.285156 -11.765625 14.359375 -11.765625 C 12.722656 -11.765625 11.441406 -11.445312 10.515625 -10.8125 C 9.585938 -10.1875 9.125 -9.273438 9.125 -8.078125 L 9.125 -7.96875 C 9.125 -6.945312 9.503906 -6.148438 10.265625 -5.578125 C 11.035156 -5.015625 12.035156 -4.734375 13.265625 -4.734375 Z M 13.265625 -4.734375 "/></g></g></g><g fill="#000000" fill-opacity="1"><g transform="translate(322.826801, 95.76304)"><g/></g></g><g fill="#000000" fill-opacity="1"><g transform="translate(337.777005, 95.76304)"><g><path d="M 20.53125 0.59375 C 17.976562 0.59375 15.601562 0.128906 13.40625 -0.796875 C 11.21875 -1.722656 9.320312 -2.992188 7.71875 -4.609375 C 6.125 -6.222656 4.878906 -8.125 3.984375 -10.3125 C 3.085938 -12.507812 2.640625 -14.851562 2.640625 -17.34375 L 2.640625 -17.453125 C 2.640625 -19.941406 3.085938 -22.273438 3.984375 -24.453125 C 4.878906 -26.628906 6.125 -28.535156 7.71875 -30.171875 C 9.320312 -31.816406 11.234375 -33.113281 13.453125 -34.0625 C 15.679688 -35.007812 18.140625 -35.484375 20.828125 -35.484375 C 22.460938 -35.484375 23.953125 -35.347656 25.296875 -35.078125 C 26.640625 -34.816406 27.859375 -34.453125 28.953125 -33.984375 C 30.054688 -33.523438 31.070312 -32.960938 32 -32.296875 C 32.925781 -31.628906 33.789062 -30.898438 34.59375 -30.109375 L 29.703125 -24.46875 C 28.335938 -25.695312 26.945312 -26.660156 25.53125 -27.359375 C 24.125 -28.054688 22.539062 -28.40625 20.78125 -28.40625 C 19.320312 -28.40625 17.96875 -28.125 16.71875 -27.5625 C 15.476562 -27 14.40625 -26.21875 13.5 -25.21875 C 12.601562 -24.21875 11.90625 -23.0625 11.40625 -21.75 C 10.914062 -20.4375 10.671875 -19.035156 10.671875 -17.546875 L 10.671875 -17.453125 C 10.671875 -15.953125 10.914062 -14.535156 11.40625 -13.203125 C 11.90625 -11.878906 12.59375 -10.71875 13.46875 -9.71875 C 14.351562 -8.71875 15.421875 -7.925781 16.671875 -7.34375 C 17.921875 -6.769531 19.289062 -6.484375 20.78125 -6.484375 C 22.78125 -6.484375 24.46875 -6.847656 25.84375 -7.578125 C 27.21875 -8.304688 28.585938 -9.300781 29.953125 -10.5625 L 34.84375 -5.625 C 33.945312 -4.664062 33.015625 -3.800781 32.046875 -3.03125 C 31.085938 -2.269531 30.035156 -1.613281 28.890625 -1.0625 C 27.742188 -0.519531 26.488281 -0.109375 25.125 0.171875 C 23.757812 0.453125 22.226562 0.59375 20.53125 0.59375 Z M 20.53125 0.59375 "/></g></g></g><g fill="#000000" fill-opacity="1"><g transform="translate(374.554536, 95.76304)"><g><path d="M 3.734375 -36.390625 L 11.3125 -36.390625 L 11.3125 0 L 3.734375 0 Z M 3.734375 -36.390625 "/></g></g></g><g fill="#000000" fill-opacity="1"><g transform="translate(389.604423, 95.76304)"><g><path d="M 3.53125 -36.390625 L 11.515625 -36.390625 L 11.515625 -29.65625 L 3.53125 -29.65625 Z M 3.734375 -26.71875 L 11.3125 -26.71875 L 11.3125 0 L 3.734375 0 Z M 3.734375 -26.71875 "/></g></g></g><g fill="#000000" fill-opacity="1"><g transform="translate(404.654309, 95.76304)"><g><path d="M 3.390625 -26.71875 L 10.96875 -26.71875 L 10.96875 -22.921875 C 11.394531 -23.492188 11.863281 -24.035156 12.375 -24.546875 C 12.894531 -25.066406 13.46875 -25.523438 14.09375 -25.921875 C 14.726562 -26.316406 15.425781 -26.628906 16.1875 -26.859375 C 16.957031 -27.097656 17.828125 -27.21875 18.796875 -27.21875 C 21.679688 -27.21875 23.910156 -26.335938 25.484375 -24.578125 C 27.066406 -22.816406 27.859375 -20.390625 27.859375 -17.296875 L 27.859375 0 L 20.28125 0 L 20.28125 -14.90625 C 20.28125 -16.695312 19.878906 -18.050781 19.078125 -18.96875 C 18.285156 -19.882812 17.160156 -20.34375 15.703125 -20.34375 C 14.234375 -20.34375 13.078125 -19.882812 12.234375 -18.96875 C 11.390625 -18.050781 10.96875 -16.695312 10.96875 -14.90625 L 10.96875 0 L 3.390625 0 Z M 3.390625 -26.71875 "/></g></g></g><g fill="#000000" fill-opacity="1"><g transform="translate(435.700934, 95.76304)"><g><path d="M 3.734375 -26.71875 L 11.3125 -26.71875 L 11.3125 0 L 3.734375 0 Z M 10.109375 -38.484375 L 16.640625 -35.640625 L 10.15625 -29.65625 L 4.578125 -29.65625 Z M 10.109375 -38.484375 "/></g></g></g><g fill="#000000" fill-opacity="1"><g transform="translate(450.750821, 95.76304)"><g><path d="M 16 0.59375 C 14.007812 0.59375 12.15625 0.226562 10.4375 -0.5 C 8.726562 -1.226562 7.257812 -2.210938 6.03125 -3.453125 C 4.800781 -4.703125 3.835938 -6.164062 3.140625 -7.84375 C 2.441406 -9.53125 2.09375 -11.316406 2.09375 -13.203125 L 2.09375 -13.3125 C 2.09375 -15.207031 2.441406 -17 3.140625 -18.6875 C 3.835938 -20.382812 4.800781 -21.863281 6.03125 -23.125 C 7.257812 -24.382812 8.726562 -25.378906 10.4375 -26.109375 C 12.15625 -26.847656 14.039062 -27.21875 16.09375 -27.21875 C 18.625 -27.21875 20.71875 -26.816406 22.375 -26.015625 C 24.039062 -25.222656 25.503906 -24.128906 26.765625 -22.734375 L 22.125 -17.75 C 21.257812 -18.644531 20.367188 -19.359375 19.453125 -19.890625 C 18.546875 -20.421875 17.410156 -20.6875 16.046875 -20.6875 C 15.085938 -20.6875 14.21875 -20.492188 13.4375 -20.109375 C 12.65625 -19.722656 11.972656 -19.195312 11.390625 -18.53125 C 10.804688 -17.875 10.351562 -17.101562 10.03125 -16.21875 C 9.71875 -15.34375 9.5625 -14.40625 9.5625 -13.40625 L 9.5625 -13.3125 C 9.5625 -12.28125 9.71875 -11.316406 10.03125 -10.421875 C 10.351562 -9.523438 10.8125 -8.742188 11.40625 -8.078125 C 12.007812 -7.410156 12.722656 -6.882812 13.546875 -6.5 C 14.378906 -6.125 15.3125 -5.9375 16.34375 -5.9375 C 17.613281 -5.9375 18.71875 -6.191406 19.65625 -6.703125 C 20.601562 -7.222656 21.546875 -7.910156 22.484375 -8.765625 L 26.921875 -4.28125 C 25.617188 -2.851562 24.132812 -1.679688 22.46875 -0.765625 C 20.8125 0.140625 18.65625 0.59375 16 0.59375 Z M 16 0.59375 "/></g></g></g><g fill="#000000" fill-opacity="1"><g transform="translate(479.206055, 95.76304)"><g><path d="M 10.96875 0.5 C 9.707031 0.5 8.519531 0.328125 7.40625 -0.015625 C 6.289062 -0.367188 5.316406 -0.894531 4.484375 -1.59375 C 3.648438 -2.289062 2.992188 -3.144531 2.515625 -4.15625 C 2.035156 -5.175781 1.796875 -6.347656 1.796875 -7.671875 L 1.796875 -7.78125 C 1.796875 -9.238281 2.0625 -10.5 2.59375 -11.5625 C 3.125 -12.625 3.863281 -13.503906 4.8125 -14.203125 C 5.757812 -14.898438 6.890625 -15.421875 8.203125 -15.765625 C 9.515625 -16.117188 10.96875 -16.296875 12.5625 -16.296875 C 13.925781 -16.296875 15.113281 -16.195312 16.125 -16 C 17.132812 -15.800781 18.125 -15.535156 19.09375 -15.203125 L 19.09375 -15.65625 C 19.09375 -17.25 18.609375 -18.457031 17.640625 -19.28125 C 16.679688 -20.113281 15.253906 -20.53125 13.359375 -20.53125 C 11.898438 -20.53125 10.613281 -20.40625 9.5 -20.15625 C 8.382812 -19.90625 7.210938 -19.550781 5.984375 -19.09375 L 4.09375 -24.875 C 5.550781 -25.5 7.078125 -26.007812 8.671875 -26.40625 C 10.265625 -26.8125 12.191406 -27.015625 14.453125 -27.015625 C 16.546875 -27.015625 18.332031 -26.753906 19.8125 -26.234375 C 21.289062 -25.722656 22.507812 -24.988281 23.46875 -24.03125 C 24.46875 -23.03125 25.203125 -21.804688 25.671875 -20.359375 C 26.140625 -18.910156 26.375 -17.289062 26.375 -15.5 L 26.375 0 L 19.046875 0 L 19.046875 -2.890625 C 18.109375 -1.859375 16.988281 -1.035156 15.6875 -0.421875 C 14.394531 0.191406 12.820312 0.5 10.96875 0.5 Z M 13.265625 -4.734375 C 15.054688 -4.734375 16.488281 -5.164062 17.5625 -6.03125 C 18.644531 -6.894531 19.1875 -8.023438 19.1875 -9.421875 L 19.1875 -10.765625 C 18.519531 -11.066406 17.78125 -11.304688 16.96875 -11.484375 C 16.15625 -11.671875 15.285156 -11.765625 14.359375 -11.765625 C 12.722656 -11.765625 11.441406 -11.445312 10.515625 -10.8125 C 9.585938 -10.1875 9.125 -9.273438 9.125 -8.078125 L 9.125 -7.96875 C 9.125 -6.945312 9.503906 -6.148438 10.265625 -5.578125 C 11.035156 -5.015625 12.035156 -4.734375 13.265625 -4.734375 Z M 13.265625 -4.734375 "/></g></g></g></svg>