<svg xmlns="http://www.w3.org/2000/svg" xmlns:xlink="http://www.w3.org/1999/xlink" width="641" zoomAndPan="magnify" viewBox="0 0 480.75 209.999996" height="280" preserveAspectRatio="xMidYMid meet" version="1.0"><defs><g/></defs><path fill="#7ed957" d="M 37.832031 153.160156 L 113.796875 153.160156 L 113.796875 162.90625 L 37.832031 162.90625 Z M 37.832031 153.160156 " fill-opacity="1" fill-rule="nonzero"/><g fill="#7ed957" fill-opacity="1"><g transform="translate(37.830233, 147.914076)"><g><path d="M 8.390625 -69.96875 L 23.78125 -69.96875 L 23.78125 -42.28125 L 52.171875 -42.28125 L 52.171875 -69.96875 L 67.5625 -69.96875 L 67.5625 0 L 52.171875 0 L 52.171875 -28.09375 L 23.78125 -28.09375 L 23.78125 0 L 8.390625 0 Z M 8.390625 -69.96875 "/></g></g></g><path fill="#00bf63" d="M 113.796875 153.160156 L 276.019531 153.160156 L 276.019531 162.90625 L 113.796875 162.90625 Z M 113.796875 153.160156 " fill-opacity="1" fill-rule="nonzero"/><g fill="#00bf63" fill-opacity="1"><g transform="translate(113.798537, 147.914076)"><g><path d="M 32.1875 1.203125 C 28.1875 1.203125 24.46875 0.535156 21.03125 -0.796875 C 17.601562 -2.128906 14.640625 -4.023438 12.140625 -6.484375 C 9.640625 -8.953125 7.691406 -11.867188 6.296875 -15.234375 C 4.898438 -18.609375 4.203125 -22.359375 4.203125 -26.484375 L 4.203125 -26.6875 C 4.203125 -30.488281 4.847656 -34.085938 6.140625 -37.484375 C 7.441406 -40.878906 9.257812 -43.84375 11.59375 -46.375 C 13.925781 -48.90625 16.707031 -50.90625 19.9375 -52.375 C 23.164062 -53.84375 26.75 -54.578125 30.6875 -54.578125 C 35.144531 -54.578125 39.003906 -53.773438 42.265625 -52.171875 C 45.535156 -50.578125 48.253906 -48.429688 50.421875 -45.734375 C 52.585938 -43.035156 54.1875 -39.9375 55.21875 -36.4375 C 56.25 -32.9375 56.765625 -29.285156 56.765625 -25.484375 C 56.765625 -24.890625 56.75 -24.257812 56.71875 -23.59375 C 56.6875 -22.925781 56.640625 -22.222656 56.578125 -21.484375 L 19.296875 -21.484375 C 20.023438 -18.023438 21.535156 -15.410156 23.828125 -13.640625 C 26.128906 -11.878906 28.984375 -11 32.390625 -11 C 34.921875 -11 37.1875 -11.429688 39.1875 -12.296875 C 41.1875 -13.160156 43.25 -14.5625 45.375 -16.5 L 54.078125 -8.796875 C 51.546875 -5.660156 48.476562 -3.207031 44.875 -1.4375 C 41.28125 0.320312 37.050781 1.203125 32.1875 1.203125 Z M 41.984375 -30.984375 C 41.515625 -34.378906 40.3125 -37.125 38.375 -39.21875 C 36.445312 -41.320312 33.882812 -42.375 30.6875 -42.375 C 27.488281 -42.375 24.90625 -41.34375 22.9375 -39.28125 C 20.96875 -37.21875 19.6875 -34.453125 19.09375 -30.984375 Z M 41.984375 -30.984375 "/></g></g></g><g fill="#00bf63" fill-opacity="1"><g transform="translate(175.06431, 147.914076)"><g><path d="M 21.984375 1 C 19.453125 1 17.070312 0.648438 14.84375 -0.046875 C 12.613281 -0.742188 10.664062 -1.789062 9 -3.1875 C 7.332031 -4.59375 6.015625 -6.3125 5.046875 -8.34375 C 4.078125 -10.375 3.59375 -12.722656 3.59375 -15.390625 L 3.59375 -15.59375 C 3.59375 -18.519531 4.125 -21.050781 5.1875 -23.1875 C 6.257812 -25.320312 7.742188 -27.085938 9.640625 -28.484375 C 11.546875 -29.878906 13.8125 -30.925781 16.4375 -31.625 C 19.070312 -32.332031 21.988281 -32.6875 25.1875 -32.6875 C 27.914062 -32.6875 30.296875 -32.484375 32.328125 -32.078125 C 34.367188 -31.679688 36.351562 -31.148438 38.28125 -30.484375 L 38.28125 -31.390625 C 38.28125 -34.585938 37.3125 -37.019531 35.375 -38.6875 C 33.445312 -40.351562 30.582031 -41.1875 26.78125 -41.1875 C 23.851562 -41.1875 21.269531 -40.9375 19.03125 -40.4375 C 16.800781 -39.9375 14.457031 -39.21875 12 -38.28125 L 8.203125 -49.875 C 11.128906 -51.144531 14.191406 -52.175781 17.390625 -52.96875 C 20.585938 -53.769531 24.453125 -54.171875 28.984375 -54.171875 C 33.179688 -54.171875 36.757812 -53.65625 39.71875 -52.625 C 42.6875 -51.59375 45.140625 -50.109375 47.078125 -48.171875 C 49.078125 -46.171875 50.539062 -43.722656 51.46875 -40.828125 C 52.40625 -37.929688 52.875 -34.679688 52.875 -31.078125 L 52.875 0 L 38.1875 0 L 38.1875 -5.796875 C 36.320312 -3.734375 34.085938 -2.082031 31.484375 -0.84375 C 28.890625 0.382812 25.722656 1 21.984375 1 Z M 26.59375 -9.5 C 30.1875 -9.5 33.066406 -10.363281 35.234375 -12.09375 C 37.398438 -13.820312 38.484375 -16.085938 38.484375 -18.890625 L 38.484375 -21.59375 C 37.148438 -22.1875 35.664062 -22.664062 34.03125 -23.03125 C 32.394531 -23.40625 30.644531 -23.59375 28.78125 -23.59375 C 25.519531 -23.59375 22.957031 -22.957031 21.09375 -21.6875 C 19.226562 -20.425781 18.296875 -18.59375 18.296875 -16.1875 L 18.296875 -16 C 18.296875 -13.925781 19.0625 -12.320312 20.59375 -11.1875 C 22.125 -10.0625 24.125 -9.5 26.59375 -9.5 Z M 26.59375 -9.5 "/></g></g></g><g fill="#00bf63" fill-opacity="1"><g transform="translate(234.231263, 147.914076)"><g><path d="M 6.796875 -53.578125 L 21.984375 -53.578125 L 21.984375 -42.78125 C 23.515625 -46.445312 25.613281 -49.378906 28.28125 -51.578125 C 30.945312 -53.773438 34.546875 -54.773438 39.078125 -54.578125 L 39.078125 -38.6875 L 38.28125 -38.6875 C 33.21875 -38.6875 29.234375 -37.148438 26.328125 -34.078125 C 23.429688 -31.015625 21.984375 -26.253906 21.984375 -19.796875 L 21.984375 0 L 6.796875 0 Z M 6.796875 -53.578125 "/></g></g></g><path fill="#7ed957" d="M 276.019531 153.160156 L 317.503906 153.160156 L 317.503906 162.90625 L 276.019531 162.90625 Z M 276.019531 153.160156 " fill-opacity="1" fill-rule="nonzero"/><g fill="#7ed957" fill-opacity="1"><g transform="translate(276.01886, 147.914076)"><g><path d="M 24.890625 0.90625 C 22.554688 0.90625 20.4375 0.65625 18.53125 0.15625 C 16.632812 -0.34375 15.003906 -1.222656 13.640625 -2.484375 C 12.273438 -3.753906 11.207031 -5.40625 10.4375 -7.4375 C 9.675781 -9.476562 9.296875 -12.0625 9.296875 -15.1875 L 9.296875 -40.578125 L 2.90625 -40.578125 L 2.90625 -53.578125 L 9.296875 -53.578125 L 9.296875 -67.265625 L 24.484375 -67.265625 L 24.484375 -53.578125 L 37.078125 -53.578125 L 37.078125 -40.578125 L 24.484375 -40.578125 L 24.484375 -17.6875 C 24.484375 -14.226562 26.117188 -12.5 29.390625 -12.5 C 32.054688 -12.5 34.550781 -13.128906 36.875 -14.390625 L 36.875 -2.203125 C 35.28125 -1.265625 33.515625 -0.515625 31.578125 0.046875 C 29.648438 0.617188 27.421875 0.90625 24.890625 0.90625 Z M 24.890625 0.90625 "/></g></g></g><g fill="#c1ff72" fill-opacity="1"><g transform="translate(317.505097, 147.914076)"><g><path d="M 6.796875 -53.578125 L 21.984375 -53.578125 L 21.984375 -45.984375 C 22.859375 -47.109375 23.8125 -48.1875 24.84375 -49.21875 C 25.875 -50.257812 27.019531 -51.175781 28.28125 -51.96875 C 29.550781 -52.769531 30.96875 -53.40625 32.53125 -53.875 C 34.101562 -54.34375 35.851562 -54.578125 37.78125 -54.578125 C 41.3125 -54.578125 44.359375 -53.84375 46.921875 -52.375 C 49.492188 -50.90625 51.476562 -48.804688 52.875 -46.078125 C 55.207031 -48.878906 57.804688 -50.992188 60.671875 -52.421875 C 63.535156 -53.859375 66.800781 -54.578125 70.46875 -54.578125 C 76.132812 -54.578125 80.566406 -52.910156 83.765625 -49.578125 C 86.960938 -46.242188 88.5625 -41.347656 88.5625 -34.890625 L 88.5625 0 L 73.359375 0 L 73.359375 -29.890625 C 73.359375 -33.484375 72.59375 -36.195312 71.0625 -38.03125 C 69.53125 -39.863281 67.332031 -40.78125 64.46875 -40.78125 C 61.601562 -40.78125 59.351562 -39.863281 57.71875 -38.03125 C 56.09375 -36.195312 55.28125 -33.484375 55.28125 -29.890625 L 55.28125 0 L 40.078125 0 L 40.078125 -29.890625 C 40.078125 -33.484375 39.3125 -36.195312 37.78125 -38.03125 C 36.25 -39.863281 34.050781 -40.78125 31.1875 -40.78125 C 28.320312 -40.78125 26.070312 -39.863281 24.4375 -38.03125 C 22.800781 -36.195312 21.984375 -33.484375 21.984375 -29.890625 L 21.984375 0 L 6.796875 0 Z M 6.796875 -53.578125 "/></g></g></g><g fill="#c1ff72" fill-opacity="1"><g transform="translate(412.452061, 147.914076)"><g><path d="M 7.5 -72.96875 L 22.6875 -72.96875 L 22.6875 0 L 7.5 0 Z M 7.5 -72.96875 "/></g></g></g><g fill="#00bf63" fill-opacity="1"><g transform="translate(38.480286, 66.445051)"><g><path d="M 14.890625 0.5 C 11.660156 0.5 8.84375 -0.0820312 6.4375 -1.25 C 4.039062 -2.414062 2.09375 -4.046875 0.59375 -6.140625 L 3.59375 -8.5 C 5.09375 -6.695312 6.742188 -5.335938 8.546875 -4.421875 C 10.347656 -3.503906 12.546875 -3.046875 15.140625 -3.046875 C 16.410156 -3.046875 17.582031 -3.210938 18.65625 -3.546875 C 19.738281 -3.878906 20.671875 -4.328125 21.453125 -4.890625 C 22.242188 -5.460938 22.863281 -6.144531 23.3125 -6.9375 C 23.757812 -7.738281 23.984375 -8.625 23.984375 -9.59375 C 23.984375 -10.257812 23.859375 -10.867188 23.609375 -11.421875 C 23.359375 -11.972656 22.957031 -12.492188 22.40625 -12.984375 C 21.863281 -13.484375 21.125 -13.972656 20.1875 -14.453125 C 19.25 -14.941406 18.117188 -15.453125 16.796875 -15.984375 C 15.191406 -16.617188 13.789062 -17.253906 12.59375 -17.890625 C 11.394531 -18.523438 10.394531 -19.195312 9.59375 -19.90625 C 8.789062 -20.625 8.191406 -21.425781 7.796875 -22.3125 C 7.398438 -23.195312 7.203125 -24.203125 7.203125 -25.328125 C 7.203125 -26.535156 7.425781 -27.6875 7.875 -28.78125 C 8.320312 -29.882812 8.992188 -30.867188 9.890625 -31.734375 C 11.054688 -32.898438 12.503906 -33.816406 14.234375 -34.484375 C 15.972656 -35.148438 17.925781 -35.484375 20.09375 -35.484375 C 22.820312 -35.484375 25.234375 -34.988281 27.328125 -34 C 29.429688 -33.019531 31.148438 -31.75 32.484375 -30.1875 L 29.578125 -27.578125 C 28.316406 -28.984375 26.875 -30.0625 25.25 -30.8125 C 23.632812 -31.5625 21.796875 -31.9375 19.734375 -31.9375 C 18.429688 -31.9375 17.253906 -31.769531 16.203125 -31.4375 C 15.160156 -31.101562 14.28125 -30.644531 13.5625 -30.0625 C 12.84375 -29.476562 12.289062 -28.816406 11.90625 -28.078125 C 11.53125 -27.347656 11.34375 -26.582031 11.34375 -25.78125 C 11.34375 -25.082031 11.484375 -24.445312 11.765625 -23.875 C 12.046875 -23.3125 12.503906 -22.78125 13.140625 -22.28125 C 13.773438 -21.78125 14.582031 -21.296875 15.5625 -20.828125 C 16.550781 -20.367188 17.726562 -19.875 19.09375 -19.34375 C 20.59375 -18.769531 21.90625 -18.175781 23.03125 -17.5625 C 24.164062 -16.945312 25.109375 -16.269531 25.859375 -15.53125 C 26.609375 -14.800781 27.171875 -13.992188 27.546875 -13.109375 C 27.929688 -12.234375 28.125 -11.226562 28.125 -10.09375 C 28.125 -8.757812 27.863281 -7.523438 27.34375 -6.390625 C 26.832031 -5.265625 26.144531 -4.25 25.28125 -3.34375 C 24.050781 -2.113281 22.546875 -1.164062 20.765625 -0.5 C 18.984375 0.164062 17.023438 0.5 14.890625 0.5 Z M 14.890625 0.5 "/></g></g></g><g fill="#00bf63" fill-opacity="1"><g transform="translate(70.308806, 66.445051)"><g><path d="M 14.1875 0.59375 C 12.425781 0.59375 10.820312 0.300781 9.375 -0.28125 C 7.925781 -0.863281 6.679688 -1.671875 5.640625 -2.703125 C 4.609375 -3.734375 3.816406 -4.957031 3.265625 -6.375 C 2.722656 -7.789062 2.453125 -9.332031 2.453125 -11 C 2.453125 -13.0625 2.859375 -15.023438 3.671875 -16.890625 C 4.484375 -18.753906 5.625 -20.40625 7.09375 -21.84375 C 8.488281 -23.238281 10.085938 -24.34375 11.890625 -25.15625 C 13.691406 -25.976562 15.609375 -26.390625 17.640625 -26.390625 C 19.398438 -26.390625 21.003906 -26.097656 22.453125 -25.515625 C 23.910156 -24.929688 25.15625 -24.128906 26.1875 -23.109375 C 27.21875 -22.097656 28.015625 -20.882812 28.578125 -19.46875 C 29.148438 -18.050781 29.4375 -16.507812 29.4375 -14.84375 C 29.4375 -12.78125 29.019531 -10.8125 28.1875 -8.9375 C 27.351562 -7.070312 26.21875 -5.410156 24.78125 -3.953125 C 23.382812 -2.546875 21.773438 -1.4375 19.953125 -0.625 C 18.140625 0.1875 16.21875 0.59375 14.1875 0.59375 Z M 14.4375 -2.84375 C 15.84375 -2.84375 17.175781 -3.132812 18.4375 -3.71875 C 19.707031 -4.300781 20.820312 -5.078125 21.78125 -6.046875 C 22.945312 -7.210938 23.851562 -8.546875 24.5 -10.046875 C 25.15625 -11.546875 25.484375 -13.09375 25.484375 -14.6875 C 25.484375 -17.320312 24.734375 -19.363281 23.234375 -20.8125 C 21.734375 -22.257812 19.785156 -22.984375 17.390625 -22.984375 C 15.992188 -22.984375 14.660156 -22.679688 13.390625 -22.078125 C 12.128906 -21.484375 11.015625 -20.703125 10.046875 -19.734375 C 8.910156 -18.597656 8.007812 -17.269531 7.34375 -15.75 C 6.675781 -14.238281 6.34375 -12.6875 6.34375 -11.09375 C 6.34375 -8.457031 7.09375 -6.421875 8.59375 -4.984375 C 10.09375 -3.554688 12.039062 -2.84375 14.4375 -2.84375 Z M 14.4375 -2.84375 "/></g></g></g><g fill="#00bf63" fill-opacity="1"><g transform="translate(102.137327, 66.445051)"><g><path d="M 15.9375 0.59375 C 14.601562 0.59375 13.421875 0.414062 12.390625 0.0625 C 11.359375 -0.28125 10.441406 -0.742188 9.640625 -1.328125 C 8.835938 -1.910156 8.160156 -2.582031 7.609375 -3.34375 C 7.066406 -4.113281 6.613281 -4.929688 6.25 -5.796875 L 4.703125 0 L 0.84375 0 L 10.640625 -36.484375 L 14.484375 -36.484375 L 10.390625 -21.390625 C 11.660156 -22.816406 13.085938 -24.003906 14.671875 -24.953125 C 16.253906 -25.910156 18.09375 -26.390625 20.1875 -26.390625 C 21.65625 -26.390625 23.015625 -26.128906 24.265625 -25.609375 C 25.515625 -25.085938 26.59375 -24.34375 27.5 -23.375 C 28.414062 -22.414062 29.132812 -21.257812 29.65625 -19.90625 C 30.175781 -18.5625 30.4375 -17.070312 30.4375 -15.4375 C 30.4375 -13.039062 30 -10.832031 29.125 -8.8125 C 28.257812 -6.800781 27.097656 -5.0625 25.640625 -3.59375 C 24.304688 -2.257812 22.804688 -1.226562 21.140625 -0.5 C 19.472656 0.226562 17.738281 0.59375 15.9375 0.59375 Z M 15.59375 -2.796875 C 16.988281 -2.796875 18.285156 -3.070312 19.484375 -3.625 C 20.679688 -4.175781 21.75 -4.898438 22.6875 -5.796875 C 23.851562 -6.960938 24.757812 -8.351562 25.40625 -9.96875 C 26.0625 -11.582031 26.390625 -13.289062 26.390625 -15.09375 C 26.390625 -16.289062 26.210938 -17.367188 25.859375 -18.328125 C 25.503906 -19.296875 25.003906 -20.128906 24.359375 -20.828125 C 23.710938 -21.535156 22.945312 -22.070312 22.0625 -22.4375 C 21.175781 -22.800781 20.1875 -22.984375 19.09375 -22.984375 C 17.6875 -22.984375 16.328125 -22.675781 15.015625 -22.0625 C 13.703125 -21.445312 12.507812 -20.601562 11.4375 -19.53125 C 10.269531 -18.363281 9.335938 -17.039062 8.640625 -15.5625 C 7.941406 -14.082031 7.59375 -12.507812 7.59375 -10.84375 C 7.59375 -9.707031 7.785156 -8.648438 8.171875 -7.671875 C 8.554688 -6.691406 9.097656 -5.84375 9.796875 -5.125 C 10.492188 -4.40625 11.332031 -3.835938 12.3125 -3.421875 C 13.300781 -3.003906 14.394531 -2.796875 15.59375 -2.796875 Z M 15.59375 -2.796875 "/></g></g></g><g fill="#00bf63" fill-opacity="1"><g transform="translate(135.065099, 66.445051)"><g><path d="M 7.75 -25.828125 L 11.59375 -25.828125 L 9.84375 -19.09375 C 10.644531 -20.21875 11.484375 -21.238281 12.359375 -22.15625 C 13.242188 -23.070312 14.203125 -23.847656 15.234375 -24.484375 C 16.273438 -25.117188 17.359375 -25.59375 18.484375 -25.90625 C 19.617188 -26.226562 20.835938 -26.351562 22.140625 -26.28125 L 21.03125 -22.140625 L 20.78125 -22.140625 C 19.382812 -22.140625 17.992188 -21.878906 16.609375 -21.359375 C 15.234375 -20.847656 13.953125 -20.09375 12.765625 -19.09375 C 11.585938 -18.09375 10.539062 -16.84375 9.625 -15.34375 C 8.707031 -13.84375 7.984375 -12.125 7.453125 -10.1875 L 4.703125 0 L 0.84375 0 Z M 7.75 -25.828125 "/></g></g></g><g fill="#00bf63" fill-opacity="1"><g transform="translate(155.151543, 66.445051)"><g><path d="M 6.296875 -11.59375 C 6.265625 -11.425781 6.25 -11.25 6.25 -11.0625 C 6.25 -10.882812 6.25 -10.710938 6.25 -10.546875 C 6.25 -9.378906 6.421875 -8.320312 6.765625 -7.375 C 7.117188 -6.425781 7.628906 -5.597656 8.296875 -4.890625 C 8.960938 -4.191406 9.757812 -3.648438 10.6875 -3.265625 C 11.625 -2.890625 12.691406 -2.703125 13.890625 -2.703125 C 15.554688 -2.703125 17.03125 -2.96875 18.3125 -3.5 C 19.59375 -4.03125 20.832031 -4.78125 22.03125 -5.75 L 23.984375 -3.25 C 22.648438 -2.113281 21.160156 -1.1875 19.515625 -0.46875 C 17.867188 0.238281 15.894531 0.59375 13.59375 0.59375 C 11.925781 0.59375 10.398438 0.328125 9.015625 -0.203125 C 7.640625 -0.734375 6.457031 -1.488281 5.46875 -2.46875 C 4.488281 -3.457031 3.734375 -4.625 3.203125 -5.96875 C 2.671875 -7.320312 2.40625 -8.796875 2.40625 -10.390625 C 2.40625 -12.554688 2.835938 -14.65625 3.703125 -16.6875 C 4.566406 -18.71875 5.765625 -20.5 7.296875 -22.03125 C 8.628906 -23.363281 10.148438 -24.421875 11.859375 -25.203125 C 13.578125 -25.992188 15.4375 -26.390625 17.4375 -26.390625 C 19.070312 -26.390625 20.515625 -26.117188 21.765625 -25.578125 C 23.015625 -25.046875 24.054688 -24.332031 24.890625 -23.4375 C 25.722656 -22.539062 26.351562 -21.488281 26.78125 -20.28125 C 27.21875 -19.082031 27.4375 -17.816406 27.4375 -16.484375 C 27.4375 -15.617188 27.351562 -14.773438 27.1875 -13.953125 C 27.019531 -13.140625 26.800781 -12.351562 26.53125 -11.59375 Z M 10.046875 -20.03125 C 9.273438 -19.269531 8.625 -18.421875 8.09375 -17.484375 C 7.5625 -16.554688 7.128906 -15.554688 6.796875 -14.484375 L 23.4375 -14.484375 C 23.601562 -14.984375 23.6875 -15.648438 23.6875 -16.484375 C 23.6875 -17.390625 23.5625 -18.238281 23.3125 -19.03125 C 23.0625 -19.832031 22.671875 -20.53125 22.140625 -21.125 C 21.609375 -21.726562 20.929688 -22.210938 20.109375 -22.578125 C 19.296875 -22.953125 18.335938 -23.140625 17.234375 -23.140625 C 15.804688 -23.140625 14.492188 -22.851562 13.296875 -22.28125 C 12.097656 -21.71875 11.015625 -20.96875 10.046875 -20.03125 Z M 10.046875 -20.03125 "/></g></g></g><g fill="#00bf63" fill-opacity="1"><g transform="translate(184.58168, 66.445051)"><g/></g></g><g fill="#00bf63" fill-opacity="1"><g transform="translate(199.571561, 66.445051)"><g><path d="M 9.140625 0.546875 C 8.046875 0.546875 7.003906 0.382812 6.015625 0.0625 C 5.035156 -0.25 4.171875 -0.703125 3.421875 -1.296875 C 2.671875 -1.898438 2.070312 -2.640625 1.625 -3.515625 C 1.175781 -4.398438 0.953125 -5.425781 0.953125 -6.59375 C 0.953125 -7.863281 1.164062 -9.015625 1.59375 -10.046875 C 2.03125 -11.078125 2.628906 -11.972656 3.390625 -12.734375 C 4.429688 -13.773438 5.722656 -14.566406 7.265625 -15.109375 C 8.816406 -15.660156 10.539062 -15.9375 12.4375 -15.9375 C 14.175781 -15.9375 15.828125 -15.796875 17.390625 -15.515625 C 18.953125 -15.234375 20.367188 -14.910156 21.640625 -14.546875 L 21.78125 -15.140625 C 21.882812 -15.503906 21.96875 -15.898438 22.03125 -16.328125 C 22.101562 -16.765625 22.140625 -17.164062 22.140625 -17.53125 C 22.140625 -19.238281 21.5625 -20.539062 20.40625 -21.4375 C 19.257812 -22.332031 17.503906 -22.78125 15.140625 -22.78125 C 13.742188 -22.78125 12.46875 -22.65625 11.3125 -22.40625 C 10.164062 -22.15625 9.007812 -21.832031 7.84375 -21.4375 L 7.203125 -24.640625 C 8.460938 -25.097656 9.773438 -25.46875 11.140625 -25.75 C 12.503906 -26.039062 14.035156 -26.1875 15.734375 -26.1875 C 19.003906 -26.1875 21.515625 -25.476562 23.265625 -24.0625 C 25.015625 -22.644531 25.890625 -20.6875 25.890625 -18.1875 C 25.890625 -17.09375 25.703125 -15.910156 25.328125 -14.640625 L 21.4375 0 L 17.6875 0 L 18.78125 -4.046875 C 17.582031 -2.648438 16.191406 -1.535156 14.609375 -0.703125 C 13.035156 0.128906 11.210938 0.546875 9.140625 0.546875 Z M 10.34375 -2.453125 C 11.445312 -2.453125 12.53125 -2.640625 13.59375 -3.015625 C 14.65625 -3.398438 15.644531 -3.925781 16.5625 -4.59375 C 17.476562 -5.257812 18.285156 -6.066406 18.984375 -7.015625 C 19.679688 -7.960938 20.179688 -9.003906 20.484375 -10.140625 L 20.984375 -11.9375 C 19.847656 -12.269531 18.5625 -12.546875 17.125 -12.765625 C 15.695312 -12.984375 14.1875 -13.09375 12.59375 -13.09375 C 11.257812 -13.09375 10.078125 -12.898438 9.046875 -12.515625 C 8.015625 -12.128906 7.164062 -11.601562 6.5 -10.9375 C 5.394531 -9.875 4.84375 -8.578125 4.84375 -7.046875 C 4.84375 -5.648438 5.332031 -4.535156 6.3125 -3.703125 C 7.300781 -2.867188 8.644531 -2.453125 10.34375 -2.453125 Z M 10.34375 -2.453125 "/></g></g></g></svg>